<svg width="126" height="126" viewBox="0 0 126 126" fill="none" xmlns="http://www.w3.org/2000/svg">
<rect width="126" height="126" rx="12" fill="white"/>
<path d="M32.2718 93.1183C27.329 93.4897 20.0039 89.0313 20.0039 89.0313C25.0515 94.4348 26.6103 104.692 32.2718 105.68C37.6478 106.619 39.8848 97.759 45.2834 97.4085C51.3002 97.0178 53.9497 105.363 59.9679 105.68C66.611 106.031 69.6869 97.9769 76.3252 97.4085C83.6944 96.7774 87.6817 107.654 94.8085 104.293C100.508 101.606 106.995 85.7579 106.995 85.7579C106.995 85.7579 99.1483 91.9584 93.5826 92.7068C86.5733 93.6494 83.3541 85.5704 76.3252 85.7579C69.6441 85.9361 66.6464 92.0913 59.9679 91.7192C53.9106 91.3818 51.3392 86.3674 45.2834 86.7815C39.8413 87.1535 37.7131 92.7095 32.2718 93.1183Z" fill="#009AA6"/>
<path d="M23.7834 73.4323L27.3286 83.4565C27.8177 84.8395 29.2875 85.6143 30.7049 85.2363C30.7049 85.2363 39.2375 81.2818 45.0363 81.3476C51.032 81.4156 54.1057 85.2074 59.6763 85.2363C65.9996 85.2692 69.0839 80.5982 75.0102 80.5264C80.8868 80.4551 89.3357 85.1363 89.3357 85.1363C90.6261 85.5813 92.0497 85.0355 92.7119 83.842L106.643 58.7341C107.367 57.4291 106.945 55.7857 105.683 54.9901L95.1085 48.3268C94.4293 47.8989 93.5997 47.7815 92.8285 48.0043L60.5395 57.3322C60.0464 57.4747 59.6016 57.7494 59.2535 58.1266L53.5786 64.2745C53.1609 64.727 52.6062 65.0299 51.9997 65.1367L25.9472 69.7246C24.235 70.0262 23.2038 71.7933 23.7834 73.4323Z" fill="#0841E2"/>
<path d="M50.0169 59.0383L38.5651 61.1774C36.8348 61.5005 35.2362 60.1729 35.2362 58.4127L35.2362 39.769C35.2362 38.9734 35.5731 38.2151 36.1635 37.6818L40.3326 33.9161C40.8495 33.4492 41.5213 33.1908 42.2178 33.1908H72.1977C73.751 33.1908 75.0102 34.45 75.0102 36.0033V45.5814C75.0102 46.8139 74.2077 47.9028 73.0305 48.2678L56.6779 53.3371C56.22 53.479 55.8059 53.7357 55.475 54.0827L51.5362 58.2143C51.1288 58.6416 50.5973 58.9299 50.0169 59.0383Z" fill="#0841E2"/>
<path d="M49.8897 23.0625V26.1916C49.8897 27.7449 51.149 29.0041 52.7023 29.0041H59.4472C61.0005 29.0041 62.2597 27.7449 62.2597 26.1916V23.0625C62.2597 21.5092 61.0005 20.25 59.4472 20.25H52.7022C51.149 20.25 49.8897 21.5092 49.8897 23.0625Z" fill="#0841E2"/>
</svg>
