<svg width="24" height="25" viewBox="0 0 24 25" fill="none" xmlns="http://www.w3.org/2000/svg">
<g clip-path="url(#clip0_8433_34232)">
<path d="M9.53222 7.77515L10.6523 9.17268C11.3919 9.76146 12.6054 9.76146 13.3449 9.17268L14.4687 7.77515M12.4171 13.8904V23.3191M12.4171 23.3191C9.41542 23.4647 3.37719 21.9725 3.2373 14.8385H4.73422M12.4171 23.3191C15.4187 23.4647 21.4569 21.9725 21.5968 14.8385H19.5993M14.5924 13.6349H9.4121C7.25802 13.6349 5.82197 12.5579 5.82197 10.0448V8.0186C5.82197 5.50551 7.25802 4.42847 9.4121 4.42847H14.5924C16.7464 4.42847 18.1825 5.50551 18.1825 8.0186V10.0448C18.1825 12.5579 16.7464 13.6349 14.5924 13.6349Z" stroke="white" stroke-width="1.5" stroke-linecap="round" stroke-linejoin="round"/>
<path d="M12.002 4.0376C12.6554 4.0376 13.1851 3.5079 13.1851 2.85449C13.1851 2.20108 12.6554 1.67139 12.002 1.67139C11.3485 1.67139 10.8188 2.20108 10.8188 2.85449C10.8188 3.5079 11.3485 4.0376 12.002 4.0376Z" stroke="white" stroke-width="1.5" stroke-linecap="round" stroke-linejoin="round"/>
</g>
<defs>
<clipPath id="clip0_8433_34232">
<rect width="23.9963" height="24" fill="white" transform="translate(0.00390625 0.5)"/>
</clipPath>
</defs>
</svg>
