<svg width="25" height="24" viewBox="0 0 25 24" fill="none" xmlns="http://www.w3.org/2000/svg">
<path d="M14.002 18.1567H24.002M19.002 23.1567V13.1567" stroke="white" stroke-width="1.5" stroke-linecap="round" stroke-linejoin="round"/>
<path d="M2.00146 2H3.7412C4.82103 2 5.6709 2.93 5.58091 4L4.75104 13.96C4.61106 15.59 5.90085 16.99 7.5406 16.99H10.4764M5.82088 3.87H18.7289C20.3986 3.87 21.6584 5.22 21.5384 6.88L21.2685 10.63M9.00038 8H21.4578M9.5003 20.75C9.5003 21.4404 8.94074 22 8.25049 22C7.56024 22 7.00069 21.4404 7.00069 20.75C7.00069 20.0596 7.56024 19.5 8.25049 19.5C8.94074 19.5 9.5003 20.0596 9.5003 20.75Z" stroke="white" stroke-width="1.5" stroke-miterlimit="10" stroke-linecap="round" stroke-linejoin="round"/>
</svg>
