<svg width="18" height="19" viewBox="0 0 18 19" fill="none" xmlns="http://www.w3.org/2000/svg">
<path d="M4.50024 12.2627C3.67169 12.2627 3.00001 12.9344 3.00001 13.7629V13.7629C3 15.8343 4.6792 17.5135 6.75059 17.5135H11.2494C13.3208 17.5135 15 15.8343 15 13.7629V13.7629C15 12.9344 14.3283 12.2627 13.4998 12.2627H8.8476L4.50024 12.2627Z" stroke="#0D2237" stroke-width="1.5" stroke-linecap="round" stroke-linejoin="round"/>
<path d="M8.99981 3.51349H6.99356C5.78981 3.51349 4.9873 4.04299 4.9873 5.27848V7.74947C4.9873 8.98496 5.78981 9.51445 6.99356 9.51445H11.0061C12.2098 9.51445 13.0123 8.98496 13.0123 7.74947V5.27848C13.0123 4.04299 12.2098 3.51349 11.0061 3.51349H8.99981ZM8.99981 3.51349V1.48682" stroke="#0D2237" stroke-width="1.5" stroke-miterlimit="10" stroke-linecap="round" stroke-linejoin="round"/>
<path d="M7.68091 5.35962C8.15392 5.40777 8.52246 5.80792 8.52246 6.29287V6.29507C8.52028 6.79772 8.12302 7.21276 7.61719 7.22978C7.60864 7.23007 7.6001 7.22842 7.59155 7.22832C7.59946 7.22819 7.60773 7.22827 7.61646 7.22759C7.60695 7.22836 7.59742 7.22803 7.58789 7.22832C7.57589 7.22809 7.56396 7.22785 7.552 7.22685C7.5629 7.22771 7.57242 7.22823 7.58057 7.22832C7.57104 7.22849 7.56153 7.2301 7.552 7.22978C7.07804 7.21383 6.69741 6.84773 6.65186 6.3859L6.64746 6.29287L6.65259 6.19691C6.70039 5.72505 7.09761 5.35449 7.58496 5.35449L7.68091 5.35962ZM7.59155 7.22832C7.58932 7.22836 7.58713 7.22905 7.58496 7.22905C7.58358 7.22905 7.58205 7.22833 7.58057 7.22832H7.59155ZM7.57617 6.4782C7.5791 6.47834 7.58199 6.47967 7.58496 6.47967C7.58718 6.47967 7.58936 6.47901 7.59155 6.47893L7.58569 6.29287H7.58276L7.57617 6.4782ZM7.40112 6.33023C7.41639 6.40496 7.4765 6.46285 7.55273 6.476L7.53662 6.29287H7.39746L7.40112 6.33023ZM7.61719 6.476C7.70572 6.46059 7.77231 6.38401 7.77246 6.29287H7.63623L7.61719 6.476ZM7.6355 6.29067L7.77173 6.29141C7.77125 6.21444 7.72337 6.14644 7.65308 6.11853L7.6355 6.29067ZM7.58276 6.29067H7.58569L7.58423 6.24745L7.58276 6.29067ZM7.52051 6.11633C7.44763 6.14301 7.3979 6.2127 7.39746 6.28994H7.53589L7.52051 6.11633Z" fill="#0D2237"/>
<path d="M10.5945 5.35962C11.0675 5.40777 11.436 5.80792 11.436 6.29287V6.29507C11.4339 6.79772 11.0366 7.21276 10.5308 7.22978C10.5222 7.23007 10.5137 7.22842 10.5051 7.22832C10.513 7.22819 10.5213 7.22827 10.53 7.22759C10.5205 7.22836 10.511 7.22803 10.5015 7.22832C10.4895 7.22809 10.4775 7.22785 10.4656 7.22685C10.4765 7.22771 10.486 7.22823 10.4941 7.22832C10.4846 7.22849 10.4751 7.2301 10.4656 7.22978C9.99161 7.21383 9.61099 6.84773 9.56543 6.3859L9.56104 6.29287L9.56616 6.19691C9.61397 5.72505 10.0112 5.35449 10.4985 5.35449L10.5945 5.35962ZM10.5051 7.22832C10.5029 7.22836 10.5007 7.22905 10.4985 7.22905C10.4972 7.22905 10.4956 7.22833 10.4941 7.22832H10.5051ZM10.4897 6.4782C10.4927 6.47834 10.4956 6.47967 10.4985 6.47967C10.5007 6.47967 10.5029 6.47901 10.5051 6.47893L10.4993 6.29287H10.4963L10.4897 6.4782ZM10.3147 6.33023C10.33 6.40496 10.3901 6.46285 10.4663 6.476L10.4502 6.29287H10.311L10.3147 6.33023ZM10.5308 6.476C10.6193 6.46059 10.6859 6.38401 10.686 6.29287H10.5498L10.5308 6.476ZM10.5491 6.29067L10.6853 6.29141C10.6848 6.21444 10.6369 6.14644 10.5667 6.11853L10.5491 6.29067ZM10.4963 6.29067H10.4993L10.4978 6.24745L10.4963 6.29067ZM10.4341 6.11633C10.3612 6.14301 10.3115 6.2127 10.311 6.28994H10.4495L10.4341 6.11633Z" fill="#0D2237"/>
</svg>
