<svg width="24" height="24" viewBox="0 0 24 24" fill="none" xmlns="http://www.w3.org/2000/svg">
<path d="M1.5 2H3.24001C4.32001 2 5.17 2.93 5.08 4L4.25 13.96C4.11 15.59 5.39999 16.99 7.03999 16.99H17.69C19.13 16.99 20.39 15.81 20.5 14.38L21.04 6.88C21.16 5.22 19.9 3.87 18.23 3.87H5.32001M8.5 8H20.5M17 20.75C17 21.4404 16.4404 22 15.75 22C15.0596 22 14.5 21.4404 14.5 20.75C14.5 20.0596 15.0596 19.5 15.75 19.5C16.4404 19.5 17 20.0596 17 20.75ZM9 20.75C9 21.4404 8.44036 22 7.75 22C7.05964 22 6.5 21.4404 6.5 20.75C6.5 20.0596 7.05964 19.5 7.75 19.5C8.44036 19.5 9 20.0596 9 20.75Z" stroke="#0D2237" stroke-width="1.5" stroke-miterlimit="10" stroke-linecap="round" stroke-linejoin="round"/>
</svg>
