<svg width="98" height="26" viewBox="0 0 98 26" fill="none" xmlns="http://www.w3.org/2000/svg">
<path d="M97.2216 25.7041H0.921618C0.121618 24.2041 -0.578395 21.3041 0.721605 20.1041C1.92161 18.9041 4.02162 18.8041 5.42162 19.7041C4.62162 16.4041 4.12161 13.2041 4.72161 9.90412C5.32161 6.60412 7.02161 3.30412 9.82161 1.50412C14.1216 -1.19588 19.9216 0.00412393 24.0216 3.00412C28.1216 6.00412 30.7216 10.5041 33.3216 14.9041C33.6216 12.9041 35.4216 11.4041 37.4216 11.5041C39.4216 11.5041 41.2216 13.3041 41.3216 15.3041C42.5216 11.3041 46.3216 8.00412 50.3216 7.00412C54.4216 5.90412 58.9216 7.20412 61.9216 10.2041C64.9216 13.2041 66.1216 17.7041 65.1216 21.8041L97.3216 25.7041H97.2216Z" fill="white"/>
</svg>
