<svg width="86" height="23" viewBox="0 0 86 23" fill="none" xmlns="http://www.w3.org/2000/svg">
<path d="M85.9064 22.7241H0.806419C0.106419 21.4241 -0.493593 18.8241 0.606407 17.8241C1.70641 16.8241 3.50644 16.6241 4.70644 17.4241C4.00644 14.5241 3.60641 11.7241 4.10641 8.72411C4.60641 5.82411 6.10641 2.92411 8.60641 1.32411C12.4064 -1.07589 17.6064 0.024111 21.1064 2.72411C24.7064 5.42411 27.0064 9.32411 29.3064 13.2241C29.5064 11.5241 31.2064 10.1241 32.9064 10.2241C34.7064 10.2241 36.2064 11.8241 36.3064 13.6241C37.3064 10.0241 40.7064 7.22411 44.3064 6.32411C47.9064 5.42411 51.9064 6.52411 54.5064 9.12411C57.1064 11.7241 58.2064 15.8241 57.3064 19.3241L85.7064 22.7241H85.9064Z" fill="white"/>
</svg>
