<svg width="1440" height="157" viewBox="0 0 1440 157" fill="none" xmlns="http://www.w3.org/2000/svg">
<path d="M2.29981 154.765C1.66772 155.635 0.881835 156.333 0 156.82V157H1440V154.48C1438.74 152.56 1437.12 150.963 1435.24 149.815C1431.92 147.37 1428.29 145.465 1424.49 144.168C1422.7 143.8 1421.08 142.773 1419.86 141.25C1416.64 136.285 1413.73 131.057 1411.19 125.62C1410.46 123.73 1409.21 122.155 1407.63 121.12C1406.05 120.092 1404.22 119.658 1402.4 119.883L1388.98 120.093C1387.42 120.243 1385.83 119.943 1384.39 119.238C1379.77 116.148 1374.34 114.97 1369.04 115.923C1363.24 116.365 1357.42 115.398 1351.96 113.103L1344.45 110.125C1338.92 107.905 1332.9 107.875 1327.36 110.035C1326.54 110.358 1325.65 110.53 1324.71 110.718L1324.58 110.743C1324 110.855 1323.41 110.97 1322.8 111.138C1320.88 111.558 1319.04 112.337 1317.34 113.432C1315.91 114.67 1314.27 115.548 1312.52 116.02C1310.77 116.493 1308.95 116.545 1307.18 116.17C1303.89 115.533 1300.53 115.638 1297.29 116.478C1294.04 117.31 1290.99 118.87 1288.29 121.053C1286.89 122.328 1285.23 123.213 1283.47 123.64C1281.7 124.075 1279.87 124.038 1278.11 123.528C1266.62 120.618 1255.12 116.988 1244.06 113.088C1235.33 110.478 1227.73 104.388 1222.68 95.9576C1219.99 91.4651 1217.71 86.6877 1215.86 81.6927C1214.41 77.1177 1213.38 72.3852 1212.8 67.5702C1211.62 62.4552 1211.83 57.0701 1213.39 52.1051C1214.24 50.2451 1214.43 48.0777 1213.91 46.0602C1213.38 44.0427 1212.18 42.325 1210.56 41.275C1209.13 40.075 1207.58 39.0776 1205.93 38.3126C1203.88 37.3976 1201.81 36.5277 1199.74 35.6652C1196.52 34.3152 1193.31 32.9652 1190.16 31.4502C1183.96 28.6077 1177.09 28.2027 1170.68 30.3102C1165.89 31.7652 1161.03 32.9426 1156.12 33.8351C1149.67 34.9826 1143.87 38.9352 1139.99 44.8527C1137.79 47.8677 1134.94 50.2002 1131.72 51.6327C1129.08 52.9077 1127.88 52.3076 1126.28 49.5476C1125.98 49.0216 1125.68 48.4836 1125.37 47.917L1125.26 47.7252C1124.73 46.7652 1124.15 45.7076 1123.41 44.4476C1121.66 46.7876 1120.31 48.3551 1119.2 50.0726C1118.3 51.7601 1117.1 53.215 1115.68 54.3475C1114.25 55.48 1112.62 56.2601 1110.92 56.6426C1109.03 56.8376 1107.2 57.5126 1105.59 58.6151C1103.97 59.7251 1102.6 61.2325 1101.58 63.025C1101.33 63.505 1100.99 63.9326 1100.59 64.2701C1100.2 64.6076 1099.75 64.8552 1099.27 64.9977C1098.78 65.1402 1098.28 65.1701 1097.78 65.0951C1097.66 65.0726 1097.52 65.0427 1097.39 65.0127C1097.26 64.9752 1097.12 64.9225 1096.99 64.87C1096.78 64.78 1096.57 64.6751 1096.38 64.5476C1092.1 63.2276 1087.64 62.7701 1083.22 63.2051C1082.9 65.0351 1082.66 66.8802 1082.53 68.7327C1082.27 75.6927 1081.87 82.4426 1076.59 87.4226C1075.01 88.9076 1073.54 90.3401 1072.12 91.7351C1071.55 92.3126 1070.97 92.8751 1070.4 93.4376L1070.39 93.4526L1070.39 93.4601L1070.01 93.834L1070 93.8382C1069.85 93.9828 1069.71 94.1273 1069.56 94.2714C1069.54 94.2927 1069.52 94.314 1069.5 94.3353C1069.35 94.4813 1069.2 94.627 1069.05 94.7725C1066.84 96.9533 1064.66 99.0742 1062.29 101.2C1059.18 103.068 1055.68 103.945 1052.16 103.735C1048.64 103.525 1045.23 102.243 1042.3 100.015L1041.23 98.7926C1040.23 97.5701 1039.16 96.4151 1038.02 95.3426C1037.06 94.5551 1036.13 93.7452 1035.2 92.9352L1035.19 92.9321C1030.65 88.9881 1026.1 85.0373 1019.93 84.2425C1018.84 83.86 1017.8 83.3051 1016.84 82.5851C1013.13 80.1326 1009.95 76.7877 1007.53 72.7902C1006.75 71.5676 1005.69 70.6301 1004.45 70.0826C1003.22 69.5351 1001.86 69.4001 1000.56 69.7076C999.45 69.9776 998.287 69.7752 997.305 69.1377C993.81 65.6502 989.67 63.0927 985.185 61.6527C984.27 61.2177 983.43 60.6251 982.688 59.8901C975.352 53.8376 967.417 48.775 959.047 44.8C957.667 44.1925 956.408 43.2852 955.343 42.1302C949.35 33.5277 940.823 27.6102 931.312 25.4502C929.797 25.2477 928.388 24.4825 927.3 23.275C926.205 22.075 925.508 20.4926 925.297 18.7976C924.825 15.6476 923.31 12.8202 921.052 10.8777C919.92 9.79018 918.953 8.50005 918.203 7.06005C917.797 6.12255 917.205 5.31268 916.47 4.69018C916.102 4.37518 915.705 4.11258 915.277 3.90258C915.135 3.83508 914.993 3.77508 914.85 3.71508C914.565 3.61008 914.273 3.52014 913.973 3.46764C909.375 1.85514 904.508 1.47271 899.76 2.35021C897.645 2.79271 895.478 2.83013 893.348 2.44763C891.675 2.47763 890.017 2.10259 888.352 1.72009C887.97 1.63759 887.58 1.54758 887.198 1.46508C886.785 1.37508 886.372 1.29271 885.96 1.22521C882.63 0.385213 879.188 0.310184 875.835 1.00768C872.483 1.71268 869.295 3.16765 866.468 5.29015C866.228 5.47765 865.973 5.6501 865.71 5.7926C865.095 6.1301 864.428 6.34015 863.738 6.41515C861.27 6.70765 858.803 6.9401 856.335 7.1726C853.86 7.4051 851.393 7.63762 848.925 7.93762C846.473 8.23012 844.042 8.73262 841.665 9.43762C839.318 10.3826 836.76 10.4202 834.383 9.55016C832.545 8.68016 830.565 8.26771 828.578 8.35021C826.583 8.42521 824.633 8.98005 822.863 9.99255C821.085 10.9975 819.533 12.4301 818.295 14.1851C817.065 15.9401 816.188 17.9726 815.723 20.1476C815.393 21.7301 814.672 23.1701 813.637 24.3026C810.945 26.7251 808.117 28.9527 805.177 30.9777C803.655 32.0202 801.975 32.7476 800.22 33.1151C797.467 33.7451 794.663 34.0602 791.858 34.0752C787.733 33.9477 783.63 33.5126 779.557 32.7701C775.943 31.9601 772.365 30.9552 768.84 29.7477L768.765 29.8751C768.698 30.0026 768.622 30.115 768.555 30.2125L768.465 30.3551L768.405 30.4452L768.398 30.4526C768.21 30.7226 768.083 30.91 768.083 31.0975L768.085 31.2438C768.089 31.4435 768.092 31.644 768.097 31.8456C768.126 33.2562 768.181 34.7143 768.443 36.2425C768.48 38.815 767.768 40.1652 765.525 40.2552C765.135 40.2327 764.753 40.1876 764.37 40.1276C763.935 40.0526 763.515 39.9551 763.095 39.8276C761.528 39.4526 759.9 39.5952 758.408 40.2552C756.923 40.9077 755.64 42.0401 754.725 43.5176L759.39 49.1125C757.867 49.2925 756.338 49.315 754.807 49.18C753.945 48.97 753.105 48.6625 752.265 48.3625C751.365 48.0325 750.473 47.7102 749.564 47.5077C747.713 46.9827 745.757 47.1776 744.022 48.0626C742.287 48.9551 740.876 50.4851 740.023 52.3976C739.601 53.5076 738.847 54.4076 737.893 54.9476C737.447 55.2026 736.971 55.3677 736.484 55.4502C735.929 55.5327 735.359 55.51 734.803 55.3675C728.06 54.7 721.047 54.3476 714.494 54.0326C709.91 53.7476 709.215 53.2975 708.172 48.16C707.962 46.3825 707.166 44.7627 705.943 43.6227C704.719 42.4752 703.159 41.89 701.573 41.9725C700.587 41.9875 699.605 42.1226 698.648 42.3851C694.235 43.4126 689.639 42.7227 685.611 40.4202C684.307 39.4527 682.775 38.9427 681.214 38.9652C679.654 38.9952 678.138 39.5501 676.865 40.5626C675.602 41.6951 674.104 42.4526 672.508 42.7676C670.912 43.0826 669.27 42.94 667.734 42.3475C666.147 41.5225 664.352 41.3727 662.677 41.9202C661.002 42.4677 659.561 43.6752 658.621 45.3252C657.83 46.8702 656.564 48.0251 655.061 48.5801C653.559 49.1351 651.925 49.0527 650.471 48.3402C646.435 47.2377 642.453 45.8875 638.545 44.305C634.132 42.1075 629.273 41.3125 624.496 41.995C622.751 42.4 620.937 42.205 619.291 41.4325C617.643 40.66 616.241 39.34 615.268 37.66C613.87 35.56 611.818 34.1426 609.527 33.6776C606.114 32.7176 602.51 33.2351 599.428 35.1251C596.066 36.7826 592.318 37.1801 588.73 36.2726C585.104 35.6576 581.492 34.975 577.878 34.285L577.838 34.2777C576.352 34.0002 574.864 33.7152 573.375 33.4452C572.125 33.2127 570.875 32.9802 569.623 32.7552L566.647 32.8075L557.791 31.7051C555.35 31.2176 552.88 30.9326 550.403 30.8426C543.583 30.9476 536.797 31.4875 529.996 32.035C528.031 32.185 526.064 32.3425 524.096 32.4925C522.608 32.6425 521.166 33.1376 519.859 33.9476C516.925 35.7251 513.516 36.2352 510.264 35.3877C506.01 34.4352 501.613 34.7352 497.5 36.2577C495.162 37.2402 492.695 37.78 490.198 37.8625C483.367 37.72 476.533 37.3977 469.701 37.0752L466.911 36.9401L464.366 36.8276C463.216 36.7751 462.065 36.7226 460.915 36.6776C460.082 36.7901 459.238 36.61 458.495 36.175C457.751 35.7325 457.144 35.0501 456.754 34.2176C455.326 30.7301 452.665 30.4677 449.645 30.6702C446.703 30.9627 443.741 30.925 440.804 30.55C429.663 29.185 418.445 31.9676 408.87 38.4701C408.604 38.6651 408.353 38.8827 408.119 39.1227C407.867 39.3852 407.635 39.6776 407.428 39.9851C406.373 41.2976 405.683 42.9325 405.443 44.68C405.202 46.435 405.42 48.2275 406.072 49.8475C407.764 55.54 405.609 58.4051 400.6 57.2501C399.314 56.8826 397.973 56.86 396.681 57.1825C395.39 57.5125 394.185 58.1725 393.164 59.1175C391.848 60.2575 390.325 61.0602 388.702 61.4652C387.078 61.8777 385.393 61.8776 383.766 61.4801C382.819 61.2776 381.868 61.0901 380.918 60.8951L378.663 60.4452C373.677 59.4627 368.678 58.4726 363.776 57.0476C355.952 54.3176 347.518 54.9026 340.078 58.7051C335.891 61.2326 331.105 62.2301 326.383 61.5476L326.255 61.525L326.251 61.5243C322.655 60.7825 322.431 60.7363 322.319 56.4625C322.369 54.97 321.97 53.5075 321.186 52.3075C320.402 51.1 319.28 50.2301 318.002 49.8326L305.042 44.0575C304.437 43.7425 303.778 43.5777 303.111 43.5702C300.851 43.4877 298.664 42.6477 296.823 41.1627C294.982 39.6777 293.571 37.615 292.768 35.2375C290.672 30.3325 286.489 28.9602 282.336 27.6027L281.792 27.4226C281.388 27.3176 280.97 27.325 280.568 27.43C280.165 27.535 279.789 27.7376 279.465 28.0226C277.714 30.1602 275.423 31.1284 273.124 32.1L273.1 32.1101C271.867 32.6276 270.634 33.1452 269.481 33.8502C264.456 37.8402 258.424 39.9176 252.263 39.7826C250.046 39.4697 247.736 39.2445 245.406 39.0174L245.402 39.017L245.023 38.9801H245.017C242.649 38.7551 240.266 38.5226 237.949 38.2076C234.836 37.8851 231.759 37.2251 228.758 36.2351C224.049 34.2851 218.899 34.1877 214.145 35.9502C211.298 37.0002 208.231 37.0451 205.354 36.0851C198.041 34.0826 190.374 34.5251 183.298 37.3601C181.858 38.0501 180.284 38.3125 178.725 38.1175C177.167 37.9225 175.676 37.2851 174.397 36.2651C172.092 34.5551 169.456 33.5051 166.714 33.1976C163.973 32.8901 161.209 33.3401 158.66 34.5026C157.737 35.0426 156.898 35.7551 156.174 36.5951L159.392 43.1952C157.868 43.7427 156.382 44.2826 154.921 44.8151L154.785 44.8675C150.708 46.3525 146.832 47.7627 142.905 49.0677C142.492 49.1277 142.093 49.2626 141.721 49.4576C141.352 49.6451 141.008 49.9077 140.703 50.2152C140.091 50.8452 139.664 51.6627 139.479 52.5702C138.083 59.9652 132.781 63.55 127.751 66.925C119.144 72.19 112.045 80.0876 107.269 89.7101C106.678 91.2701 105.601 92.5376 104.239 93.2651C102.877 94.0001 101.323 94.1502 99.8662 93.6852C95.5492 92.9277 95.2822 93.4526 93.792 97.6976C93.1395 100.765 91.8277 103.593 89.9722 105.955C88.116 108.31 85.773 110.11 83.1488 111.205C79.6298 113.185 76.41 115.78 73.6055 118.878C73.3802 119.719 73.1004 120.494 72.7737 121.21C70.7369 125.678 66.8787 127.891 63.0688 130.075L62.2471 130.548C59.3702 132.205 56.7129 133.495 54.0784 134.77L53.8303 134.891L53.8242 134.894L53.2444 135.177C51.8774 135.844 50.5108 136.516 49.117 137.245C46.352 138.962 43.2268 139.825 40.0635 139.735C38.5193 139.695 36.9928 139.428 35.5208 138.948C33.9767 138.444 32.4925 137.706 31.1104 136.75C30.8013 136.945 30.4921 137.14 30.1831 137.328L29.3577 137.83C28.1799 138.543 27.0169 139.255 25.8948 140.028C24.2015 141.378 22.2421 142.255 20.1826 142.57C18.1231 142.893 16.0239 142.645 14.0618 141.865C11.7818 141.58 9.49073 142.24 7.61715 143.718C5.74365 145.195 4.4165 147.4 3.8833 149.905C3.85913 151.683 3.30029 153.393 2.29981 154.765Z" fill="white"/>
<path fill-rule="evenodd" clip-rule="evenodd" d="M768.085 31.2438V31.2451C768.089 31.4443 768.092 31.6445 768.097 31.8456C768.092 31.644 768.089 31.4435 768.085 31.2438Z" fill="white"/>
</svg>
