<svg width="1440" height="353" viewBox="0 0 1440 353" fill="none" xmlns="http://www.w3.org/2000/svg">
<path d="M1580.64 0L1579.38 34.033L1578.54 52.0999V53.5705L1577.49 77.0995V79.4103L1574.97 139.703V142.014L1573.92 170.165L1573.71 172.476L1573.29 182.35L1571.61 226.887V228.147L1571.19 237.181L1568.88 292.222V294.533L1567.62 324.994V327.305L1567.2 336.128V337.599L1565.73 371.632L1562.37 456.925L1561.74 471L-26.4692 429.614V0H1580.64Z" fill="#B6CDF6"/>
<g opacity="0.7">
<g style="mix-blend-mode:soft-light" opacity="0.6">
<path d="M-49.992 37.1846C-43.6912 38.0249 1606.68 52.3103 1606.68 52.3103L-61.1233 116.805L-49.992 37.1846Z" fill="white"/>
</g>
<g style="mix-blend-mode:soft-light">
<path d="M1580.64 0L1579.38 34.033C1423.75 32.1423 196.157 21.2181 -26.4692 19.3274C-48.7319 19.3274 -60.9133 19.1173 -60.9133 19.1173L-26.4692 17.8568L430.335 0H1580.64Z" fill="white"/>
</g>
<g style="mix-blend-mode:soft-light" opacity="0.2">
<path d="M-201 203.358L1582.11 182.35V237.391L-201 203.358Z" fill="white"/>
</g>
<g style="mix-blend-mode:soft-light" opacity="0.2">
<path d="M1614.67 227.727L-168.446 248.735V193.694L1614.67 227.727Z" fill="white"/>
</g>
<g style="mix-blend-mode:soft-light" opacity="0.4">
<path d="M-52.7225 298.314L1592.61 336.759L-74.9851 387.388L-52.7225 298.314Z" fill="white"/>
</g>
<g style="mix-blend-mode:soft-light" opacity="0.2">
<path d="M1649.95 77.5195C1422.7 76.4691 1195.46 75.2087 968.209 74.1583C742.012 73.1079 516.025 71.8474 289.828 70.797C162.343 70.1667 34.648 69.5365 -92.8371 68.9062C-94.0973 68.9062 -94.0973 71.2171 -92.8371 71.2171C134.41 72.2675 361.657 73.528 588.904 74.5784C815.101 75.6288 1041.09 76.8893 1267.28 77.9397C1394.77 78.5699 1522.46 79.2002 1649.95 79.8304C1651.21 79.8304 1651.21 77.5195 1649.95 77.5195Z" fill="white"/>
</g>
<g style="mix-blend-mode:soft-light" opacity="0.4">
<path d="M1586.94 169.955C1369.57 170.585 1152.4 171.005 935.025 171.636C718.909 172.266 502.584 172.686 286.468 173.316L-79.3955 174.157C-80.6556 174.157 -80.6556 176.468 -79.3955 176.468C137.98 175.837 355.146 175.417 572.522 174.787C788.638 174.157 1004.96 173.737 1221.08 173.106C1343.1 172.896 1464.92 172.476 1586.94 172.266C1588.2 172.266 1588.2 169.955 1586.94 169.955Z" fill="white"/>
</g>
<g style="mix-blend-mode:soft-light" opacity="0.4">
<path d="M1582.95 139.493C1366.63 146.216 1150.09 151.258 933.765 154.829C718.489 158.4 503.004 160.291 287.728 160.921C166.334 161.131 44.7292 160.921 -76.6652 160.291C-77.9254 160.291 -77.9254 162.602 -76.6652 162.602C139.87 163.862 356.196 163.652 572.732 161.762C788.008 159.871 1003.49 156.51 1218.77 151.678C1340.16 148.947 1461.77 145.585 1583.16 141.804C1584.42 141.804 1584.42 139.493 1583.16 139.493H1582.95Z" fill="white"/>
</g>
<g style="mix-blend-mode:soft-light" opacity="0.4">
<path d="M1611.1 324.364C1388.26 327.515 1165.21 329.196 942.376 329.196C720.59 329.196 498.803 327.725 277.017 324.574C151.842 322.893 26.8771 320.583 -98.2978 317.852C-99.558 317.852 -99.558 320.162 -98.2978 320.162C124.539 324.994 347.375 328.356 570.422 330.036C792.208 331.717 1013.99 331.927 1235.78 330.456C1360.96 329.616 1485.92 328.356 1611.1 326.675C1612.36 326.675 1612.36 324.364 1611.1 324.364Z" fill="white"/>
</g>
<g style="mix-blend-mode:soft-light" opacity="0.4">
<path d="M1594.92 292.012C1373.56 293.272 1152.19 294.323 931.034 295.583C710.928 296.844 490.612 297.894 270.506 299.154C146.381 299.785 22.0464 300.415 -102.078 301.255C-103.338 301.255 -103.338 303.566 -102.078 303.566C119.288 302.306 340.654 301.255 561.811 299.995C781.917 298.734 1002.23 297.684 1222.34 296.423C1346.46 295.793 1470.8 295.163 1594.92 294.323C1596.18 294.323 1596.18 292.012 1594.92 292.012Z" fill="white"/>
</g>
</g>
</svg>
