<svg width="17" height="16" viewBox="0 0 17 16" fill="none" xmlns="http://www.w3.org/2000/svg">
<path d="M14.8594 3.98659C12.6394 3.76659 10.406 3.65325 8.17937 3.65325C6.85937 3.65325 5.53938 3.71992 4.21938 3.85325L2.85938 3.98659M6.52604 3.31325L6.67271 2.43992C6.77938 1.80659 6.85937 1.33325 7.98604 1.33325H9.73271C10.8594 1.33325 10.946 1.83325 11.046 2.44659L11.1927 3.31325M13.426 6.09325L12.9927 12.8066C12.9194 13.8533 12.8594 14.6666 10.9994 14.6666H6.71938C4.85938 14.6666 4.79938 13.8533 4.72604 12.8066L4.29271 6.09325M7.74604 10.9999H9.96604M7.19271 8.33325H10.526" stroke="#0D2237" stroke-width="1.5" stroke-linecap="round" stroke-linejoin="round"/>
</svg>
