<svg width="24" height="24" viewBox="0 0 24 24" fill="none" xmlns="http://www.w3.org/2000/svg">
<path d="M4.20312 20.3521C4.20312 20.3521 4.47375 19.6954 4.88785 19.0226M9.0675 16.5107C9.54277 15.8246 9.38659 14.7148 9.36958 14.6043M9.0675 16.5107V17.1243C9.0675 17.5838 9.38133 17.9817 9.82084 18.1157C10.556 18.3399 11.4198 18.6599 12.0173 19.0226M9.0675 16.5107C8.7777 16.9291 8.36555 17.1072 7.91116 17.2187M9.36958 14.6043C9.36867 14.5984 9.36816 14.5954 9.36816 14.5954M9.36958 14.6043C10.1374 15.4672 11.384 15.6468 12.0173 15.6109M9.36958 14.6043C9.19173 14.4044 9.03955 14.1679 8.92663 13.8889C8.43277 12.6688 8.24354 11.7035 8.19191 11.1945C8.17714 11.0489 8.05744 10.9306 7.91116 10.9306V10.9306C7.32589 10.9306 6.85144 10.4562 6.85144 9.87091C6.85144 9.28565 7.32589 8.8112 7.91116 8.8112V8.8112C8.05744 8.8112 8.17603 8.69261 8.17603 8.54632V7.62446M19.7673 20.352C19.7673 20.352 19.5707 19.8747 19.2561 19.3171M14.6009 14.6042C14.6018 14.5983 14.6023 14.5952 14.6023 14.5952M14.6009 14.6042C13.833 15.4671 12.5865 15.6466 11.9531 15.6108M14.6009 14.6042C14.7787 14.4043 14.9309 14.1678 15.0438 13.8888C15.5377 12.6687 15.7269 11.7034 15.7785 11.1944C15.7933 11.0488 15.913 10.9305 16.0593 10.9305V10.9305C16.6446 10.9305 17.119 10.4561 17.119 9.87079C17.119 9.28552 16.6446 8.81107 16.0593 8.81107V8.81107C15.913 8.81107 15.7944 8.69248 15.7944 8.5462V7.37373M14.6009 14.6042C14.5859 14.7012 14.4636 15.5693 14.7561 16.244M7.09198 5.83873L7.08623 6.56321C7.08167 7.13709 8.11952 7.60474 8.11952 7.60474C8.11952 7.60474 10.4969 8.3165 11.9531 8.29099C13.4934 8.26401 14.5066 8.0347 15.5792 7.37373C16.1202 7.04036 16.4384 6.9151 16.4384 6.57141V5.83883M7.09198 5.83873C9.07886 5.32372 13.68 5.20803 16.4384 5.83883M7.09198 5.83873C6.12061 5.25006 4.69677 3.38922 6.85144 2.01164C8.32279 1.07094 10.1367 0.683684 11.7606 0.612305C13.3839 0.683952 15.1968 1.07129 16.6674 2.01154C18.8221 3.38911 17.4098 5.25016 16.4384 5.83883M7.09198 5.83873L7.08623 6.45299M16.4384 5.83883L16.4384 6.44479M12.7467 23.1642C12.7467 22.4111 12.7467 20.6965 12.7467 19.8623C12.7467 19.5735 12.4527 19.2867 12.0173 19.0226M12.0173 19.0226C12.4287 18.7615 13.0383 18.4204 13.7672 18.2397C14.3029 18.1069 14.7561 17.6675 14.7561 17.1156V16.244M14.7561 16.244C14.7967 16.3374 14.8451 16.4272 14.9029 16.5106C15.1929 16.9292 15.6052 17.1072 16.0598 17.2187" stroke="#009AA6" stroke-linecap="round" stroke-linejoin="round"/>
<path d="M7.71705 17.9V16.0439L3.60986 17.1167L4.01469 18.9384L7.71705 17.9Z" stroke="#009AA6" stroke-linecap="round" stroke-linejoin="round"/>
<path d="M15.9338 17.9L16.2809 16.0441L20.3899 17.5218L19.3373 19.303L15.9338 17.9Z" stroke="#009AA6" stroke-linecap="round" stroke-linejoin="round"/>
<path d="M11.9532 2.57021V4.35717M11.9532 4.35717C11.5211 4.37813 10.8936 3.97927 10.8936 3.50936L10.9341 3.4985M11.9532 4.35717C12.3852 4.37813 13.1506 4.27032 13.1506 3.50936H12.9955M12.3906 2.08211C12.3906 2.31676 12.1948 2.50698 11.9532 2.50698C11.7116 2.50698 11.5157 2.31676 11.5157 2.08211C11.5157 1.84745 11.7116 1.65723 11.9532 1.65723C12.1948 1.65723 12.3906 1.84745 12.3906 2.08211Z" stroke="#009AA6" stroke-linecap="round" stroke-linejoin="round"/>
<path d="M11.833 20.5737C11.833 20.8706 11.5923 21.1113 11.2954 21.1113C10.9985 21.1113 10.7578 20.8706 10.7578 20.5737C10.7578 20.2768 10.9985 20.0361 11.2954 20.0361C11.5923 20.0361 11.833 20.2768 11.833 20.5737Z" fill="#009AA6"/>
<path d="M11.833 22.8501C11.833 23.147 11.5923 23.3877 11.2954 23.3877C10.9985 23.3877 10.7578 23.147 10.7578 22.8501C10.7578 22.5532 10.9985 22.3125 11.2954 22.3125C11.5923 22.3125 11.833 22.5532 11.833 22.8501Z" fill="#009AA6"/>
</svg>
