<svg width="24" height="24" viewBox="0 0 24 24" fill="none" xmlns="http://www.w3.org/2000/svg">
<path d="M6.48891 21.4466C5.67129 19.7786 4.12645 16.9408 3.32425 15.4802C3.04709 14.9756 3.24976 14.3408 3.76891 14.0919L5.7214 13.1558M17.7092 19.3925C18.1838 18.3544 19.1409 16.6096 19.7487 15.5223C20.0393 15.0025 19.8198 14.3433 19.2736 14.1057L17.7092 13.4253M11.308 10.4773V14.5509M11.308 10.4773L5.7214 13.1558M11.308 10.4773L17.7092 13.4253M5.7214 13.1558V6.93814C5.7214 6.38586 6.16912 5.93815 6.7214 5.93815H11.7153M17.7092 13.4253V6.93815C17.7092 6.38586 17.2615 5.93815 16.7092 5.93815H11.7153M11.7153 5.93815V2.44678M2.05908 20.0712C2.05908 20.0712 4.17972 21.4961 5.7214 21.5518C7.79064 21.6264 8.10753 19.0814 10.167 19.2956C11.8625 19.472 12.5525 21.4949 14.2562 21.5518C16.0606 21.612 16.4861 19.3286 18.2912 19.2956C20.1575 19.2615 21.9411 20.4866 21.9411 20.4866" stroke="#0841E2" stroke-width="1.5" stroke-linecap="round" stroke-linejoin="round"/>
</svg>
