<svg width="25" height="24" viewBox="0 0 25 24" fill="none" xmlns="http://www.w3.org/2000/svg">
<path d="M22.5 10V16M22.5 16L19.5 16C17.25 16 16.5 16.75 16.5 19V22M22.5 16L16.5 22M16.5 22H9.5C4.5 22 2.5 20 2.5 15V9C2.5 6.76237 2.90056 5.12558 3.7913 4M15.5 2C20.5 2 22.5 4 22.5 9V15" stroke="#0841E2" stroke-width="1.5" stroke-linecap="round" stroke-linejoin="round"/>
<path d="M7.5 13H13.5" stroke="#0841E2" stroke-width="1.5" stroke-linecap="round" stroke-linejoin="round"/>
<path d="M7.5 17H11.5" stroke="#0841E2" stroke-width="1.5" stroke-linecap="round" stroke-linejoin="round"/>
<path d="M10.4978 5.02978C10.4538 5.02524 10.401 5.02524 10.3526 5.02978C9.30572 4.99344 8.47434 4.10752 8.47434 3.01716C8.47434 1.90409 9.34531 1 10.4274 1C11.5051 1 12.3805 1.90409 12.3805 3.01716C12.3761 4.10752 11.5447 4.99344 10.4978 5.02978Z" stroke="#0841E2" stroke-width="1.5" stroke-linecap="round" stroke-linejoin="round"/>
<path d="M8.29839 6.70621C7.23387 7.4422 7.23387 8.6416 8.29839 9.37304C9.50806 10.209 11.4919 10.209 12.7016 9.37304C13.7661 8.63705 13.7661 7.43766 12.7016 6.70621C11.4963 5.87481 9.51246 5.87481 8.29839 6.70621Z" stroke="#0841E2" stroke-width="1.5" stroke-linecap="round" stroke-linejoin="round"/>
</svg>
