<svg width="25" height="24" viewBox="0 0 25 24" fill="none" xmlns="http://www.w3.org/2000/svg">
<path d="M4.5 11V9C4.5 4.58172 8.08172 1 12.5 1C16.9183 1 20.5 4.58172 20.5 9V10M4.5 11H5C5.27614 11 5.5 10.7761 5.5 10.5V10.5C5.5 9.94771 5.94772 9.5 6.5 9.5H7C7.55228 9.5 8 9.94771 8 10.5V18.5C8 19.0523 7.55228 19.5 7 19.5H6.5C5.94772 19.5 5.5 19.0523 5.5 18.5V18.5C5.5 18.2239 5.27614 18 5 18H4.5C3.94772 18 3.5 17.5523 3.5 17V12C3.5 11.4477 3.94772 11 4.5 11ZM19.25 19.5H19C18.4477 19.5 18 19.0523 18 18.5V10.5C18 9.94772 18.4477 9.5 19 9.5H19.5C20.0523 9.5 20.5 9.94772 20.5 10.5V10.5C20.5 10.7761 20.7239 11 21 11H21.5C22.0523 11 22.5 11.4477 22.5 12V17C22.5 17.5523 22.0523 18 21.5 18H21C20.7239 18 20.5 18.2239 20.5 18.5V18.5C20.5 19.0523 20.0523 19.5 19.5 19.5H19.25ZM19.25 19.5V21C19.25 21.5523 18.8023 22 18.25 22H14M14 22V21.5C14 20.9477 13.5523 20.5 13 20.5H12C11.4477 20.5 11 20.9477 11 21.5V22C11 22.5523 11.4477 23 12 23H13C13.5523 23 14 22.5523 14 22Z" stroke="#0841E2" stroke-width="1.5"/>
</svg>
