<svg width="24" height="24" viewBox="0 0 24 24" fill="none" xmlns="http://www.w3.org/2000/svg">
<path d="M3.56104 22.493C3.56104 22.493 4.33036 20.626 5.28377 19.841C6.37032 18.9463 8.03459 19.4844 8.83602 18.3274C9.35141 17.5833 9.18204 16.3798 9.16359 16.26M9.16359 16.26C9.16261 16.2536 9.16206 16.2503 9.16206 16.2503M9.16359 16.26C9.99628 17.1957 11.348 17.3904 12.0349 17.3516M9.16359 16.26C8.97073 16.0433 8.80571 15.7868 8.68325 15.4842C8.14771 14.1611 7.9425 13.1143 7.88651 12.5623C7.87051 12.4045 7.7407 12.2762 7.58206 12.2762C6.9474 12.2762 6.43289 11.7617 6.43289 11.1271C6.43289 10.4924 6.9474 9.97788 7.58206 9.97788C7.7407 9.97788 7.86929 9.84928 7.86929 9.69065V8.49328M20.439 22.4928C20.439 22.4928 19.6697 20.6258 18.7163 19.8408C17.6297 18.9462 15.9655 19.4842 15.164 18.3272C14.6486 17.5832 14.818 16.3797 14.8365 16.2599M14.8365 16.2599C14.8375 16.2535 14.838 16.2502 14.838 16.2502M14.8365 16.2599C14.0038 17.1956 12.652 17.3903 11.9652 17.3514M14.8365 16.2599C15.0293 16.0431 15.1943 15.7866 15.3168 15.4841C15.8524 14.161 16.0576 13.1142 16.1135 12.5622C16.1296 12.4044 16.2594 12.2761 16.418 12.2761C17.0527 12.2761 17.5672 11.7616 17.5672 11.1269C17.5672 10.4922 17.0527 9.97774 16.418 9.97774C16.2594 9.97774 16.1308 9.84915 16.1308 9.69051V8.49314M6.6875 6.6262L6.68126 7.41183C6.67632 8.03416 7.17944 8.54129 7.80178 8.54129H15.7023C16.3212 8.54129 16.8229 8.0396 16.8229 7.42073V6.62631M6.6875 6.6262C8.8421 6.06772 13.8527 5.34986 16.8229 6.62631M6.6875 6.6262C5.63414 5.98784 4.09635 4.09823 6.4329 2.60437C8.02844 1.58427 9.99551 1.16432 11.7564 1.08691C13.5167 1.16461 15.4827 1.58464 17.0775 2.60426C19.414 4.09812 17.8762 5.98795 16.8229 6.62631M6.6875 6.6262L6.6875 7.42062C6.6875 8.03949 7.18919 8.54118 7.80806 8.54118H15.7086C16.3309 8.54118 16.834 8.03405 16.8291 7.41172L16.8229 6.62631M15.7324 19.0054L12.6805 22.54M18.1256 19.7078L15.3811 22.9134" stroke="#009AA6" stroke-linecap="round" stroke-linejoin="round"/>
</svg>
