<svg width="24" height="24" viewBox="0 0 24 24" fill="none" xmlns="http://www.w3.org/2000/svg">
<path d="M2.56689 21.1029H4.25429M15.2667 21.1029H13.4905M4.25429 21.1029H13.4905M4.25429 21.1029V9.4691M13.4905 21.1029V12.7551M4.25429 9.4691V3.89697C4.25429 3.34469 4.702 2.89697 5.25429 2.89697H12.4905C13.0428 2.89697 13.4905 3.34469 13.4905 3.89697V9.4691M4.25429 9.4691H13.4905M13.4905 9.4691V12.7551M13.4905 12.7551C13.4905 12.7551 15.9399 11.9794 17.1317 12.7551C18.0686 13.3648 18.0469 14.8149 17.8022 16.0861C17.5895 17.1912 18.3713 18.3501 19.4967 18.3501V18.3501C20.1999 18.3501 20.8165 17.8853 20.9625 17.1974C21.3569 15.3383 21.904 11.6648 20.6842 9.4691C19.7314 7.75405 17.1317 5.91669 17.1317 5.91669" stroke="#0841E2" stroke-width="1.5" stroke-linecap="round" stroke-linejoin="round"/>
</svg>
