<svg width="24" height="24" viewBox="0 0 24 24" fill="none" xmlns="http://www.w3.org/2000/svg">
<path d="M9.95122 8.58533L9.95122 1.96078M14.0489 8.45058V1.96078M15.8646 10.6342H22.154M15.5495 14.0489H22.2443M10.6342 15.8646V22.154M14.0489 15.5495V22.0393M8.45058 14.0489H1.96078M8.13555 10.6342H1.84613M22.2443 12.0001C22.2443 17.6578 17.6578 22.2443 12.0001 22.2443C6.34234 22.2443 1.75586 17.6578 1.75586 12.0001C1.75586 6.34234 6.34234 1.75586 12.0001 1.75586C17.6578 1.75586 22.2443 6.34234 22.2443 12.0001ZM16.0977 12.0001C16.0977 14.2631 14.2631 16.0977 12.0001 16.0977C9.73697 16.0977 7.90238 14.2631 7.90238 12.0001C7.90238 9.73697 9.73697 7.90238 12.0001 7.90238C14.2631 7.90238 16.0977 9.73697 16.0977 12.0001Z" stroke="#009AA6"/>
</svg>
