<svg width="25" height="24" viewBox="0 0 25 24" fill="none" xmlns="http://www.w3.org/2000/svg">
<path d="M7.16746 13.1932C7.08926 13.1854 6.99542 13.1854 6.9094 13.1932C5.04827 13.1306 3.57031 11.6055 3.57031 9.72843C3.57031 7.81226 5.11865 6.25586 7.04234 6.25586C8.95821 6.25586 10.5144 7.81226 10.5144 9.72843C10.5065 11.6055 9.02859 13.1306 7.16746 13.1932Z" stroke="#0841E2" stroke-width="1.5" stroke-linecap="round" stroke-linejoin="round"/>
<path d="M19.2985 15.5546C19.2419 15.5489 19.174 15.5489 19.1117 15.5546C17.7643 15.5093 16.6943 14.4052 16.6943 13.0462C16.6943 11.659 17.8153 10.5322 19.208 10.5322C20.595 10.5322 21.7216 11.659 21.7216 13.0462C21.7159 14.4052 20.6459 15.5093 19.2985 15.5546Z" stroke="#0841E2" stroke-width="1.5" stroke-linecap="round" stroke-linejoin="round"/>
<path d="M3.25769 16.0793C1.36528 17.3463 1.36528 19.4111 3.25769 20.6703C5.40816 22.1094 8.93492 22.1094 11.0854 20.6703C12.9778 19.4033 12.9778 17.3385 11.0854 16.0793C8.94274 14.648 5.41598 14.648 3.25769 16.0793Z" stroke="#0841E2" stroke-width="1.5" stroke-linecap="round" stroke-linejoin="round"/>
<path d="M16.4675 18.2693C15.0974 19.1866 15.0974 20.6814 16.4675 21.593C18.0243 22.6349 20.5776 22.6349 22.1345 21.593C23.5045 20.6758 23.5045 19.1809 22.1345 18.2693C20.5833 17.2331 18.03 17.2331 16.4675 18.2693Z" stroke="#0841E2" stroke-width="1.5" stroke-linecap="round" stroke-linejoin="round"/>
<path d="M20.4911 3.74249V6.28232C20.4911 7.25266 19.9962 7.982 19.1888 8.26854C18.9414 8.3532 18.6679 8.39883 18.3749 8.39883H16.682L14.8002 9.65567C14.5202 9.83802 14.1426 9.63619 14.1426 9.30406V8.39883C13.511 8.39883 12.977 8.19043 12.6059 7.81923C12.2347 7.44802 12.0264 6.91402 12.0264 6.28232V3.74249C12.0264 3.44943 12.0719 3.17592 12.1566 2.92845C12.4431 2.12092 13.1724 1.62598 14.1426 1.62598H18.3749C19.6446 1.62598 20.4911 2.47258 20.4911 3.74249Z" stroke="#0841E2" stroke-width="1.5" stroke-miterlimit="10" stroke-linecap="round" stroke-linejoin="round"/>
<path d="M18.2094 5.04534H18.2153" stroke="#0841E2" stroke-width="1.5" stroke-linecap="round" stroke-linejoin="round"/>
<path d="M16.3862 5.04534H16.392" stroke="#0841E2" stroke-width="1.5" stroke-linecap="round" stroke-linejoin="round"/>
<path d="M14.5629 5.04534H14.5688" stroke="#0841E2" stroke-width="1.5" stroke-linecap="round" stroke-linejoin="round"/>
</svg>
