<svg width="24" height="24" viewBox="0 0 24 24" fill="none" xmlns="http://www.w3.org/2000/svg">
<path d="M22.0003 10V11.5M9.00233 22C6.76505 22 5.12851 21.5994 4.00311 20.7087C2.61378 19.6091 2.00342 17.7624 2.00342 15V9C2.00342 4 4.00311 2 9.00233 2H14.0016" stroke="#0841E2" stroke-width="1.5" stroke-linecap="round" stroke-linejoin="round"/>
<path d="M22.0007 10H18.0013C15.0018 10 14.002 9 14.002 6V2L22.0007 10Z" stroke="#0841E2" stroke-width="1.5" stroke-linecap="round" stroke-linejoin="round"/>
<path d="M5.00293 8.31152H11.002" stroke="#0841E2" stroke-width="1.5" stroke-linecap="round" stroke-linejoin="round"/>
<path d="M5.00293 12.3115H9.00231" stroke="#0841E2" stroke-width="1.5" stroke-linecap="round" stroke-linejoin="round"/>
<path d="M18.1381 15.2638C18.4906 16.5217 19.4745 17.5059 20.7373 17.8638M18.7326 14.6691L14.5865 18.8164C14.4287 18.9743 14.2708 19.2848 14.2393 19.5111L14.013 21.0953C13.9288 21.669 14.334 22.069 14.9075 21.9901L16.4912 21.7637C16.7122 21.7322 17.0226 21.5743 17.1857 21.4164L21.3318 17.269C22.0474 16.5533 22.3842 15.7217 21.3318 14.6691C20.2795 13.6164 19.4482 13.9533 18.7326 14.6691Z" stroke="#0841E2" stroke-width="1.5" stroke-miterlimit="10" stroke-linecap="round" stroke-linejoin="round"/>
<path d="M8.70238 19.707C9.77514 18.0666 11.6346 14.6483 10.4903 14.0989C9.05996 13.4122 8.82157 16.5024 9.17916 17.1891C9.53674 17.8758 8.46399 19.2492 8.1064 18.3336C7.74881 17.418 8.34479 16.5024 9.41755 16.8458C10.4903 17.1891 10.7287 18.1047 11.0863 17.9903C11.4439 17.8758 11.5631 17.1891 12.0398 17.1891C12.5166 17.1891 13.4702 17.418 13.7086 16.5024" stroke="#0841E2" stroke-linecap="round" stroke-linejoin="round"/>
</svg>
