<svg width="29" height="30" viewBox="0 0 29 30" fill="none" xmlns="http://www.w3.org/2000/svg">
<path d="M14.4069 5.16136C17.6151 5.16136 17.995 5.17542 19.2567 5.23169C20.4292 5.28326 21.0624 5.48017 21.4845 5.64427C22.0427 5.85993 22.446 6.12248 22.8635 6.53975C23.2856 6.96171 23.5435 7.36023 23.7593 7.91815C23.9235 8.34011 24.1204 8.97773 24.172 10.1451C24.2283 11.411 24.2424 11.7908 24.2424 14.993C24.2424 18.1998 24.2283 18.5796 24.172 19.8408C24.1204 21.0129 23.9235 21.6458 23.7593 22.0678C23.5435 22.6257 23.2809 23.0289 22.8635 23.4462C22.4413 23.8681 22.0427 24.126 21.4845 24.3417C21.0624 24.5058 20.4245 24.7027 19.2567 24.7542C17.9903 24.8105 17.6104 24.8246 14.4069 24.8246C11.1988 24.8246 10.8189 24.8105 9.55722 24.7542C8.38466 24.7027 7.75148 24.5058 7.32935 24.3417C6.77121 24.126 6.36785 23.8635 5.95042 23.4462C5.5283 23.0242 5.27033 22.6257 5.05458 22.0678C4.89042 21.6458 4.69343 21.0082 4.64184 19.8408C4.58556 18.5749 4.57149 18.1952 4.57149 14.993C4.57149 11.7861 4.58556 11.4063 4.64184 10.1451C4.69343 8.97304 4.89042 8.34011 5.05458 7.91815C5.27033 7.36023 5.53299 6.95702 5.95042 6.53975C6.37254 6.1178 6.77121 5.85993 7.32935 5.64427C7.75148 5.48017 8.38935 5.28326 9.55722 5.23169C10.8189 5.17542 11.1988 5.16136 14.4069 5.16136ZM14.4069 3C11.1472 3 10.7392 3.01407 9.45873 3.07033C8.18298 3.12659 7.3059 3.33288 6.54608 3.62825C5.75343 3.93768 5.08272 4.34558 4.41671 5.01602C3.746 5.68177 3.33795 6.35222 3.0284 7.13987C2.73291 7.90408 2.52654 8.77613 2.47026 10.0514C2.41397 11.336 2.3999 11.7439 2.3999 15.0023C2.3999 18.2608 2.41397 18.6687 2.47026 19.9486C2.52654 21.2239 2.73291 22.1006 3.0284 22.8601C3.33795 23.6525 3.746 24.3229 4.41671 24.9887C5.08272 25.6544 5.75343 26.067 6.54139 26.3718C7.3059 26.6671 8.17829 26.8734 9.45404 26.9297C10.7345 26.9859 11.1425 27 14.4022 27C17.662 27 18.07 26.9859 19.3505 26.9297C20.6262 26.8734 21.5033 26.6671 22.2631 26.3718C23.0511 26.067 23.7218 25.6544 24.3878 24.9887C25.0538 24.3229 25.4665 23.6525 25.7714 22.8648C26.0669 22.1006 26.2733 21.2286 26.3295 19.9533C26.3858 18.6734 26.3999 18.2655 26.3999 15.007C26.3999 11.7486 26.3858 11.3407 26.3295 10.0608C26.2733 8.78551 26.0669 7.90877 25.7714 7.14925C25.4759 6.35222 25.0679 5.68177 24.3972 5.01602C23.7312 4.35026 23.0604 3.93768 22.2725 3.63294C21.508 3.33757 20.6356 3.13128 19.3598 3.07501C18.0747 3.01407 17.6667 3 14.4069 3Z" fill="#0841E2"/>
<path d="M14.4069 8.83708C11.0018 8.83708 8.23926 11.5986 8.23926 15.0023C8.23926 18.4061 11.0018 21.1676 14.4069 21.1676C17.8121 21.1676 20.5746 18.4061 20.5746 15.0023C20.5746 11.5986 17.8121 8.83708 14.4069 8.83708ZM14.4069 19.0016C12.1978 19.0016 10.4062 17.2106 10.4062 15.0023C10.4062 12.7941 12.1978 11.0031 14.4069 11.0031C16.616 11.0031 18.4077 12.7941 18.4077 15.0023C18.4077 17.2106 16.616 19.0016 14.4069 19.0016Z" fill="#0841E2"/>
<path d="M22.2584 8.59329C22.2584 9.39033 21.6112 10.0326 20.8185 10.0326C20.0212 10.0326 19.3786 9.38564 19.3786 8.59329C19.3786 7.79626 20.0259 7.15395 20.8185 7.15395C21.6112 7.15395 22.2584 7.80095 22.2584 8.59329Z" fill="#0841E2"/>
</svg>
