<svg width="35" height="27" viewBox="0 0 35 27" fill="none" xmlns="http://www.w3.org/2000/svg">
<path d="M8.82048 24.4088V23.053C8.82048 22.5344 8.50523 22.1948 7.96404 22.1948C7.69345 22.1948 7.39922 22.2843 7.19693 22.5792C7.0393 22.3317 6.81337 22.1948 6.47448 22.1948C6.24855 22.1948 6.02262 22.2633 5.84397 22.5107V22.2396H5.37109V24.4088H5.84397V23.211C5.84397 22.8266 6.04626 22.645 6.36151 22.645C6.67676 22.645 6.83439 22.8477 6.83439 23.211V24.4088H7.30727V23.211C7.30727 22.8266 7.5332 22.645 7.82481 22.645C8.14006 22.645 8.29768 22.8477 8.29768 23.211V24.4088H8.82048ZM15.8348 22.2396H15.0677V21.5841H14.5948V22.2396H14.1666V22.6687H14.5948V23.6638C14.5948 24.1613 14.7971 24.4535 15.3383 24.4535C15.5406 24.4535 15.7665 24.3851 15.9242 24.2956L15.7876 23.8875C15.6509 23.977 15.4933 24.0007 15.3804 24.0007C15.1544 24.0007 15.0651 23.8638 15.0651 23.6401V22.6687H15.8322V22.2396H15.8348ZM19.8491 22.1922C19.5785 22.1922 19.3972 22.3291 19.2842 22.5081V22.2369H18.8113V24.4061H19.2842V23.1846C19.2842 22.824 19.4418 22.6186 19.7361 22.6186C19.8254 22.6186 19.9384 22.6423 20.0303 22.6634L20.1669 22.2106C20.0724 22.1922 19.9384 22.1922 19.8491 22.1922ZM13.7831 22.4186C13.5571 22.2606 13.2419 22.1922 12.903 22.1922C12.3618 22.1922 12.0019 22.4633 12.0019 22.8924C12.0019 23.2531 12.2725 23.4584 12.7454 23.5242L12.9713 23.5479C13.2182 23.5927 13.3549 23.6611 13.3549 23.7743C13.3549 23.9323 13.1736 24.0455 12.8583 24.0455C12.5431 24.0455 12.2935 23.9323 12.1359 23.8191L11.9099 24.1797C12.1569 24.3614 12.4958 24.4509 12.8347 24.4509C13.4652 24.4509 13.8277 24.1561 13.8277 23.7506C13.8277 23.3663 13.5335 23.1636 13.0843 23.0951L12.8583 23.0714C12.656 23.0478 12.4984 23.003 12.4984 22.8687C12.4984 22.7108 12.656 22.6213 12.9056 22.6213C13.1762 22.6213 13.4468 22.7345 13.5834 22.8029L13.7831 22.4186ZM26.3643 22.1922C26.0937 22.1922 25.9124 22.3291 25.7994 22.5081V22.2369H25.3266V24.4061H25.7994V23.1846C25.7994 22.824 25.9571 22.6186 26.2513 22.6186C26.3406 22.6186 26.4536 22.6423 26.5455 22.6634L26.6821 22.2159C26.5902 22.1922 26.4562 22.1922 26.3643 22.1922ZM20.3219 23.3242C20.3219 23.9797 20.7738 24.4535 21.4726 24.4535C21.7879 24.4535 22.0138 24.3851 22.2397 24.2061L22.0138 23.8217C21.8325 23.9586 21.6539 24.0244 21.449 24.0244C21.0654 24.0244 20.7948 23.7533 20.7948 23.3242C20.7948 22.9161 21.0654 22.645 21.449 22.6239C21.6512 22.6239 21.8325 22.6924 22.0138 22.8266L22.2397 22.4423C22.0138 22.2606 21.7879 22.1948 21.4726 22.1948C20.7738 22.1922 20.3219 22.6687 20.3219 23.3242ZM24.6961 23.3242V22.2396H24.2232V22.5107C24.0655 22.308 23.8396 22.1948 23.5454 22.1948C22.9359 22.1948 22.463 22.6687 22.463 23.3242C22.463 23.9797 22.9359 24.4535 23.5454 24.4535C23.8606 24.4535 24.0866 24.3403 24.2232 24.1376V24.4088H24.6961V23.3242ZM22.9595 23.3242C22.9595 22.9398 23.2065 22.6239 23.6137 22.6239C23.9972 22.6239 24.2678 22.9188 24.2678 23.3242C24.2678 23.7085 23.9972 24.0244 23.6137 24.0244C23.2091 24.0007 22.9595 23.7059 22.9595 23.3242ZM17.3008 22.1922C16.6703 22.1922 16.2184 22.645 16.2184 23.3215C16.2184 24.0007 16.6703 24.4509 17.3244 24.4509C17.6397 24.4509 17.9549 24.3614 18.2045 24.1561L17.9786 23.8165C17.7973 23.9533 17.5714 24.0429 17.3481 24.0429C17.0538 24.0429 16.7622 23.906 16.6939 23.5242H18.2938C18.2938 23.4558 18.2938 23.411 18.2938 23.3426C18.3148 22.645 17.9076 22.1922 17.3008 22.1922ZM17.3008 22.6002C17.595 22.6002 17.7973 22.7819 17.8419 23.1188H16.7149C16.7596 22.8266 16.9619 22.6002 17.3008 22.6002ZM29.0492 23.3242V21.3813H28.5763V22.5107C28.4187 22.308 28.1927 22.1948 27.8985 22.1948C27.289 22.1948 26.8161 22.6687 26.8161 23.3242C26.8161 23.9797 27.289 24.4535 27.8985 24.4535C28.2137 24.4535 28.4397 24.3403 28.5763 24.1376V24.4088H29.0492V23.3242ZM27.3126 23.3242C27.3126 22.9398 27.5596 22.6239 27.9668 22.6239C28.3504 22.6239 28.6209 22.9188 28.6209 23.3242C28.6209 23.7085 28.3504 24.0244 27.9668 24.0244C27.5596 24.0007 27.3126 23.7059 27.3126 23.3242ZM11.4817 23.3242V22.2396H11.0089V22.5107C10.8512 22.308 10.6253 22.1948 10.3311 22.1948C9.72157 22.1948 9.2487 22.6687 9.2487 23.3242C9.2487 23.9797 9.72157 24.4535 10.3311 24.4535C10.6463 24.4535 10.8722 24.3403 11.0089 24.1376V24.4088H11.4817V23.3242ZM9.7242 23.3242C9.7242 22.9398 9.97115 22.6239 10.3783 22.6239C10.7619 22.6239 11.0325 22.9188 11.0325 23.3242C11.0325 23.7085 10.7619 24.0244 10.3783 24.0244C9.97115 24.0007 9.7242 23.7059 9.7242 23.3242Z" fill="black"/>
<path d="M20.7292 5.76514H13.6255V18.5541H20.7292V5.76514Z" fill="#FF5A00"/>
<path d="M14.098 12.1595C14.098 9.56115 15.317 7.25504 17.1875 5.76502C15.8109 4.68041 14.0744 4.0249 12.1802 4.0249C7.69315 4.0249 4.0625 7.66308 4.0625 12.1595C4.0625 16.6559 7.69315 20.294 12.1802 20.294C14.0744 20.294 15.8109 19.6385 17.1875 18.5539C15.3144 17.085 14.098 14.7578 14.098 12.1595Z" fill="#EB001B"/>
<path d="M30.3125 12.1595C30.3125 16.6559 26.6818 20.294 22.1948 20.294C20.3006 20.294 18.5641 19.6385 17.1875 18.5539C19.0816 17.0613 20.277 14.7578 20.277 12.1595C20.277 9.56115 19.058 7.25504 17.1875 5.76502C18.5615 4.68041 20.298 4.0249 22.1921 4.0249C26.6818 4.0249 30.3125 7.68678 30.3125 12.1595Z" fill="#F79E1B"/>
</svg>
