<svg width="33" height="21" viewBox="0 0 33 21" fill="none" xmlns="http://www.w3.org/2000/svg">
<path d="M3.84839 12.3848H1.35388C1.2713 12.3847 1.19141 12.4142 1.12862 12.4678C1.06582 12.5214 1.02425 12.5957 1.01138 12.6773L0.00249257 19.0739C-0.00214561 19.1035 -0.000295411 19.1339 0.00791486 19.1628C0.0161251 19.1917 0.0305006 19.2185 0.050052 19.2413C0.0696034 19.2641 0.0938661 19.2824 0.121169 19.2949C0.148472 19.3074 0.178167 19.3139 0.20821 19.3139H1.39911C1.48174 19.3139 1.56167 19.2844 1.62448 19.2307C1.68728 19.177 1.72882 19.1026 1.74161 19.021L2.01371 17.2957C2.02649 17.2141 2.06797 17.1398 2.1307 17.0861C2.19343 17.0324 2.27327 17.0029 2.35584 17.0028H3.14552C4.78871 17.0028 5.73705 16.2077 5.98471 14.632C6.09632 13.9426 5.98945 13.401 5.66665 13.0216C5.31212 12.6051 4.68329 12.3848 3.84839 12.3848ZM4.13617 14.721C3.99976 15.6161 3.31586 15.6161 2.65457 15.6161H2.27815L2.54223 13.9444C2.54996 13.8955 2.57489 13.851 2.61253 13.8188C2.65018 13.7867 2.69807 13.769 2.74758 13.769H2.92011C3.37057 13.769 3.7955 13.769 4.01508 14.0258C4.14602 14.179 4.18614 14.4066 4.13617 14.721ZM11.3049 14.6922H10.1104C10.0609 14.6922 10.013 14.7098 9.97532 14.742C9.93768 14.7742 9.91275 14.8187 9.90501 14.8676L9.85213 15.2017L9.7686 15.0806C9.50999 14.7053 8.93333 14.5798 8.35776 14.5798C7.03774 14.5798 5.9103 15.5796 5.69073 16.982C5.57656 17.6816 5.73887 18.3506 6.13572 18.8171C6.49973 19.246 7.02059 19.4248 7.6403 19.4248C8.7039 19.4248 9.2937 18.7408 9.2937 18.7408L9.24044 19.0728C9.2357 19.1024 9.23744 19.1328 9.24556 19.1617C9.25367 19.1907 9.26796 19.2175 9.28745 19.2404C9.30693 19.2633 9.33115 19.2817 9.35842 19.2943C9.38569 19.3069 9.41538 19.3135 9.44543 19.3135H10.5214C10.6041 19.3135 10.684 19.284 10.7468 19.2303C10.8096 19.1766 10.8511 19.1023 10.8639 19.0206L11.5095 14.9322C11.5143 14.9025 11.5126 14.8723 11.5045 14.8434C11.4964 14.8145 11.4821 14.7877 11.4626 14.7649C11.4432 14.7421 11.419 14.7238 11.3918 14.7112C11.3645 14.6986 11.3349 14.6921 11.3049 14.6922ZM9.63984 17.0171C9.52458 17.6995 8.98293 18.1576 8.2921 18.1576C7.94523 18.1576 7.66802 18.0464 7.49002 17.8355C7.31348 17.6262 7.24637 17.3282 7.30254 16.9963C7.41014 16.3197 7.96091 15.8466 8.64117 15.8466C8.98038 15.8466 9.25613 15.9593 9.43777 16.1719C9.61978 16.3868 9.692 16.6866 9.63984 17.0171ZM17.6668 14.6922H16.4664C16.4098 14.6922 16.3541 14.7061 16.3041 14.7327C16.2541 14.7592 16.2113 14.7975 16.1794 14.8443L14.5238 17.283L13.822 14.9395C13.8005 14.868 13.7565 14.8053 13.6966 14.7608C13.6367 14.7163 13.564 14.6922 13.4894 14.6922H12.3098C12.2767 14.6921 12.244 14.6999 12.2145 14.715C12.1851 14.7301 12.1596 14.752 12.1403 14.7789C12.121 14.8058 12.1084 14.8369 12.1036 14.8696C12.0987 14.9024 12.1018 14.9358 12.1125 14.9672L13.4347 18.8474L12.1916 20.6022C12.1695 20.6333 12.1564 20.6699 12.1537 20.7079C12.1511 20.746 12.1589 20.7841 12.1764 20.818C12.1939 20.8519 12.2204 20.8803 12.253 20.9001C12.2856 20.92 12.3231 20.9304 12.3612 20.9304H13.5601C13.6161 20.9305 13.6713 20.917 13.7209 20.8911C13.7705 20.8652 13.8131 20.8276 13.845 20.7816L17.8375 15.0186C17.8592 14.9874 17.8719 14.9509 17.8742 14.913C17.8766 14.8752 17.8686 14.8374 17.851 14.8037C17.8334 14.7701 17.8069 14.7419 17.7745 14.7222C17.742 14.7026 17.7048 14.6922 17.6668 14.6922Z" fill="#253B80"/>
<path d="M21.6414 12.3842H19.1465C19.064 12.3842 18.9842 12.4137 18.9215 12.4673C18.8588 12.5209 18.8173 12.5952 18.8044 12.6767L17.7955 19.0733C17.7908 19.1029 17.7926 19.1332 17.8008 19.1621C17.8089 19.1909 17.8232 19.2177 17.8427 19.2405C17.8622 19.2633 17.8864 19.2816 17.9136 19.2942C17.9409 19.3068 17.9705 19.3133 18.0005 19.3133H19.2808C19.3385 19.3132 19.3944 19.2925 19.4382 19.2549C19.4821 19.2173 19.5111 19.1653 19.52 19.1083L19.8064 17.2951C19.8192 17.2135 19.8606 17.1392 19.9234 17.0855C19.9861 17.0318 20.0659 17.0023 20.1485 17.0022H20.9378C22.5814 17.0022 23.5293 16.2071 23.7774 14.6314C23.8894 13.942 23.7818 13.4003 23.459 13.021C23.1048 12.6045 22.4763 12.3842 21.6414 12.3842ZM21.9292 14.7204C21.7932 15.6154 21.1093 15.6154 20.4476 15.6154H20.0715L20.336 13.9438C20.3436 13.8949 20.3684 13.8503 20.406 13.8181C20.4436 13.786 20.4915 13.7683 20.541 13.7684H20.7135C21.1636 13.7684 21.5889 13.7684 21.8085 14.0252C21.9394 14.1783 21.9792 14.4059 21.9292 14.7204ZM29.0976 14.6915H27.9038C27.8543 14.6914 27.8063 14.709 27.7687 14.7412C27.7311 14.7734 27.7063 14.818 27.6988 14.867L27.6459 15.2011L27.562 15.08C27.3034 14.7047 26.7271 14.5792 26.1515 14.5792C24.8315 14.5792 23.7044 15.579 23.4848 16.9814C23.371 17.681 23.5326 18.35 23.9295 18.8165C24.2942 19.2454 24.8144 19.4241 25.4341 19.4241C26.4977 19.4241 27.0875 18.7402 27.0875 18.7402L27.0342 19.0722C27.0295 19.1019 27.0312 19.1323 27.0394 19.1613C27.0475 19.1903 27.0619 19.2172 27.0814 19.2401C27.101 19.2629 27.1253 19.2813 27.1527 19.2939C27.18 19.3065 27.2098 19.313 27.2399 19.3129H28.3156C28.3981 19.3128 28.478 19.2833 28.5407 19.2296C28.6034 19.1759 28.6449 19.1016 28.6577 19.02L29.3037 14.9315C29.3082 14.9018 29.3063 14.8715 29.2981 14.8426C29.2898 14.8137 29.2754 14.7869 29.2558 14.7641C29.2363 14.7413 29.212 14.723 29.1847 14.7105C29.1573 14.698 29.1276 14.6915 29.0976 14.6915ZM27.4325 17.0164C27.318 17.6989 26.7756 18.157 26.0848 18.157C25.7386 18.157 25.4607 18.0458 25.2827 17.8349C25.1062 17.6256 25.0398 17.3276 25.0952 16.9957C25.2035 16.319 25.7536 15.846 26.4338 15.846C26.773 15.846 27.0488 15.9587 27.2304 16.1713C27.4132 16.3862 27.4854 16.686 27.4325 17.0164ZM30.5059 12.5596L29.482 19.0733C29.4773 19.1029 29.4791 19.1332 29.4873 19.1621C29.4954 19.1909 29.5097 19.2177 29.5292 19.2405C29.5487 19.2633 29.5729 19.2816 29.6001 19.2942C29.6274 19.3068 29.657 19.3133 29.687 19.3133H30.7163C30.8874 19.3133 31.0326 19.1892 31.0588 19.0204L32.0684 12.6242C32.0731 12.5945 32.0713 12.5642 32.0632 12.5353C32.0551 12.5064 32.0408 12.4796 32.0213 12.4568C32.0018 12.4339 31.9776 12.4156 31.9504 12.403C31.9231 12.3904 31.8935 12.3838 31.8635 12.3838H30.7109C30.6614 12.384 30.6136 12.4018 30.576 12.434C30.5384 12.4662 30.5136 12.5107 30.5059 12.5596Z" fill="#179BD7"/>
<path d="M14.0133 11.564L14.204 10.3524L13.7791 10.3425H11.75L13.1601 1.40146C13.1643 1.37415 13.1782 1.34925 13.1992 1.3313C13.2202 1.31336 13.247 1.30357 13.2746 1.30371H16.696C17.8318 1.30371 18.6156 1.54007 19.0249 2.00658C19.2167 2.22543 19.3389 2.45413 19.398 2.7058C19.46 2.96988 19.4611 3.28538 19.4006 3.67019L19.3962 3.69828V3.94485L19.5881 4.05354C19.7345 4.12775 19.8662 4.22812 19.9765 4.34972C20.1406 4.53683 20.2468 4.77465 20.2916 5.0566C20.338 5.34657 20.3227 5.69162 20.2468 6.08227C20.1592 6.53163 20.0177 6.92301 19.8266 7.24326C19.658 7.53015 19.4312 7.77862 19.1609 7.97275C18.9071 8.15293 18.6054 8.28971 18.2644 8.37725C17.9339 8.46333 17.5571 8.50674 17.1439 8.50674H16.8776C16.6872 8.50674 16.5023 8.57531 16.3571 8.69823C16.2122 8.82246 16.116 8.99411 16.0857 9.18262L16.0657 9.29168L15.7287 11.4273L15.7133 11.5057C15.7093 11.5305 15.7024 11.5429 15.6922 11.5513C15.6823 11.5594 15.67 11.5639 15.6572 11.564H14.0133Z" fill="#253B80"/>
<path d="M19.7706 3.72559C19.7604 3.79088 19.7487 3.85762 19.7356 3.9262C19.2844 6.24271 17.7408 7.04296 15.7693 7.04296H14.7655C14.5244 7.04296 14.3213 7.21804 14.2837 7.45586L13.7698 10.7152L13.6242 11.6391C13.6185 11.6758 13.6207 11.7133 13.6307 11.749C13.6408 11.7847 13.6585 11.8178 13.6826 11.846C13.7067 11.8742 13.7366 11.8969 13.7703 11.9124C13.804 11.928 13.8406 11.936 13.8777 11.936H15.6581C15.8689 11.936 16.048 11.7829 16.0812 11.5749L16.0987 11.4845L16.4339 9.35728L16.4554 9.24056C16.4882 9.03193 16.6677 8.87873 16.8785 8.87873H17.1448C18.8697 8.87873 20.22 8.17842 20.6146 6.15188C20.7795 5.30531 20.6941 4.59843 20.2579 4.10128C20.1196 3.94748 19.9545 3.82018 19.7706 3.72559Z" fill="#179BD7"/>
<path d="M19.2962 3.53805C19.1521 3.49638 19.0055 3.46385 18.8574 3.44067C18.5646 3.39567 18.2687 3.37408 17.9725 3.37611H15.2909C15.1888 3.37603 15.0901 3.41246 15.0126 3.47882C14.935 3.54518 14.8838 3.63709 14.8681 3.73794L14.2977 7.35112L14.2812 7.45653C14.299 7.34151 14.3574 7.23665 14.4458 7.16091C14.5341 7.08518 14.6467 7.04358 14.7631 7.04364H15.7669C17.7383 7.04364 19.2819 6.24302 19.7331 3.92687C19.7466 3.8583 19.7579 3.79155 19.7681 3.72626C19.6491 3.66383 19.525 3.61149 19.3972 3.56979C19.3637 3.55867 19.33 3.54809 19.2962 3.53805Z" fill="#222D65"/>
<path d="M14.8699 3.73788C14.8855 3.637 14.9367 3.54505 15.0142 3.47872C15.0918 3.4124 15.1906 3.37609 15.2927 3.37641H17.9743C18.292 3.37641 18.5885 3.3972 18.8592 3.44097C19.0423 3.46975 19.2229 3.5128 19.3994 3.56973C19.5325 3.61386 19.6561 3.66602 19.7703 3.7262C19.9045 2.87014 19.7692 2.28728 19.3063 1.75949C18.7961 1.17845 17.8751 0.929688 16.6966 0.929688H13.2753C13.0345 0.929688 12.8292 1.10477 12.792 1.34295L11.3669 10.3759C11.3603 10.4178 11.3628 10.4607 11.3743 10.5016C11.3858 10.5425 11.406 10.5804 11.4336 10.6127C11.4612 10.645 11.4954 10.6709 11.5339 10.6887C11.5725 10.7065 11.6144 10.7158 11.6569 10.7159H13.7691L14.2995 7.35106L14.8699 3.73788Z" fill="#253B80"/>
</svg>
