<svg width="18" height="19" viewBox="0 0 18 19" fill="none" xmlns="http://www.w3.org/2000/svg">
<path d="M16.4775 14.2479C16.4775 14.518 16.4175 14.7955 16.29 15.0656C16.1625 15.3356 15.9975 15.5907 15.78 15.8307C15.4125 16.2358 15.0075 16.5283 14.55 16.7158C14.1 16.9034 13.6125 17.0009 13.0875 17.0009C12.3225 17.0009 11.505 16.8208 10.6425 16.4533C9.78 16.0857 8.9175 15.5907 8.0625 14.9681C7.2 14.338 6.3825 13.6403 5.6025 12.8677C4.83 12.0876 4.1325 11.27 3.51 10.4148C2.895 9.55971 2.4 8.70458 2.04 7.85695C1.68 7.00181 1.5 6.18419 1.5 5.40407C1.5 4.89399 1.59 4.40641 1.77 3.95634C1.95 3.49877 2.235 3.0787 2.6325 2.70364C3.1125 2.23107 3.6375 1.99854 4.1925 1.99854C4.4025 1.99854 4.6125 2.04354 4.8 2.13356C4.995 2.22357 5.1675 2.35859 5.3025 2.55362L7.0425 5.0065C7.1775 5.19403 7.275 5.36656 7.3425 5.53159C7.41 5.68911 7.4475 5.84663 7.4475 5.98916C7.4475 6.16918 7.395 6.34921 7.29 6.52174C7.1925 6.69427 7.05 6.87429 6.87 7.05432L6.3 7.64691C6.2175 7.72943 6.18 7.82694 6.18 7.94696C6.18 8.00697 6.1875 8.05948 6.2025 8.11949C6.225 8.1795 6.2475 8.2245 6.2625 8.26951C6.3975 8.51705 6.63 8.8396 6.96 9.22966C7.2975 9.61972 7.6575 10.0173 8.0475 10.4148C8.4525 10.8124 8.8425 11.18 9.24 11.5175C9.63 11.8476 9.9525 12.0726 10.2075 12.2076C10.245 12.2226 10.29 12.2451 10.3425 12.2676C10.4025 12.2901 10.4625 12.2976 10.53 12.2976C10.6575 12.2976 10.755 12.2526 10.8375 12.1701L11.4075 11.6075C11.595 11.42 11.775 11.2775 11.9475 11.1875C12.12 11.0824 12.2925 11.0299 12.48 11.0299C12.6225 11.0299 12.7725 11.0599 12.9375 11.1275C13.1025 11.195 13.275 11.2925 13.4625 11.42L15.945 13.1828C16.14 13.3178 16.275 13.4753 16.3575 13.6629C16.4325 13.8504 16.4775 14.0379 16.4775 14.2479Z" stroke="#0D2237" stroke-width="1.5" stroke-miterlimit="10"/>
<path d="M13.875 7.24943C13.875 6.79936 13.5225 6.10925 12.9975 5.54667C12.5175 5.02909 11.88 4.62402 11.25 4.62402" stroke="#0D2237" stroke-width="1.5" stroke-linecap="round" stroke-linejoin="round"/>
<path d="M16.5 7.24935C16.5 4.3464 14.1525 1.99854 11.25 1.99854" stroke="#0D2237" stroke-width="1.5" stroke-linecap="round" stroke-linejoin="round"/>
</svg>
