<svg width="132" height="21" viewBox="0 0 132 21" fill="none" xmlns="http://www.w3.org/2000/svg">
<path d="M9.16047 3.0043C9.24605 2.85086 9.36863 2.72354 9.51598 2.63505C9.66334 2.54657 9.83033 2.5 10.0003 2.5C10.1702 2.5 10.3372 2.54657 10.4846 2.63505C10.632 2.72354 10.7545 2.85086 10.8401 3.0043L13.0135 6.90295L17.2344 7.85852C17.4004 7.89622 17.5541 7.97874 17.6801 8.09784C17.8061 8.21695 17.9 8.36849 17.9525 8.53735C18.005 8.70621 18.0142 8.88649 17.9792 9.06023C17.9442 9.23396 17.8662 9.39508 17.7531 9.52751L14.8759 12.8923L15.3114 17.3817C15.3285 17.5585 15.301 17.7369 15.2316 17.8991C15.1622 18.0613 15.0532 18.2016 14.9157 18.306C14.7781 18.4105 14.6167 18.4754 14.4476 18.4942C14.2786 18.5131 14.1077 18.4853 13.9521 18.4136L10.0003 16.5935L6.04848 18.4136C5.8929 18.4853 5.72203 18.5131 5.55295 18.4942C5.38387 18.4754 5.22249 18.4105 5.08492 18.306C4.94735 18.2016 4.83841 18.0613 4.76898 17.8991C4.69954 17.7369 4.67204 17.5585 4.68922 17.3817L5.12468 12.8923L2.24752 9.52832C2.13417 9.3959 2.05604 9.23472 2.02094 9.06088C1.98584 8.88703 1.99499 8.70661 2.04748 8.53762C2.09997 8.36863 2.19397 8.21698 2.32008 8.09782C2.4462 7.97865 2.60002 7.89614 2.76619 7.85852L6.98705 6.90295L9.16047 3.0043Z" fill="#F79009"/>
<path d="M37.1605 3.0043C37.246 2.85086 37.3686 2.72354 37.516 2.63505C37.6633 2.54657 37.8303 2.5 38.0003 2.5C38.1702 2.5 38.3372 2.54657 38.4846 2.63505C38.632 2.72354 38.7545 2.85086 38.8401 3.0043L41.0135 6.90295L45.2344 7.85852C45.4004 7.89622 45.5541 7.97874 45.6801 8.09784C45.8061 8.21695 45.9 8.36849 45.9525 8.53735C46.005 8.70621 46.0142 8.88649 45.9792 9.06023C45.9442 9.23396 45.8662 9.39508 45.7531 9.52751L42.8759 12.8923L43.3114 17.3817C43.3285 17.5585 43.301 17.7369 43.2316 17.8991C43.1622 18.0613 43.0532 18.2016 42.9157 18.306C42.7781 18.4105 42.6167 18.4754 42.4476 18.4942C42.2786 18.5131 42.1077 18.4853 41.9521 18.4136L38.0003 16.5935L34.0485 18.4136C33.8929 18.4853 33.722 18.5131 33.553 18.4942C33.3839 18.4754 33.2225 18.4105 33.0849 18.306C32.9474 18.2016 32.8384 18.0613 32.769 17.8991C32.6995 17.7369 32.672 17.5585 32.6892 17.3817L33.1247 12.8923L30.2475 9.52832C30.1342 9.3959 30.056 9.23472 30.0209 9.06088C29.9858 8.88703 29.995 8.70661 30.0475 8.53762C30.1 8.36863 30.194 8.21698 30.3201 8.09782C30.4462 7.97865 30.6 7.89614 30.7662 7.85852L34.9871 6.90295L37.1605 3.0043Z" fill="#F79009"/>
<path d="M65.1605 3.0043C65.246 2.85086 65.3686 2.72354 65.516 2.63505C65.6633 2.54657 65.8303 2.5 66.0003 2.5C66.1702 2.5 66.3372 2.54657 66.4846 2.63505C66.632 2.72354 66.7545 2.85086 66.8401 3.0043L69.0135 6.90295L73.2344 7.85852C73.4004 7.89622 73.5541 7.97874 73.6801 8.09784C73.8061 8.21695 73.9 8.36849 73.9525 8.53735C74.005 8.70621 74.0142 8.88649 73.9792 9.06023C73.9442 9.23396 73.8662 9.39508 73.7531 9.52751L70.8759 12.8923L71.3114 17.3817C71.3285 17.5585 71.301 17.7369 71.2316 17.8991C71.1622 18.0613 71.0532 18.2016 70.9157 18.306C70.7781 18.4105 70.6167 18.4754 70.4476 18.4942C70.2786 18.5131 70.1077 18.4853 69.9521 18.4136L66.0003 16.5935L62.0485 18.4136C61.8929 18.4853 61.722 18.5131 61.553 18.4942C61.3839 18.4754 61.2225 18.4105 61.0849 18.306C60.9474 18.2016 60.8384 18.0613 60.769 17.8991C60.6995 17.7369 60.672 17.5585 60.6892 17.3817L61.1247 12.8923L58.2475 9.52832C58.1342 9.3959 58.056 9.23472 58.0209 9.06088C57.9858 8.88703 57.995 8.70661 58.0475 8.53762C58.1 8.36863 58.194 8.21698 58.3201 8.09782C58.4462 7.97865 58.6 7.89614 58.7662 7.85852L62.9871 6.90295L65.1605 3.0043Z" fill="#F79009"/>
<path d="M93.1605 3.0043C93.246 2.85086 93.3686 2.72354 93.516 2.63505C93.6633 2.54657 93.8303 2.5 94.0003 2.5C94.1702 2.5 94.3372 2.54657 94.4846 2.63505C94.632 2.72354 94.7545 2.85086 94.8401 3.0043L97.0135 6.90295L101.234 7.85852C101.4 7.89622 101.554 7.97874 101.68 8.09784C101.806 8.21695 101.9 8.36849 101.952 8.53735C102.005 8.70621 102.014 8.88649 101.979 9.06023C101.944 9.23396 101.866 9.39508 101.753 9.52751L98.8759 12.8923L99.3114 17.3817C99.3285 17.5585 99.301 17.7369 99.2316 17.8991C99.1622 18.0613 99.0532 18.2016 98.9157 18.306C98.7781 18.4105 98.6167 18.4754 98.4476 18.4942C98.2786 18.5131 98.1077 18.4853 97.9521 18.4136L94.0003 16.5935L90.0485 18.4136C89.8929 18.4853 89.722 18.5131 89.553 18.4942C89.3839 18.4754 89.2225 18.4105 89.0849 18.306C88.9474 18.2016 88.8384 18.0613 88.769 17.8991C88.6995 17.7369 88.672 17.5585 88.6892 17.3817L89.1247 12.8923L86.2475 9.52832C86.1342 9.3959 86.056 9.23472 86.0209 9.06088C85.9858 8.88703 85.995 8.70661 86.0475 8.53762C86.1 8.36863 86.194 8.21698 86.3201 8.09782C86.4462 7.97865 86.6 7.89614 86.7662 7.85852L90.9871 6.90295L93.1605 3.0043Z" fill="#F79009"/>
<path d="M121.5 16.2734L117.839 17.96C117.766 17.9937 117.686 18.0058 117.608 17.9971C117.531 17.9884 117.454 17.9587 117.388 17.9082C117.321 17.8573 117.265 17.7865 117.229 17.7021C117.192 17.6178 117.177 17.5234 117.187 17.4297L117.622 12.9404L117.643 12.7285L117.505 12.5674L114.628 9.20312H114.627C114.57 9.13667 114.529 9.05361 114.511 8.96191C114.492 8.87008 114.498 8.77427 114.525 8.68555C114.553 8.59711 114.601 8.51978 114.663 8.46094C114.725 8.40213 114.8 8.36316 114.877 8.3457L119.098 7.39062L119.315 7.3418L119.424 7.14648L121.5 3.42285V16.2734ZM124.577 7.14648L124.686 7.3418L124.903 7.39062L129.124 8.3457C129.201 8.36322 129.275 8.40221 129.337 8.46094C129.399 8.5198 129.447 8.59708 129.475 8.68555C129.502 8.77422 129.508 8.87012 129.489 8.96191C129.471 9.05335 129.43 9.13579 129.373 9.20215L126.496 12.5674L126.357 12.7285L126.378 12.9404L126.813 17.4297C126.823 17.5234 126.808 17.6177 126.771 17.7021C126.735 17.7865 126.68 17.8573 126.613 17.9082C126.547 17.9587 126.47 17.9883 126.393 17.9971C126.315 18.0058 126.235 17.9938 126.161 17.96L122.5 16.2734V3.4209L124.577 7.14648Z" fill="#F79009" stroke="#F79009"/>
<path d="M122.404 2.63505C122.257 2.54657 122.09 2.5 121.92 2.5V16.5935L125.872 18.4136C126.027 18.4853 126.198 18.5131 126.367 18.4942C126.536 18.4754 126.698 18.4105 126.835 18.306C126.973 18.2016 127.082 18.0613 127.151 17.8991C127.221 17.7369 127.248 17.5585 127.231 17.3817L126.796 12.8923L129.673 9.52751C129.786 9.39508 129.864 9.23396 129.899 9.06023C129.934 8.88649 129.925 8.70621 129.872 8.53735C129.82 8.36849 129.726 8.21695 129.6 8.09784C129.474 7.97874 129.32 7.89622 129.154 7.85852L124.933 6.90295L122.76 3.0043C122.674 2.85086 122.552 2.72354 122.404 2.63505Z" fill="white"/>
<path d="M122 2.75C122.124 2.75 122.246 2.78427 122.355 2.84961C122.464 2.91509 122.557 3.0098 122.622 3.12598L124.795 7.02441L124.85 7.12207L124.958 7.14648L129.179 8.10254C129.3 8.13014 129.415 8.19035 129.509 8.2793C129.603 8.36826 129.674 8.48272 129.714 8.61133C129.754 8.74004 129.761 8.87803 129.734 9.01074C129.708 9.14341 129.648 9.26579 129.563 9.36523L126.685 12.7295L126.617 12.8105L126.627 12.916L127.062 17.4062C127.075 17.5414 127.055 17.6776 127.002 17.8008C126.949 17.9239 126.867 18.0288 126.765 18.1064C126.662 18.184 126.543 18.2323 126.42 18.2461C126.296 18.2599 126.171 18.2393 126.057 18.1865L122.104 16.3662L122 16.3184L121.895 16.3662L117.944 18.1865H117.943C117.829 18.2391 117.704 18.2598 117.581 18.2461C117.457 18.2323 117.338 18.184 117.236 18.1064C117.134 18.0288 117.052 17.9239 116.999 17.8008C116.946 17.6776 116.925 17.5414 116.938 17.4062L117.373 12.916L117.384 12.8105L117.314 12.7295L114.437 9.36621C114.352 9.26681 114.292 9.14445 114.266 9.01172C114.239 8.87887 114.246 8.74019 114.286 8.61133C114.326 8.48266 114.398 8.36827 114.492 8.2793C114.586 8.19051 114.7 8.13006 114.821 8.10254L119.042 7.14648L119.151 7.12207L119.205 7.02441L121.379 3.12598C121.444 3.00993 121.536 2.91507 121.644 2.84961C121.753 2.78424 121.876 2.75005 122 2.75Z" stroke="#F79009" stroke-width="0.5"/>
</svg>
