<svg width="92" height="43" viewBox="0 0 92 43" fill="none" xmlns="http://www.w3.org/2000/svg">
<g clip-path="url(#clip0_10001_33017)">
<path d="M56.7001 38.9C56.6001 38.8 56.4001 38.4999 56.2001 38.2999C55.8001 37.7999 55.1001 37.0999 54.2001 36.2999C53.3001 35.5999 52.1001 34.9 50.6001 34.4C50.4001 34.4 50.2001 34.3 50.1001 34.2C49.9001 34.2 49.7001 34.1999 49.5001 34.0999C49.1001 33.9999 48.7001 33.9 48.3001 33.9C47.5001 33.8 46.6001 33.8 45.8001 33.9C45.4001 33.9 45.0001 33.9999 44.5001 34.0999C44.1001 34.1999 43.7001 34.2999 43.3001 34.4999C43.1001 34.4999 42.9001 34.7 42.7001 34.7C42.5001 34.7 42.3001 34.8999 42.2001 34.9999C41.8001 35.1999 41.5001 35.3999 41.2001 35.5999C40.6001 36.0999 40.0001 36.5999 39.5001 37.0999C39.3001 37.3999 39.1001 37.6 38.9001 37.9C37.3001 37.3 36.0001 37.5 35.1001 37.9C34.9001 37.6 34.7001 37.3999 34.5001 37.0999C34.0001 36.5999 33.5001 36.0999 32.8001 35.5999C32.5001 35.3999 32.1001 35.0999 31.8001 34.9999C31.6001 34.9999 31.4001 34.8 31.3001 34.7C31.1001 34.7 30.9001 34.4999 30.7001 34.4999C30.3001 34.2999 29.9001 34.1999 29.5001 34.0999C29.1001 34.0999 28.7001 33.9 28.2001 33.9C27.3001 33.9 26.5001 33.9 25.7001 33.9C25.3001 33.9 24.9001 33.9999 24.5001 34.0999C24.3001 34.0999 24.1001 34.1 23.9001 34.2C23.7001 34.2 23.5001 34.3 23.4001 34.4C22.0001 34.9 20.8001 35.5999 19.8001 36.2999C18.9001 36.9999 18.2001 37.6999 17.8001 38.2999C17.6001 38.5999 17.4001 38.8 17.3001 38.9C17.2001 39.1 17.1001 39.0999 17.1001 39.0999C17.1001 39.0999 17.5001 39 18.1001 38.7C18.7001 38.5 19.6001 38.1999 20.6001 37.7999C21.1001 37.5999 21.7001 37.4999 22.3001 37.2999C22.9001 37.0999 23.5001 37 24.1001 36.9C24.7001 36.8 25.4001 36.7 26.0001 36.7C26.6001 36.7 27.3001 36.7 27.9001 36.7C28.2001 36.7 28.5001 36.6999 28.8001 36.7999C29.1001 36.7999 29.4001 36.8999 29.7001 36.9999C30.0001 36.9999 30.3001 37.1999 30.6001 37.2999C30.9001 37.2999 31.2001 37.5 31.4001 37.7C31.9001 38 32.5001 38.2999 32.9001 38.5999C33.2001 38.6999 33.4001 38.8999 33.6001 39.0999C33.8001 39.2999 34.1001 39.3999 34.2001 39.5999C34.6001 39.8999 35.0001 40.2999 35.3001 40.5999C35.6001 40.8999 35.9001 41.2 36.2001 41.4C36.4001 41.6 36.6001 41.8 36.8001 41.9C36.9001 42 37.0001 42.0999 37.0001 42.0999C37.0001 42.0999 37.0001 42.1 37.2001 41.9C37.3001 41.8 37.5001 41.6 37.8001 41.4C38.0001 41.2 38.3001 40.8999 38.7001 40.5999C39.0001 40.2999 39.4001 39.9999 39.8001 39.5999C40.0001 39.3999 40.2001 39.2999 40.4001 39.0999C40.6001 38.8999 40.8001 38.6999 41.1001 38.5999C41.6001 38.2999 42.1001 38 42.6001 37.7C42.9001 37.6 43.1001 37.3999 43.4001 37.2999C43.7001 37.1999 44.0001 37.0999 44.3001 36.9999C44.6001 36.8999 44.9001 36.8999 45.2001 36.7999C45.5001 36.7999 45.8001 36.7 46.1001 36.7C46.7001 36.7 47.4001 36.7 48.0001 36.7C48.6001 36.7 49.3001 36.8 49.9001 36.9C50.5001 37 51.1001 37.0999 51.7001 37.2999C52.3001 37.3999 52.8001 37.5999 53.4001 37.7999C54.4001 38.0999 55.3001 38.4 55.9001 38.7C56.5001 38.9 56.9001 39.0999 56.9001 39.0999C56.9001 39.0999 56.9001 39.1 56.7001 38.9Z" fill="white"/>
<path d="M90.8999 14.1C90.7999 14 90.5999 13.8 90.3999 13.6C89.8999 13.2 89.1999 12.7 88.2999 12.3C87.3999 11.9 86.1999 11.5 84.8999 11.3C84.6999 11.3 84.5999 11.3 84.3999 11.3C84.1999 11.3 84.0999 11.3 83.8999 11.3C83.5999 11.3 83.1999 11.3 82.8999 11.3C82.1999 11.3 81.4999 11.5 80.7999 11.7C80.3999 11.8 80.0999 12 79.7999 12.1C79.4999 12.3 79.0999 12.4 78.7999 12.6C78.5999 12.7 78.4999 12.8 78.2999 12.9C78.1999 13 77.9999 13.1 77.8999 13.2C77.5999 13.4 77.3999 13.7 77.0999 13.9C76.5999 14.4 76.2999 14.9 75.9999 15.5C75.7999 15.8 75.6999 16 75.5999 16.3C74.1999 16.1 73.0999 16.4 72.2999 16.9C72.0999 16.7 71.8999 16.5 71.6999 16.4C71.1999 16 70.6999 15.7 69.9999 15.4C69.6999 15.3 69.3999 15.1 68.9999 15C68.7999 15 68.6999 14.9 68.4999 14.8C68.2999 14.8 68.0999 14.8 67.9999 14.7C67.5999 14.7 67.2999 14.7 66.8999 14.6C66.4999 14.6 66.1999 14.6 65.7999 14.6C65.0999 14.6 64.2999 14.8 63.6999 15.1C63.3999 15.2 62.9999 15.3 62.6999 15.5C62.4999 15.5 62.3999 15.7 62.1999 15.7C62.0999 15.7 61.8999 15.9 61.7999 16C60.6999 16.7 59.7999 17.5 59.0999 18.3C58.3999 19.1 57.9999 19.8 57.6999 20.3C57.5999 20.6 57.4999 20.8 57.3999 20.9C57.3999 21 57.3999 21.1 57.3999 21.1C57.3999 21.1 57.6999 20.9 58.1999 20.6C58.6999 20.3 59.3999 19.9 60.1999 19.4C60.5999 19.2 60.9999 18.9 61.4999 18.7C61.9999 18.5 62.4999 18.2 62.9999 18C63.4999 17.8 63.9999 17.6 64.5999 17.5C65.0999 17.4 65.6999 17.3 66.1999 17.2C66.4999 17.2 66.6999 17.2 66.9999 17.2C67.2999 17.2 67.4999 17.2 67.7999 17.2C68.0999 17.2 68.2999 17.2 68.5999 17.3C68.8999 17.3 69.0999 17.4 69.3999 17.5C69.8999 17.6 70.3999 17.8 70.8999 18C71.0999 18 71.3999 18.2 71.5999 18.3C71.7999 18.4 71.9999 18.5 72.1999 18.6C72.5999 18.8 72.9999 19 73.2999 19.2C73.5999 19.4 73.8999 19.6 74.1999 19.7C74.3999 19.9 74.5999 20 74.7999 20.1C74.8999 20.1 74.9999 20.2 74.9999 20.2C74.9999 20.2 74.9999 20.2 75.0999 20C75.0999 19.9 75.2999 19.7 75.4999 19.5C75.6999 19.3 75.8999 19 76.0999 18.7C76.2999 18.4 76.5999 18 76.8999 17.7C76.9999 17.5 77.1999 17.3 77.3999 17.2C77.5999 17 77.6999 16.8 77.8999 16.7C78.1999 16.3 78.5999 16 78.9999 15.7C79.1999 15.5 79.3999 15.4 79.5999 15.2C79.7999 15 79.9999 14.9 80.2999 14.8C80.4999 14.7 80.7999 14.6 80.9999 14.5C81.2999 14.5 81.4999 14.3 81.7999 14.2C82.2999 14 82.8999 13.9 83.3999 13.8C83.8999 13.8 84.4999 13.7 84.9999 13.7C85.4999 13.7 86.0999 13.7 86.5999 13.7C87.0999 13.7 87.5999 13.7 88.0999 13.8C88.9999 13.9 89.7999 14 90.3999 14.1C90.9999 14.1 91.2999 14.2 91.2999 14.2C91.2999 14.2 91.2999 14.2 91.0999 14L90.8999 14.1Z" fill="white"/>
<path d="M33.4998 10.4C33.4998 10.3 33.3998 10 33.1998 9.80005C32.8998 9.30005 32.4998 8.50005 31.8998 7.80005C31.1998 7.00005 30.3998 6.20005 29.2998 5.50005C29.1998 5.50005 28.9998 5.30005 28.8998 5.20005C28.7998 5.20005 28.5998 5.00005 28.3998 5.00005C28.0998 4.80005 27.7998 4.70005 27.3998 4.60005C26.6998 4.40005 25.9998 4.20005 25.2998 4.10005C24.8998 4.10005 24.5998 4.10005 24.1998 4.10005C23.7998 4.10005 23.4998 4.10005 23.0998 4.10005C22.8998 4.10005 22.6998 4.10005 22.5998 4.10005C22.3998 4.10005 22.2998 4.10005 22.0998 4.20005C21.7998 4.20005 21.3998 4.40005 21.0998 4.50005C20.4998 4.80005 19.8998 5.10005 19.3998 5.40005C19.0998 5.60005 18.8998 5.80005 18.6998 5.90005C17.4998 5.10005 16.3998 5.00005 15.4998 5.10005C15.3998 4.80005 15.2998 4.60005 15.0998 4.30005C14.7998 3.80005 14.4998 3.20005 13.9998 2.70005C13.7998 2.40005 13.4998 2.20005 13.2998 2.00005C13.1998 1.90005 12.9998 1.80005 12.8998 1.60005C12.7998 1.50005 12.5998 1.40005 12.4998 1.30005C12.1998 1.10005 11.8998 0.900049 11.5998 0.700049C11.2998 0.500049 10.8998 0.400049 10.5998 0.300049C9.89981 0.100049 9.1998 -0.0999512 8.4998 -0.199951C8.0998 -0.199951 7.7998 -0.199951 7.4998 -0.199951C7.2998 -0.199951 7.1998 -0.199951 6.9998 -0.199951C6.7998 -0.199951 6.6998 -0.199951 6.4998 -0.199951C5.1998 -0.0999512 3.9998 0.300049 3.0998 0.700049C2.1998 1.10005 1.4998 1.60005 0.999805 1.90005C0.799805 2.10005 0.599805 2.20005 0.499805 2.30005C0.399805 2.40005 0.299805 2.50005 0.299805 2.50005C0.299805 2.50005 0.599805 2.50005 1.1998 2.40005C1.7998 2.40005 2.5998 2.20005 3.4998 2.20005C3.9998 2.20005 4.4998 2.20005 4.9998 2.20005C5.4998 2.20005 6.0998 2.20005 6.5998 2.20005C7.0998 2.20005 7.6998 2.30005 8.1998 2.40005C8.6998 2.50005 9.2998 2.60005 9.7998 2.80005C10.0998 2.80005 10.2998 3.00005 10.5998 3.10005C10.7998 3.20005 11.0998 3.30005 11.2998 3.50005C11.4998 3.60005 11.7998 3.80005 11.9998 3.90005C12.1998 4.00005 12.3998 4.20005 12.5998 4.40005C12.9998 4.70005 13.3998 5.10005 13.6998 5.50005C13.8998 5.70005 13.9998 5.90005 14.1998 6.10005C14.3998 6.30005 14.4998 6.50005 14.5998 6.60005C14.8998 7.00005 15.0998 7.30005 15.3998 7.60005C15.5998 7.90005 15.7998 8.20005 15.9998 8.40005C16.0998 8.60005 16.2998 8.80005 16.3998 9.00005C16.3998 9.10005 16.4998 9.20005 16.4998 9.20005C16.4998 9.20005 16.4998 9.20005 16.6998 9.10005C16.7998 9.10005 16.9998 8.90005 17.2998 8.80005C17.4998 8.60005 17.8998 8.50005 18.1998 8.30005C18.4998 8.10005 18.8998 7.90005 19.2998 7.70005C19.4998 7.60005 19.6998 7.50005 19.8998 7.40005C20.0998 7.30005 20.2998 7.20005 20.5998 7.10005C21.0998 6.90005 21.5998 6.80005 22.0998 6.60005C22.3998 6.60005 22.5998 6.50005 22.8998 6.40005C23.1998 6.40005 23.3998 6.40005 23.6998 6.40005C23.9998 6.40005 24.1998 6.40005 24.4998 6.40005C24.7998 6.40005 24.9998 6.40005 25.2998 6.40005C25.7998 6.40005 26.3998 6.60005 26.8998 6.70005C27.3998 6.90005 27.9998 7.00005 28.4998 7.30005C28.9998 7.50005 29.4998 7.70005 29.8998 8.00005C30.3998 8.20005 30.7998 8.50005 31.1998 8.70005C31.9998 9.20005 32.6998 9.60005 33.1998 9.90005C33.6998 10.2 33.9998 10.4 33.9998 10.4C33.9998 10.4 33.9998 10.4 33.9998 10.2L33.4998 10.4Z" fill="white"/>
</g>
<defs>
<clipPath id="clip0_10001_33017">
<rect width="91.1" height="42.2" fill="white"/>
</clipPath>
</defs>
</svg>
