<svg width="156" height="32" viewBox="0 0 156 32" fill="none" xmlns="http://www.w3.org/2000/svg">
<g clip-path="url(#clip0_8424_4667)">
<path d="M4.8966 26.7087C3.13916 26.8408 0.534668 25.2556 0.534668 25.2556C2.32937 27.1768 2.8836 30.8237 4.8966 31.1752C6.80805 31.509 7.60342 28.3588 9.52294 28.2341C11.6622 28.0952 12.6043 31.0623 14.7441 31.1752C17.1061 31.2999 18.1997 28.4362 20.56 28.2341C23.1802 28.0097 24.5979 31.877 27.1319 30.682C29.1582 29.7265 31.4649 24.0917 31.4649 24.0917C31.4649 24.0917 28.6749 26.2963 26.696 26.5624C24.2038 26.8976 23.0592 24.025 20.56 24.0917C18.1845 24.1551 17.1187 26.3436 14.7441 26.2113C12.5904 26.0913 11.6761 24.3084 9.52294 24.4556C7.58796 24.5879 6.83128 26.5634 4.8966 26.7087Z" fill="#0841E2"/>
<path d="M1.87851 19.7092L3.13903 23.2734C3.31293 23.7651 3.83553 24.0406 4.33947 23.9062C4.33947 23.9062 7.37332 22.5002 9.43511 22.5236C11.5669 22.5478 12.6598 23.8959 14.6404 23.9062C16.8887 23.9179 17.9853 22.2571 20.0925 22.2316C22.1819 22.2063 25.186 23.8707 25.186 23.8707C25.6448 24.0289 26.151 23.8348 26.3864 23.4105L31.3396 14.4832C31.597 14.0192 31.4472 13.4349 30.9983 13.152L27.2385 10.7829C26.9971 10.6307 26.7021 10.589 26.4279 10.6682L14.9474 13.9848C14.772 14.0354 14.6139 14.1331 14.4901 14.2672L12.4723 16.4531C12.3238 16.614 12.1266 16.7217 11.911 16.7597L2.64786 18.391C2.03909 18.4982 1.67241 19.1265 1.87851 19.7092Z" fill="#0841E2"/>
<path d="M11.206 14.5914L7.13421 15.3519C6.51899 15.4669 5.9506 14.9948 5.9506 14.3689L5.9506 7.74008C5.9506 7.45722 6.07039 7.18758 6.28031 6.99798L7.76267 5.65905C7.94646 5.49305 8.1853 5.40115 8.43296 5.40115H19.0925C19.6448 5.40115 20.0925 5.84887 20.0925 6.40115V9.80671C20.0925 10.2449 19.8072 10.6321 19.3886 10.7619L13.5743 12.5643C13.4115 12.6148 13.2643 12.706 13.1467 12.8294L11.7462 14.2984C11.6013 14.4504 11.4123 14.5529 11.206 14.5914Z" fill="#0841E2"/>
<path d="M11.1608 1.8V2.91256C11.1608 3.46485 11.6085 3.91256 12.1608 3.91256H14.559C15.1112 3.91256 15.559 3.46485 15.559 2.91256V1.8C15.559 1.24771 15.1112 0.799995 14.559 0.799995H12.1608C11.6085 0.799995 11.1608 1.24771 11.1608 1.8Z" fill="#0841E2"/>
</g>
<path d="M156 8.58927L150.648 24.314H147.014L141.685 8.58927H145.054L148.006 17.9493C148.064 18.1108 148.145 18.4117 148.248 18.8522C148.365 19.278 148.483 19.7332 148.6 20.2177C148.718 20.6875 148.798 21.0839 148.842 21.4069C148.886 21.0839 148.96 20.6875 149.063 20.2177C149.18 19.7332 149.298 19.278 149.415 18.8522C149.533 18.4117 149.613 18.1108 149.657 17.9493L152.63 8.58927H156Z" fill="#0841E2"/>
<path d="M136.32 11.1651C135.688 11.1651 135.116 11.2899 134.602 11.5395C134.103 11.7745 133.677 12.1268 133.324 12.5967C132.972 13.0518 132.7 13.6098 132.51 14.2705C132.333 14.9165 132.245 15.6579 132.245 16.4948C132.245 17.596 132.4 18.543 132.708 19.3359C133.016 20.114 133.479 20.7087 134.095 21.1198C134.727 21.5309 135.512 21.7364 136.452 21.7364C137.142 21.7364 137.803 21.6557 138.434 21.4942C139.08 21.3327 139.726 21.1271 140.372 20.8775V23.7406C139.711 24.0195 139.036 24.2177 138.346 24.3352C137.67 24.4673 136.914 24.5334 136.077 24.5334C134.404 24.5334 133.024 24.203 131.937 23.5423C130.865 22.867 130.065 21.9199 129.536 20.7013C129.023 19.4827 128.766 18.0732 128.766 16.4728C128.766 15.2835 128.927 14.197 129.25 13.2133C129.588 12.2149 130.08 11.356 130.726 10.6366C131.372 9.91715 132.165 9.35922 133.104 8.9628C134.044 8.56638 135.13 8.36816 136.364 8.36816C137.142 8.36816 137.927 8.45626 138.72 8.63245C139.528 8.79395 140.291 9.05089 141.011 9.40327L139.91 12.0901C139.381 11.8405 138.816 11.6276 138.214 11.4515C137.626 11.2606 136.995 11.1651 136.32 11.1651Z" fill="#0841E2"/>
<path d="M125.963 12.069C126.183 12.069 126.418 12.0837 126.668 12.113C126.932 12.1277 127.137 12.1571 127.284 12.2011L126.954 15.3064C126.792 15.2771 126.602 15.2477 126.381 15.2183C126.161 15.189 125.897 15.1743 125.588 15.1743C125.251 15.1743 124.906 15.2257 124.553 15.3284C124.216 15.4312 123.9 15.6001 123.606 15.835C123.313 16.0699 123.078 16.3782 122.902 16.76C122.725 17.1417 122.637 17.6262 122.637 18.2135V24.314H119.312V12.2892H121.844L122.329 14.3154H122.483C122.718 13.8896 123.012 13.5078 123.364 13.1701C123.716 12.8325 124.113 12.5682 124.553 12.3773C124.994 12.1717 125.464 12.069 125.963 12.069Z" fill="#001224"/>
<path d="M111.302 12.069C112.418 12.069 113.38 12.2819 114.187 12.7077C114.995 13.1188 115.611 13.7354 116.037 14.5576C116.478 15.3652 116.698 16.3562 116.698 17.5308V19.1385H108.968C108.997 20.0488 109.276 20.7682 109.805 21.2968C110.333 21.8107 111.089 22.0676 112.073 22.0676C112.822 22.0676 113.505 21.9942 114.121 21.8474C114.738 21.7006 115.369 21.4803 116.015 21.1867V23.6753C115.428 23.969 114.804 24.1819 114.143 24.314C113.497 24.4608 112.69 24.5343 111.721 24.5343C110.531 24.5343 109.474 24.314 108.549 23.8736C107.639 23.4331 106.92 22.7577 106.391 21.8474C105.862 20.9224 105.598 19.7698 105.598 18.3897C105.598 16.9802 105.833 15.813 106.303 14.888C106.787 13.9483 107.455 13.2436 108.307 12.7737C109.173 12.3039 110.172 12.069 111.302 12.069ZM111.39 14.4255C110.73 14.4255 110.194 14.6384 109.783 15.0642C109.372 15.4753 109.129 16.0919 109.056 16.9141H113.593C113.593 16.4296 113.512 16.0038 113.35 15.6368C113.189 15.2697 112.939 14.9761 112.602 14.7558C112.279 14.5356 111.875 14.4255 111.39 14.4255Z" fill="#001224"/>
<path d="M103.402 12.069C103.622 12.069 103.857 12.0837 104.107 12.113C104.371 12.1277 104.576 12.1571 104.723 12.2011L104.393 15.3064C104.231 15.2771 104.041 15.2477 103.82 15.2183C103.6 15.189 103.336 15.1743 103.027 15.1743C102.69 15.1743 102.345 15.2257 101.992 15.3284C101.655 15.4312 101.339 15.6001 101.045 15.835C100.752 16.0699 100.517 16.3782 100.341 16.76C100.164 17.1417 100.076 17.6262 100.076 18.2135V24.314H96.7507V12.2892H99.2834L99.768 14.3154H99.9221C100.157 13.8896 100.451 13.5078 100.803 13.1701C101.155 12.8325 101.552 12.5682 101.992 12.3773C102.433 12.1717 102.903 12.069 103.402 12.069Z" fill="#001224"/>
<path d="M88.9406 12.069C90.4529 12.069 91.6054 12.4287 92.3983 13.1481C93.1911 13.8529 93.5875 14.9027 93.5875 16.2975V24.314H91.2751L90.6364 22.6843H90.5483C90.2106 23.1101 89.8582 23.4625 89.4912 23.7414C89.1388 24.0204 88.7277 24.2186 88.2579 24.3361C87.788 24.4682 87.2154 24.5343 86.54 24.5343C85.8353 24.5343 85.2039 24.4021 84.646 24.1378C84.0881 23.8589 83.6476 23.4404 83.3246 22.8825C83.0016 22.3246 82.8401 21.6198 82.8401 20.7682C82.8401 19.5056 83.2952 18.5586 84.2055 17.9272C85.1158 17.2959 86.474 16.9435 88.2799 16.8701L90.284 16.804V16.4296C90.284 15.7102 90.1225 15.211 89.7995 14.932C89.4765 14.6384 89.0213 14.4916 88.4341 14.4916C87.8908 14.4916 87.3329 14.5796 86.7603 14.7558C86.1877 14.932 85.6224 15.1449 85.0645 15.3945L84.0954 13.1261C84.7268 12.8031 85.4462 12.5461 86.2537 12.3553C87.0759 12.1644 87.9716 12.069 88.9406 12.069ZM89.0287 18.8082C87.9862 18.8375 87.2595 19.0064 86.8484 19.3147C86.4373 19.623 86.2317 20.0562 86.2317 20.6141C86.2317 21.128 86.3712 21.5097 86.6502 21.7593C86.9438 21.9942 87.3255 22.1117 87.7954 22.1117C88.5001 22.1117 89.0874 21.9061 89.5573 21.495C90.0418 21.0839 90.284 20.4966 90.284 19.7331V18.7421L89.0287 18.8082Z" fill="#001224"/>
<path d="M81.811 14.7554H78.97V24.3136H75.6885V14.7554H73.8826V13.1697L75.6885 12.2888V11.4079C75.6885 10.3801 75.8573 9.58726 76.195 9.02933C76.5474 8.45672 77.0393 8.05295 77.6706 7.81804C78.3166 7.58312 79.0728 7.46566 79.939 7.46566C80.585 7.46566 81.165 7.51705 81.6789 7.61983C82.2074 7.7226 82.6332 7.84006 82.9562 7.9722L82.1194 10.3728C81.8698 10.2993 81.5981 10.2333 81.3045 10.1745C81.0108 10.1011 80.6731 10.0644 80.2914 10.0644C79.8362 10.0644 79.4986 10.2039 79.2783 10.4829C79.0728 10.7618 78.97 11.1142 78.97 11.54V12.2888H81.811V14.7554Z" fill="#001224"/>
<path d="M67.2397 12.069C68.7519 12.069 69.9045 12.4287 70.6974 13.1481C71.4902 13.8529 71.8866 14.9027 71.8866 16.2975V24.314H69.5742L68.9355 22.6843H68.8474C68.5097 23.1101 68.1573 23.4625 67.7903 23.7414C67.4379 24.0204 67.0268 24.2186 66.5569 24.3361C66.0871 24.4682 65.5145 24.5343 64.8391 24.5343C64.1344 24.5343 63.503 24.4021 62.9451 24.1378C62.3872 23.8589 61.9467 23.4404 61.6237 22.8825C61.3007 22.3246 61.1392 21.6198 61.1392 20.7682C61.1392 19.5056 61.5943 18.5586 62.5046 17.9272C63.4149 17.2959 64.773 16.9435 66.579 16.8701L68.5831 16.804V16.4296C68.5831 15.7102 68.4216 15.211 68.0986 14.932C67.7756 14.6384 67.3204 14.4916 66.7331 14.4916C66.1899 14.4916 65.6319 14.5796 65.0593 14.7558C64.4867 14.932 63.9215 15.1449 63.3635 15.3945L62.3945 13.1261C63.0258 12.8031 63.7453 12.5461 64.5528 12.3553C65.375 12.1644 66.2706 12.069 67.2397 12.069ZM67.3278 18.8082C66.2853 18.8375 65.5585 19.0064 65.1474 19.3147C64.7363 19.623 64.5308 20.0562 64.5308 20.6141C64.5308 21.128 64.6703 21.5097 64.9492 21.7593C65.2429 21.9942 65.6246 22.1117 66.0944 22.1117C66.7992 22.1117 67.3865 21.9061 67.8563 21.495C68.3408 21.0839 68.5831 20.4966 68.5831 19.7331V18.7421L67.3278 18.8082Z" fill="#001224"/>
<path d="M53.8562 12.069C54.972 12.069 55.9337 12.2819 56.7413 12.7077C57.5488 13.1188 58.1654 13.7354 58.5912 14.5576C59.0317 15.3652 59.2519 16.3562 59.2519 17.5308V19.1385H51.5217C51.5511 20.0488 51.83 20.7682 52.3586 21.2968C52.8871 21.8107 53.6433 22.0676 54.627 22.0676C55.3758 22.0676 56.0585 21.9942 56.6752 21.8474C57.2918 21.7006 57.9232 21.4803 58.5692 21.1867V23.6753C57.9819 23.969 57.3579 24.1819 56.6972 24.314C56.0512 24.4608 55.2437 24.5343 54.2746 24.5343C53.0854 24.5343 52.0282 24.314 51.1032 23.8736C50.1929 23.4331 49.4735 22.7577 48.9449 21.8474C48.4164 20.9224 48.1521 19.7698 48.1521 18.3897C48.1521 16.9802 48.387 15.813 48.8569 14.888C49.3414 13.9483 50.0094 13.2436 50.861 12.7737C51.7272 12.3039 52.7256 12.069 53.8562 12.069ZM53.9443 14.4255C53.2836 14.4255 52.7477 14.6384 52.3366 15.0642C51.9255 15.4753 51.6832 16.0919 51.6098 16.9141H56.1466C56.1466 16.4296 56.0659 16.0038 55.9044 15.6368C55.7429 15.2697 55.4933 14.9761 55.1556 14.7558C54.8326 14.5356 54.4288 14.4255 53.9443 14.4255Z" fill="#001224"/>
<path d="M46.2409 19.9525C46.2409 20.8775 46.0133 21.685 45.5582 22.3751C45.103 23.0652 44.4423 23.6011 43.5761 23.9828C42.7245 24.3499 41.6821 24.5334 40.4487 24.5334C39.9055 24.5334 39.3696 24.4967 38.841 24.4233C38.3271 24.3499 37.8279 24.2471 37.3434 24.115C36.8736 23.9681 36.4258 23.7919 36 23.5864V20.4811C36.7488 20.8041 37.5196 21.1051 38.3125 21.384C39.12 21.6483 39.9202 21.7805 40.713 21.7805C41.2563 21.7805 41.6894 21.7071 42.0124 21.5602C42.3501 21.4134 42.5924 21.2152 42.7392 20.9656C42.9007 20.716 42.9814 20.4297 42.9814 20.1067C42.9814 19.7103 42.842 19.3726 42.563 19.0936C42.2987 18.8146 41.939 18.5577 41.4838 18.3228C41.0287 18.0732 40.5075 17.8089 39.9202 17.5299C39.5531 17.3537 39.1567 17.1482 38.7309 16.9133C38.3051 16.6637 37.894 16.3627 37.4976 16.0103C37.1159 15.6433 36.8002 15.2028 36.5506 14.6889C36.301 14.175 36.1762 13.5584 36.1762 12.8389C36.1762 11.8993 36.3891 11.0991 36.8149 10.4384C37.2553 9.76298 37.872 9.2491 38.6648 8.89673C39.4724 8.54435 40.4194 8.36816 41.5059 8.36816C42.3281 8.36816 43.1062 8.4636 43.8404 8.65447C44.5892 8.84534 45.3673 9.11696 46.1748 9.46934L45.0957 12.0681C44.3763 11.7745 43.7302 11.5469 43.1576 11.3854C42.585 11.2239 41.9977 11.1431 41.3958 11.1431C40.9846 11.1431 40.6323 11.2092 40.3386 11.3413C40.045 11.4735 39.8174 11.657 39.6559 11.8919C39.5091 12.1268 39.4357 12.4058 39.4357 12.7288C39.4357 13.0959 39.5458 13.4115 39.766 13.6758C39.9863 13.9254 40.3166 14.1677 40.7571 14.4026C41.1975 14.6375 41.7481 14.9165 42.4088 15.2395C43.2164 15.6212 43.8991 16.0177 44.457 16.4288C45.0296 16.8399 45.4701 17.3244 45.7784 17.8823C46.0868 18.4402 46.2409 19.1303 46.2409 19.9525Z" fill="#001224"/>
<defs>
<clipPath id="clip0_8424_4667">
<rect width="32" height="32" rx="4" fill="white"/>
</clipPath>
</defs>
</svg>
