<svg width="185" height="43" viewBox="0 0 185 43" fill="none" xmlns="http://www.w3.org/2000/svg">
<g clip-path="url(#clip0_8433_33613)">
<path d="M2.2842 25.0469H2.10938V28.112H2.2842V25.0469Z" fill="#C1E0E0"/>
<path d="M2.63576 25.0469H2.46094V28.112H2.63576V25.0469Z" fill="#C1E0E0"/>
<path d="M3.07521 25.0469H2.90039V28.112H3.07521V25.0469Z" fill="#C1E0E0"/>
<path d="M3.42678 25.0469H3.25195V28.112H3.42678V25.0469Z" fill="#C1E0E0"/>
<path d="M3.77834 25.0469H3.60352V28.112H3.77834V25.0469Z" fill="#C1E0E0"/>
<path d="M4.21779 25.0469H4.04297V28.112H4.21779V25.0469Z" fill="#C1E0E0"/>
<path d="M4.56935 25.0469H4.39453V28.112H4.56935V25.0469Z" fill="#C1E0E0"/>
<path d="M5.00832 25.0469H4.8335V28.112H5.00832V25.0469Z" fill="#C1E0E0"/>
<path d="M5.35988 25.0469H5.18506V28.112H5.35988V25.0469Z" fill="#C1E0E0"/>
<path d="M5.71144 25.0469H5.53662V28.112H5.71144V25.0469Z" fill="#C1E0E0"/>
<path d="M6.1509 25.0469H5.97607V28.112H6.1509V25.0469Z" fill="#C1E0E0"/>
<path d="M6.50246 25.0469H6.32764V28.112H6.50246V25.0469Z" fill="#C1E0E0"/>
<path d="M6.32668 21.1936H6.15186V24.2588H6.32668V21.1936Z" fill="#C1E0E0"/>
<path d="M6.85402 21.1936H6.6792V24.2588H6.85402V21.1936Z" fill="#C1E0E0"/>
<path d="M7.38136 21.1936H7.20654V24.2588H7.38136V21.1936Z" fill="#C1E0E0"/>
<path d="M7.90871 21.1936H7.73389V24.2588H7.90871V21.1936Z" fill="#C1E0E0"/>
<path d="M8.43605 21.1936H8.26123V24.2588H8.43605V21.1936Z" fill="#C1E0E0"/>
<path d="M8.9634 21.1936H8.78857V24.2588H8.9634V21.1936Z" fill="#C1E0E0"/>
<path d="M9.49074 21.1936H9.31592V24.2588H9.49074V21.1936Z" fill="#C1E0E0"/>
<path d="M10.0181 17.6028H9.84326V20.668H10.0181V17.6028Z" fill="#C1E0E0"/>
<path d="M10.5454 17.6028H10.3706V20.668H10.5454V17.6028Z" fill="#C1E0E0"/>
<path d="M11.0728 17.6028H10.8979V20.668H11.0728V17.6028Z" fill="#C1E0E0"/>
<path d="M11.6001 17.6028H11.4253V20.668H11.6001V17.6028Z" fill="#C1E0E0"/>
<path d="M12.1275 17.6028H11.9526V20.668H12.1275V17.6028Z" fill="#C1E0E0"/>
<path d="M12.6548 17.6028H12.48V20.668H12.6548V17.6028Z" fill="#C1E0E0"/>
<path d="M6.85402 25.0469H6.6792V28.112H6.85402V25.0469Z" fill="#C1E0E0"/>
<path d="M7.29347 25.0469H7.11865V28.112H7.29347V25.0469Z" fill="#C1E0E0"/>
<path d="M7.64504 25.0469H7.47021V28.112H7.64504V25.0469Z" fill="#C1E0E0"/>
<path d="M0 28.112L2.19715 36.169C2.19715 36.169 3.25178 39.6721 6.15202 40.9857C8.96437 42.2994 11.4252 42.9124 11.4252 42.9124H168.653C168.653 42.9124 179.815 30.5641 185.088 28.0244H0V28.112Z" fill="white"/>
<path d="M5.27295 28.0245L14.0615 15.6762C14.0615 15.6762 15.5556 13.7495 19.3347 13.7495H143.518C143.518 13.7495 148.176 13.4868 150.812 16.8147C153.449 20.1426 161.534 28.0245 161.534 28.0245H5.27295Z" fill="white"/>
<path d="M8.34926 23.6455H3.0761C3.0761 23.6455 2.37301 24.0834 1.66992 25.0467H7.73405L8.43714 23.6455H8.34926Z" fill="white"/>
<path d="M12.3038 19.9675H6.9428C6.9428 19.9675 6.23971 20.4054 5.53662 21.3688H11.6008L12.3038 19.9675Z" fill="white"/>
<path d="M16.171 16.3767H10.81C10.81 16.3767 10.1069 16.8146 9.40381 17.7779H15.4679L16.171 16.3767Z" fill="white"/>
<path d="M30.7603 9.2831L35.5061 0H43.0643L51.4135 9.2831H30.7603Z" fill="#FDBF27"/>
<path d="M30.7603 9.28312L32.8695 4.9043L46.4918 9.28312H30.7603Z" fill="#C1E0E0"/>
<path d="M57.7412 10.334H111.615C111.615 10.334 115.219 11.9104 117.24 13.837H59.5868L57.6533 10.334H57.7412Z" fill="#C1E0E0"/>
<path d="M46.4919 9.28322L31.2876 4.46651L30.8481 3.50317L48.4253 9.28322H46.4919Z" fill="#0841E2"/>
<path d="M23.1143 13.8371L26.7176 10.0713C26.7176 10.0713 27.7722 8.58252 30.233 8.58252H52.2045C52.2045 8.58252 57.8292 8.84525 63.1024 13.8371H23.1143Z" fill="white"/>
<path d="M4.74601 30.8269H3.25195V32.4033H4.74601V30.8269Z" fill="#001224"/>
<path d="M7.03068 30.8269H5.53662V32.4033H7.03068V30.8269Z" fill="#001224"/>
<path d="M9.40373 30.8269H7.90967V32.4033H9.40373V30.8269Z" fill="#001224"/>
<path d="M11.6889 30.8269H10.1948V32.4033H11.6889V30.8269Z" fill="#001224"/>
<path d="M27.8598 30.8269H26.3657V32.4033H27.8598V30.8269Z" fill="#001224"/>
<path d="M30.1449 30.8269H28.6509V32.4033H30.1449V30.8269Z" fill="#001224"/>
<path d="M32.518 30.8269H31.0239V32.4033H32.518V30.8269Z" fill="#001224"/>
<path d="M34.8027 30.8269H33.3086V32.4033H34.8027V30.8269Z" fill="#001224"/>
<path d="M34.8027 30.8269H33.3086V32.4033H34.8027V30.8269Z" fill="#001224"/>
<path d="M37.0878 30.8269H35.5938V32.4033H37.0878V30.8269Z" fill="#001224"/>
<path d="M39.373 30.8269H37.8789V32.4033H39.373V30.8269Z" fill="#001224"/>
<path d="M41.6581 30.8269H40.1641V32.4033H41.6581V30.8269Z" fill="#001224"/>
<path d="M41.6581 30.8269H40.1641V32.4033H41.6581V30.8269Z" fill="#001224"/>
<path d="M43.9428 30.8269H42.4487V32.4033H43.9428V30.8269Z" fill="#001224"/>
<path d="M46.3158 30.8269H44.8218V32.4033H46.3158V30.8269Z" fill="#001224"/>
<path d="M48.601 30.8269H47.1069V32.4033H48.601V30.8269Z" fill="#001224"/>
<path d="M48.601 30.8269H47.1069V32.4033H48.601V30.8269Z" fill="#001224"/>
<path d="M50.8862 30.8269H49.3921V32.4033H50.8862V30.8269Z" fill="#001224"/>
<path d="M53.1708 30.8269H51.6768V32.4033H53.1708V30.8269Z" fill="#001224"/>
<path d="M55.456 30.8269H53.9619V32.4033H55.456V30.8269Z" fill="#001224"/>
<path d="M55.456 30.8269H53.9619V32.4033H55.456V30.8269Z" fill="#001224"/>
<path d="M57.7411 30.8269H56.2471V32.4033H57.7411V30.8269Z" fill="#001224"/>
<path d="M60.1142 30.8269H58.6201V32.4033H60.1142V30.8269Z" fill="#001224"/>
<path d="M39.0214 17.9531H37.5273V19.5295H39.0214V17.9531Z" fill="#001224"/>
<path d="M41.3066 17.9531H39.8125V19.5295H41.3066V17.9531Z" fill="#001224"/>
<path d="M43.5912 17.9531H42.0972V19.5295H43.5912V17.9531Z" fill="#001224"/>
<path d="M45.8764 17.9531H44.3823V19.5295H45.8764V17.9531Z" fill="#001224"/>
<path d="M48.2494 17.9531H46.7554V19.5295H48.2494V17.9531Z" fill="#001224"/>
<path d="M50.5346 17.9531H49.0405V19.5295H50.5346V17.9531Z" fill="#001224"/>
<path d="M52.8193 17.9531H51.3252V19.5295H52.8193V17.9531Z" fill="#001224"/>
<path d="M55.1044 17.9531H53.6104V19.5295H55.1044V17.9531Z" fill="#001224"/>
<path d="M57.3896 17.9531H55.8955V19.5295H57.3896V17.9531Z" fill="#001224"/>
<path d="M62.0473 17.9531H60.5532V19.5295H62.0473V17.9531Z" fill="#001224"/>
<path d="M39.0214 21.719H37.5273V23.2954H39.0214V21.719Z" fill="#001224"/>
<path d="M41.3066 21.719H39.8125V23.2954H41.3066V21.719Z" fill="#001224"/>
<path d="M43.5912 21.719H42.0972V23.2954H43.5912V21.719Z" fill="#001224"/>
<path d="M45.8764 21.719H44.3823V23.2954H45.8764V21.719Z" fill="#001224"/>
<path d="M48.2494 21.719H46.7554V23.2954H48.2494V21.719Z" fill="#001224"/>
<path d="M50.5346 21.719H49.0405V23.2954H50.5346V21.719Z" fill="#001224"/>
<path d="M52.8193 21.719H51.3252V23.2954H52.8193V21.719Z" fill="#001224"/>
<path d="M55.1044 21.719H53.6104V23.2954H55.1044V21.719Z" fill="#001224"/>
<path d="M57.3896 21.719H55.8955V23.2954H57.3896V21.719Z" fill="#001224"/>
<path d="M62.0473 21.719H60.5532V23.2954H62.0473V21.719Z" fill="#001224"/>
<path d="M39.0214 25.6599H37.5273V27.2363H39.0214V25.6599Z" fill="#001224"/>
<path d="M41.3066 25.6599H39.8125V27.2363H41.3066V25.6599Z" fill="#001224"/>
<path d="M43.5912 25.6599H42.0972V27.2363H43.5912V25.6599Z" fill="#001224"/>
<path d="M45.8764 25.6599H44.3823V27.2363H45.8764V25.6599Z" fill="#001224"/>
<path d="M48.2494 25.6599H46.7554V27.2363H48.2494V25.6599Z" fill="#001224"/>
<path d="M50.5346 25.6599H49.0405V27.2363H50.5346V25.6599Z" fill="#001224"/>
<path d="M52.8193 25.6599H51.3252V27.2363H52.8193V25.6599Z" fill="#001224"/>
<path d="M55.1044 25.6599H53.6104V27.2363H55.1044V25.6599Z" fill="#001224"/>
<path d="M57.3896 25.6599H55.8955V27.2363H57.3896V25.6599Z" fill="#001224"/>
<path d="M62.0473 25.6599H60.5532V27.2363H62.0473V25.6599Z" fill="#001224"/>
<path d="M62.0473 25.6599H60.5532V27.2363H62.0473V25.6599Z" fill="#001224"/>
<path d="M64.3324 25.6599H62.8384V27.2363H64.3324V25.6599Z" fill="#001224"/>
<path d="M66.6176 25.6599H65.1235V27.2363H66.6176V25.6599Z" fill="#001224"/>
<path d="M68.9028 25.6599H67.4087V27.2363H68.9028V25.6599Z" fill="#001224"/>
<path d="M71.1874 25.6599H69.6934V27.2363H71.1874V25.6599Z" fill="#001224"/>
<path d="M73.4726 25.6599H71.9785V27.2363H73.4726V25.6599Z" fill="#001224"/>
<path d="M75.7577 25.6599H74.2637V27.2363H75.7577V25.6599Z" fill="#001224"/>
<path d="M78.1308 25.6599H76.6367V27.2363H78.1308V25.6599Z" fill="#001224"/>
<path d="M80.4154 25.6599H78.9214V27.2363H80.4154V25.6599Z" fill="#001224"/>
<path d="M84.9858 25.6599H83.4917V27.2363H84.9858V25.6599Z" fill="#001224"/>
<path d="M62.0473 21.719H60.5532V23.2954H62.0473V21.719Z" fill="#001224"/>
<path d="M64.3324 21.719H62.8384V23.2954H64.3324V21.719Z" fill="#001224"/>
<path d="M66.6176 21.719H65.1235V23.2954H66.6176V21.719Z" fill="#001224"/>
<path d="M68.9028 21.719H67.4087V23.2954H68.9028V21.719Z" fill="#001224"/>
<path d="M71.1874 21.719H69.6934V23.2954H71.1874V21.719Z" fill="#001224"/>
<path d="M73.4726 21.719H71.9785V23.2954H73.4726V21.719Z" fill="#001224"/>
<path d="M75.7577 21.719H74.2637V23.2954H75.7577V21.719Z" fill="#001224"/>
<path d="M78.1308 21.719H76.6367V23.2954H78.1308V21.719Z" fill="#001224"/>
<path d="M80.4154 21.719H78.9214V23.2954H80.4154V21.719Z" fill="#001224"/>
<path d="M84.9858 21.719H83.4917V23.2954H84.9858V21.719Z" fill="#001224"/>
<path d="M62.0473 17.9531H60.5532V19.5295H62.0473V17.9531Z" fill="#001224"/>
<path d="M64.3324 17.9531H62.8384V19.5295H64.3324V17.9531Z" fill="#001224"/>
<path d="M66.6176 17.9531H65.1235V19.5295H66.6176V17.9531Z" fill="#001224"/>
<path d="M68.9028 17.9531H67.4087V19.5295H68.9028V17.9531Z" fill="#001224"/>
<path d="M71.1874 17.9531H69.6934V19.5295H71.1874V17.9531Z" fill="#001224"/>
<path d="M73.4726 17.9531H71.9785V19.5295H73.4726V17.9531Z" fill="#001224"/>
<path d="M75.7577 17.9531H74.2637V19.5295H75.7577V17.9531Z" fill="#001224"/>
<path d="M78.1308 17.9531H76.6367V19.5295H78.1308V17.9531Z" fill="#001224"/>
<path d="M80.4154 17.9531H78.9214V19.5295H80.4154V17.9531Z" fill="#001224"/>
<path d="M84.9858 17.9531H83.4917V19.5295H84.9858V17.9531Z" fill="#001224"/>
<path d="M62.3988 30.8269H60.9048V32.4033H62.3988V30.8269Z" fill="#001224"/>
<path d="M62.3988 30.8269H60.9048V32.4033H62.3988V30.8269Z" fill="#001224"/>
<path d="M64.684 30.8269H63.1899V32.4033H64.684V30.8269Z" fill="#001224"/>
<path d="M66.9692 30.8269H65.4751V32.4033H66.9692V30.8269Z" fill="#001224"/>
<path d="M69.2543 30.8269H67.7603V32.4033H69.2543V30.8269Z" fill="#001224"/>
<path d="M69.2543 30.8269H67.7603V32.4033H69.2543V30.8269Z" fill="#001224"/>
<path d="M71.539 30.8269H70.0449V32.4033H71.539V30.8269Z" fill="#001224"/>
<path d="M73.912 30.8269H72.418V32.4033H73.912V30.8269Z" fill="#001224"/>
<path d="M76.1972 30.8269H74.7031V32.4033H76.1972V30.8269Z" fill="#001224"/>
<path d="M76.1972 30.8269H74.7031V32.4033H76.1972V30.8269Z" fill="#001224"/>
<path d="M78.4823 30.8269H76.9883V32.4033H78.4823V30.8269Z" fill="#001224"/>
<path d="M80.767 30.8269H79.2729V32.4033H80.767V30.8269Z" fill="#001224"/>
<path d="M83.0522 30.8269H81.5581V32.4033H83.0522V30.8269Z" fill="#001224"/>
<path d="M83.0522 30.8269H81.5581V32.4033H83.0522V30.8269Z" fill="#001224"/>
<path d="M85.3373 30.8269H83.8433V32.4033H85.3373V30.8269Z" fill="#001224"/>
<path d="M87.6225 30.8269H86.1284V32.4033H87.6225V30.8269Z" fill="#001224"/>
<path d="M89.995 30.8269H88.501V32.4033H89.995V30.8269Z" fill="#001224"/>
<path d="M89.995 30.8269H88.501V32.4033H89.995V30.8269Z" fill="#001224"/>
<path d="M92.2802 30.8269H90.7861V32.4033H92.2802V30.8269Z" fill="#001224"/>
<path d="M94.5653 30.8269H93.0713V32.4033H94.5653V30.8269Z" fill="#001224"/>
<path d="M96.8505 30.8269H95.3564V32.4033H96.8505V30.8269Z" fill="#001224"/>
<path d="M96.8505 30.8269H95.3564V32.4033H96.8505V30.8269Z" fill="#001224"/>
<path d="M99.1352 30.8269H97.6411V32.4033H99.1352V30.8269Z" fill="#001224"/>
<path d="M101.42 30.8269H99.9263V32.4033H101.42V30.8269Z" fill="#001224"/>
<path d="M103.793 30.8269H102.299V32.4033H103.793V30.8269Z" fill="#001224"/>
<path d="M103.793 30.8269H102.299V32.4033H103.793V30.8269Z" fill="#001224"/>
<path d="M106.079 30.8269H104.584V32.4033H106.079V30.8269Z" fill="#001224"/>
<path d="M108.363 30.8269H106.869V32.4033H108.363V30.8269Z" fill="#001224"/>
<path d="M110.648 30.8269H109.154V32.4033H110.648V30.8269Z" fill="#001224"/>
<path d="M110.648 30.8269H109.154V32.4033H110.648V30.8269Z" fill="#001224"/>
<path d="M112.934 30.8269H111.439V32.4033H112.934V30.8269Z" fill="#001224"/>
<path d="M115.219 30.8269H113.725V32.4033H115.219V30.8269Z" fill="#001224"/>
<path d="M117.591 30.8269H116.097V32.4033H117.591V30.8269Z" fill="#001224"/>
<path d="M117.591 30.8269H116.097V32.4033H117.591V30.8269Z" fill="#001224"/>
<path d="M119.876 30.8269H118.382V32.4033H119.876V30.8269Z" fill="#001224"/>
<path d="M122.162 30.8269H120.667V32.4033H122.162V30.8269Z" fill="#001224"/>
<path d="M124.447 30.8269H122.953V32.4033H124.447V30.8269Z" fill="#001224"/>
<path d="M124.447 30.8269H122.953V32.4033H124.447V30.8269Z" fill="#001224"/>
<path d="M126.731 30.8269H125.237V32.4033H126.731V30.8269Z" fill="#001224"/>
<path d="M129.017 30.8269H127.522V32.4033H129.017V30.8269Z" fill="#001224"/>
<path d="M131.39 30.8269H129.896V32.4033H131.39V30.8269Z" fill="#001224"/>
<path d="M131.39 30.8269H129.896V32.4033H131.39V30.8269Z" fill="#001224"/>
<path d="M133.675 30.8269H132.181V32.4033H133.675V30.8269Z" fill="#001224"/>
<path d="M135.959 30.8269H134.465V32.4033H135.959V30.8269Z" fill="#001224"/>
<path d="M138.245 30.8269H136.75V32.4033H138.245V30.8269Z" fill="#001224"/>
<path d="M138.245 30.8269H136.75V32.4033H138.245V30.8269Z" fill="#001224"/>
<path d="M140.53 30.8269H139.036V32.4033H140.53V30.8269Z" fill="#001224"/>
<path d="M142.815 30.8269H141.321V32.4033H142.815V30.8269Z" fill="#001224"/>
<path d="M145.187 30.8269H143.693V32.4033H145.187V30.8269Z" fill="#001224"/>
<path d="M145.187 30.8269H143.693V32.4033H145.187V30.8269Z" fill="#001224"/>
<path d="M147.473 30.8269H145.979V32.4033H147.473V30.8269Z" fill="#001224"/>
<path d="M149.758 30.8269H148.264V32.4033H149.758V30.8269Z" fill="#001224"/>
<path d="M152.043 30.8269H150.549V32.4033H152.043V30.8269Z" fill="#001224"/>
<path d="M152.043 30.8269H150.549V32.4033H152.043V30.8269Z" fill="#001224"/>
<path d="M154.328 30.8269H152.833V32.4033H154.328V30.8269Z" fill="#001224"/>
<path d="M156.613 30.8269H155.119V32.4033H156.613V30.8269Z" fill="#001224"/>
<path d="M158.986 30.8269H157.492V32.4033H158.986V30.8269Z" fill="#001224"/>
<path d="M158.986 30.8269H157.492V32.4033H158.986V30.8269Z" fill="#001224"/>
<path d="M161.271 30.8269H159.777V32.4033H161.271V30.8269Z" fill="#001224"/>
<path d="M163.556 30.8269H162.062V32.4033H163.556V30.8269Z" fill="#001224"/>
<path d="M165.841 30.8269H164.347V32.4033H165.841V30.8269Z" fill="#001224"/>
<path d="M165.841 30.8269H164.347V32.4033H165.841V30.8269Z" fill="#001224"/>
<path d="M168.126 30.8269H166.632V32.4033H168.126V30.8269Z" fill="#001224"/>
<path d="M170.411 30.8269H168.917V32.4033H170.411V30.8269Z" fill="#001224"/>
<path d="M172.696 30.8269H171.202V32.4033H172.696V30.8269Z" fill="#001224"/>
<path d="M13.974 30.8269H12.48V32.4033H13.974V30.8269Z" fill="#001224"/>
<path d="M16.2587 30.8269H14.7646V32.4033H16.2587V30.8269Z" fill="#001224"/>
<path d="M18.5439 30.8269H17.0498V32.4033H18.5439V30.8269Z" fill="#001224"/>
<path d="M20.829 30.8269H19.335V32.4033H20.829V30.8269Z" fill="#001224"/>
<path d="M23.2021 30.8269H21.708V32.4033H23.2021V30.8269Z" fill="#001224"/>
<path d="M84.9858 25.6599H83.4917V27.2363H84.9858V25.6599Z" fill="#001224"/>
<path d="M87.2709 25.6599H85.7769V27.2363H87.2709V25.6599Z" fill="#001224"/>
<path d="M89.5556 25.6599H88.0615V27.2363H89.5556V25.6599Z" fill="#001224"/>
<path d="M91.9286 25.6599H90.4346V27.2363H91.9286V25.6599Z" fill="#001224"/>
<path d="M94.2138 25.6599H92.7197V27.2363H94.2138V25.6599Z" fill="#001224"/>
<path d="M96.4989 25.6599H95.0049V27.2363H96.4989V25.6599Z" fill="#001224"/>
<path d="M98.7836 25.6599H97.2896V27.2363H98.7836V25.6599Z" fill="#001224"/>
<path d="M101.069 25.6599H99.5747V27.2363H101.069V25.6599Z" fill="#001224"/>
<path d="M103.354 25.6599H101.86V27.2363H103.354V25.6599Z" fill="#001224"/>
<path d="M84.9858 21.719H83.4917V23.2954H84.9858V21.719Z" fill="#001224"/>
<path d="M87.2709 21.719H85.7769V23.2954H87.2709V21.719Z" fill="#001224"/>
<path d="M89.5556 21.719H88.0615V23.2954H89.5556V21.719Z" fill="#001224"/>
<path d="M91.9286 21.719H90.4346V23.2954H91.9286V21.719Z" fill="#001224"/>
<path d="M94.2138 21.719H92.7197V23.2954H94.2138V21.719Z" fill="#001224"/>
<path d="M96.4989 21.719H95.0049V23.2954H96.4989V21.719Z" fill="#001224"/>
<path d="M98.7836 21.719H97.2896V23.2954H98.7836V21.719Z" fill="#001224"/>
<path d="M101.069 21.719H99.5747V23.2954H101.069V21.719Z" fill="#001224"/>
<path d="M103.354 21.719H101.86V23.2954H103.354V21.719Z" fill="#001224"/>
<path d="M84.9858 17.9531H83.4917V19.5295H84.9858V17.9531Z" fill="#001224"/>
<path d="M87.2709 17.9531H85.7769V19.5295H87.2709V17.9531Z" fill="#001224"/>
<path d="M89.5556 17.9531H88.0615V19.5295H89.5556V17.9531Z" fill="#001224"/>
<path d="M91.9286 17.9531H90.4346V19.5295H91.9286V17.9531Z" fill="#001224"/>
<path d="M94.2138 17.9531H92.7197V19.5295H94.2138V17.9531Z" fill="#001224"/>
<path d="M96.4989 17.9531H95.0049V19.5295H96.4989V17.9531Z" fill="#001224"/>
<path d="M98.7836 17.9531H97.2896V19.5295H98.7836V17.9531Z" fill="#001224"/>
<path d="M101.069 17.9531H99.5747V19.5295H101.069V17.9531Z" fill="#001224"/>
<path d="M103.354 17.9531H101.86V19.5295H103.354V17.9531Z" fill="#001224"/>
<path d="M103.354 17.9531H101.86V19.5295H103.354V17.9531Z" fill="#001224"/>
<path d="M108.012 17.9531H106.518V19.5295H108.012V17.9531Z" fill="#001224"/>
<path d="M110.297 17.9531H108.803V19.5295H110.297V17.9531Z" fill="#001224"/>
<path d="M112.582 17.9531H111.088V19.5295H112.582V17.9531Z" fill="#001224"/>
<path d="M114.867 17.9531H113.373V19.5295H114.867V17.9531Z" fill="#001224"/>
<path d="M117.152 17.9531H115.658V19.5295H117.152V17.9531Z" fill="#001224"/>
<path d="M119.437 17.9531H117.943V19.5295H119.437V17.9531Z" fill="#001224"/>
<path d="M121.81 17.9531H120.316V19.5295H121.81V17.9531Z" fill="#001224"/>
<path d="M124.095 17.9531H122.601V19.5295H124.095V17.9531Z" fill="#001224"/>
<path d="M126.38 17.9531H124.886V19.5295H126.38V17.9531Z" fill="#001224"/>
<path d="M103.354 21.719H101.86V23.2954H103.354V21.719Z" fill="#001224"/>
<path d="M107.924 21.719H106.43V23.2954H107.924V21.719Z" fill="#001224"/>
<path d="M110.297 21.719H108.803V23.2954H110.297V21.719Z" fill="#001224"/>
<path d="M112.582 21.719H111.088V23.2954H112.582V21.719Z" fill="#001224"/>
<path d="M114.867 21.719H113.373V23.2954H114.867V21.719Z" fill="#001224"/>
<path d="M117.152 21.719H115.658V23.2954H117.152V21.719Z" fill="#001224"/>
<path d="M119.437 21.719H117.943V23.2954H119.437V21.719Z" fill="#001224"/>
<path d="M121.722 21.719H120.228V23.2954H121.722V21.719Z" fill="#001224"/>
<path d="M124.095 21.719H122.601V23.2954H124.095V21.719Z" fill="#001224"/>
<path d="M126.38 21.719H124.886V23.2954H126.38V21.719Z" fill="#001224"/>
<path d="M103.354 25.6599H101.86V27.2363H103.354V25.6599Z" fill="#001224"/>
<path d="M107.924 25.6599H106.43V27.2363H107.924V25.6599Z" fill="#001224"/>
<path d="M110.297 25.6599H108.803V27.2363H110.297V25.6599Z" fill="#001224"/>
<path d="M112.582 25.6599H111.088V27.2363H112.582V25.6599Z" fill="#001224"/>
<path d="M114.867 25.6599H113.373V27.2363H114.867V25.6599Z" fill="#001224"/>
<path d="M117.152 25.6599H115.658V27.2363H117.152V25.6599Z" fill="#001224"/>
<path d="M119.437 25.6599H117.943V27.2363H119.437V25.6599Z" fill="#001224"/>
<path d="M121.722 25.6599H120.228V27.2363H121.722V25.6599Z" fill="#001224"/>
<path d="M124.095 25.6599H122.601V27.2363H124.095V25.6599Z" fill="#001224"/>
<path d="M126.38 25.6599H124.886V27.2363H126.38V25.6599Z" fill="#001224"/>
<path d="M6.85495 34.9429C6.85495 35.1181 6.76707 35.2056 6.59129 35.2056C6.41552 35.2056 6.32764 35.1181 6.32764 34.9429C6.32764 34.7678 6.41552 34.6802 6.59129 34.6802C6.76707 34.6802 6.85495 34.7678 6.85495 34.9429Z" fill="#001224"/>
<path d="M7.64597 34.9429C7.64597 35.1181 7.55808 35.2056 7.38231 35.2056C7.20654 35.2056 7.11865 35.1181 7.11865 34.9429C7.11865 34.7678 7.20654 34.6802 7.38231 34.6802C7.55808 34.6802 7.64597 34.7678 7.64597 34.9429Z" fill="#001224"/>
<path d="M9.49167 34.9429C9.49167 35.1181 9.40379 35.2056 9.22801 35.2056C9.05224 35.2056 8.96436 35.1181 8.96436 34.9429C8.96436 34.7678 9.05224 34.6802 9.22801 34.6802C9.40379 34.6802 9.49167 34.7678 9.49167 34.9429Z" fill="#001224"/>
<path d="M10.2827 34.9429C10.2827 35.1181 10.1948 35.2056 10.019 35.2056C9.84326 35.2056 9.75537 35.1181 9.75537 34.9429C9.75537 34.7678 9.84326 34.6802 10.019 34.6802C10.1948 34.6802 10.2827 34.7678 10.2827 34.9429Z" fill="#001224"/>
<path d="M12.1284 34.9429C12.1284 35.1181 12.0405 35.2056 11.8647 35.2056C11.689 35.2056 11.6011 35.1181 11.6011 34.9429C11.6011 34.7678 11.689 34.6802 11.8647 34.6802C12.0405 34.6802 12.1284 34.7678 12.1284 34.9429Z" fill="#001224"/>
<path d="M12.9194 34.9429C12.9194 35.1181 12.8315 35.2056 12.6557 35.2056C12.48 35.2056 12.3921 35.1181 12.3921 34.9429C12.3921 34.7678 12.48 34.6802 12.6557 34.6802C12.8315 34.6802 12.9194 34.7678 12.9194 34.9429Z" fill="#001224"/>
<path d="M14.7646 34.9429C14.7646 35.1181 14.6767 35.2056 14.501 35.2056C14.3252 35.2056 14.2373 35.1181 14.2373 34.9429C14.2373 34.7678 14.3252 34.6802 14.501 34.6802C14.6767 34.6802 14.7646 34.7678 14.7646 34.9429Z" fill="#001224"/>
<path d="M15.5556 34.9429C15.5556 35.1181 15.4677 35.2056 15.292 35.2056C15.1162 35.2056 15.0283 35.1181 15.0283 34.9429C15.0283 34.7678 15.1162 34.6802 15.292 34.6802C15.4677 34.6802 15.5556 34.7678 15.5556 34.9429Z" fill="#001224"/>
<path d="M17.4013 34.9429C17.4013 35.1181 17.3135 35.2056 17.1377 35.2056C16.9619 35.2056 16.874 35.1181 16.874 34.9429C16.874 34.7678 16.9619 34.6802 17.1377 34.6802C17.3135 34.6802 17.4013 34.7678 17.4013 34.9429Z" fill="#001224"/>
<path d="M18.1924 34.9429C18.1924 35.1181 18.1045 35.2056 17.9287 35.2056C17.7529 35.2056 17.665 35.1181 17.665 34.9429C17.665 34.7678 17.7529 34.6802 17.9287 34.6802C18.1045 34.6802 18.1924 34.7678 18.1924 34.9429Z" fill="#001224"/>
<path d="M20.0381 34.9429C20.0381 35.1181 19.9502 35.2056 19.7744 35.2056C19.5986 35.2056 19.5107 35.1181 19.5107 34.9429C19.5107 34.7678 19.5986 34.6802 19.7744 34.6802C19.9502 34.6802 20.0381 34.7678 20.0381 34.9429Z" fill="#001224"/>
<path d="M20.8291 34.9429C20.8291 35.1181 20.7412 35.2056 20.5654 35.2056C20.3896 35.2056 20.3018 35.1181 20.3018 34.9429C20.3018 34.7678 20.3896 34.6802 20.5654 34.6802C20.7412 34.6802 20.8291 34.7678 20.8291 34.9429Z" fill="#001224"/>
<path d="M34.9785 34.6802C34.9785 34.8554 34.8906 34.9429 34.7148 34.9429C34.5391 34.9429 34.4512 34.8554 34.4512 34.6802C34.4512 34.5051 34.5391 34.4175 34.7148 34.4175C34.8906 34.4175 34.9785 34.5051 34.9785 34.6802Z" fill="#001224"/>
<path d="M35.7695 34.6802C35.7695 34.8554 35.6816 34.9429 35.5058 34.9429C35.3301 34.9429 35.2422 34.8554 35.2422 34.6802C35.2422 34.5051 35.3301 34.4175 35.5058 34.4175C35.6816 34.4175 35.7695 34.5051 35.7695 34.6802Z" fill="#001224"/>
<path d="M37.6152 34.6802C37.6152 34.8554 37.5273 34.9429 37.3515 34.9429C37.1758 34.9429 37.0879 34.8554 37.0879 34.6802C37.0879 34.5051 37.1758 34.4175 37.3515 34.4175C37.5273 34.4175 37.6152 34.5051 37.6152 34.6802Z" fill="#001224"/>
<path d="M38.4941 34.6802C38.4941 34.8554 38.4062 34.9429 38.2305 34.9429C38.0547 34.9429 37.9668 34.8554 37.9668 34.6802C37.9668 34.5051 38.0547 34.4175 38.2305 34.4175C38.4062 34.4175 38.4941 34.5051 38.4941 34.6802Z" fill="#001224"/>
<path d="M40.2519 34.6802C40.2519 34.8554 40.164 34.9429 39.9883 34.9429C39.8125 34.9429 39.7246 34.8554 39.7246 34.6802C39.7246 34.5051 39.8125 34.4175 39.9883 34.4175C40.164 34.4175 40.2519 34.5051 40.2519 34.6802Z" fill="#001224"/>
<path d="M41.1308 34.6802C41.1308 34.8554 41.0429 34.9429 40.8672 34.9429C40.6914 34.9429 40.6035 34.8554 40.6035 34.6802C40.6035 34.5051 40.6914 34.4175 40.8672 34.4175C41.0429 34.4175 41.1308 34.5051 41.1308 34.6802Z" fill="#001224"/>
<path d="M42.976 34.6802C42.976 34.8554 42.8882 34.9429 42.7124 34.9429C42.5366 34.9429 42.4487 34.8554 42.4487 34.6802C42.4487 34.5051 42.5366 34.4175 42.7124 34.4175C42.8882 34.4175 42.976 34.5051 42.976 34.6802Z" fill="#001224"/>
<path d="M43.7671 34.6802C43.7671 34.8554 43.6792 34.9429 43.5034 34.9429C43.3276 34.9429 43.2397 34.8554 43.2397 34.6802C43.2397 34.5051 43.3276 34.4175 43.5034 34.4175C43.6792 34.4175 43.7671 34.5051 43.7671 34.6802Z" fill="#001224"/>
<path d="M45.6128 34.6802C45.6128 34.8554 45.5249 34.9429 45.3491 34.9429C45.1733 34.9429 45.0854 34.8554 45.0854 34.6802C45.0854 34.5051 45.1733 34.4175 45.3491 34.4175C45.5249 34.4175 45.6128 34.5051 45.6128 34.6802Z" fill="#001224"/>
<path d="M46.4038 34.6802C46.4038 34.8554 46.3159 34.9429 46.1401 34.9429C45.9644 34.9429 45.8765 34.8554 45.8765 34.6802C45.8765 34.5051 45.9644 34.4175 46.1401 34.4175C46.3159 34.4175 46.4038 34.5051 46.4038 34.6802Z" fill="#001224"/>
<path d="M48.2495 34.6802C48.2495 34.8554 48.1616 34.9429 47.9858 34.9429C47.8101 34.9429 47.7222 34.8554 47.7222 34.6802C47.7222 34.5051 47.8101 34.4175 47.9858 34.4175C48.1616 34.4175 48.2495 34.5051 48.2495 34.6802Z" fill="#001224"/>
<path d="M49.0405 34.6802C49.0405 34.8554 48.9526 34.9429 48.7768 34.9429C48.6011 34.9429 48.5132 34.8554 48.5132 34.6802C48.5132 34.5051 48.6011 34.4175 48.7768 34.4175C48.9526 34.4175 49.0405 34.5051 49.0405 34.6802Z" fill="#001224"/>
<path d="M50.7104 34.6802C50.7104 34.8554 50.6225 34.9429 50.4468 34.9429C50.271 34.9429 50.1831 34.8554 50.1831 34.6802C50.1831 34.5051 50.271 34.4175 50.4468 34.4175C50.6225 34.4175 50.7104 34.5051 50.7104 34.6802Z" fill="#001224"/>
<path d="M51.5009 34.6802C51.5009 34.8554 51.4131 34.9429 51.2373 34.9429C51.0615 34.9429 50.9736 34.8554 50.9736 34.6802C50.9736 34.5051 51.0615 34.4175 51.2373 34.4175C51.4131 34.4175 51.5009 34.5051 51.5009 34.6802Z" fill="#001224"/>
<path d="M53.3467 34.6802C53.3467 34.8554 53.2588 34.9429 53.083 34.9429C52.9072 34.9429 52.8193 34.8554 52.8193 34.6802C52.8193 34.5051 52.9072 34.4175 53.083 34.4175C53.2588 34.4175 53.3467 34.5051 53.3467 34.6802Z" fill="#001224"/>
<path d="M54.1377 34.6802C54.1377 34.8554 54.0498 34.9429 53.874 34.9429C53.6982 34.9429 53.6104 34.8554 53.6104 34.6802C53.6104 34.5051 53.6982 34.4175 53.874 34.4175C54.0498 34.4175 54.1377 34.5051 54.1377 34.6802Z" fill="#001224"/>
<path d="M55.9834 34.6802C55.9834 34.8554 55.8955 34.9429 55.7197 34.9429C55.5439 34.9429 55.4561 34.8554 55.4561 34.6802C55.4561 34.5051 55.5439 34.4175 55.7197 34.4175C55.8955 34.4175 55.9834 34.5051 55.9834 34.6802Z" fill="#001224"/>
<path d="M56.7744 34.6802C56.7744 34.8554 56.6865 34.9429 56.5107 34.9429C56.335 34.9429 56.2471 34.8554 56.2471 34.6802C56.2471 34.5051 56.335 34.4175 56.5107 34.4175C56.6865 34.4175 56.7744 34.5051 56.7744 34.6802Z" fill="#001224"/>
<path d="M58.6201 34.6802C58.6201 34.8554 58.5322 34.9429 58.3564 34.9429C58.1807 34.9429 58.0928 34.8554 58.0928 34.6802C58.0928 34.5051 58.1807 34.4175 58.3564 34.4175C58.5322 34.4175 58.6201 34.5051 58.6201 34.6802Z" fill="#001224"/>
<path d="M59.4111 34.6802C59.4111 34.8554 59.3232 34.9429 59.1474 34.9429C58.9717 34.9429 58.8838 34.8554 58.8838 34.6802C58.8838 34.5051 58.9717 34.4175 59.1474 34.4175C59.3232 34.4175 59.4111 34.5051 59.4111 34.6802Z" fill="#001224"/>
<path d="M61.2563 34.6802C61.2563 34.8554 61.1684 34.9429 60.9927 34.9429C60.8169 34.9429 60.729 34.8554 60.729 34.6802C60.729 34.5051 60.8169 34.4175 60.9927 34.4175C61.1684 34.4175 61.2563 34.5051 61.2563 34.6802Z" fill="#001224"/>
<path d="M62.0473 34.6802C62.0473 34.8554 61.9595 34.9429 61.7837 34.9429C61.6079 34.9429 61.52 34.8554 61.52 34.6802C61.52 34.5051 61.6079 34.4175 61.7837 34.4175C61.9595 34.4175 62.0473 34.5051 62.0473 34.6802Z" fill="#001224"/>
<path d="M63.7173 34.6802C63.7173 34.8554 63.6294 34.9429 63.4536 34.9429C63.2778 34.9429 63.1899 34.8554 63.1899 34.6802C63.1899 34.5051 63.2778 34.4175 63.4536 34.4175C63.6294 34.4175 63.7173 34.5051 63.7173 34.6802Z" fill="#001224"/>
<path d="M64.5083 34.6802C64.5083 34.8554 64.4204 34.9429 64.2446 34.9429C64.0688 34.9429 63.981 34.8554 63.981 34.6802C63.981 34.5051 64.0688 34.4175 64.2446 34.4175C64.4204 34.4175 64.5083 34.5051 64.5083 34.6802Z" fill="#001224"/>
<path d="M66.354 34.6802C66.354 34.8554 66.2661 34.9429 66.0903 34.9429C65.9145 34.9429 65.8267 34.8554 65.8267 34.6802C65.8267 34.5051 65.9145 34.4175 66.0903 34.4175C66.2661 34.4175 66.354 34.5051 66.354 34.6802Z" fill="#001224"/>
<path d="M67.145 34.6802C67.145 34.8554 67.0571 34.9429 66.8813 34.9429C66.7056 34.9429 66.6177 34.8554 66.6177 34.6802C66.6177 34.5051 66.7056 34.4175 66.8813 34.4175C67.0571 34.4175 67.145 34.5051 67.145 34.6802Z" fill="#001224"/>
<path d="M68.9907 34.6802C68.9907 34.8554 68.9028 34.9429 68.727 34.9429C68.5513 34.9429 68.4634 34.8554 68.4634 34.6802C68.4634 34.5051 68.5513 34.4175 68.727 34.4175C68.9028 34.4175 68.9907 34.5051 68.9907 34.6802Z" fill="#001224"/>
<path d="M69.7817 34.6802C69.7817 34.8554 69.6938 34.9429 69.518 34.9429C69.3423 34.9429 69.2544 34.8554 69.2544 34.6802C69.2544 34.5051 69.3423 34.4175 69.518 34.4175C69.6938 34.4175 69.7817 34.5051 69.7817 34.6802Z" fill="#001224"/>
<path d="M71.6269 34.6802C71.6269 34.8554 71.539 34.9429 71.3633 34.9429C71.1875 34.9429 71.0996 34.8554 71.0996 34.6802C71.0996 34.5051 71.1875 34.4175 71.3633 34.4175C71.539 34.4175 71.6269 34.5051 71.6269 34.6802Z" fill="#001224"/>
<path d="M72.4179 34.6802C72.4179 34.8554 72.3301 34.9429 72.1543 34.9429C71.9785 34.9429 71.8906 34.8554 71.8906 34.6802C71.8906 34.5051 71.9785 34.4175 72.1543 34.4175C72.3301 34.4175 72.4179 34.5051 72.4179 34.6802Z" fill="#001224"/>
<path d="M74.2636 34.6802C74.2636 34.8554 74.1758 34.9429 74 34.9429C73.8242 34.9429 73.7363 34.8554 73.7363 34.6802C73.7363 34.5051 73.8242 34.4175 74 34.4175C74.1758 34.4175 74.2636 34.5051 74.2636 34.6802Z" fill="#001224"/>
<path d="M75.0547 34.6802C75.0547 34.8554 74.9668 34.9429 74.791 34.9429C74.6152 34.9429 74.5273 34.8554 74.5273 34.6802C74.5273 34.5051 74.7031 34.4175 74.791 34.4175C74.8789 34.4175 75.0547 34.5051 75.0547 34.6802Z" fill="#001224"/>
<path d="M76.7246 34.6802C76.7246 34.8554 76.6367 34.9429 76.4609 34.9429C76.2852 34.9429 76.1973 34.8554 76.1973 34.6802C76.1973 34.5051 76.2852 34.4175 76.4609 34.4175C76.6367 34.4175 76.7246 34.5051 76.7246 34.6802Z" fill="#001224"/>
<path d="M77.5156 34.6802C77.5156 34.8554 77.4277 34.9429 77.2519 34.9429C77.0762 34.9429 76.9883 34.8554 76.9883 34.6802C76.9883 34.5051 77.0762 34.4175 77.2519 34.4175C77.4277 34.4175 77.5156 34.5051 77.5156 34.6802Z" fill="#001224"/>
<path d="M79.3608 34.6802C79.3608 34.8554 79.2729 34.9429 79.0972 34.9429C78.9214 34.9429 78.8335 34.8554 78.8335 34.6802C78.8335 34.5051 78.9214 34.4175 79.0972 34.4175C79.2729 34.4175 79.3608 34.5051 79.3608 34.6802Z" fill="#001224"/>
<path d="M80.1518 34.6802C80.1518 34.8554 80.0639 34.9429 79.8882 34.9429C79.7124 34.9429 79.6245 34.8554 79.6245 34.6802C79.6245 34.5051 79.7124 34.4175 79.8882 34.4175C80.0639 34.4175 80.1518 34.5051 80.1518 34.6802Z" fill="#001224"/>
<path d="M81.9975 34.6802C81.9975 34.8554 81.9096 34.9429 81.7339 34.9429C81.5581 34.9429 81.4702 34.8554 81.4702 34.6802C81.4702 34.5051 81.5581 34.4175 81.7339 34.4175C81.9096 34.4175 81.9975 34.5051 81.9975 34.6802Z" fill="#001224"/>
<path d="M82.7885 34.6802C82.7885 34.8554 82.7007 34.9429 82.5249 34.9429C82.3491 34.9429 82.2612 34.8554 82.2612 34.6802C82.2612 34.5051 82.3491 34.4175 82.5249 34.4175C82.7007 34.4175 82.7885 34.5051 82.7885 34.6802Z" fill="#001224"/>
<path d="M84.6343 34.6802C84.6343 34.8554 84.5464 34.9429 84.3706 34.9429C84.1948 34.9429 84.1069 34.8554 84.1069 34.6802C84.1069 34.5051 84.1948 34.4175 84.3706 34.4175C84.5464 34.4175 84.6343 34.5051 84.6343 34.6802Z" fill="#001224"/>
<path d="M85.4253 34.6802C85.4253 34.8554 85.3374 34.9429 85.1616 34.9429C84.9858 34.9429 84.8979 34.8554 84.8979 34.6802C84.8979 34.5051 84.9858 34.4175 85.1616 34.4175C85.3374 34.4175 85.4253 34.5051 85.4253 34.6802Z" fill="#001224"/>
<path d="M87.271 34.6802C87.271 34.8554 87.1831 34.9429 87.0073 34.9429C86.8315 34.9429 86.7437 34.8554 86.7437 34.6802C86.7437 34.5051 86.8315 34.4175 87.0073 34.4175C87.1831 34.4175 87.271 34.5051 87.271 34.6802Z" fill="#001224"/>
<path d="M88.062 34.6802C88.062 34.8554 87.9741 34.9429 87.7983 34.9429C87.6226 34.9429 87.5347 34.8554 87.5347 34.6802C87.5347 34.5051 87.6226 34.4175 87.7983 34.4175C87.9741 34.4175 88.062 34.5051 88.062 34.6802Z" fill="#001224"/>
<path d="M89.7314 34.6802C89.7314 34.8554 89.6435 34.9429 89.4678 34.9429C89.292 34.9429 89.2041 34.8554 89.2041 34.6802C89.2041 34.5051 89.292 34.4175 89.4678 34.4175C89.6435 34.4175 89.7314 34.5051 89.7314 34.6802Z" fill="#001224"/>
<path d="M90.6103 34.6802C90.6103 34.8554 90.5224 34.9429 90.3467 34.9429C90.1709 34.9429 90.083 34.8554 90.083 34.6802C90.083 34.5051 90.1709 34.4175 90.3467 34.4175C90.5224 34.4175 90.6103 34.5051 90.6103 34.6802Z" fill="#001224"/>
<path d="M92.3681 34.6802C92.3681 34.8554 92.2803 34.9429 92.1045 34.9429C91.9287 34.9429 91.8408 34.8554 91.8408 34.6802C91.8408 34.5051 91.9287 34.4175 92.1045 34.4175C92.2803 34.4175 92.3681 34.5051 92.3681 34.6802Z" fill="#001224"/>
<path d="M93.247 34.6802C93.247 34.8554 93.1592 34.9429 92.9834 34.9429C92.8076 34.9429 92.7197 34.8554 92.7197 34.6802C92.7197 34.5051 92.8076 34.4175 92.9834 34.4175C93.1592 34.4175 93.247 34.5051 93.247 34.6802Z" fill="#001224"/>
<path d="M95.0927 34.6802C95.0927 34.8554 95.0049 34.9429 94.8291 34.9429C94.6533 34.9429 94.5654 34.8554 94.5654 34.6802C94.5654 34.5051 94.6533 34.4175 94.8291 34.4175C95.0049 34.4175 95.0927 34.5051 95.0927 34.6802Z" fill="#001224"/>
<path d="M95.8838 34.6802C95.8838 34.8554 95.7959 34.9429 95.6201 34.9429C95.4443 34.9429 95.3564 34.8554 95.3564 34.6802C95.3564 34.5051 95.4443 34.4175 95.6201 34.4175C95.7959 34.4175 95.8838 34.5051 95.8838 34.6802Z" fill="#001224"/>
<path d="M97.7295 34.6802C97.7295 34.8554 97.6416 34.9429 97.4658 34.9429C97.29 34.9429 97.2021 34.8554 97.2021 34.6802C97.2021 34.5051 97.29 34.4175 97.4658 34.4175C97.6416 34.4175 97.7295 34.5051 97.7295 34.6802Z" fill="#001224"/>
<path d="M98.52 34.6802C98.52 34.8554 98.4321 34.9429 98.2563 34.9429C98.0806 34.9429 97.9927 34.8554 97.9927 34.6802C97.9927 34.5051 98.0806 34.4175 98.2563 34.4175C98.4321 34.4175 98.52 34.5051 98.52 34.6802Z" fill="#001224"/>
<path d="M100.366 34.6802C100.366 34.8554 100.278 34.9429 100.102 34.9429C99.9263 34.9429 99.8384 34.8554 99.8384 34.6802C99.8384 34.5051 99.9263 34.4175 100.102 34.4175C100.278 34.4175 100.366 34.5051 100.366 34.6802Z" fill="#001224"/>
<path d="M101.157 34.6802C101.157 34.8554 101.069 34.9429 100.893 34.9429C100.717 34.9429 100.629 34.8554 100.629 34.6802C100.629 34.5051 100.717 34.4175 100.893 34.4175C101.069 34.4175 101.157 34.5051 101.157 34.6802Z" fill="#001224"/>
<path d="M102.827 34.6802C102.827 34.8554 102.739 34.9429 102.563 34.9429C102.387 34.9429 102.299 34.8554 102.299 34.6802C102.299 34.5051 102.387 34.4175 102.563 34.4175C102.739 34.4175 102.827 34.5051 102.827 34.6802Z" fill="#001224"/>
<path d="M103.618 34.6802C103.618 34.8554 103.53 34.9429 103.354 34.9429C103.178 34.9429 103.09 34.8554 103.09 34.6802C103.09 34.5051 103.178 34.4175 103.354 34.4175C103.53 34.4175 103.618 34.5051 103.618 34.6802Z" fill="#001224"/>
<path d="M105.463 34.6802C105.463 34.8554 105.375 34.9429 105.2 34.9429C105.024 34.9429 104.936 34.8554 104.936 34.6802C104.936 34.5051 105.024 34.4175 105.2 34.4175C105.375 34.4175 105.463 34.5051 105.463 34.6802Z" fill="#001224"/>
<path d="M106.254 34.6802C106.254 34.8554 106.166 34.9429 105.991 34.9429C105.815 34.9429 105.727 34.8554 105.727 34.6802C105.727 34.5051 105.815 34.4175 105.991 34.4175C106.166 34.4175 106.254 34.5051 106.254 34.6802Z" fill="#001224"/>
<path d="M108.1 34.6802C108.1 34.8554 108.012 34.9429 107.836 34.9429C107.66 34.9429 107.572 34.8554 107.572 34.6802C107.572 34.5051 107.66 34.4175 107.836 34.4175C108.012 34.4175 108.1 34.5051 108.1 34.6802Z" fill="#001224"/>
<path d="M108.891 34.6802C108.891 34.8554 108.803 34.9429 108.627 34.9429C108.451 34.9429 108.363 34.8554 108.363 34.6802C108.363 34.5051 108.451 34.4175 108.627 34.4175C108.803 34.4175 108.891 34.5051 108.891 34.6802Z" fill="#001224"/>
<path d="M110.736 34.6802C110.736 34.8554 110.648 34.9429 110.473 34.9429C110.297 34.9429 110.209 34.8554 110.209 34.6802C110.209 34.5051 110.297 34.4175 110.473 34.4175C110.648 34.4175 110.736 34.5051 110.736 34.6802Z" fill="#001224"/>
<path d="M111.527 34.6802C111.527 34.8554 111.439 34.9429 111.264 34.9429C111.088 34.9429 111 34.8554 111 34.6802C111 34.5051 111.088 34.4175 111.264 34.4175C111.439 34.4175 111.527 34.5051 111.527 34.6802Z" fill="#001224"/>
<path d="M113.373 34.6802C113.373 34.8554 113.285 34.9429 113.109 34.9429C112.934 34.9429 112.846 34.8554 112.846 34.6802C112.846 34.5051 112.934 34.4175 113.109 34.4175C113.285 34.4175 113.373 34.5051 113.373 34.6802Z" fill="#001224"/>
<path d="M114.164 34.6802C114.164 34.8554 114.076 34.9429 113.9 34.9429C113.725 34.9429 113.637 34.8554 113.637 34.6802C113.637 34.5051 113.725 34.4175 113.9 34.4175C114.076 34.4175 114.164 34.5051 114.164 34.6802Z" fill="#001224"/>
<path d="M115.834 34.6802C115.834 34.8554 115.746 34.9429 115.57 34.9429C115.395 34.9429 115.307 34.8554 115.307 34.6802C115.307 34.5051 115.395 34.4175 115.57 34.4175C115.746 34.4175 115.834 34.5051 115.834 34.6802Z" fill="#001224"/>
<path d="M116.624 34.6802C116.624 34.8554 116.537 34.9429 116.361 34.9429C116.185 34.9429 116.097 34.8554 116.097 34.6802C116.097 34.5051 116.185 34.4175 116.361 34.4175C116.537 34.4175 116.624 34.5051 116.624 34.6802Z" fill="#001224"/>
<path d="M118.47 34.6802C118.47 34.8554 118.382 34.9429 118.207 34.9429C118.031 34.9429 117.943 34.8554 117.943 34.6802C117.943 34.5051 118.031 34.4175 118.207 34.4175C118.382 34.4175 118.47 34.5051 118.47 34.6802Z" fill="#001224"/>
<path d="M119.261 34.6802C119.261 34.8554 119.173 34.9429 118.998 34.9429C118.822 34.9429 118.734 34.8554 118.734 34.6802C118.734 34.5051 118.822 34.4175 118.998 34.4175C119.173 34.4175 119.261 34.5051 119.261 34.6802Z" fill="#001224"/>
<path d="M121.107 34.6802C121.107 34.8554 120.931 34.9429 120.843 34.9429C120.755 34.9429 120.58 34.8554 120.58 34.6802C120.58 34.5051 120.667 34.4175 120.843 34.4175C121.019 34.4175 121.107 34.5051 121.107 34.6802Z" fill="#001224"/>
<path d="M121.898 34.6802C121.898 34.8554 121.81 34.9429 121.634 34.9429C121.458 34.9429 121.371 34.8554 121.371 34.6802C121.371 34.5051 121.458 34.4175 121.634 34.4175C121.81 34.4175 121.898 34.5051 121.898 34.6802Z" fill="#001224"/>
<path d="M123.744 34.6802C123.744 34.8554 123.656 34.9429 123.48 34.9429C123.304 34.9429 123.216 34.8554 123.216 34.6802C123.216 34.5051 123.304 34.4175 123.48 34.4175C123.656 34.4175 123.744 34.5051 123.744 34.6802Z" fill="#001224"/>
<path d="M124.535 34.6802C124.535 34.8554 124.447 34.9429 124.271 34.9429C124.095 34.9429 124.007 34.8554 124.007 34.6802C124.007 34.5051 124.095 34.4175 124.271 34.4175C124.447 34.4175 124.535 34.5051 124.535 34.6802Z" fill="#001224"/>
<path d="M126.38 34.6802C126.38 34.8554 126.292 34.9429 126.116 34.9429C125.94 34.9429 125.853 34.8554 125.853 34.6802C125.853 34.5051 125.94 34.4175 126.116 34.4175C126.292 34.4175 126.38 34.5051 126.38 34.6802Z" fill="#001224"/>
<path d="M127.171 34.6802C127.171 34.8554 127.083 34.9429 126.907 34.9429C126.731 34.9429 126.644 34.8554 126.644 34.6802C126.644 34.5051 126.731 34.4175 126.907 34.4175C127.083 34.4175 127.171 34.5051 127.171 34.6802Z" fill="#001224"/>
<path d="M128.841 34.6802C128.841 34.8554 128.753 34.9429 128.577 34.9429C128.401 34.9429 128.313 34.8554 128.313 34.6802C128.313 34.5051 128.401 34.4175 128.577 34.4175C128.753 34.4175 128.841 34.5051 128.841 34.6802Z" fill="#001224"/>
<path d="M129.632 34.6802C129.632 34.8554 129.456 34.9429 129.368 34.9429C129.28 34.9429 129.104 34.8554 129.104 34.6802C129.104 34.5051 129.28 34.4175 129.368 34.4175C129.456 34.4175 129.632 34.5051 129.632 34.6802Z" fill="#001224"/>
<path d="M131.478 34.6802C131.478 34.8554 131.39 34.9429 131.214 34.9429C131.038 34.9429 130.95 34.8554 130.95 34.6802C130.95 34.5051 131.038 34.4175 131.214 34.4175C131.39 34.4175 131.478 34.5051 131.478 34.6802Z" fill="#001224"/>
<path d="M132.269 34.6802C132.269 34.8554 132.181 34.9429 132.005 34.9429C131.829 34.9429 131.741 34.8554 131.741 34.6802C131.741 34.5051 131.829 34.4175 132.005 34.4175C132.181 34.4175 132.269 34.5051 132.269 34.6802Z" fill="#001224"/>
<path d="M134.114 34.6802C134.114 34.8554 134.026 34.9429 133.851 34.9429C133.675 34.9429 133.587 34.8554 133.587 34.6802C133.587 34.5051 133.675 34.4175 133.851 34.4175C134.026 34.4175 134.114 34.5051 134.114 34.6802Z" fill="#001224"/>
<path d="M134.905 34.6802C134.905 34.8554 134.817 34.9429 134.641 34.9429C134.465 34.9429 134.377 34.8554 134.377 34.6802C134.377 34.5051 134.465 34.4175 134.641 34.4175C134.817 34.4175 134.905 34.5051 134.905 34.6802Z" fill="#001224"/>
<path d="M136.75 34.6802C136.75 34.8554 136.663 34.9429 136.487 34.9429C136.311 34.9429 136.223 34.8554 136.223 34.6802C136.223 34.5051 136.311 34.4175 136.487 34.4175C136.663 34.4175 136.75 34.5051 136.75 34.6802Z" fill="#001224"/>
<path d="M137.541 34.6802C137.541 34.8554 137.454 34.9429 137.278 34.9429C137.102 34.9429 137.014 34.8554 137.014 34.6802C137.014 34.5051 137.102 34.4175 137.278 34.4175C137.454 34.4175 137.541 34.5051 137.541 34.6802Z" fill="#001224"/>
<path d="M139.387 34.6802C139.387 34.8554 139.299 34.9429 139.124 34.9429C138.948 34.9429 138.86 34.8554 138.86 34.6802C138.86 34.5051 138.948 34.4175 139.124 34.4175C139.299 34.4175 139.387 34.5051 139.387 34.6802Z" fill="#001224"/>
<path d="M140.178 34.6802C140.178 34.8554 140.09 34.9429 139.915 34.9429C139.739 34.9429 139.651 34.8554 139.651 34.6802C139.651 34.5051 139.739 34.4175 139.915 34.4175C140.09 34.4175 140.178 34.5051 140.178 34.6802Z" fill="#001224"/>
<path d="M141.848 34.6802C141.848 34.8554 141.76 34.9429 141.584 34.9429C141.409 34.9429 141.321 34.8554 141.321 34.6802C141.321 34.5051 141.409 34.4175 141.584 34.4175C141.76 34.4175 141.848 34.5051 141.848 34.6802Z" fill="#001224"/>
<path d="M142.727 34.6802C142.727 34.8554 142.639 34.9429 142.463 34.9429C142.288 34.9429 142.2 34.8554 142.2 34.6802C142.2 34.5051 142.375 34.4175 142.463 34.4175C142.551 34.4175 142.727 34.5051 142.727 34.6802Z" fill="#001224"/>
<path d="M144.572 34.6802C144.572 34.8554 144.484 34.9429 144.309 34.9429C144.133 34.9429 144.045 34.8554 144.045 34.6802C144.045 34.5051 144.133 34.4175 144.309 34.4175C144.484 34.4175 144.572 34.5051 144.572 34.6802Z" fill="#001224"/>
<path d="M145.363 34.6802C145.363 34.8554 145.275 34.9429 145.1 34.9429C144.924 34.9429 144.836 34.8554 144.836 34.6802C144.836 34.5051 144.924 34.4175 145.1 34.4175C145.275 34.4175 145.363 34.5051 145.363 34.6802Z" fill="#001224"/>
<path d="M147.209 34.6802C147.209 34.8554 147.121 34.9429 146.945 34.9429C146.77 34.9429 146.682 34.8554 146.682 34.6802C146.682 34.5051 146.77 34.4175 146.945 34.4175C147.121 34.4175 147.209 34.5051 147.209 34.6802Z" fill="#001224"/>
<path d="M148 34.6802C148 34.8554 147.912 34.9429 147.736 34.9429C147.561 34.9429 147.473 34.8554 147.473 34.6802C147.473 34.5051 147.561 34.4175 147.736 34.4175C147.912 34.4175 148 34.5051 148 34.6802Z" fill="#001224"/>
<path d="M149.846 34.6802C149.846 34.8554 149.758 34.9429 149.582 34.9429C149.406 34.9429 149.318 34.8554 149.318 34.6802C149.318 34.5051 149.406 34.4175 149.582 34.4175C149.758 34.4175 149.846 34.5051 149.846 34.6802Z" fill="#001224"/>
<path d="M150.637 34.6802C150.637 34.8554 150.549 34.9429 150.373 34.9429C150.197 34.9429 150.109 34.8554 150.109 34.6802C150.109 34.5051 150.197 34.4175 150.373 34.4175C150.549 34.4175 150.637 34.5051 150.637 34.6802Z" fill="#001224"/>
<path d="M152.482 34.6802C152.482 34.8554 152.395 34.9429 152.219 34.9429C152.043 34.9429 151.955 34.8554 151.955 34.6802C151.955 34.5051 152.043 34.4175 152.219 34.4175C152.395 34.4175 152.482 34.5051 152.482 34.6802Z" fill="#001224"/>
<path d="M153.273 34.6802C153.273 34.8554 153.186 34.9429 153.01 34.9429C152.834 34.9429 152.746 34.8554 152.746 34.6802C152.746 34.5051 152.834 34.4175 153.01 34.4175C153.186 34.4175 153.273 34.5051 153.273 34.6802Z" fill="#001224"/>
<path d="M154.943 34.6802C154.943 34.8554 154.855 34.9429 154.679 34.9429C154.503 34.9429 154.416 34.8554 154.416 34.6802C154.416 34.5051 154.503 34.4175 154.679 34.4175C154.855 34.4175 154.943 34.5051 154.943 34.6802Z" fill="#001224"/>
<path d="M155.734 34.6802C155.734 34.8554 155.558 34.9429 155.47 34.9429C155.382 34.9429 155.207 34.8554 155.207 34.6802C155.207 34.5051 155.382 34.4175 155.47 34.4175C155.558 34.4175 155.734 34.5051 155.734 34.6802Z" fill="#001224"/>
<path d="M157.58 34.6802C157.58 34.8554 157.492 34.9429 157.316 34.9429C157.14 34.9429 157.052 34.8554 157.052 34.6802C157.052 34.5051 157.14 34.4175 157.316 34.4175C157.492 34.4175 157.58 34.5051 157.58 34.6802Z" fill="#001224"/>
<path d="M158.371 34.6802C158.371 34.8554 158.283 34.9429 158.107 34.9429C157.931 34.9429 157.843 34.8554 157.843 34.6802C157.843 34.5051 157.931 34.4175 158.107 34.4175C158.283 34.4175 158.371 34.5051 158.371 34.6802Z" fill="#001224"/>
<path d="M160.216 34.6802C160.216 34.8554 160.128 34.9429 159.953 34.9429C159.777 34.9429 159.689 34.8554 159.689 34.6802C159.689 34.5051 159.777 34.4175 159.953 34.4175C160.128 34.4175 160.216 34.5051 160.216 34.6802Z" fill="#001224"/>
<path d="M161.007 34.6802C161.007 34.8554 160.919 34.9429 160.744 34.9429C160.568 34.9429 160.48 34.8554 160.48 34.6802C160.48 34.5051 160.568 34.4175 160.744 34.4175C160.919 34.4175 161.007 34.5051 161.007 34.6802Z" fill="#001224"/>
<path d="M162.853 34.6802C162.853 34.8554 162.765 34.9429 162.589 34.9429C162.413 34.9429 162.325 34.8554 162.325 34.6802C162.325 34.5051 162.413 34.4175 162.589 34.4175C162.765 34.4175 162.853 34.5051 162.853 34.6802Z" fill="#001224"/>
<path d="M163.644 34.6802C163.644 34.8554 163.556 34.9429 163.38 34.9429C163.204 34.9429 163.116 34.8554 163.116 34.6802C163.116 34.5051 163.204 34.4175 163.38 34.4175C163.556 34.4175 163.644 34.5051 163.644 34.6802Z" fill="#001224"/>
<path d="M165.489 34.6802C165.489 34.8554 165.401 34.9429 165.226 34.9429C165.05 34.9429 164.962 34.8554 164.962 34.6802C164.962 34.5051 165.05 34.4175 165.226 34.4175C165.401 34.4175 165.489 34.5051 165.489 34.6802Z" fill="#001224"/>
<path d="M166.28 34.6802C166.28 34.8554 166.192 34.9429 166.017 34.9429C165.841 34.9429 165.753 34.8554 165.753 34.6802C165.753 34.5051 165.929 34.4175 166.017 34.4175C166.104 34.4175 166.28 34.5051 166.28 34.6802Z" fill="#001224"/>
<path d="M20.917 38.8838C20.917 39.059 20.8291 39.1466 20.6533 39.1466C20.4775 39.1466 20.3896 39.059 20.3896 38.8838C20.3896 38.7087 20.4775 38.6211 20.6533 38.6211C20.8291 38.6211 20.917 38.7087 20.917 38.8838Z" fill="#001224"/>
<path d="M21.708 38.8838C21.708 39.059 21.6201 39.1466 21.4443 39.1466C21.2685 39.1466 21.1807 39.059 21.1807 38.8838C21.1807 38.7087 21.2685 38.6211 21.4443 38.6211C21.6201 38.6211 21.708 38.7087 21.708 38.8838Z" fill="#001224"/>
<path d="M23.5537 38.8838C23.5537 39.059 23.4658 39.1466 23.29 39.1466C23.1143 39.1466 23.0264 39.059 23.0264 38.8838C23.0264 38.7087 23.1143 38.6211 23.29 38.6211C23.4658 38.6211 23.5537 38.7087 23.5537 38.8838Z" fill="#001224"/>
<path d="M24.3442 38.8838C24.3442 39.059 24.2563 39.1466 24.0806 39.1466C23.9048 39.1466 23.8169 39.059 23.8169 38.8838C23.8169 38.7087 23.9048 38.6211 24.0806 38.6211C24.2563 38.6211 24.3442 38.7087 24.3442 38.8838Z" fill="#001224"/>
<path d="M26.1899 38.8838C26.1899 39.059 26.102 39.1466 25.9263 39.1466C25.7505 39.1466 25.6626 39.059 25.6626 38.8838C25.6626 38.7087 25.7505 38.6211 25.9263 38.6211C26.102 38.6211 26.1899 38.7087 26.1899 38.8838Z" fill="#001224"/>
<path d="M26.9809 38.8838C26.9809 39.059 26.893 39.1466 26.7173 39.1466C26.5415 39.1466 26.4536 39.059 26.4536 38.8838C26.4536 38.7087 26.5415 38.6211 26.7173 38.6211C26.893 38.6211 26.9809 38.7087 26.9809 38.8838Z" fill="#001224"/>
<path d="M28.8266 38.8838C28.8266 39.059 28.7387 39.1466 28.563 39.1466C28.3872 39.1466 28.2993 39.059 28.2993 38.8838C28.2993 38.7087 28.3872 38.6211 28.563 38.6211C28.7387 38.6211 28.8266 38.7087 28.8266 38.8838Z" fill="#001224"/>
<path d="M29.6176 38.8838C29.6176 39.059 29.5298 39.1466 29.354 39.1466C29.1782 39.1466 29.0903 39.059 29.0903 38.8838C29.0903 38.7087 29.1782 38.6211 29.354 38.6211C29.5298 38.6211 29.6176 38.7087 29.6176 38.8838Z" fill="#001224"/>
<path d="M31.4633 38.8838C31.4633 39.059 31.3755 39.1466 31.1997 39.1466C31.0239 39.1466 30.936 39.059 30.936 38.8838C30.936 38.7087 31.0239 38.6211 31.1997 38.6211C31.3755 38.6211 31.4633 38.7087 31.4633 38.8838Z" fill="#001224"/>
<path d="M32.2544 38.8838C32.2544 39.059 32.1665 39.1466 31.9907 39.1466C31.8149 39.1466 31.7271 39.059 31.7271 38.8838C31.7271 38.7087 31.8149 38.6211 31.9907 38.6211C32.1665 38.6211 32.2544 38.7087 32.2544 38.8838Z" fill="#001224"/>
<path d="M34.0996 38.8838C34.0996 39.059 34.0117 39.1466 33.8359 39.1466C33.6602 39.1466 33.5723 39.059 33.5723 38.8838C33.5723 38.7087 33.6602 38.6211 33.8359 38.6211C34.0117 38.6211 34.0996 38.7087 34.0996 38.8838Z" fill="#001224"/>
<path d="M34.8906 38.8838C34.8906 39.059 34.8027 39.1466 34.6269 39.1466C34.4512 39.1466 34.3633 39.059 34.3633 38.8838C34.3633 38.7087 34.4512 38.6211 34.6269 38.6211C34.8027 38.6211 34.8906 38.7087 34.8906 38.8838Z" fill="#001224"/>
<path d="M36.5605 38.8838C36.5605 39.059 36.4726 39.1466 36.2969 39.1466C36.1211 39.1466 36.0332 39.059 36.0332 38.8838C36.0332 38.7087 36.1211 38.6211 36.2969 38.6211C36.4726 38.6211 36.5605 38.7087 36.5605 38.8838Z" fill="#001224"/>
<path d="M37.3515 38.8838C37.3515 39.059 37.2636 39.1466 37.0879 39.1466C36.9121 39.1466 36.8242 39.059 36.8242 38.8838C36.8242 38.7087 36.9121 38.6211 37.0879 38.6211C37.2636 38.6211 37.3515 38.7087 37.3515 38.8838Z" fill="#001224"/>
<path d="M39.1972 38.8838C39.1972 39.059 39.1094 39.1466 38.9336 39.1466C38.7578 39.1466 38.6699 39.059 38.6699 38.8838C38.6699 38.7087 38.7578 38.6211 38.9336 38.6211C39.1094 38.6211 39.1972 38.7087 39.1972 38.8838Z" fill="#001224"/>
<path d="M39.9883 38.8838C39.9883 39.059 39.9004 39.1466 39.7246 39.1466C39.5488 39.1466 39.4609 39.059 39.4609 38.8838C39.4609 38.7087 39.5488 38.6211 39.7246 38.6211C39.9004 38.6211 39.9883 38.7087 39.9883 38.8838Z" fill="#001224"/>
<path d="M41.834 38.8838C41.834 39.059 41.7461 39.1466 41.5703 39.1466C41.3945 39.1466 41.3066 39.059 41.3066 38.8838C41.3066 38.7087 41.3945 38.6211 41.5703 38.6211C41.7461 38.6211 41.834 38.7087 41.834 38.8838Z" fill="#001224"/>
<path d="M42.6245 38.8838C42.6245 39.059 42.5366 39.1466 42.3608 39.1466C42.1851 39.1466 42.0972 39.059 42.0972 38.8838C42.0972 38.7087 42.1851 38.6211 42.3608 38.6211C42.5366 38.6211 42.6245 38.7087 42.6245 38.8838Z" fill="#001224"/>
<path d="M44.4702 38.8838C44.4702 39.059 44.3823 39.1466 44.2065 39.1466C44.0308 39.1466 43.9429 39.059 43.9429 38.8838C43.9429 38.7087 44.0308 38.6211 44.2065 38.6211C44.3823 38.6211 44.4702 38.7087 44.4702 38.8838Z" fill="#001224"/>
<path d="M45.2612 38.8838C45.2612 39.059 45.1733 39.1466 44.9975 39.1466C44.8218 39.1466 44.7339 39.059 44.7339 38.8838C44.7339 38.7087 44.8218 38.6211 44.9975 38.6211C45.1733 38.6211 45.2612 38.7087 45.2612 38.8838Z" fill="#001224"/>
<path d="M47.1069 38.8838C47.1069 39.059 47.019 39.1466 46.8432 39.1466C46.6675 39.1466 46.5796 39.059 46.5796 38.8838C46.5796 38.7087 46.6675 38.6211 46.8432 38.6211C47.019 38.6211 47.1069 38.7087 47.1069 38.8838Z" fill="#001224"/>
<path d="M47.8979 38.8838C47.8979 39.059 47.81 39.1466 47.6343 39.1466C47.4585 39.1466 47.3706 39.059 47.3706 38.8838C47.3706 38.7087 47.4585 38.6211 47.6343 38.6211C47.81 38.6211 47.8979 38.7087 47.8979 38.8838Z" fill="#001224"/>
<path d="M49.5678 38.8838C49.5678 39.059 49.48 39.1466 49.3042 39.1466C49.1284 39.1466 49.0405 39.059 49.0405 38.8838C49.0405 38.7087 49.1284 38.6211 49.3042 38.6211C49.48 38.6211 49.5678 38.7087 49.5678 38.8838Z" fill="#001224"/>
<path d="M50.3589 38.8838C50.3589 39.059 50.271 39.1466 50.0952 39.1466C49.9194 39.1466 49.8315 39.059 49.8315 38.8838C49.8315 38.7087 49.9194 38.6211 50.0952 38.6211C50.271 38.6211 50.3589 38.7087 50.3589 38.8838Z" fill="#001224"/>
<path d="M52.2041 38.8838C52.2041 39.059 52.1162 39.1466 51.9404 39.1466C51.7646 39.1466 51.6768 39.059 51.6768 38.8838C51.6768 38.7087 51.7646 38.6211 51.9404 38.6211C52.1162 38.6211 52.2041 38.7087 52.2041 38.8838Z" fill="#001224"/>
<path d="M52.9951 38.8838C52.9951 39.059 52.9072 39.1466 52.7314 39.1466C52.5557 39.1466 52.4678 39.059 52.4678 38.8838C52.4678 38.7087 52.5557 38.6211 52.7314 38.6211C52.9072 38.6211 52.9951 38.7087 52.9951 38.8838Z" fill="#001224"/>
<path d="M54.8408 38.8838C54.8408 39.059 54.7529 39.1466 54.5771 39.1466C54.4014 39.1466 54.3135 39.059 54.3135 38.8838C54.3135 38.7087 54.4014 38.6211 54.5771 38.6211C54.7529 38.6211 54.8408 38.7087 54.8408 38.8838Z" fill="#001224"/>
<path d="M55.6318 38.8838C55.6318 39.059 55.5439 39.1466 55.3681 39.1466C55.1924 39.1466 55.1045 39.059 55.1045 38.8838C55.1045 38.7087 55.1924 38.6211 55.3681 38.6211C55.5439 38.6211 55.6318 38.7087 55.6318 38.8838Z" fill="#001224"/>
<path d="M57.4775 38.8838C57.4775 39.059 57.3896 39.1466 57.2138 39.1466C57.0381 39.1466 56.9502 39.059 56.9502 38.8838C56.9502 38.7087 57.0381 38.6211 57.2138 38.6211C57.3896 38.6211 57.4775 38.7087 57.4775 38.8838Z" fill="#001224"/>
<path d="M58.2685 38.8838C58.2685 39.059 58.1806 39.1466 58.0049 39.1466C57.8291 39.1466 57.7412 39.059 57.7412 38.8838C57.7412 38.7087 57.8291 38.6211 58.0049 38.6211C58.1806 38.6211 58.2685 38.7087 58.2685 38.8838Z" fill="#001224"/>
<path d="M60.1142 38.8838C60.1142 39.059 60.0263 39.1466 59.8506 39.1466C59.6748 39.1466 59.5869 39.059 59.5869 38.8838C59.5869 38.7087 59.6748 38.6211 59.8506 38.6211C60.0263 38.6211 60.1142 38.7087 60.1142 38.8838Z" fill="#001224"/>
<path d="M60.9048 38.8838C60.9048 39.059 60.8169 39.1466 60.6411 39.1466C60.4653 39.1466 60.3774 39.059 60.3774 38.8838C60.3774 38.7087 60.4653 38.6211 60.6411 38.6211C60.8169 38.6211 60.9048 38.7087 60.9048 38.8838Z" fill="#001224"/>
<path d="M62.5747 38.8838C62.5747 39.059 62.4868 39.1466 62.311 39.1466C62.1353 39.1466 62.0474 39.059 62.0474 38.8838C62.0474 38.7087 62.1353 38.6211 62.311 38.6211C62.4868 38.6211 62.5747 38.7087 62.5747 38.8838Z" fill="#001224"/>
<path d="M63.3657 38.8838C63.3657 39.059 63.2778 39.1466 63.102 39.1466C62.9263 39.1466 62.8384 39.059 62.8384 38.8838C62.8384 38.7087 62.9263 38.6211 63.102 38.6211C63.2778 38.6211 63.3657 38.7087 63.3657 38.8838Z" fill="#001224"/>
<path d="M65.2114 38.8838C65.2114 39.059 65.1235 39.1466 64.9477 39.1466C64.772 39.1466 64.6841 39.059 64.6841 38.8838C64.6841 38.7087 64.772 38.6211 64.9477 38.6211C65.1235 38.6211 65.2114 38.7087 65.2114 38.8838Z" fill="#001224"/>
<path d="M66.0024 38.8838C66.0024 39.059 65.9145 39.1466 65.7388 39.1466C65.563 39.1466 65.4751 39.059 65.4751 38.8838C65.4751 38.7087 65.563 38.6211 65.7388 38.6211C65.9145 38.6211 66.0024 38.7087 66.0024 38.8838Z" fill="#001224"/>
<path d="M67.8481 38.8838C67.8481 39.059 67.7602 39.1466 67.5845 39.1466C67.4087 39.1466 67.3208 39.059 67.3208 38.8838C67.3208 38.7087 67.4087 38.6211 67.5845 38.6211C67.7602 38.6211 67.8481 38.7087 67.8481 38.8838Z" fill="#001224"/>
<path d="M68.6391 38.8838C68.6391 39.059 68.5512 39.1466 68.3755 39.1466C68.1997 39.1466 68.1118 39.059 68.1118 38.8838C68.1118 38.7087 68.1997 38.6211 68.3755 38.6211C68.5512 38.6211 68.6391 38.7087 68.6391 38.8838Z" fill="#001224"/>
<path d="M70.4843 38.8838C70.4843 39.059 70.3965 39.1466 70.2207 39.1466C70.0449 39.1466 69.957 39.059 69.957 38.8838C69.957 38.7087 70.0449 38.6211 70.2207 38.6211C70.3965 38.6211 70.4843 38.7087 70.4843 38.8838Z" fill="#001224"/>
<path d="M71.2754 38.8838C71.2754 39.059 71.1875 39.1466 71.0117 39.1466C70.8359 39.1466 70.748 39.059 70.748 38.8838C70.748 38.7087 70.8359 38.6211 71.0117 38.6211C71.1875 38.6211 71.2754 38.7087 71.2754 38.8838Z" fill="#001224"/>
<path d="M73.1211 38.8838C73.1211 39.059 73.0332 39.1466 72.8574 39.1466C72.6816 39.1466 72.5938 39.059 72.5938 38.8838C72.5938 38.7087 72.6816 38.6211 72.8574 38.6211C73.0332 38.6211 73.1211 38.7087 73.1211 38.8838Z" fill="#001224"/>
<path d="M73.9121 38.8838C73.9121 39.059 73.8242 39.1466 73.6484 39.1466C73.4727 39.1466 73.3848 39.059 73.3848 38.8838C73.3848 38.7087 73.4727 38.6211 73.6484 38.6211C73.8242 38.6211 73.9121 38.7087 73.9121 38.8838Z" fill="#001224"/>
<path d="M75.6699 38.8838C75.6699 39.059 75.582 39.1466 75.4062 39.1466C75.2305 39.1466 75.1426 39.059 75.1426 38.8838C75.1426 38.7087 75.2305 38.6211 75.4062 38.6211C75.582 38.6211 75.6699 38.7087 75.6699 38.8838Z" fill="#001224"/>
<path d="M76.4609 38.8838C76.4609 39.059 76.373 39.1466 76.1972 39.1466C76.0215 39.1466 75.9336 39.059 75.9336 38.8838C75.9336 38.7087 76.0215 38.6211 76.1972 38.6211C76.373 38.6211 76.4609 38.7087 76.4609 38.8838Z" fill="#001224"/>
<path d="M78.3066 38.8838C78.3066 39.059 78.2187 39.1466 78.043 39.1466C77.8672 39.1466 77.7793 39.059 77.7793 38.8838C77.7793 38.7087 77.8672 38.6211 78.043 38.6211C78.2187 38.6211 78.3066 38.7087 78.3066 38.8838Z" fill="#001224"/>
<path d="M79.0976 38.8838C79.0976 39.059 79.0097 39.1466 78.834 39.1466C78.6582 39.1466 78.5703 39.059 78.5703 38.8838C78.5703 38.7087 78.6582 38.6211 78.834 38.6211C79.0097 38.6211 79.0976 38.7087 79.0976 38.8838Z" fill="#001224"/>
<path d="M80.9428 38.8838C80.9428 39.059 80.855 39.1466 80.6792 39.1466C80.5034 39.1466 80.4155 39.059 80.4155 38.8838C80.4155 38.7087 80.5034 38.6211 80.6792 38.6211C80.855 38.6211 80.9428 38.7087 80.9428 38.8838Z" fill="#001224"/>
<path d="M81.7339 38.8838C81.7339 39.059 81.646 39.1466 81.4702 39.1466C81.2944 39.1466 81.2065 39.059 81.2065 38.8838C81.2065 38.7087 81.2944 38.6211 81.4702 38.6211C81.646 38.6211 81.7339 38.7087 81.7339 38.8838Z" fill="#001224"/>
<path d="M83.5796 38.8838C83.5796 39.059 83.4917 39.1466 83.3159 39.1466C83.1401 39.1466 83.0522 39.059 83.0522 38.8838C83.0522 38.7087 83.1401 38.6211 83.3159 38.6211C83.4917 38.6211 83.5796 38.7087 83.5796 38.8838Z" fill="#001224"/>
<path d="M84.3706 38.8838C84.3706 39.059 84.2827 39.1466 84.1069 39.1466C83.9311 39.1466 83.8433 39.059 83.8433 38.8838C83.8433 38.7087 83.9311 38.6211 84.1069 38.6211C84.2827 38.6211 84.3706 38.7087 84.3706 38.8838Z" fill="#001224"/>
<path d="M86.2163 38.8838C86.2163 39.059 86.1284 39.1466 85.9526 39.1466C85.7769 39.1466 85.689 39.059 85.689 38.8838C85.689 38.7087 85.7769 38.6211 85.9526 38.6211C86.1284 38.6211 86.2163 38.7087 86.2163 38.8838Z" fill="#001224"/>
<path d="M87.0073 38.8838C87.0073 39.059 86.9194 39.1466 86.7436 39.1466C86.5679 39.1466 86.48 39.059 86.48 38.8838C86.48 38.7087 86.5679 38.6211 86.7436 38.6211C86.9194 38.6211 87.0073 38.7087 87.0073 38.8838Z" fill="#001224"/>
<path d="M88.6767 38.8838C88.6767 39.059 88.5888 39.1466 88.4131 39.1466C88.2373 39.1466 88.1494 39.059 88.1494 38.8838C88.1494 38.7087 88.2373 38.6211 88.4131 38.6211C88.5888 38.6211 88.6767 38.7087 88.6767 38.8838Z" fill="#001224"/>
<path d="M89.4678 38.8838C89.4678 39.059 89.3799 39.1466 89.2041 39.1466C89.0283 39.1466 88.9404 39.059 88.9404 38.8838C88.9404 38.7087 89.0283 38.6211 89.2041 38.6211C89.3799 38.6211 89.4678 38.7087 89.4678 38.8838Z" fill="#001224"/>
<path d="M91.3134 38.8838C91.3134 39.059 91.2256 39.1466 91.0498 39.1466C90.874 39.1466 90.7861 39.059 90.7861 38.8838C90.7861 38.7087 90.874 38.6211 91.0498 38.6211C91.2256 38.6211 91.3134 38.7087 91.3134 38.8838Z" fill="#001224"/>
<path d="M92.1045 38.8838C92.1045 39.059 92.0166 39.1466 91.8408 39.1466C91.665 39.1466 91.5771 39.059 91.5771 38.8838C91.5771 38.7087 91.665 38.6211 91.8408 38.6211C92.0166 38.6211 92.1045 38.7087 92.1045 38.8838Z" fill="#001224"/>
<path d="M93.9502 38.8838C93.9502 39.059 93.8623 39.1466 93.6865 39.1466C93.5107 39.1466 93.4229 39.059 93.4229 38.8838C93.4229 38.7087 93.5107 38.6211 93.6865 38.6211C93.8623 38.6211 93.9502 38.7087 93.9502 38.8838Z" fill="#001224"/>
<path d="M94.7412 38.8838C94.7412 39.059 94.6533 39.1466 94.4775 39.1466C94.3018 39.1466 94.2139 39.059 94.2139 38.8838C94.2139 38.7087 94.3018 38.6211 94.4775 38.6211C94.6533 38.6211 94.7412 38.7087 94.7412 38.8838Z" fill="#001224"/>
<path d="M96.5869 38.8838C96.5869 39.059 96.499 39.1466 96.3232 39.1466C96.1475 39.1466 96.0596 39.059 96.0596 38.8838C96.0596 38.7087 96.2353 38.6211 96.3232 38.6211C96.4111 38.6211 96.5869 38.7087 96.5869 38.8838Z" fill="#001224"/>
<path d="M97.3779 38.8838C97.3779 39.059 97.29 39.1466 97.1142 39.1466C96.9385 39.1466 96.8506 39.059 96.8506 38.8838C96.8506 38.7087 96.9385 38.6211 97.1142 38.6211C97.29 38.6211 97.3779 38.7087 97.3779 38.8838Z" fill="#001224"/>
<path d="M99.2231 38.8838C99.2231 39.059 99.1352 39.1466 98.9595 39.1466C98.7837 39.1466 98.6958 39.059 98.6958 38.8838C98.6958 38.7087 98.7837 38.6211 98.9595 38.6211C99.1352 38.6211 99.2231 38.7087 99.2231 38.8838Z" fill="#001224"/>
<path d="M100.014 38.8838C100.014 39.059 99.9262 39.1466 99.7505 39.1466C99.5747 39.1466 99.4868 39.059 99.4868 38.8838C99.4868 38.7087 99.5747 38.6211 99.7505 38.6211C99.9262 38.6211 100.014 38.7087 100.014 38.8838Z" fill="#001224"/>
<path d="M101.684 38.8838C101.684 39.059 101.596 39.1466 101.42 39.1466C101.245 39.1466 101.157 39.059 101.157 38.8838C101.157 38.7087 101.245 38.6211 101.42 38.6211C101.596 38.6211 101.684 38.7087 101.684 38.8838Z" fill="#001224"/>
<path d="M102.475 38.8838C102.475 39.059 102.387 39.1466 102.211 39.1466C102.036 39.1466 101.948 39.059 101.948 38.8838C101.948 38.7087 102.036 38.6211 102.211 38.6211C102.387 38.6211 102.475 38.7087 102.475 38.8838Z" fill="#001224"/>
<path d="M104.321 38.8838C104.321 39.059 104.233 39.1466 104.057 39.1466C103.881 39.1466 103.793 39.059 103.793 38.8838C103.793 38.7087 103.881 38.6211 104.057 38.6211C104.233 38.6211 104.321 38.7087 104.321 38.8838Z" fill="#001224"/>
<path d="M105.112 38.8838C105.112 39.059 105.024 39.1466 104.848 39.1466C104.672 39.1466 104.584 39.059 104.584 38.8838C104.584 38.7087 104.672 38.6211 104.848 38.6211C105.024 38.6211 105.112 38.7087 105.112 38.8838Z" fill="#001224"/>
<path d="M106.957 38.8838C106.957 39.059 106.869 39.1466 106.693 39.1466C106.518 39.1466 106.43 39.059 106.43 38.8838C106.43 38.7087 106.518 38.6211 106.693 38.6211C106.869 38.6211 106.957 38.7087 106.957 38.8838Z" fill="#001224"/>
<path d="M107.748 38.8838C107.748 39.059 107.66 39.1466 107.484 39.1466C107.309 39.1466 107.221 39.059 107.221 38.8838C107.221 38.7087 107.309 38.6211 107.484 38.6211C107.66 38.6211 107.748 38.7087 107.748 38.8838Z" fill="#001224"/>
<path d="M109.594 38.8838C109.594 39.059 109.506 39.1466 109.33 39.1466C109.154 39.1466 109.066 39.059 109.066 38.8838C109.066 38.7087 109.154 38.6211 109.33 38.6211C109.506 38.6211 109.594 38.7087 109.594 38.8838Z" fill="#001224"/>
<path d="M110.385 38.8838C110.385 39.059 110.297 39.1466 110.121 39.1466C109.945 39.1466 109.857 39.059 109.857 38.8838C109.857 38.7087 109.945 38.6211 110.121 38.6211C110.297 38.6211 110.385 38.7087 110.385 38.8838Z" fill="#001224"/>
<path d="M112.23 38.8838C112.23 39.059 112.143 39.1466 111.967 39.1466C111.791 39.1466 111.703 39.059 111.703 38.8838C111.703 38.7087 111.791 38.6211 111.967 38.6211C112.143 38.6211 112.23 38.7087 112.23 38.8838Z" fill="#001224"/>
<path d="M113.021 38.8838C113.021 39.059 112.934 39.1466 112.758 39.1466C112.582 39.1466 112.494 39.059 112.494 38.8838C112.494 38.7087 112.582 38.6211 112.758 38.6211C112.934 38.6211 113.021 38.7087 113.021 38.8838Z" fill="#001224"/>
<path d="M114.691 38.8838C114.691 39.059 114.603 39.1466 114.428 39.1466C114.252 39.1466 114.164 39.059 114.164 38.8838C114.164 38.7087 114.252 38.6211 114.428 38.6211C114.603 38.6211 114.691 38.7087 114.691 38.8838Z" fill="#001224"/>
<path d="M115.482 38.8838C115.482 39.059 115.395 39.1466 115.219 39.1466C115.043 39.1466 114.955 39.059 114.955 38.8838C114.955 38.7087 115.043 38.6211 115.219 38.6211C115.395 38.6211 115.482 38.7087 115.482 38.8838Z" fill="#001224"/>
<path d="M117.328 38.8838C117.328 39.059 117.24 39.1466 117.064 39.1466C116.888 39.1466 116.8 39.059 116.8 38.8838C116.8 38.7087 116.888 38.6211 117.064 38.6211C117.24 38.6211 117.328 38.7087 117.328 38.8838Z" fill="#001224"/>
<path d="M118.119 38.8838C118.119 39.059 118.031 39.1466 117.855 39.1466C117.679 39.1466 117.591 39.059 117.591 38.8838C117.591 38.7087 117.679 38.6211 117.855 38.6211C118.031 38.6211 118.119 38.7087 118.119 38.8838Z" fill="#001224"/>
<path d="M119.964 38.8838C119.964 39.059 119.876 39.1466 119.701 39.1466C119.525 39.1466 119.437 39.059 119.437 38.8838C119.437 38.7087 119.525 38.6211 119.701 38.6211C119.876 38.6211 119.964 38.7087 119.964 38.8838Z" fill="#001224"/>
<path d="M120.755 38.8838C120.755 39.059 120.667 39.1466 120.492 39.1466C120.316 39.1466 120.228 39.059 120.228 38.8838C120.228 38.7087 120.404 38.6211 120.492 38.6211C120.58 38.6211 120.755 38.7087 120.755 38.8838Z" fill="#001224"/>
<path d="M122.601 38.8838C122.601 39.059 122.513 39.1466 122.337 39.1466C122.162 39.1466 122.074 39.059 122.074 38.8838C122.074 38.7087 122.162 38.6211 122.337 38.6211C122.513 38.6211 122.601 38.7087 122.601 38.8838Z" fill="#001224"/>
<path d="M123.392 38.8838C123.392 39.059 123.304 39.1466 123.128 39.1466C122.953 39.1466 122.865 39.059 122.865 38.8838C122.865 38.7087 122.953 38.6211 123.128 38.6211C123.304 38.6211 123.392 38.7087 123.392 38.8838Z" fill="#001224"/>
<path d="M125.238 38.8838C125.238 39.059 125.15 39.1466 124.974 39.1466C124.798 39.1466 124.71 39.059 124.71 38.8838C124.71 38.7087 124.798 38.6211 124.974 38.6211C125.15 38.6211 125.238 38.7087 125.238 38.8838Z" fill="#001224"/>
<path d="M126.028 38.8838C126.028 39.059 125.94 39.1466 125.765 39.1466C125.589 39.1466 125.501 39.059 125.501 38.8838C125.501 38.7087 125.589 38.6211 125.765 38.6211C125.94 38.6211 126.028 38.7087 126.028 38.8838Z" fill="#001224"/>
<path d="M127.786 38.8838C127.786 39.059 127.698 39.1466 127.522 39.1466C127.347 39.1466 127.259 39.059 127.259 38.8838C127.259 38.7087 127.347 38.6211 127.522 38.6211C127.698 38.6211 127.786 38.7087 127.786 38.8838Z" fill="#001224"/>
<path d="M128.577 38.8838C128.577 39.059 128.489 39.1466 128.313 39.1466C128.138 39.1466 128.05 39.059 128.05 38.8838C128.05 38.7087 128.138 38.6211 128.313 38.6211C128.489 38.6211 128.577 38.7087 128.577 38.8838Z" fill="#001224"/>
<path d="M130.423 38.8838C130.423 39.059 130.335 39.1466 130.159 39.1466C129.983 39.1466 129.896 39.059 129.896 38.8838C129.896 38.7087 129.983 38.6211 130.159 38.6211C130.335 38.6211 130.423 38.7087 130.423 38.8838Z" fill="#001224"/>
<path d="M131.214 38.8838C131.214 39.059 131.126 39.1466 130.95 39.1466C130.774 39.1466 130.687 39.059 130.687 38.8838C130.687 38.7087 130.774 38.6211 130.95 38.6211C131.126 38.6211 131.214 38.7087 131.214 38.8838Z" fill="#001224"/>
<path d="M133.06 38.8838C133.06 39.059 132.972 39.1466 132.796 39.1466C132.62 39.1466 132.532 39.059 132.532 38.8838C132.532 38.7087 132.62 38.6211 132.796 38.6211C132.972 38.6211 133.06 38.7087 133.06 38.8838Z" fill="#001224"/>
<path d="M133.851 38.8838C133.851 39.059 133.763 39.1466 133.587 39.1466C133.411 39.1466 133.323 39.059 133.323 38.8838C133.323 38.7087 133.411 38.6211 133.587 38.6211C133.763 38.6211 133.851 38.7087 133.851 38.8838Z" fill="#001224"/>
<path d="M135.696 38.8838C135.696 39.059 135.608 39.1466 135.432 39.1466C135.256 39.1466 135.168 39.059 135.168 38.8838C135.168 38.7087 135.256 38.6211 135.432 38.6211C135.608 38.6211 135.696 38.7087 135.696 38.8838Z" fill="#001224"/>
<path d="M136.487 38.8838C136.487 39.059 136.399 39.1466 136.223 39.1466C136.047 39.1466 135.959 39.059 135.959 38.8838C135.959 38.7087 136.047 38.6211 136.223 38.6211C136.399 38.6211 136.487 38.7087 136.487 38.8838Z" fill="#001224"/>
<path d="M138.332 38.8838C138.332 39.059 138.245 39.1466 138.069 39.1466C137.893 39.1466 137.805 39.059 137.805 38.8838C137.805 38.7087 137.893 38.6211 138.069 38.6211C138.245 38.6211 138.332 38.7087 138.332 38.8838Z" fill="#001224"/>
<path d="M139.124 38.8838C139.124 39.059 139.036 39.1466 138.86 39.1466C138.684 39.1466 138.596 39.059 138.596 38.8838C138.596 38.7087 138.684 38.6211 138.86 38.6211C139.036 38.6211 139.124 38.7087 139.124 38.8838Z" fill="#001224"/>
<path d="M140.793 38.8838C140.793 39.059 140.706 39.1466 140.53 39.1466C140.354 39.1466 140.266 39.059 140.266 38.8838C140.266 38.7087 140.354 38.6211 140.53 38.6211C140.706 38.6211 140.793 38.7087 140.793 38.8838Z" fill="#001224"/>
<path d="M141.584 38.8838C141.584 39.059 141.497 39.1466 141.321 39.1466C141.145 39.1466 141.057 39.059 141.057 38.8838C141.057 38.7087 141.145 38.6211 141.321 38.6211C141.497 38.6211 141.584 38.7087 141.584 38.8838Z" fill="#001224"/>
<path d="M143.43 38.8838C143.43 39.059 143.342 39.1466 143.166 39.1466C142.991 39.1466 142.903 39.059 142.903 38.8838C142.903 38.7087 142.991 38.6211 143.166 38.6211C143.342 38.6211 143.43 38.7087 143.43 38.8838Z" fill="#001224"/>
<path d="M144.221 38.8838C144.221 39.059 144.133 39.1466 143.957 39.1466C143.781 39.1466 143.693 39.059 143.693 38.8838C143.693 38.7087 143.781 38.6211 143.957 38.6211C144.133 38.6211 144.221 38.7087 144.221 38.8838Z" fill="#001224"/>
<path d="M146.066 38.8838C146.066 39.059 145.978 39.1466 145.803 39.1466C145.627 39.1466 145.539 39.059 145.539 38.8838C145.539 38.7087 145.627 38.6211 145.803 38.6211C145.978 38.6211 146.066 38.7087 146.066 38.8838Z" fill="#001224"/>
<path d="M146.857 38.8838C146.857 39.059 146.77 39.1466 146.594 39.1466C146.418 39.1466 146.33 39.059 146.33 38.8838C146.33 38.7087 146.418 38.6211 146.594 38.6211C146.77 38.6211 146.857 38.7087 146.857 38.8838Z" fill="#001224"/>
<path d="M148.703 38.8838C148.703 39.059 148.615 39.1466 148.439 39.1466C148.264 39.1466 148.176 39.059 148.176 38.8838C148.176 38.7087 148.264 38.6211 148.439 38.6211C148.615 38.6211 148.703 38.7087 148.703 38.8838Z" fill="#001224"/>
<path d="M149.494 38.8838C149.494 39.059 149.406 39.1466 149.23 39.1466C149.055 39.1466 148.967 39.059 148.967 38.8838C148.967 38.7087 149.055 38.6211 149.23 38.6211C149.406 38.6211 149.494 38.7087 149.494 38.8838Z" fill="#001224"/>
<path d="M151.34 38.8838C151.34 39.059 151.252 39.1466 151.076 39.1466C150.9 39.1466 150.812 39.059 150.812 38.8838C150.812 38.7087 150.9 38.6211 151.076 38.6211C151.252 38.6211 151.34 38.7087 151.34 38.8838Z" fill="#001224"/>
<path d="M152.131 38.8838C152.131 39.059 152.043 39.1466 151.867 39.1466C151.691 39.1466 151.604 39.059 151.604 38.8838C151.604 38.7087 151.691 38.6211 151.867 38.6211C152.043 38.6211 152.131 38.7087 152.131 38.8838Z" fill="#001224"/>
<path d="M24.9594 34.9429C24.9594 35.1181 24.8716 35.2056 24.6958 35.2056C24.52 35.2056 24.4321 35.1181 24.4321 34.9429C24.4321 34.7678 24.52 34.6802 24.6958 34.6802C24.8716 34.6802 24.9594 34.7678 24.9594 34.9429Z" fill="#001224"/>
<path d="M25.7505 34.9429C25.7505 35.1181 25.6626 35.2056 25.4868 35.2056C25.311 35.2056 25.2231 35.1181 25.2231 34.9429C25.2231 34.7678 25.311 34.6802 25.4868 34.6802C25.6626 34.6802 25.7505 34.7678 25.7505 34.9429Z" fill="#001224"/>
<path d="M27.7719 34.9429C27.7719 35.1181 27.6841 35.2056 27.5083 35.2056C27.3325 35.2056 27.2446 35.1181 27.2446 34.9429C27.2446 34.7678 27.3325 34.6802 27.5083 34.6802C27.6841 34.6802 27.7719 34.7678 27.7719 34.9429Z" fill="#001224"/>
<path d="M28.563 34.9429C28.563 35.1181 28.4751 35.2056 28.2993 35.2056C28.1235 35.2056 28.0356 35.1181 28.0356 34.9429C28.0356 34.7678 28.1235 34.6802 28.2993 34.6802C28.4751 34.6802 28.563 34.7678 28.563 34.9429Z" fill="#001224"/>
<path d="M30.5844 34.9429C30.5844 35.1181 30.4966 35.2056 30.3208 35.2056C30.145 35.2056 30.0571 35.1181 30.0571 34.9429C30.0571 34.7678 30.145 34.6802 30.3208 34.6802C30.4966 34.6802 30.5844 34.7678 30.5844 34.9429Z" fill="#001224"/>
<path d="M31.3755 34.9429C31.3755 35.1181 31.2876 35.2056 31.1118 35.2056C30.936 35.2056 30.8481 35.1181 30.8481 34.9429C30.8481 34.7678 30.936 34.6802 31.1118 34.6802C31.2876 34.6802 31.3755 34.7678 31.3755 34.9429Z" fill="#001224"/>
<path d="M9.40381 27.2363L10.4584 25.0469H20.1259V27.2363H9.40381Z" fill="#001224"/>
<path d="M24.1685 27.2363V25.0469H33.8359V27.2363H24.1685Z" fill="#001224"/>
<path d="M24.1685 23.5581V21.3687H33.8359V23.5581H24.1685Z" fill="#001224"/>
<path d="M24.1685 19.7922V17.6028H33.8359V19.7922H24.1685Z" fill="#001224"/>
<path d="M37.3516 12.5234L37.4394 10.334H47.1069V12.5234H37.3516Z" fill="#001224"/>
<path d="M11.2495 23.5581L12.3041 21.3687H20.0381V23.5581H11.2495Z" fill="#001224"/>
<path d="M26.7173 12.5234L28.7387 10.334H35.5059V12.5234H26.7173Z" fill="#001224"/>
<path d="M57.6533 12.5234L55.632 10.334H48.8647V12.5234H57.6533Z" fill="#001224"/>
<path d="M111.967 12.9612L108.891 11.2097H65.1235V12.9612H111.967Z" fill="#001224"/>
<path d="M13.1831 19.7922L14.3256 17.6028H20.0382V19.7922H13.1831Z" fill="#001224"/>
<path d="M154.152 27.2363L152.482 25.0469H143.342V27.2363H154.152Z" fill="#001224"/>
<path d="M139.651 27.2363V25.0469H129.896V27.2363H139.651Z" fill="#001224"/>
<path d="M139.651 23.5581V21.3687H129.896V23.5581H139.651Z" fill="#001224"/>
<path d="M139.651 19.7922V17.6028H129.896V19.7922H139.651Z" fill="#001224"/>
<path d="M151.515 23.5581L149.933 21.3687H143.43V23.5581H151.515Z" fill="#001224"/>
<path d="M148.967 19.7922L147.297 17.6028H143.43V19.7922H148.967Z" fill="#001224"/>
<path d="M5.36084 40.5479C5.6245 40.723 5.88816 40.8982 6.15181 40.9857C8.96417 42.2994 11.425 42.9124 11.425 42.9124H168.653C168.653 42.9124 169.532 41.9491 170.85 40.5479H5.36084Z" fill="#0841E2"/>
<path d="M0.351544 29.4256H182.803C183.594 28.8126 184.385 28.3747 185 28.0244H0L0.351544 29.4256Z" fill="#C1E0E0"/>
</g>
<defs>
<clipPath id="clip0_8433_33613">
<rect width="185" height="43" fill="white"/>
</clipPath>
</defs>
</svg>
