<svg width="142" height="30" viewBox="0 0 142 30" fill="none" xmlns="http://www.w3.org/2000/svg">
<g clip-path="url(#clip0_8433_33005)">
<path d="M134.223 30.0001L142 11.7356H123.602L122.264 14.7108H99.6007L97.6773 17.686H48.2532L45.2426 14.3802L32.9494 14.7108L30.4405 11.7356H0V20.9091L12.5442 30.0001H134.223Z" fill="#418FFE"/>
<path d="M13.9658 0V11.7355H5.60303L7.77735 0H13.9658Z" fill="#0D2237"/>
<path d="M28.8518 9.0083H9.78467V11.9835H28.8518V9.0083Z" fill="#00B09B"/>
<path d="M26.6773 6.19824H15.8057V7.76849H26.6773V6.19824Z" fill="#00B09B"/>
<path d="M26.6773 3.30566H15.8057V4.87591H26.6773V3.30566Z" fill="#00B09B"/>
<path d="M7.1084 3.80165L7.77742 0H13.9659V3.80165H7.1084Z" fill="#418FFE"/>
<path d="M136.899 23.8018L134.223 30.0001H12.5443L3.93066 23.8018H136.899Z" fill="#0D2237"/>
<path d="M122.264 14.7108L123.602 11.7356H142L140.745 14.7108H122.264Z" fill="white"/>
<path d="M0 11.7356H30.4405L32.9494 14.7108H0V11.7356Z" fill="white"/>
<path d="M26.0083 7.76855L26.6773 9.00822H15.8057L16.4747 7.76855H26.0083Z" fill="#001224"/>
<path d="M25.7573 4.87598H16.4746V6.19829H25.7573V4.87598Z" fill="#001224"/>
<path d="M25.7572 2.23145H24.001V3.38847H25.7572V2.23145Z" fill="#00B09B"/>
<path d="M26.6773 1.32227H23.2485V2.14871H26.6773V1.32227Z" fill="#00B09B"/>
<path d="M22.4961 2.80981H21.2417V4.13213H22.4961V2.80981Z" fill="#00B09B"/>
<path d="M18.9837 1.81812H18.1475V4.13216H18.9837V1.81812Z" fill="#00B09B"/>
<path d="M17.6455 2.56201H17.0601V4.13226H17.6455V2.56201Z" fill="#00B09B"/>
<path d="M19.8197 1.57031H17.3945V1.98354H19.8197V1.57031Z" fill="#00B09B"/>
<path d="M27.7645 9.83472H26.5938V11.0744H27.7645V9.83472Z" fill="#009AA6"/>
<path d="M25.9247 9.83472H24.7539V11.0744H25.9247V9.83472Z" fill="#009AA6"/>
<path d="M24.1683 9.83472H22.9976V11.0744H24.1683V9.83472Z" fill="#009AA6"/>
<path d="M22.4125 9.83472H21.2417V11.0744H22.4125V9.83472Z" fill="#009AA6"/>
<path d="M20.6561 9.83472H19.4854V11.0744H20.6561V9.83472Z" fill="#009AA6"/>
<path d="M18.8163 9.83472H17.6455V11.0744H18.8163V9.83472Z" fill="#009AA6"/>
<path d="M17.0599 9.83472H15.8892V11.0744H17.0599V9.83472Z" fill="#009AA6"/>
<path d="M15.3041 9.83472H14.1333V11.0744H15.3041V9.83472Z" fill="#009AA6"/>
<path d="M13.4642 9.83472H12.2935V11.0744H13.4642V9.83472Z" fill="#009AA6"/>
<path d="M11.7079 9.83472H10.5371V11.0744H11.7079V9.83472Z" fill="#009AA6"/>
<path d="M2.25781 17.1073C2.25781 17.6032 2.59232 18.0164 3.09409 18.0164C3.59586 18.0164 3.93037 17.6032 3.93037 17.1073C3.93037 16.6115 3.59586 16.1982 3.09409 16.1982C2.59232 16.1982 2.25781 16.6115 2.25781 17.1073Z" fill="#009AA6"/>
<path d="M8.94824 17.1073C8.94824 17.6032 9.28275 18.0164 9.78452 18.0164C10.2863 18.0164 10.6208 17.6032 10.6208 17.1073C10.6208 16.6115 10.2863 16.1982 9.78452 16.1982C9.28275 16.1982 8.94824 16.6115 8.94824 17.1073Z" fill="#009AA6"/>
<path d="M15.5547 17.1073C15.5547 17.6032 15.8892 18.0164 16.391 18.0164C16.8927 18.0164 17.2272 17.6032 17.2272 17.1073C17.2272 16.6115 16.8927 16.1982 16.391 16.1982C15.8892 16.1982 15.5547 16.6115 15.5547 17.1073Z" fill="#009AA6"/>
<path d="M22.2451 17.1073C22.2451 17.6032 22.5796 18.0164 23.0814 18.0164C23.5832 18.0164 23.9177 17.6032 23.9177 17.1073C23.9177 16.6115 23.5832 16.1982 23.0814 16.1982C22.5796 16.1982 22.2451 16.6115 22.2451 17.1073Z" fill="#009AA6"/>
<path d="M28.8516 17.1073C28.8516 17.6032 29.1861 18.0164 29.6878 18.0164C30.1896 18.0164 30.5241 17.6032 30.5241 17.1073C30.5241 16.6115 30.1896 16.1982 29.6878 16.1982C29.1861 16.1982 28.8516 16.6115 28.8516 17.1073Z" fill="#009AA6"/>
<path d="M35.542 17.1073C35.542 17.6032 35.8765 18.0164 36.3783 18.0164C36.88 18.0164 37.2145 17.6032 37.2145 17.1073C37.2145 16.6115 36.88 16.1982 36.3783 16.1982C35.8765 16.1982 35.542 16.6115 35.542 17.1073Z" fill="#009AA6"/>
<path d="M42.2319 17.1073C42.2319 17.6032 42.5664 18.0164 43.0682 18.0164C43.57 18.0164 43.9045 17.6032 43.9045 17.1073C43.9045 16.6115 43.57 16.1982 43.0682 16.1982C42.5664 16.1982 42.2319 16.6115 42.2319 17.1073Z" fill="#009AA6"/>
<path d="M135.226 17.4379C135.226 18.0991 135.728 18.6776 136.397 18.6776C137.066 18.6776 137.568 18.0991 137.568 17.4379C137.568 16.7768 137.066 16.1982 136.397 16.1982C135.728 16.1982 135.226 16.7768 135.226 17.4379Z" fill="#001224"/>
<path d="M134.474 22.6445C134.474 22.8925 134.808 23.1404 135.31 23.1404C135.812 23.1404 136.146 22.8925 136.146 22.6445C136.146 22.3966 135.812 22.1487 135.31 22.1487C134.808 22.1487 134.474 22.3966 134.474 22.6445Z" fill="#00B09B"/>
<path d="M130.961 22.6445C130.961 22.8925 131.295 23.1404 131.797 23.1404C132.299 23.1404 132.633 22.8925 132.633 22.6445C132.633 22.3966 132.299 22.1487 131.797 22.1487C131.295 22.1487 130.961 22.3966 130.961 22.6445Z" fill="#00B09B"/>
<path d="M127.532 22.6445C127.532 22.8925 127.867 23.1404 128.369 23.1404C128.87 23.1404 129.205 22.8925 129.205 22.6445C129.205 22.3966 128.87 22.1487 128.369 22.1487C127.867 22.1487 127.532 22.3966 127.532 22.6445Z" fill="#00B09B"/>
<path d="M124.104 22.6445C124.104 22.8925 124.438 23.1404 124.94 23.1404C125.442 23.1404 125.776 22.8925 125.776 22.6445C125.776 22.3966 125.442 22.1487 124.94 22.1487C124.438 22.1487 124.104 22.3966 124.104 22.6445Z" fill="#00B09B"/>
<path d="M121.428 23.1404C121.889 23.1404 122.264 22.9184 122.264 22.6445C122.264 22.3707 121.889 22.1487 121.428 22.1487C120.966 22.1487 120.591 22.3707 120.591 22.6445C120.591 22.9184 120.966 23.1404 121.428 23.1404Z" fill="#00B09B"/>
<path d="M117.163 22.6445C117.163 22.8925 117.497 23.1404 117.999 23.1404C118.501 23.1404 118.835 22.8925 118.835 22.6445C118.835 22.3966 118.501 22.1487 117.999 22.1487C117.497 22.1487 117.163 22.3966 117.163 22.6445Z" fill="#00B09B"/>
<path d="M113.734 22.6445C113.734 22.8925 114.068 23.1404 114.57 23.1404C115.072 23.1404 115.406 22.8925 115.406 22.6445C115.406 22.3966 115.072 22.1487 114.57 22.1487C114.068 22.1487 113.734 22.3966 113.734 22.6445Z" fill="#00B09B"/>
<path d="M107.963 22.6445C107.963 22.8925 108.298 23.1404 108.8 23.1404C109.301 23.1404 109.636 22.8925 109.636 22.6445C109.636 22.3966 109.301 22.1487 108.8 22.1487C108.298 22.1487 107.963 22.3966 107.963 22.6445Z" fill="#00B09B"/>
<path d="M104.535 22.6445C104.535 22.8925 104.869 23.1404 105.371 23.1404C105.873 23.1404 106.207 22.8925 106.207 22.6445C106.207 22.3966 105.873 22.1487 105.371 22.1487C104.869 22.1487 104.535 22.3966 104.535 22.6445Z" fill="#00B09B"/>
<path d="M101.859 23.1404C102.321 23.1404 102.695 22.9184 102.695 22.6445C102.695 22.3707 102.321 22.1487 101.859 22.1487C101.397 22.1487 101.022 22.3707 101.022 22.6445C101.022 22.9184 101.397 23.1404 101.859 23.1404Z" fill="#00B09B"/>
<path d="M98.43 23.1404C98.8919 23.1404 99.2663 22.9184 99.2663 22.6445C99.2663 22.3707 98.8919 22.1487 98.43 22.1487C97.9682 22.1487 97.5938 22.3707 97.5938 22.6445C97.5938 22.9184 97.9682 23.1404 98.43 23.1404Z" fill="#00B09B"/>
<path d="M94.165 22.6445C94.165 22.8925 94.4996 23.1404 95.0013 23.1404C95.5031 23.1404 95.8376 22.8925 95.8376 22.6445C95.8376 22.3966 95.5031 22.1487 95.0013 22.1487C94.4996 22.1487 94.165 22.3966 94.165 22.6445Z" fill="#00B09B"/>
<path d="M90.6523 22.6445C90.6523 22.8925 90.9869 23.1404 91.4886 23.1404C91.9904 23.1404 92.3249 22.8925 92.3249 22.6445C92.3249 22.3966 91.9904 22.1487 91.4886 22.1487C90.9869 22.1487 90.6523 22.3966 90.6523 22.6445Z" fill="#00B09B"/>
<path d="M87.2236 22.6445C87.2236 22.8925 87.5581 23.1404 88.0599 23.1404C88.5617 23.1404 88.8962 22.8925 88.8962 22.6445C88.8962 22.3966 88.5617 22.1487 88.0599 22.1487C87.5581 22.1487 87.2236 22.3966 87.2236 22.6445Z" fill="#00B09B"/>
<path d="M81.4536 22.6445C81.4536 22.8925 81.7881 23.1404 82.2899 23.1404C82.7917 23.1404 83.1262 22.8925 83.1262 22.6445C83.1262 22.3966 82.7917 22.1487 82.2899 22.1487C81.7881 22.1487 81.4536 22.3966 81.4536 22.6445Z" fill="#00B09B"/>
<path d="M78.0249 22.6445C78.0249 22.8925 78.3594 23.1404 78.8612 23.1404C79.3629 23.1404 79.6975 22.8925 79.6975 22.6445C79.6975 22.3966 79.3629 22.1487 78.8612 22.1487C78.3594 22.1487 78.0249 22.3966 78.0249 22.6445Z" fill="#00B09B"/>
<path d="M74.5962 22.6445C74.5962 22.8925 74.9307 23.1404 75.4325 23.1404C75.9342 23.1404 76.2687 22.8925 76.2687 22.6445C76.2687 22.3966 75.9342 22.1487 75.4325 22.1487C74.9307 22.1487 74.5962 22.3966 74.5962 22.6445Z" fill="#00B09B"/>
<path d="M71.0835 22.6445C71.0835 22.8925 71.418 23.1404 71.9198 23.1404C72.4215 23.1404 72.7561 22.8925 72.7561 22.6445C72.7561 22.3966 72.4215 22.1487 71.9198 22.1487C71.418 22.1487 71.0835 22.3966 71.0835 22.6445Z" fill="#00B09B"/>
<path d="M67.6548 22.6445C67.6548 22.8925 67.9893 23.1404 68.4911 23.1404C68.9928 23.1404 69.3273 22.8925 69.3273 22.6445C69.3273 22.3966 68.9928 22.1487 68.4911 22.1487C67.9893 22.1487 67.6548 22.3966 67.6548 22.6445Z" fill="#00B09B"/>
<path d="M64.2261 22.6445C64.2261 22.8925 64.5606 23.1404 65.0624 23.1404C65.5641 23.1404 65.8986 22.8925 65.8986 22.6445C65.8986 22.3966 65.5641 22.1487 65.0624 22.1487C64.5606 22.1487 64.2261 22.3966 64.2261 22.6445Z" fill="#00B09B"/>
<path d="M60.7974 22.6445C60.7974 22.8925 61.1319 23.1404 61.6336 23.1404C62.1354 23.1404 62.4699 22.8925 62.4699 22.6445C62.4699 22.3966 62.1354 22.1487 61.6336 22.1487C61.1319 22.1487 60.7974 22.3966 60.7974 22.6445Z" fill="#00B09B"/>
<path d="M55.0269 22.6445C55.0269 22.8925 55.3614 23.1404 55.8631 23.1404C56.3649 23.1404 56.6994 22.8925 56.6994 22.6445C56.6994 22.3966 56.3649 22.1487 55.8631 22.1487C55.3614 22.1487 55.0269 22.3966 55.0269 22.6445Z" fill="#00B09B"/>
<path d="M51.5146 22.6445C51.5146 22.8925 51.8492 23.1404 52.3509 23.1404C52.8527 23.1404 53.1872 22.8925 53.1872 22.6445C53.1872 22.3966 52.8527 22.1487 52.3509 22.1487C51.8492 22.1487 51.5146 22.3966 51.5146 22.6445Z" fill="#00B09B"/>
<path d="M48.0859 22.6445C48.0859 22.8925 48.4204 23.1404 48.9222 23.1404C49.424 23.1404 49.7585 22.8925 49.7585 22.6445C49.7585 22.3966 49.424 22.1487 48.9222 22.1487C48.4204 22.1487 48.0859 22.3966 48.0859 22.6445Z" fill="#00B09B"/>
<path d="M44.6572 22.6445C44.6572 22.8925 44.9917 23.1404 45.4935 23.1404C45.9953 23.1404 46.3298 22.8925 46.3298 22.6445C46.3298 22.3966 45.9953 22.1487 45.4935 22.1487C44.9917 22.1487 44.6572 22.3966 44.6572 22.6445Z" fill="#00B09B"/>
<path d="M41.2285 22.6445C41.2285 22.8925 41.563 23.1404 42.0648 23.1404C42.5666 23.1404 42.9011 22.8925 42.9011 22.6445C42.9011 22.3966 42.5666 22.1487 42.0648 22.1487C41.563 22.1487 41.2285 22.3966 41.2285 22.6445Z" fill="#00B09B"/>
<path d="M37.7163 22.6445C37.7163 22.8925 38.0508 23.1404 38.5526 23.1404C39.0544 23.1404 39.3889 22.8925 39.3889 22.6445C39.3889 22.3966 39.0544 22.1487 38.5526 22.1487C38.0508 22.1487 37.7163 22.3966 37.7163 22.6445Z" fill="#00B09B"/>
<path d="M34.2876 22.6445C34.2876 22.8925 34.6221 23.1404 35.1239 23.1404C35.6256 23.1404 35.9602 22.8925 35.9602 22.6445C35.9602 22.3966 35.6256 22.1487 35.1239 22.1487C34.6221 22.1487 34.2876 22.3966 34.2876 22.6445Z" fill="#00B09B"/>
<path d="M28.5171 22.6445C28.5171 22.8925 28.8516 23.1404 29.3534 23.1404C29.8551 23.1404 30.1896 22.8925 30.1896 22.6445C30.1896 22.3966 29.8551 22.1487 29.3534 22.1487C28.8516 22.1487 28.5171 22.3966 28.5171 22.6445Z" fill="#00B09B"/>
<path d="M25.0884 22.6445C25.0884 22.8925 25.4229 23.1404 25.9247 23.1404C26.4264 23.1404 26.7609 22.8925 26.7609 22.6445C26.7609 22.3966 26.4264 22.1487 25.9247 22.1487C25.4229 22.1487 25.0884 22.3966 25.0884 22.6445Z" fill="#00B09B"/>
<path d="M22.4124 23.1404C22.8743 23.1404 23.2487 22.9184 23.2487 22.6445C23.2487 22.3707 22.8743 22.1487 22.4124 22.1487C21.9506 22.1487 21.5762 22.3707 21.5762 22.6445C21.5762 22.9184 21.9506 23.1404 22.4124 23.1404Z" fill="#00B09B"/>
<path d="M18.1475 22.6445C18.1475 22.8925 18.482 23.1404 18.9837 23.1404C19.4855 23.1404 19.82 22.8925 19.82 22.6445C19.82 22.3966 19.4855 22.1487 18.9837 22.1487C18.482 22.1487 18.1475 22.3966 18.1475 22.6445Z" fill="#00B09B"/>
<path d="M14.7183 22.6445C14.7183 22.8925 15.0528 23.1404 15.5545 23.1404C16.0563 23.1404 16.3908 22.8925 16.3908 22.6445C16.3908 22.3966 16.0563 22.1487 15.5545 22.1487C15.0528 22.1487 14.7183 22.3966 14.7183 22.6445Z" fill="#00B09B"/>
<path d="M11.2896 22.6445C11.2896 22.8925 11.6241 23.1404 12.1258 23.1404C12.6276 23.1404 12.9621 22.8925 12.9621 22.6445C12.9621 22.3966 12.6276 22.1487 12.1258 22.1487C11.6241 22.1487 11.2896 22.3966 11.2896 22.6445Z" fill="#00B09B"/>
<path d="M7.77734 22.6445C7.77734 22.8925 8.11185 23.1404 8.61362 23.1404C9.11539 23.1404 9.4499 22.8925 9.4499 22.6445C9.4499 22.3966 9.11539 22.1487 8.61362 22.1487C8.11185 22.1487 7.77734 22.3966 7.77734 22.6445Z" fill="#00B09B"/>
<path d="M132.885 25.7025C132.885 26.0331 133.136 26.281 133.387 26.281C133.637 26.281 133.888 26.0331 133.888 25.7025C133.888 25.372 133.637 25.124 133.387 25.124C133.136 25.124 132.885 25.372 132.885 25.7025Z" fill="#001224"/>
<path d="M130.459 25.7025C130.459 26.0331 130.71 26.281 130.961 26.281C131.212 26.281 131.463 26.0331 131.463 25.7025C131.463 25.372 131.212 25.124 130.961 25.124C130.71 25.124 130.459 25.372 130.459 25.7025Z" fill="#001224"/>
<path d="M128.034 25.7025C128.034 26.0331 128.285 26.281 128.536 26.281C128.787 26.281 129.038 26.0331 129.038 25.7025C129.038 25.372 128.787 25.124 128.536 25.124C128.285 25.124 128.034 25.372 128.034 25.7025Z" fill="#001224"/>
<path d="M125.609 25.7025C125.609 26.0331 125.86 26.281 126.111 26.281C126.362 26.281 126.612 26.0331 126.612 25.7025C126.612 25.372 126.362 25.124 126.111 25.124C125.86 25.124 125.609 25.372 125.609 25.7025Z" fill="#001224"/>
<path d="M123.184 25.7025C123.184 26.0331 123.434 26.281 123.685 26.281C123.936 26.281 124.187 26.0331 124.187 25.7025C124.187 25.372 123.936 25.124 123.685 25.124C123.434 25.124 123.184 25.372 123.184 25.7025Z" fill="#001224"/>
<path d="M120.758 25.7025C120.758 26.0331 121.009 26.281 121.26 26.281C121.511 26.281 121.762 26.0331 121.762 25.7025C121.762 25.372 121.511 25.124 121.26 25.124C121.009 25.124 120.758 25.372 120.758 25.7025Z" fill="#001224"/>
<path d="M118.333 25.7025C118.333 26.0331 118.584 26.281 118.835 26.281C119.086 26.281 119.337 26.0331 119.337 25.7025C119.337 25.372 119.086 25.124 118.835 25.124C118.584 25.124 118.333 25.372 118.333 25.7025Z" fill="#001224"/>
<path d="M115.908 25.7025C115.908 26.0331 116.159 26.281 116.41 26.281C116.661 26.281 116.912 26.0331 116.912 25.7025C116.912 25.372 116.661 25.124 116.41 25.124C116.159 25.124 115.908 25.372 115.908 25.7025Z" fill="#001224"/>
<path d="M113.483 25.7025C113.483 26.0331 113.734 26.281 113.985 26.281C114.236 26.281 114.486 26.0331 114.486 25.7025C114.486 25.372 114.236 25.124 113.985 25.124C113.734 25.124 113.483 25.372 113.483 25.7025Z" fill="#001224"/>
<path d="M111.058 25.7025C111.058 26.0331 111.308 26.281 111.559 26.281C111.81 26.281 112.061 26.0331 112.061 25.7025C112.061 25.372 111.81 25.124 111.559 25.124C111.308 25.124 111.058 25.372 111.058 25.7025Z" fill="#001224"/>
<path d="M108.632 25.7025C108.632 26.0331 108.883 26.281 109.134 26.281C109.385 26.281 109.636 26.0331 109.636 25.7025C109.636 25.372 109.385 25.124 109.134 25.124C108.883 25.124 108.632 25.372 108.632 25.7025Z" fill="#001224"/>
<path d="M106.208 25.7025C106.208 26.0331 106.458 26.281 106.709 26.281C106.96 26.281 107.211 26.0331 107.211 25.7025C107.211 25.372 106.96 25.124 106.709 25.124C106.458 25.124 106.208 25.372 106.208 25.7025Z" fill="#001224"/>
<path d="M103.782 25.7025C103.782 26.0331 104.033 26.281 104.284 26.281C104.535 26.281 104.786 26.0331 104.786 25.7025C104.786 25.372 104.535 25.124 104.284 25.124C104.033 25.124 103.782 25.372 103.782 25.7025Z" fill="#001224"/>
<path d="M101.44 25.7025C101.44 26.0331 101.691 26.281 101.942 26.281C102.193 26.281 102.444 26.0331 102.444 25.7025C102.444 25.372 102.193 25.124 101.942 25.124C101.691 25.124 101.44 25.372 101.44 25.7025Z" fill="#001224"/>
<path d="M99.0151 25.7025C99.0151 26.0331 99.266 26.281 99.5169 26.281C99.7678 26.281 100.019 26.0331 100.019 25.7025C100.019 25.372 99.7678 25.124 99.5169 25.124C99.266 25.124 99.0151 25.372 99.0151 25.7025Z" fill="#001224"/>
<path d="M96.5903 25.7025C96.5903 26.0331 96.8412 26.281 97.0921 26.281C97.343 26.281 97.5939 26.0331 97.5939 25.7025C97.5939 25.372 97.343 25.124 97.0921 25.124C96.8412 25.124 96.5903 25.372 96.5903 25.7025Z" fill="#001224"/>
<path d="M94.165 25.7025C94.165 26.0331 94.4159 26.281 94.6668 26.281C94.9177 26.281 95.1686 26.0331 95.1686 25.7025C95.1686 25.372 94.9177 25.124 94.6668 25.124C94.4159 25.124 94.165 25.372 94.165 25.7025Z" fill="#001224"/>
<path d="M91.7397 25.7025C91.7397 26.0331 91.9906 26.281 92.2415 26.281C92.4924 26.281 92.7433 26.0331 92.7433 25.7025C92.7433 25.372 92.4924 25.124 92.2415 25.124C91.9906 25.124 91.7397 25.372 91.7397 25.7025Z" fill="#001224"/>
<path d="M89.3145 25.7025C89.3145 26.0331 89.5653 26.281 89.8162 26.281C90.0671 26.281 90.318 26.0331 90.318 25.7025C90.318 25.372 90.0671 25.124 89.8162 25.124C89.5653 25.124 89.3145 25.372 89.3145 25.7025Z" fill="#001224"/>
<path d="M86.8892 25.7025C86.8892 26.0331 87.14 26.281 87.3909 26.281C87.6418 26.281 87.8927 26.0331 87.8927 25.7025C87.8927 25.372 87.6418 25.124 87.3909 25.124C87.14 25.124 86.8892 25.372 86.8892 25.7025Z" fill="#001224"/>
<path d="M84.4639 25.7025C84.4639 26.0331 84.7147 26.281 84.9656 26.281C85.2165 26.281 85.4674 26.0331 85.4674 25.7025C85.4674 25.372 85.2165 25.124 84.9656 25.124C84.7147 25.124 84.4639 25.372 84.4639 25.7025Z" fill="#001224"/>
<path d="M82.0391 25.7025C82.0391 26.0331 82.2899 26.281 82.5408 26.281C82.7917 26.281 83.0426 26.0331 83.0426 25.7025C83.0426 25.372 82.7917 25.124 82.5408 25.124C82.2899 25.124 82.0391 25.372 82.0391 25.7025Z" fill="#001224"/>
<path d="M79.6138 25.7025C79.6138 26.0331 79.8647 26.281 80.1155 26.281C80.3664 26.281 80.6173 26.0331 80.6173 25.7025C80.6173 25.372 80.3664 25.124 80.1155 25.124C79.8647 25.124 79.6138 25.372 79.6138 25.7025Z" fill="#001224"/>
<path d="M77.1885 25.7025C77.1885 26.0331 77.4394 26.281 77.6902 26.281C77.9411 26.281 78.192 26.0331 78.192 25.7025C78.192 25.372 77.9411 25.124 77.6902 25.124C77.4394 25.124 77.1885 25.372 77.1885 25.7025Z" fill="#001224"/>
<path d="M74.7632 25.7025C74.7632 26.0331 75.0141 26.281 75.2649 26.281C75.5158 26.281 75.7667 26.0331 75.7667 25.7025C75.7667 25.372 75.5158 25.124 75.2649 25.124C75.0141 25.124 74.7632 25.372 74.7632 25.7025Z" fill="#001224"/>
<path d="M72.3379 25.7025C72.3379 26.0331 72.5888 26.281 72.8397 26.281C73.0905 26.281 73.3414 26.0331 73.3414 25.7025C73.3414 25.372 73.0905 25.124 72.8397 25.124C72.5888 25.124 72.3379 25.372 72.3379 25.7025Z" fill="#001224"/>
<path d="M69.9126 25.7025C69.9126 26.0331 70.1635 26.281 70.4144 26.281C70.6652 26.281 70.9161 26.0331 70.9161 25.7025C70.9161 25.372 70.6652 25.124 70.4144 25.124C70.1635 25.124 69.9126 25.372 69.9126 25.7025Z" fill="#001224"/>
<path d="M67.4878 25.7025C67.4878 26.0331 67.7387 26.281 67.9896 26.281C68.2404 26.281 68.4913 26.0331 68.4913 25.7025C68.4913 25.372 68.2404 25.124 67.9896 25.124C67.7387 25.124 67.4878 25.372 67.4878 25.7025Z" fill="#001224"/>
<path d="M65.0625 25.7025C65.0625 26.0331 65.3134 26.281 65.5643 26.281C65.8151 26.281 66.066 26.0331 66.066 25.7025C66.066 25.372 65.8151 25.124 65.5643 25.124C65.3134 25.124 65.0625 25.372 65.0625 25.7025Z" fill="#001224"/>
<path d="M62.6372 25.7025C62.6372 26.0331 62.8881 26.281 63.139 26.281C63.3899 26.281 63.6407 26.0331 63.6407 25.7025C63.6407 25.372 63.3899 25.124 63.139 25.124C62.8881 25.124 62.6372 25.372 62.6372 25.7025Z" fill="#001224"/>
<path d="M60.2119 25.7025C60.2119 26.0331 60.4628 26.281 60.7137 26.281C60.9646 26.281 61.2154 26.0331 61.2154 25.7025C61.2154 25.372 60.9646 25.124 60.7137 25.124C60.4628 25.124 60.2119 25.372 60.2119 25.7025Z" fill="#001224"/>
<path d="M57.7866 25.7025C57.7866 26.0331 58.0375 26.281 58.2884 26.281C58.5393 26.281 58.7902 26.0331 58.7902 25.7025C58.7902 25.372 58.5393 25.124 58.2884 25.124C58.0375 25.124 57.7866 25.372 57.7866 25.7025Z" fill="#001224"/>
<path d="M55.3618 25.7025C55.3618 26.0331 55.6127 26.281 55.8636 26.281C56.1145 26.281 56.3654 26.0331 56.3654 25.7025C56.3654 25.372 56.1145 25.124 55.8636 25.124C55.6127 25.124 55.3618 25.372 55.3618 25.7025Z" fill="#001224"/>
<path d="M52.9365 25.7025C52.9365 26.0331 53.1874 26.281 53.4383 26.281C53.6892 26.281 53.9401 26.0331 53.9401 25.7025C53.9401 25.372 53.6892 25.124 53.4383 25.124C53.1874 25.124 52.9365 25.372 52.9365 25.7025Z" fill="#001224"/>
<path d="M50.5112 25.7025C50.5112 26.0331 50.7621 26.281 51.013 26.281C51.2639 26.281 51.5148 26.0331 51.5148 25.7025C51.5148 25.372 51.2639 25.124 51.013 25.124C50.7621 25.124 50.5112 25.372 50.5112 25.7025Z" fill="#001224"/>
<path d="M48.0859 25.7025C48.0859 26.0331 48.3368 26.281 48.5877 26.281C48.8386 26.281 49.0895 26.0331 49.0895 25.7025C49.0895 25.372 48.8386 25.124 48.5877 25.124C48.3368 25.124 48.0859 25.372 48.0859 25.7025Z" fill="#001224"/>
<path d="M45.7446 25.7025C45.7446 26.0331 45.9955 26.281 46.2464 26.281C46.4973 26.281 46.7482 26.0331 46.7482 25.7025C46.7482 25.372 46.4973 25.124 46.2464 25.124C45.9955 25.124 45.7446 25.372 45.7446 25.7025Z" fill="#001224"/>
<path d="M43.3193 25.7025C43.3193 26.0331 43.5702 26.281 43.8211 26.281C44.072 26.281 44.3229 26.0331 44.3229 25.7025C44.3229 25.372 44.072 25.124 43.8211 25.124C43.5702 25.124 43.3193 25.372 43.3193 25.7025Z" fill="#001224"/>
<path d="M40.894 25.7025C40.894 26.0331 41.1449 26.281 41.3958 26.281C41.6467 26.281 41.8976 26.0331 41.8976 25.7025C41.8976 25.372 41.6467 25.124 41.3958 25.124C41.1449 25.124 40.894 25.372 40.894 25.7025Z" fill="#001224"/>
<path d="M38.4688 25.7025C38.4688 26.0331 38.7196 26.281 38.9705 26.281C39.2214 26.281 39.4723 26.0331 39.4723 25.7025C39.4723 25.372 39.2214 25.124 38.9705 25.124C38.7196 25.124 38.4688 25.372 38.4688 25.7025Z" fill="#001224"/>
<path d="M36.0435 25.7025C36.0435 26.0331 36.2943 26.281 36.5452 26.281C36.7961 26.281 37.047 26.0331 37.047 25.7025C37.047 25.372 36.7961 25.124 36.5452 25.124C36.2943 25.124 36.0435 25.372 36.0435 25.7025Z" fill="#001224"/>
<path d="M33.6182 25.7025C33.6182 26.0331 33.869 26.281 34.1199 26.281C34.3708 26.281 34.6217 26.0331 34.6217 25.7025C34.6217 25.372 34.3708 25.124 34.1199 25.124C33.869 25.124 33.6182 25.372 33.6182 25.7025Z" fill="#001224"/>
<path d="M31.1934 25.7025C31.1934 26.0331 31.4442 26.281 31.6951 26.281C31.946 26.281 32.1969 26.0331 32.1969 25.7025C32.1969 25.372 31.946 25.124 31.6951 25.124C31.4442 25.124 31.1934 25.372 31.1934 25.7025Z" fill="#001224"/>
<path d="M28.7681 25.7025C28.7681 26.0331 29.0189 26.281 29.2698 26.281C29.5207 26.281 29.7716 26.0331 29.7716 25.7025C29.7716 25.372 29.5207 25.124 29.2698 25.124C29.0189 25.124 28.7681 25.372 28.7681 25.7025Z" fill="#001224"/>
<path d="M26.3428 25.7025C26.3428 26.0331 26.5937 26.281 26.8445 26.281C27.0954 26.281 27.3463 26.0331 27.3463 25.7025C27.3463 25.372 27.0954 25.124 26.8445 25.124C26.5937 25.124 26.3428 25.372 26.3428 25.7025Z" fill="#001224"/>
<path d="M23.9175 25.7025C23.9175 26.0331 24.1684 26.281 24.4192 26.281C24.6701 26.281 24.921 26.0331 24.921 25.7025C24.921 25.372 24.6701 25.124 24.4192 25.124C24.1684 25.124 23.9175 25.372 23.9175 25.7025Z" fill="#001224"/>
<path d="M21.4922 25.7025C21.4922 26.0331 21.7431 26.281 21.994 26.281C22.2448 26.281 22.4957 26.0331 22.4957 25.7025C22.4957 25.372 22.2448 25.124 21.994 25.124C21.7431 25.124 21.4922 25.372 21.4922 25.7025Z" fill="#001224"/>
<path d="M19.0669 25.7025C19.0669 26.0331 19.3178 26.281 19.5687 26.281C19.8195 26.281 20.0704 26.0331 20.0704 25.7025C20.0704 25.372 19.8195 25.124 19.5687 25.124C19.3178 25.124 19.0669 25.372 19.0669 25.7025Z" fill="#001224"/>
<path d="M16.6421 25.7025C16.6421 26.0331 16.893 26.281 17.1439 26.281C17.3947 26.281 17.6456 26.0331 17.6456 25.7025C17.6456 25.372 17.3947 25.124 17.1439 25.124C16.893 25.124 16.6421 25.372 16.6421 25.7025Z" fill="#001224"/>
<path d="M14.2168 25.7025C14.2168 26.0331 14.4677 26.281 14.7186 26.281C14.9694 26.281 15.2203 26.0331 15.2203 25.7025C15.2203 25.372 14.9694 25.124 14.7186 25.124C14.4677 25.124 14.2168 25.372 14.2168 25.7025Z" fill="#001224"/>
<path d="M11.7915 25.7025C11.7915 26.0331 12.0424 26.281 12.2933 26.281C12.5442 26.281 12.795 26.0331 12.795 25.7025C12.795 25.372 12.5442 25.124 12.2933 25.124C12.0424 25.124 11.7915 25.372 11.7915 25.7025Z" fill="#001224"/>
<path d="M9.36621 25.7025C9.36621 26.0331 9.61709 26.281 9.86798 26.281C10.1189 26.281 10.3697 26.0331 10.3697 25.7025C10.3697 25.372 10.1189 25.124 9.86798 25.124C9.61709 25.124 9.36621 25.372 9.36621 25.7025Z" fill="#001224"/>
<path d="M132.885 27.4381C132.885 27.7687 133.136 28.0166 133.387 28.0166C133.637 28.0166 133.888 27.7687 133.888 27.4381C133.888 27.1076 133.637 26.8596 133.387 26.8596C133.136 26.8596 132.885 27.1076 132.885 27.4381Z" fill="#001224"/>
<path d="M130.459 27.4381C130.459 27.7687 130.71 28.0166 130.961 28.0166C131.212 28.0166 131.463 27.7687 131.463 27.4381C131.463 27.1076 131.212 26.8596 130.961 26.8596C130.71 26.8596 130.459 27.1076 130.459 27.4381Z" fill="#001224"/>
<path d="M128.034 27.4381C128.034 27.7687 128.285 28.0166 128.536 28.0166C128.787 28.0166 129.038 27.7687 129.038 27.4381C129.038 27.1076 128.787 26.8596 128.536 26.8596C128.285 26.8596 128.034 27.1076 128.034 27.4381Z" fill="#001224"/>
<path d="M125.609 27.4381C125.609 27.7687 125.86 28.0166 126.111 28.0166C126.362 28.0166 126.612 27.7687 126.612 27.4381C126.612 27.1076 126.362 26.8596 126.111 26.8596C125.86 26.8596 125.609 27.1076 125.609 27.4381Z" fill="#001224"/>
<path d="M123.184 27.4381C123.184 27.7687 123.434 28.0166 123.685 28.0166C123.936 28.0166 124.187 27.7687 124.187 27.4381C124.187 27.1076 123.936 26.8596 123.685 26.8596C123.434 26.8596 123.184 27.1076 123.184 27.4381Z" fill="#001224"/>
<path d="M120.758 27.4381C120.758 27.7687 121.009 28.0166 121.26 28.0166C121.511 28.0166 121.762 27.7687 121.762 27.4381C121.762 27.1076 121.511 26.8596 121.26 26.8596C121.009 26.8596 120.758 27.1076 120.758 27.4381Z" fill="#001224"/>
<path d="M118.333 27.4381C118.333 27.7687 118.584 28.0166 118.835 28.0166C119.086 28.0166 119.337 27.7687 119.337 27.4381C119.337 27.1076 119.086 26.8596 118.835 26.8596C118.584 26.8596 118.333 27.1076 118.333 27.4381Z" fill="#001224"/>
<path d="M115.908 27.4381C115.908 27.7687 116.159 28.0166 116.41 28.0166C116.661 28.0166 116.912 27.7687 116.912 27.4381C116.912 27.1076 116.661 26.8596 116.41 26.8596C116.159 26.8596 115.908 27.1076 115.908 27.4381Z" fill="#001224"/>
<path d="M113.483 27.4381C113.483 27.7687 113.734 28.0166 113.985 28.0166C114.236 28.0166 114.486 27.7687 114.486 27.4381C114.486 27.1076 114.236 26.8596 113.985 26.8596C113.734 26.8596 113.483 27.1076 113.483 27.4381Z" fill="#001224"/>
<path d="M111.058 27.4381C111.058 27.7687 111.308 28.0166 111.559 28.0166C111.81 28.0166 112.061 27.7687 112.061 27.4381C112.061 27.1076 111.81 26.8596 111.559 26.8596C111.308 26.8596 111.058 27.1076 111.058 27.4381Z" fill="#001224"/>
<path d="M108.632 27.4381C108.632 27.7687 108.883 28.0166 109.134 28.0166C109.385 28.0166 109.636 27.7687 109.636 27.4381C109.636 27.1076 109.385 26.8596 109.134 26.8596C108.883 26.8596 108.632 27.1076 108.632 27.4381Z" fill="#001224"/>
<path d="M106.208 27.4381C106.208 27.7687 106.458 28.0166 106.709 28.0166C106.96 28.0166 107.211 27.7687 107.211 27.4381C107.211 27.1076 106.96 26.8596 106.709 26.8596C106.458 26.8596 106.208 27.1076 106.208 27.4381Z" fill="#001224"/>
<path d="M103.782 27.4381C103.782 27.7687 104.033 28.0166 104.284 28.0166C104.535 28.0166 104.786 27.7687 104.786 27.4381C104.786 27.1076 104.535 26.8596 104.284 26.8596C104.033 26.8596 103.782 27.1076 103.782 27.4381Z" fill="#001224"/>
<path d="M101.44 27.4381C101.44 27.7687 101.691 28.0166 101.942 28.0166C102.193 28.0166 102.444 27.7687 102.444 27.4381C102.444 27.1076 102.193 26.8596 101.942 26.8596C101.691 26.8596 101.44 27.1076 101.44 27.4381Z" fill="#001224"/>
<path d="M99.0151 27.4381C99.0151 27.7687 99.266 28.0166 99.5169 28.0166C99.7678 28.0166 100.019 27.7687 100.019 27.4381C100.019 27.1076 99.7678 26.8596 99.5169 26.8596C99.266 26.8596 99.0151 27.1076 99.0151 27.4381Z" fill="#001224"/>
<path d="M96.5903 27.4381C96.5903 27.7687 96.8412 28.0166 97.0921 28.0166C97.343 28.0166 97.5939 27.7687 97.5939 27.4381C97.5939 27.1076 97.343 26.8596 97.0921 26.8596C96.8412 26.8596 96.5903 27.1076 96.5903 27.4381Z" fill="#001224"/>
<path d="M94.165 27.4381C94.165 27.7687 94.4159 28.0166 94.6668 28.0166C94.9177 28.0166 95.1686 27.7687 95.1686 27.4381C95.1686 27.1076 94.9177 26.8596 94.6668 26.8596C94.4159 26.8596 94.165 27.1076 94.165 27.4381Z" fill="#001224"/>
<path d="M91.7397 27.4381C91.7397 27.7687 91.9906 28.0166 92.2415 28.0166C92.4924 28.0166 92.7433 27.7687 92.7433 27.4381C92.7433 27.1076 92.4924 26.8596 92.2415 26.8596C91.9906 26.8596 91.7397 27.1076 91.7397 27.4381Z" fill="#001224"/>
<path d="M89.3145 27.4381C89.3145 27.7687 89.5653 28.0166 89.8162 28.0166C90.0671 28.0166 90.318 27.7687 90.318 27.4381C90.318 27.1076 90.0671 26.8596 89.8162 26.8596C89.5653 26.8596 89.3145 27.1076 89.3145 27.4381Z" fill="#001224"/>
<path d="M86.8892 27.4381C86.8892 27.7687 87.14 28.0166 87.3909 28.0166C87.6418 28.0166 87.8927 27.7687 87.8927 27.4381C87.8927 27.1076 87.6418 26.8596 87.3909 26.8596C87.14 26.8596 86.8892 27.1076 86.8892 27.4381Z" fill="#001224"/>
<path d="M84.4639 27.4381C84.4639 27.7687 84.7147 28.0166 84.9656 28.0166C85.2165 28.0166 85.4674 27.7687 85.4674 27.4381C85.4674 27.1076 85.2165 26.8596 84.9656 26.8596C84.7147 26.8596 84.4639 27.1076 84.4639 27.4381Z" fill="#001224"/>
<path d="M82.0391 27.4381C82.0391 27.7687 82.2899 28.0166 82.5408 28.0166C82.7917 28.0166 83.0426 27.7687 83.0426 27.4381C83.0426 27.1076 82.7917 26.8596 82.5408 26.8596C82.2899 26.8596 82.0391 27.1076 82.0391 27.4381Z" fill="#001224"/>
<path d="M79.6138 27.4381C79.6138 27.7687 79.8647 28.0166 80.1155 28.0166C80.3664 28.0166 80.6173 27.7687 80.6173 27.4381C80.6173 27.1076 80.3664 26.8596 80.1155 26.8596C79.8647 26.8596 79.6138 27.1076 79.6138 27.4381Z" fill="#001224"/>
<path d="M77.1885 27.4381C77.1885 27.7687 77.4394 28.0166 77.6902 28.0166C77.9411 28.0166 78.192 27.7687 78.192 27.4381C78.192 27.1076 77.9411 26.8596 77.6902 26.8596C77.4394 26.8596 77.1885 27.1076 77.1885 27.4381Z" fill="#001224"/>
<path d="M74.7632 27.4381C74.7632 27.7687 75.0141 28.0166 75.2649 28.0166C75.5158 28.0166 75.7667 27.7687 75.7667 27.4381C75.7667 27.1076 75.5158 26.8596 75.2649 26.8596C75.0141 26.8596 74.7632 27.1076 74.7632 27.4381Z" fill="#001224"/>
<path d="M72.3379 27.4381C72.3379 27.7687 72.5888 28.0166 72.8397 28.0166C73.0905 28.0166 73.3414 27.7687 73.3414 27.4381C73.3414 27.1076 73.0905 26.8596 72.8397 26.8596C72.5888 26.8596 72.3379 27.1076 72.3379 27.4381Z" fill="#001224"/>
<path d="M69.9126 27.4381C69.9126 27.7687 70.1635 28.0166 70.4144 28.0166C70.6652 28.0166 70.9161 27.7687 70.9161 27.4381C70.9161 27.1076 70.6652 26.8596 70.4144 26.8596C70.1635 26.8596 69.9126 27.1076 69.9126 27.4381Z" fill="#001224"/>
<path d="M67.4878 27.4381C67.4878 27.7687 67.7387 28.0166 67.9896 28.0166C68.2404 28.0166 68.4913 27.7687 68.4913 27.4381C68.4913 27.1076 68.2404 26.8596 67.9896 26.8596C67.7387 26.8596 67.4878 27.1076 67.4878 27.4381Z" fill="#001224"/>
<path d="M65.0625 27.4381C65.0625 27.7687 65.3134 28.0166 65.5643 28.0166C65.8151 28.0166 66.066 27.7687 66.066 27.4381C66.066 27.1076 65.8151 26.8596 65.5643 26.8596C65.3134 26.8596 65.0625 27.1076 65.0625 27.4381Z" fill="#001224"/>
<path d="M62.6372 27.4381C62.6372 27.7687 62.8881 28.0166 63.139 28.0166C63.3899 28.0166 63.6407 27.7687 63.6407 27.4381C63.6407 27.1076 63.3899 26.8596 63.139 26.8596C62.8881 26.8596 62.6372 27.1076 62.6372 27.4381Z" fill="#001224"/>
<path d="M60.2119 27.4381C60.2119 27.7687 60.4628 28.0166 60.7137 28.0166C60.9646 28.0166 61.2154 27.7687 61.2154 27.4381C61.2154 27.1076 60.9646 26.8596 60.7137 26.8596C60.4628 26.8596 60.2119 27.1076 60.2119 27.4381Z" fill="#001224"/>
<path d="M57.7866 27.4381C57.7866 27.7687 58.0375 28.0166 58.2884 28.0166C58.5393 28.0166 58.7902 27.7687 58.7902 27.4381C58.7902 27.1076 58.5393 26.8596 58.2884 26.8596C58.0375 26.8596 57.7866 27.1076 57.7866 27.4381Z" fill="#001224"/>
<path d="M55.3618 27.4381C55.3618 27.7687 55.6127 28.0166 55.8636 28.0166C56.1145 28.0166 56.3654 27.7687 56.3654 27.4381C56.3654 27.1076 56.1145 26.8596 55.8636 26.8596C55.6127 26.8596 55.3618 27.1076 55.3618 27.4381Z" fill="#001224"/>
<path d="M52.9365 27.4381C52.9365 27.7687 53.1874 28.0166 53.4383 28.0166C53.6892 28.0166 53.9401 27.7687 53.9401 27.4381C53.9401 27.1076 53.6892 26.8596 53.4383 26.8596C53.1874 26.8596 52.9365 27.1076 52.9365 27.4381Z" fill="#001224"/>
<path d="M50.5112 27.4381C50.5112 27.7687 50.7621 28.0166 51.013 28.0166C51.2639 28.0166 51.5148 27.7687 51.5148 27.4381C51.5148 27.1076 51.2639 26.8596 51.013 26.8596C50.7621 26.8596 50.5112 27.1076 50.5112 27.4381Z" fill="#001224"/>
<path d="M48.0859 27.4381C48.0859 27.7687 48.3368 28.0166 48.5877 28.0166C48.8386 28.0166 49.0895 27.7687 49.0895 27.4381C49.0895 27.1076 48.8386 26.8596 48.5877 26.8596C48.3368 26.8596 48.0859 27.1076 48.0859 27.4381Z" fill="#001224"/>
<path d="M45.7446 27.4381C45.7446 27.7687 45.9955 28.0166 46.2464 28.0166C46.4973 28.0166 46.7482 27.7687 46.7482 27.4381C46.7482 27.1076 46.4973 26.8596 46.2464 26.8596C45.9955 26.8596 45.7446 27.1076 45.7446 27.4381Z" fill="#001224"/>
<path d="M43.3193 27.4381C43.3193 27.7687 43.5702 28.0166 43.8211 28.0166C44.072 28.0166 44.3229 27.7687 44.3229 27.4381C44.3229 27.1076 44.072 26.8596 43.8211 26.8596C43.5702 26.8596 43.3193 27.1076 43.3193 27.4381Z" fill="#001224"/>
<path d="M40.894 27.4381C40.894 27.7687 41.1449 28.0166 41.3958 28.0166C41.6467 28.0166 41.8976 27.7687 41.8976 27.4381C41.8976 27.1076 41.6467 26.8596 41.3958 26.8596C41.1449 26.8596 40.894 27.1076 40.894 27.4381Z" fill="#001224"/>
<path d="M38.4688 27.4381C38.4688 27.7687 38.7196 28.0166 38.9705 28.0166C39.2214 28.0166 39.4723 27.7687 39.4723 27.4381C39.4723 27.1076 39.2214 26.8596 38.9705 26.8596C38.7196 26.8596 38.4688 27.1076 38.4688 27.4381Z" fill="#001224"/>
<path d="M36.0435 27.4381C36.0435 27.7687 36.2943 28.0166 36.5452 28.0166C36.7961 28.0166 37.047 27.7687 37.047 27.4381C37.047 27.1076 36.7961 26.8596 36.5452 26.8596C36.2943 26.8596 36.0435 27.1076 36.0435 27.4381Z" fill="#001224"/>
<path d="M33.6182 27.4381C33.6182 27.7687 33.869 28.0166 34.1199 28.0166C34.3708 28.0166 34.6217 27.7687 34.6217 27.4381C34.6217 27.1076 34.3708 26.8596 34.1199 26.8596C33.869 26.8596 33.6182 27.1076 33.6182 27.4381Z" fill="#001224"/>
<path d="M31.1934 27.4381C31.1934 27.7687 31.4442 28.0166 31.6951 28.0166C31.946 28.0166 32.1969 27.7687 32.1969 27.4381C32.1969 27.1076 31.946 26.8596 31.6951 26.8596C31.4442 26.8596 31.1934 27.1076 31.1934 27.4381Z" fill="#001224"/>
<path d="M28.7681 27.4381C28.7681 27.7687 29.0189 28.0166 29.2698 28.0166C29.5207 28.0166 29.7716 27.7687 29.7716 27.4381C29.7716 27.1076 29.5207 26.8596 29.2698 26.8596C29.0189 26.8596 28.7681 27.1076 28.7681 27.4381Z" fill="#001224"/>
<path d="M26.3428 27.4381C26.3428 27.7687 26.5937 28.0166 26.8445 28.0166C27.0954 28.0166 27.3463 27.7687 27.3463 27.4381C27.3463 27.1076 27.0954 26.8596 26.8445 26.8596C26.5937 26.8596 26.3428 27.1076 26.3428 27.4381Z" fill="#001224"/>
<path d="M23.9175 27.4381C23.9175 27.7687 24.1684 28.0166 24.4192 28.0166C24.6701 28.0166 24.921 27.7687 24.921 27.4381C24.921 27.1076 24.6701 26.8596 24.4192 26.8596C24.1684 26.8596 23.9175 27.1076 23.9175 27.4381Z" fill="#001224"/>
<path d="M21.4922 27.4381C21.4922 27.7687 21.7431 28.0166 21.994 28.0166C22.2448 28.0166 22.4957 27.7687 22.4957 27.4381C22.4957 27.1076 22.2448 26.8596 21.994 26.8596C21.7431 26.8596 21.4922 27.1076 21.4922 27.4381Z" fill="#001224"/>
<path d="M19.0669 27.4381C19.0669 27.7687 19.3178 28.0166 19.5687 28.0166C19.8195 28.0166 20.0704 27.7687 20.0704 27.4381C20.0704 27.1076 19.8195 26.8596 19.5687 26.8596C19.3178 26.8596 19.0669 27.1076 19.0669 27.4381Z" fill="#001224"/>
<path d="M16.6421 27.4381C16.6421 27.7687 16.893 28.0166 17.1439 28.0166C17.3947 28.0166 17.6456 27.7687 17.6456 27.4381C17.6456 27.1076 17.3947 26.8596 17.1439 26.8596C16.893 26.8596 16.6421 27.1076 16.6421 27.4381Z" fill="#001224"/>
<path d="M14.2168 27.4381C14.2168 27.7687 14.4677 28.0166 14.7186 28.0166C14.9694 28.0166 15.2203 27.7687 15.2203 27.4381C15.2203 27.1076 14.9694 26.8596 14.7186 26.8596C14.4677 26.8596 14.2168 27.1076 14.2168 27.4381Z" fill="#001224"/>
<path d="M11.7915 27.4381C11.7915 27.7687 12.0424 28.0166 12.2933 28.0166C12.5442 28.0166 12.795 27.7687 12.795 27.4381C12.795 27.1076 12.5442 26.8596 12.2933 26.8596C12.0424 26.8596 11.7915 27.1076 11.7915 27.4381Z" fill="#001224"/>
<path d="M9.36621 27.4381C9.36621 27.7687 9.61709 28.0166 9.86798 28.0166C10.1189 28.0166 10.3697 27.7687 10.3697 27.4381C10.3697 27.1076 10.1189 26.8596 9.86798 26.8596C9.61709 26.8596 9.36621 27.1076 9.36621 27.4381Z" fill="#001224"/>
</g>
<defs>
<clipPath id="clip0_8433_33005">
<rect width="142" height="30" fill="white"/>
</clipPath>
</defs>
</svg>
