<svg width="74" height="29" viewBox="0 0 74 29" fill="none" xmlns="http://www.w3.org/2000/svg">
<g clip-path="url(#clip0_8433_33180)">
<path d="M27.4 9.89995C27.6 9.89995 27.8 9.89995 27.9 9.59995L33.2 1.69995C33.4 1.39995 33.3 1.09995 33 0.89995C32.7 0.69995 32.4 0.79995 32.2 1.09995L26.9 8.99995C26.7 9.29995 26.8 9.59995 27.1 9.79995C27.2 9.79995 27.3 9.89995 27.4 9.89995Z" fill="#FDBE28"/>
<path d="M33.7 1.80005H32.5V16.8H33.7V1.80005Z" fill="#FDBE28"/>
<path d="M31.7002 1.4C31.7002 2.2 32.3002 2.8 33.1002 2.8C33.9002 2.8 34.5002 2.2 34.5002 1.4C34.5002 0.6 33.9002 0 33.1002 0C32.3002 0 31.7002 0.6 31.7002 1.4Z" fill="#AD1D12"/>
<path d="M32.2002 1.4C32.2002 1.9 32.6002 2.3 33.1002 2.3C33.6002 2.3 34.0002 1.9 34.0002 1.4C34.0002 0.9 33.6002 0.5 33.1002 0.5C32.6002 0.5 32.2002 0.9 32.2002 1.4Z" fill="#FDBE28"/>
<path d="M59.1998 2.30005V5.50005H58.5998V2.90005H55.9998V5.60005H55.3998V2.90005H52.7998V5.60005H52.1998V2.90005H49.5998V5.60005H48.9998V2.90005H46.3998V5.60005H45.7998V2.90005H43.1998V5.60005H42.5998V2.90005H39.8998V5.60005H39.2998V2.90005H36.3998V5.50005H35.7998V2.30005H59.1998Z" fill="#0D2237"/>
<path d="M59.1998 5.30005H35.7998V18.6H59.1998V5.30005Z" fill="white"/>
<path d="M74 16.7999H42.9L40.4 19.6H0L5.4 28.4H59.5C59.5 28.4 74 22.6 74 16.7V16.7999Z" fill="#009AA6"/>
<path d="M74 16.8V13.8H42.2L40.1 16L0 16.1V19.6H40.4L42.9 16.8H74Z" fill="#0D2237"/>
<path d="M3.1001 24.7H66.9001C66.6001 24.9 66.2001 25.0999 65.9001 25.2999H3.5001L3.1001 24.7Z" fill="#FDBE28"/>
<path d="M62.4 27.2H4.6L4 26.2H64.3C63.6 26.6 63 26.9 62.4 27.2Z" fill="#FDBE28"/>
<path d="M56.6001 7.3999H51.6001V11.1999H56.6001V7.3999Z" fill="#009AA6"/>
<path d="M49.6001 7.3999H44.6001V11.1999H49.6001V7.3999Z" fill="#009AA6"/>
<path d="M42.6001 7.3999H37.6001V11.1999H42.6001V7.3999Z" fill="#009AA6"/>
<path d="M23.3 13.1001H23.4V13.2001L26.2 16.2001L25.8 16.6001L23.4 14.1001V16.3001H22.8V13.7001H20.2V16.4001H19.6V13.7001H17V16.4001H16.4V13.7001H13.8V16.4001H13.2V13.7001H10.6V16.4001H10V13.7001H7.4V16.4001H6.8V13.7001H4.1V16.4001H3.5V13.7001H0.6V16.3001H0V13.1001H23.3Z" fill="#0D2237"/>
<path d="M35.5001 13.1001H32.6001V16.0001H35.5001V13.1001Z" fill="#009AA6"/>
<path d="M32.5001 10.2H29.6001V13.3H32.5001V10.2Z" fill="#009AA6"/>
<path d="M32.5001 13.1001H29.6001V16.0001H32.5001V13.1001Z" fill="#00B09B"/>
<path d="M29.6002 13.1001H26.7002V16.0001H29.6002V13.1001Z" fill="#009AA6"/>
<path d="M69.5 19.2001C69.5 19.5001 69.8 19.8001 70.1 19.8001C70.4 19.8001 70.7 19.5001 70.7 19.2001C70.7 18.9001 70.4 18.6001 70.1 18.6001C69.8 18.6001 69.5 18.9001 69.5 19.2001Z" fill="#0D2237"/>
<path d="M66.2998 19.2001C66.2998 19.5001 66.5998 19.8001 66.8998 19.8001C67.1998 19.8001 67.4998 19.5001 67.4998 19.2001C67.4998 18.9001 67.1998 18.6001 66.8998 18.6001C66.5998 18.6001 66.2998 18.9001 66.2998 19.2001Z" fill="#0D2237"/>
<path d="M63.2002 19.2001C63.2002 19.5001 63.5002 19.8001 63.8002 19.8001C64.1002 19.8001 64.4002 19.5001 64.4002 19.2001C64.4002 18.9001 64.1002 18.6001 63.8002 18.6001C63.5002 18.6001 63.2002 18.9001 63.2002 19.2001Z" fill="#0D2237"/>
<path d="M2.5 21.4999C2.5 21.7999 2.8 22.0999 3.1 22.0999C3.4 22.0999 3.7 21.7999 3.7 21.4999C3.7 21.1999 3.4 20.8999 3.1 20.8999C2.8 20.8999 2.5 21.1999 2.5 21.4999Z" fill="#0D2237"/>
</g>
<defs>
<clipPath id="clip0_8433_33180">
<rect width="74" height="28.4" fill="white"/>
</clipPath>
</defs>
</svg>
