<svg width="140" height="44" viewBox="0 0 140 44" fill="none" xmlns="http://www.w3.org/2000/svg">
<g clip-path="url(#clip0_8433_34102)">
<path d="M28.6002 1.8999H31.8002C32.0002 1.8999 32.2002 2.0999 32.2002 2.2999C32.2002 2.4999 32.0002 2.6999 31.8002 2.6999H30.6002V3.9999H31.3002C31.5002 3.9999 31.7002 4.1999 31.7002 4.3999C31.7002 4.5999 31.5002 4.7999 31.3002 4.7999H30.6002V12.1999H29.8002V4.7999H29.1002C28.9002 4.7999 28.7002 4.5999 28.7002 4.3999C28.7002 4.1999 28.9002 3.9999 29.1002 3.9999H29.8002V2.6999H28.6002C28.4002 2.6999 28.2002 2.4999 28.2002 2.2999C28.2002 2.0999 28.4002 1.8999 28.6002 1.8999Z" fill="white"/>
<path d="M47.8 0.600098H51.3C51.5 0.600098 51.7 0.800098 51.7 1.0001C51.7 1.2001 51.5 1.4001 51.3 1.4001H50V12.2001H49.2V1.5001H47.9C47.7 1.5001 47.5 1.3001 47.5 1.1001C47.5 0.900098 47.7 0.700098 47.9 0.700098L47.8 0.600098Z" fill="white"/>
<path d="M43.8001 6.8H45.3001V5.6H44.2001V0.4C44.2001 0.2 44.4001 0 44.6001 0C44.8001 0 45.0001 0.2 45.0001 0.4V4.9H45.3001V2.6C45.3001 2.4 45.5001 2.2 45.7001 2.2C45.9001 2.2 46.1001 2.4 46.1001 2.6V4.2H46.4001C46.4001 4.2 46.4001 4.2 46.5001 4.2V3.1C46.5001 2.9 46.7001 2.7 46.9001 2.7C47.1001 2.7 47.3001 2.9 47.3001 3.1V4.1C47.3001 4.1 47.3001 4.5 47.1001 4.8C47.0001 4.9 46.8001 5.1 46.5001 5.1H46.2001V7.2H47.0001C47.0001 7.2 47.0001 7.2 47.0001 7.1V5.9C47.0001 5.7 47.2001 5.5 47.4001 5.5C47.6001 5.5 47.8001 5.7 47.8001 5.9V7C47.8001 7 47.8001 7.4 47.6001 7.7C47.5001 7.8 47.3001 8 47.0001 8H46.2001V9.7L47.1001 11.9H44.6001L45.5001 9.7V7.8H44.0001C43.8001 7.8 43.6001 7.6 43.6001 7.4C43.6001 7.2 43.8001 7 44.0001 7L43.8001 6.8Z" fill="white"/>
<path d="M139.7 29.2V33.7H122.5L125.5 29.2H139.7Z" fill="#0D2237"/>
<path d="M52.1 11.8999H22.5V21.6999H52.1V11.8999Z" fill="white"/>
<path d="M24.8999 17C24.8999 17.8 25.4999 18.4 26.1999 18.4C26.9999 18.4 27.5999 17.8 27.5999 17.1C27.5999 16.3 26.9999 15.7 26.2999 15.7C25.4999 15.7 24.8999 16.3 24.8999 17Z" fill="#FDBF29"/>
<path d="M25.2998 17C25.2998 17.6 25.6998 18 26.2998 18C26.8998 18 27.2998 17.6 27.2998 17C27.2998 16.4 26.8998 16 26.2998 16C25.6998 16 25.2998 16.4 25.2998 17Z" fill="#00B09B"/>
<path d="M25.3999 16.8999C25.3999 17.3999 25.7999 17.7999 26.1999 17.7999C26.6999 17.7999 27.0999 17.4999 27.0999 16.9999C27.0999 16.4999 26.6999 16.0999 26.2999 16.0999C25.7999 16.0999 25.3999 16.4999 25.3999 16.8999Z" fill="#009AA6"/>
<path d="M32.1001 17C32.1001 17.8 32.7001 18.4 33.4001 18.4C34.2001 18.4 34.8001 17.8 34.8001 17.1C34.8001 16.3 34.2001 15.7 33.5001 15.7C32.7001 15.7 32.1001 16.3 32.1001 17Z" fill="#FDBF29"/>
<path d="M32.5 17C32.5 17.6 32.9 18 33.5 18C34.1 18 34.5 17.6 34.5 17C34.5 16.4 34.1 16 33.5 16C32.9 16 32.5 16.4 32.5 17Z" fill="#00B09B"/>
<path d="M32.6001 16.8999C32.6001 17.3999 33.0001 17.7999 33.4001 17.7999C33.9001 17.7999 34.3001 17.3999 34.3001 16.9999C34.3001 16.4999 33.9001 16.0999 33.5001 16.0999C33.0001 16.0999 32.6001 16.4999 32.6001 16.8999Z" fill="#009AA6"/>
<path d="M39.2998 17C39.2998 17.8 39.8998 18.4 40.5998 18.4C41.3998 18.4 41.9998 17.8 41.9998 17.1C41.9998 16.3 41.3998 15.7 40.6998 15.7C39.8998 15.7 39.2998 16.3 39.2998 17Z" fill="#FDBF29"/>
<path d="M39.6997 17C39.6997 17.6 40.0997 18 40.6997 18C41.2997 18 41.6997 17.6 41.6997 17C41.6997 16.4 41.2997 16 40.6997 16C40.0997 16 39.6997 16.4 39.6997 17Z" fill="#00B09B"/>
<path d="M39.7998 16.8C39.7998 17.3 40.1998 17.7 40.5998 17.7C41.0998 17.7 41.4998 17.3 41.4998 16.9C41.4998 16.4 41.0998 16 40.6998 16C40.1998 16 39.7998 16.4 39.7998 16.8Z" fill="#009AA6"/>
<path d="M46.5 17C46.5 17.8 47.1 18.4 47.8 18.4C48.6 18.4 49.2 17.8 49.2 17.1C49.2 16.4 48.6 15.7 47.9 15.7C47.1 15.7 46.5 16.3 46.5 17Z" fill="#FDBF29"/>
<path d="M46.7998 17C46.7998 17.6 47.1998 18 47.7998 18C48.3998 18 48.7998 17.6 48.7998 17C48.7998 16.4 48.3998 16 47.7998 16C47.1998 16 46.7998 16.4 46.7998 17Z" fill="#00B09B"/>
<path d="M47 16.8C47 17.3 47.4 17.7 47.8 17.7C48.3 17.7 48.7 17.3 48.7 16.9C48.7 16.4 48.3 16 47.9 16C47.4 16 47 16.4 47 16.8Z" fill="#009AA6"/>
<path d="M8.7998 21.3001H9.6998V19.0001H57.8998V21.3001H58.6998V18.1001H8.7998V21.3001Z" fill="#0D2237"/>
<path d="M58.6999 18.6001H57.8999V21.3001H58.6999V18.6001Z" fill="#0D2237"/>
<path d="M54.8996 18.6001H54.0996V21.3001H54.8996V18.6001Z" fill="#0D2237"/>
<path d="M51.0998 18.6001H50.2998V21.3001H51.0998V18.6001Z" fill="#0D2237"/>
<path d="M47.3 18.6001H46.5V21.3001H47.3V18.6001Z" fill="#0D2237"/>
<path d="M43.5998 18.6001H42.7998V21.3001H43.5998V18.6001Z" fill="#0D2237"/>
<path d="M39.8 18.6001H39V21.3001H39.8V18.6001Z" fill="#0D2237"/>
<path d="M35.9997 18.6001H35.1997V21.3001H35.9997V18.6001Z" fill="#0D2237"/>
<path d="M32.1999 18.6001H31.3999V21.3001H32.1999V18.6001Z" fill="#0D2237"/>
<path d="M28.4997 18.6001H27.6997V21.3001H28.4997V18.6001Z" fill="#0D2237"/>
<path d="M24.6999 18.6001H23.8999V21.3001H24.6999V18.6001Z" fill="#0D2237"/>
<path d="M20.9996 18.6001H20.0996V21.3001H20.9996V18.6001Z" fill="#0D2237"/>
<path d="M17.1999 18.6001H16.3999V21.3001H17.1999V18.6001Z" fill="#0D2237"/>
<path d="M13.3996 18.6001H12.5996V21.3001H13.3996V18.6001Z" fill="#0D2237"/>
<path d="M9.5998 18.6001H8.7998V21.3001H9.5998V18.6001Z" fill="#0D2237"/>
<path d="M40.2002 11.4H41.0002V9.10005H55.3002V11.4H56.1002V8.30005H40.2002V11.4Z" fill="#0D2237"/>
<path d="M40.2002 11.9H56.1002V8.69995H55.3002V11H41.0002V8.69995H40.2002V11.9Z" fill="#0D2237"/>
<path d="M52.3 8.69995H51.5V11.4H52.3V8.69995Z" fill="#0D2237"/>
<path d="M48.5002 8.69995H47.7002V11.4H48.5002V8.69995Z" fill="#0D2237"/>
<path d="M44.8 8.69995H44V11.4H44.8V8.69995Z" fill="#0D2237"/>
<path d="M18.2002 11.4H19.0002V9.10005H33.3002V11.4H34.1002V8.30005H18.2002V11.4Z" fill="#0D2237"/>
<path d="M18.2002 11.9H34.1002V8.69995H33.3002V11H19.0002V8.69995H18.2002V11.9Z" fill="#0D2237"/>
<path d="M30.3 8.69995H29.5V11.4H30.3V8.69995Z" fill="#0D2237"/>
<path d="M26.5002 8.69995H25.7002V11.4H26.5002V8.69995Z" fill="#0D2237"/>
<path d="M22.7004 8.69995H21.9004V11.4H22.7004V8.69995Z" fill="#0D2237"/>
<path d="M58.6998 20.8999H8.7998V31.7999H58.6998V20.8999Z" fill="white"/>
<path d="M52.8999 25.1C52.8999 25.9 53.4999 26.5 54.1999 26.5C54.9999 26.5 55.5999 25.9001 55.5999 25.2001C55.5999 24.4001 54.9999 23.8 54.2999 23.8C53.4999 23.8 52.8999 24.4 52.8999 25.1Z" fill="#FDBF29"/>
<path d="M53.1997 25.1001C53.1997 25.7001 53.5997 26.1001 54.1997 26.1001C54.7997 26.1001 55.1997 25.7001 55.1997 25.1001C55.1997 24.5001 54.7997 24.1001 54.1997 24.1001C53.5997 24.1001 53.1997 24.5001 53.1997 25.1001Z" fill="#00B09B"/>
<path d="M53.3999 25C53.3999 25.5 53.7999 25.9 54.1999 25.9C54.6999 25.9 55.0999 25.6 55.0999 25.1C55.0999 24.6 54.6999 24.2 54.2999 24.2C53.7999 24.2 53.3999 24.6 53.3999 25Z" fill="#009AA6"/>
<path d="M44.7002 25.1C44.7002 25.9 45.3002 26.5 46.0002 26.5C46.8002 26.5 47.4002 25.9001 47.4002 25.2001C47.4002 24.4001 46.8002 23.8 46.1002 23.8C45.3002 23.8 44.7002 24.4 44.7002 25.1Z" fill="#FDBF29"/>
<path d="M45.1001 25.1001C45.1001 25.7001 45.5001 26.1001 46.1001 26.1001C46.7001 26.1001 47.1001 25.7001 47.1001 25.1001C47.1001 24.5001 46.7001 24.1001 46.1001 24.1001C45.5001 24.1001 45.1001 24.5001 45.1001 25.1001Z" fill="#00B09B"/>
<path d="M45.2002 25C45.2002 25.5 45.6002 25.9 46.0002 25.9C46.5002 25.9 46.9002 25.6 46.9002 25.1C46.9002 24.6 46.5002 24.2 46.1002 24.2C45.6002 24.2 45.2002 24.6 45.2002 25Z" fill="#009AA6"/>
<path d="M36.5 25.1C36.5 25.9 37.1 26.5 37.8 26.5C38.6 26.5 39.2 25.9001 39.2 25.2001C39.2 24.4001 38.6 23.8 37.9 23.8C37.1 23.8 36.5 24.4 36.5 25.1Z" fill="#FDBF29"/>
<path d="M36.8999 25.1001C36.8999 25.7001 37.2999 26.1001 37.8999 26.1001C38.4999 26.1001 38.8999 25.7001 38.8999 25.1001C38.8999 24.5001 38.4999 24.1001 37.8999 24.1001C37.2999 24.1001 36.8999 24.5001 36.8999 25.1001Z" fill="#00B09B"/>
<path d="M37.1001 25C37.1001 25.5 37.5001 25.9 37.9001 25.9C38.4001 25.9 38.8001 25.6 38.8001 25.1C38.8001 24.6 38.4001 24.2 38.0001 24.2C37.5001 24.2 37.1001 24.6 37.1001 25Z" fill="#009AA6"/>
<path d="M28.3999 25.1C28.3999 25.9 28.9999 26.5 29.6999 26.5C30.4999 26.5 31.0999 25.9001 31.0999 25.2001C31.0999 24.4001 30.4999 23.8 29.7999 23.8C28.9999 23.8 28.3999 24.4 28.3999 25.1Z" fill="#FDBF29"/>
<path d="M28.6997 25.1001C28.6997 25.7001 29.0997 26.1001 29.6997 26.1001C30.2997 26.1001 30.6997 25.7001 30.6997 25.1001C30.6997 24.5001 30.2997 24.1001 29.6997 24.1001C29.0997 24.1001 28.6997 24.5001 28.6997 25.1001Z" fill="#00B09B"/>
<path d="M28.8999 25C28.8999 25.5 29.2999 25.9 29.6999 25.9C30.1999 25.9 30.5999 25.6 30.5999 25.1C30.5999 24.6 30.1999 24.2 29.7999 24.2C29.2999 24.2 28.8999 24.6 28.8999 25Z" fill="#009AA6"/>
<path d="M20.2002 25.1C20.2002 25.9 20.8002 26.5 21.5002 26.5C22.3002 26.5 22.9002 25.9001 22.9002 25.2001C22.9002 24.4001 22.3002 23.8 21.6002 23.8C20.8002 23.8 20.2002 24.4 20.2002 25.1Z" fill="#FDBF29"/>
<path d="M20.6001 25.1001C20.6001 25.7001 21.0001 26.1001 21.6001 26.1001C22.2001 26.1001 22.6001 25.7001 22.6001 25.1001C22.6001 24.5001 22.2001 24.1001 21.6001 24.1001C21.0001 24.1001 20.6001 24.5001 20.6001 25.1001Z" fill="#00B09B"/>
<path d="M20.8003 25C20.8003 25.5 21.2003 25.9 21.6003 25.9C22.1003 25.9 22.5003 25.6 22.5003 25.1C22.5003 24.6 22.1003 24.2 21.7003 24.2C21.2003 24.2 20.8003 24.6 20.8003 25Z" fill="#009AA6"/>
<path d="M12.1001 25.1C12.1001 25.9 12.7001 26.5 13.4001 26.5C14.2001 26.5 14.8001 25.9001 14.8001 25.2001C14.8001 24.4001 14.2001 23.8 13.5001 23.8C12.7001 23.8 12.1001 24.4 12.1001 25.1Z" fill="#FDBF29"/>
<path d="M12.3999 25.1001C12.3999 25.7001 12.7999 26.1001 13.3999 26.1001C13.9999 26.1001 14.3999 25.7001 14.3999 25.1001C14.3999 24.5001 13.9999 24.1001 13.3999 24.1001C12.7999 24.1001 12.3999 24.5001 12.3999 25.1001Z" fill="#00B09B"/>
<path d="M12.6001 25C12.6001 25.5 13.0001 25.9 13.4001 25.9C13.9001 25.9 14.3001 25.6 14.3001 25.1C14.3001 24.6 13.9001 24.2 13.5001 24.2C13.0001 24.2 12.6001 24.6 12.6001 25Z" fill="#009AA6"/>
<path d="M0 30.1H0.8V26.9H66.7V30.1H67.5V26H0V30.1Z" fill="#0D2237"/>
<path d="M67.5002 26.5H66.7002V30.2H67.5002V26.5Z" fill="#0D2237"/>
<path d="M62.3 26.5H61.5V30.2H62.3V26.5Z" fill="#0D2237"/>
<path d="M57.1999 26.5H56.3999V30.2H57.1999V26.5Z" fill="#0D2237"/>
<path d="M52.0998 26.5H51.2998V30.2H52.0998V26.5Z" fill="#0D2237"/>
<path d="M47.0002 26.5H46.2002V30.2H47.0002V26.5Z" fill="#0D2237"/>
<path d="M41.8 26.5H41V30.2H41.8V26.5Z" fill="#0D2237"/>
<path d="M36.6999 26.5H35.8999V30.2H36.6999V26.5Z" fill="#0D2237"/>
<path d="M31.5998 26.5H30.7998V30.2H31.5998V26.5Z" fill="#0D2237"/>
<path d="M26.4001 26.5H25.6001V30.2H26.4001V26.5Z" fill="#0D2237"/>
<path d="M21.3 26.5H20.5V30.2H21.3V26.5Z" fill="#0D2237"/>
<path d="M16.1999 26.5H15.3999V30.2H16.1999V26.5Z" fill="#0D2237"/>
<path d="M11.0998 26.5H10.2998V30.2H11.0998V26.5Z" fill="#0D2237"/>
<path d="M5.9001 26.5H5.1001V30.2H5.9001V26.5Z" fill="#0D2237"/>
<path d="M0.8 26.5H0V30.2H0.8V26.5Z" fill="#0D2237"/>
<path d="M67.5 28.8999V33.6999H139.7L130.6 43.3999H67.5H61.6H4.2L0 38.5999V28.8999H67.5Z" fill="#0D2237"/>
<path d="M18.2002 11.8L22.5002 14V11.8H18.2002Z" fill="#0D2237"/>
<path d="M34.1 11.8V14H22.5V11.8H34.1Z" fill="#0D2237"/>
<path d="M56.0998 11.8L51.7998 14V11.8H56.0998Z" fill="#0D2237"/>
<path d="M40.2002 11.8V14H51.8002V11.8H40.2002Z" fill="#0D2237"/>
<path d="M130.6 43.4001H67.5H61.6H4.2L0 38.6001H135.1L130.6 43.4001Z" fill="#3A8BFE"/>
<path d="M136.3 37.4H0V36.2H137.4L136.3 37.4Z" fill="white"/>
<path d="M114.8 25.7H106.8V33.7H114.8V25.7Z" fill="#009AA6"/>
<path d="M110.9 17.7H102.9V25.7H110.9V17.7Z" fill="#009AA6"/>
<path d="M102.9 17.7H94.8999V25.7H102.9V17.7Z" fill="#3A8BFE"/>
<path d="M94.8999 17.7H86.8999V25.7H94.8999V17.7Z" fill="#00B09B"/>
<path d="M87 17.7H79V25.7H87V17.7Z" fill="#009AA6"/>
<path d="M106.8 25.7H98.7998V33.7H106.8V25.7Z" fill="#00B09B"/>
<path d="M98.7998 25.7H90.7998V33.7H98.7998V25.7Z" fill="#009AA6"/>
<path d="M90.7998 25.7H82.7998V33.7H90.7998V25.7Z" fill="#FDBF29"/>
<path d="M82.8999 25.7H74.8999V33.7H82.8999V25.7Z" fill="#009AA6"/>
</g>
<defs>
<clipPath id="clip0_8433_34102">
<rect width="139.7" height="43.4" fill="white"/>
</clipPath>
</defs>
</svg>
