<svg width="17" height="19" viewBox="0 0 17 19" fill="none" xmlns="http://www.w3.org/2000/svg">
<path d="M2 8.7497V7.24947C2 3.93525 4.68629 1.24854 8 1.24854C11.3137 1.24854 14 3.93525 14 7.24947V7.99959M2 8.7497H2.37494C2.58208 8.7497 2.75 8.58178 2.75 8.37464V8.37464C2.75 7.96037 3.08579 7.62453 3.5 7.62453H3.875C4.28921 7.62453 4.625 7.96037 4.625 8.37464V14.3756C4.625 14.7899 4.28921 15.1257 3.875 15.1257H3.5C3.08579 15.1257 2.75 14.7899 2.75 14.3756V14.3756C2.75 14.1684 2.58208 14.0005 2.37494 14.0005H2C1.58579 14.0005 1.25 13.6647 1.25 13.2504V9.49982C1.25 9.08554 1.58579 8.7497 2 8.7497ZM13.0625 15.1257H12.875C12.4608 15.1257 12.125 14.7899 12.125 14.3756V8.37464C12.125 7.96037 12.4608 7.62453 12.875 7.62453H13.25C13.6642 7.62453 14 7.96037 14 8.37464V8.37464C14 8.58178 14.1679 8.7497 14.3751 8.7497H14.75C15.1642 8.7497 15.5 9.08554 15.5 9.49982V13.2504C15.5 13.6647 15.1642 14.0005 14.75 14.0005H14.3751C14.1679 14.0005 14 14.1684 14 14.3756V14.3756C14 14.7899 13.6642 15.1257 13.25 15.1257H13.0625ZM13.0625 15.1257V16.2509C13.0625 16.6651 12.7267 17.001 12.3125 17.001H9.125M9.125 17.001V16.6259C9.125 16.2117 8.78921 15.8758 8.375 15.8758H7.625C7.21079 15.8758 6.875 16.2117 6.875 16.6259V17.001C6.875 17.4153 7.21079 17.7511 7.625 17.7511H8.375C8.78921 17.7511 9.125 17.4153 9.125 17.001Z" stroke="#0D2237" stroke-width="1.5"/>
</svg>
