<svg width="27" height="22" viewBox="0 0 27 22" fill="none" xmlns="http://www.w3.org/2000/svg">
<path d="M24.0796 0.46577C20.6559 1.88379 5.97537 7.96462 1.91916 9.62194C-0.801117 10.6835 0.79137 11.6788 0.79137 11.6788C0.79137 11.6788 3.11346 12.475 5.10414 13.0721C7.09454 13.6692 8.1561 13.0059 8.1561 13.0059L17.5112 6.70271C20.8287 4.44685 20.0326 6.30452 19.2362 7.1009C17.5112 8.82612 14.6582 11.5461 12.2696 13.7358C11.2081 14.6646 11.7387 15.4607 12.2034 15.8589C13.9283 17.3186 18.6393 20.3044 18.9045 20.5033C20.3061 21.4956 23.0631 22.9239 23.4824 19.9062L25.1411 9.48949C25.6721 5.97311 26.2027 2.72191 26.2689 1.79307C26.4682 -0.463064 24.0796 0.46577 24.0796 0.46577Z" fill="#0841E2"/>
</svg>
