<svg width="16" height="16" viewBox="0 0 16 16" fill="none" xmlns="http://www.w3.org/2000/svg">
<path d="M14 3.98659C11.78 3.76659 9.54667 3.65325 7.32 3.65325C6 3.65325 4.68 3.71992 3.36 3.85325L2 3.98659M5.66667 3.31325L5.81333 2.43992C5.92 1.80659 6 1.33325 7.12667 1.33325H8.87333C10 1.33325 10.0867 1.83325 10.1867 2.44659L10.3333 3.31325M12.5667 6.09325L12.1333 12.8066C12.06 13.8533 12 14.6666 10.14 14.6666H5.86C4 14.6666 3.94 13.8533 3.86667 12.8066L3.43333 6.09325M6.88667 10.9999H9.10667M6.33333 8.33325H9.66667" stroke="#0D2237" stroke-width="1.5" stroke-linecap="round" stroke-linejoin="round"/>
</svg>
