<svg width="1440" height="406" viewBox="0 0 1440 406" fill="none" xmlns="http://www.w3.org/2000/svg">
<path d="M-105 184.507V645.36H1650V501.602C1646.22 498.51 1642.51 495.373 1638.89 492.229C1631.87 486.66 1627.1 478.707 1625.48 469.853C1624.61 465.138 1624.21 460.348 1624.29 455.553C1624.57 451.255 1625.3 446.999 1626.47 442.856C1627.2 438.232 1629.28 433.931 1632.44 430.501C1633.88 429.328 1634.81 427.639 1635.05 425.789C1635.27 423.939 1634.78 422.071 1633.68 420.577C1632.81 419.034 1631.75 417.609 1630.52 416.338C1628.97 414.783 1627.4 413.262 1625.82 411.743V411.741V411.738C1623.36 409.371 1620.92 407.008 1618.59 404.531C1613.96 399.771 1607.85 396.736 1601.28 395.917C1596.41 395.21 1591.58 394.251 1586.81 393.043C1580.53 391.426 1573.88 392.36 1568.27 395.645C1565.21 397.226 1561.8 398 1558.37 397.893C1555.51 397.892 1554.64 396.931 1554.15 394.056C1554.05 393.446 1553.96 392.832 1553.87 392.177V392.167C1553.72 391.172 1553.56 390.081 1553.34 388.766C1552.44 389.217 1551.64 389.603 1550.89 389.958V389.961L1550.88 389.962V389.964C1549.62 390.566 1548.54 391.083 1547.52 391.683C1546.12 392.704 1544.52 393.416 1542.82 393.774C1541.13 394.132 1539.38 394.128 1537.69 393.763C1535.9 393.175 1534.01 393.004 1532.15 393.266C1530.29 393.527 1528.51 394.213 1526.96 395.271C1526.56 395.566 1526.11 395.779 1525.62 395.898C1525.15 396.017 1524.65 396.04 1524.16 395.964C1523.67 395.889 1523.2 395.717 1522.78 395.459C1522.35 395.201 1521.99 394.861 1521.69 394.46C1518.27 391.693 1514.37 389.565 1510.19 388.176C1509.26 389.532 1508.4 390.941 1507.63 392.397C1504.95 397.958 1502.21 403.298 1495.65 405.263C1492.9 406.092 1490.37 406.918 1487.91 407.72C1484.54 408.822 1481.3 409.878 1477.81 410.828C1474.33 411.122 1470.83 410.455 1467.71 408.895C1464.58 407.336 1461.93 404.945 1460.06 401.98L1459.51 400.564C1459.02 399.169 1458.46 397.806 1457.8 396.487C1457.22 395.474 1456.65 394.445 1456.08 393.416C1453.34 388.408 1450.59 383.403 1445.27 380.318C1444.4 379.576 1443.65 378.712 1443.04 377.753C1440.52 374.292 1438.81 370.315 1438.01 366.106C1437.75 364.809 1437.1 363.621 1436.16 362.687C1435.23 361.754 1434.05 361.114 1432.76 360.848C1431.66 360.631 1430.68 360.008 1430 359.099C1428.06 354.886 1425.19 351.169 1421.62 348.227C1420.95 347.514 1420.39 346.697 1419.97 345.805C1415.42 337.99 1409.99 330.74 1403.78 324.201C1402.74 323.164 1401.91 321.928 1401.35 320.565C1398.93 311.201 1393.26 303.025 1385.37 297.512C1384.06 296.749 1383.05 295.569 1382.48 294.159C1381.91 292.75 1381.83 291.189 1382.24 289.725C1382.92 286.978 1382.54 284.076 1381.17 281.605C1380.52 280.276 1380.1 278.845 1379.91 277.371C1379.88 276.455 1379.63 275.561 1379.18 274.762C1378.73 273.964 1378.1 273.285 1377.34 272.783C1373.72 269.658 1369.43 267.425 1364.81 266.265C1362.73 265.793 1360.74 264.965 1358.94 263.817C1357.42 263.178 1356.04 262.219 1354.66 261.254C1354 260.794 1353.33 260.332 1352.66 259.904C1349.92 257.907 1346.81 256.489 1343.52 255.736C1340.23 254.983 1336.82 254.909 1333.51 255.521C1332.55 255.72 1331.56 255.664 1330.63 255.359C1328.28 254.626 1325.96 253.84 1323.62 253.055C1321.29 252.269 1318.97 251.483 1316.62 250.751C1314.29 250.021 1311.91 249.473 1309.49 249.111C1307.03 248.949 1304.69 247.972 1302.84 246.331C1301.47 244.897 1299.81 243.781 1297.98 243.057C1296.15 242.333 1294.17 242.02 1292.21 242.14C1290.24 242.261 1288.32 242.809 1286.59 243.751C1284.85 244.692 1283.33 246.002 1282.14 247.591C1281.29 248.747 1280.12 249.634 1278.79 250.148C1275.49 251.055 1272.14 251.755 1268.75 252.241C1267 252.488 1265.22 252.414 1263.49 252.025C1260.76 251.448 1258.1 250.602 1255.55 249.5C1251.84 247.776 1248.27 245.801 1244.83 243.59C1241.83 241.508 1238.93 239.274 1236.15 236.898C1236.05 236.968 1235.96 237.03 1235.87 237.085C1235.73 237.167 1235.61 237.234 1235.5 237.294V237.296C1235.23 237.446 1235.05 237.548 1234.99 237.699V237.703C1234.43 239.053 1233.85 240.445 1233.5 242.027C1232.63 244.139 1231.51 244.957 1229.44 244.142C1228.71 243.781 1228.01 243.343 1227.37 242.835C1226.09 241.91 1224.55 241.387 1222.97 241.333C1221.39 241.279 1219.82 241.696 1218.47 242.532L1220.75 248.926C1219.3 248.474 1217.9 247.888 1216.56 247.178C1215.85 246.666 1215.19 246.084 1214.53 245.507C1213.83 244.885 1213.12 244.268 1212.37 243.748C1210.88 242.586 1209.03 241.972 1207.15 242.011C1205.25 242.05 1203.43 242.738 1201.98 243.962C1201.21 244.694 1200.21 245.129 1199.15 245.194C1198.1 245.259 1197.05 244.948 1196.2 244.316C1190.3 241.113 1184.05 238.058 1178.2 235.22C1174.13 233.176 1173.65 232.533 1174.51 227.943C1174.95 226.418 1174.8 224.785 1174.08 223.37C1173.38 221.955 1172.16 220.862 1170.69 220.308C1169.79 219.926 1168.85 219.65 1167.89 219.485C1163.52 218.581 1159.58 216.205 1156.73 212.746C1155.89 211.441 1154.67 210.423 1153.24 209.828C1151.81 209.232 1150.24 209.085 1148.73 209.407C1147.17 209.833 1145.55 209.86 1143.98 209.485C1142.43 209.111 1140.99 208.346 1139.8 207.261C1138.65 205.964 1137.06 205.131 1135.35 204.914C1133.64 204.699 1131.9 205.115 1130.47 206.087C1129.2 207.029 1127.64 207.471 1126.09 207.33C1124.52 207.189 1123.06 206.475 1121.99 205.322C1118.71 202.832 1115.57 200.164 1112.57 197.331C1109.33 193.804 1105.19 191.238 1100.61 189.912C1098.88 189.555 1097.3 188.679 1096.08 187.398C1094.85 186.119 1094.04 184.496 1093.75 182.741C1093.21 180.484 1091.85 178.516 1089.93 177.238C1087.16 175.109 1083.7 174.106 1080.24 174.43C1076.6 174.448 1073.04 173.295 1070.11 171.14C1067.03 169.21 1063.99 167.23 1060.94 165.25V165.246L1060.92 165.235C1058.61 163.731 1056.3 162.227 1053.97 160.743L1051.24 159.606L1043.58 155.218C1041.54 153.857 1039.39 152.648 1037.17 151.601C1030.93 148.996 1024.57 146.758 1018.2 144.516L1018.19 144.513C1016.35 143.866 1014.51 143.218 1012.67 142.561C1011.26 142.098 1009.78 141.932 1008.31 142.075C1005.02 142.361 1001.74 141.432 999.078 139.46C995.549 137.007 991.445 135.516 987.168 135.131C984.7 135.006 982.268 134.474 979.965 133.557C973.804 130.744 967.707 127.786 961.61 124.828V124.826L961.601 124.822C958.987 123.556 956.373 122.29 953.759 121.034C952.963 120.798 952.26 120.323 951.739 119.672C951.218 119.022 950.907 118.226 950.843 117.391C950.77 113.995 948.448 112.728 945.623 111.701C942.845 110.78 940.167 109.579 937.635 108.115C927.982 102.608 916.803 100.445 905.816 101.958C905.167 102.071 904.545 102.296 903.97 102.622C902.553 103.275 901.346 104.331 900.515 105.661C899.674 106.992 899.244 108.538 899.271 110.112C898.805 115.411 895.834 116.894 891.694 113.975C890.652 113.171 889.436 112.625 888.147 112.379C886.858 112.133 885.533 112.196 884.272 112.561C882.672 112.971 881.008 113.025 879.39 112.715C877.773 112.407 876.237 111.745 874.902 110.776C873.486 109.818 872.051 108.873 870.625 107.926C866.438 105.154 862.243 102.377 858.285 99.2852C852.133 93.9731 844.254 91.1257 836.155 91.2838C831.457 91.6873 826.759 90.6068 822.7 88.1924L822.6 88.1201C819.583 86.0981 819.401 85.9717 820.799 82.4484C821.366 81.257 821.521 79.9071 821.229 78.6181C820.945 77.3291 820.223 76.1773 819.209 75.3502L809.456 65.5384C809.015 65.0411 808.474 64.6463 807.868 64.3818C805.845 63.4179 804.151 61.8717 803 59.9379C801.848 58.004 801.29 55.7689 801.396 53.515C801.216 48.6985 797.894 45.9321 794.597 43.1862C794.453 43.0662 794.309 42.9461 794.165 42.8259C793.833 42.5856 793.452 42.4227 793.05 42.3489C792.647 42.2751 792.234 42.2919 791.838 42.3986C789.487 43.449 787.054 43.33 784.615 43.2108C783.312 43.1471 782.007 43.0834 780.713 43.1977C774.741 44.4641 768.526 43.7761 762.971 41.2339C760.963 40.0424 758.824 38.8869 756.672 37.7237L756.671 37.7233L756.669 37.7224L756.668 37.7212C754.594 36.6011 752.509 35.474 750.513 34.301C747.797 32.8139 745.23 31.0626 742.851 29.0728C739.254 25.6301 734.607 23.516 729.665 23.0734C726.707 22.805 723.902 21.6338 721.624 19.7165C715.681 15.1998 708.555 12.5346 701.125 12.0492C699.573 12.0414 698.051 11.6325 696.7 10.8611C695.351 10.0898 694.221 8.98208 693.418 7.64404C691.924 5.34666 689.896 3.45059 687.512 2.11898C685.128 0.787401 682.457 0.0600116 679.731 0C678.7 0.0806618 677.688 0.326496 676.733 0.72781L677.339 7.36412C675.713 7.20499 674.126 7.05497 672.567 6.9076L672.566 6.90744L672.56 6.90693L672.555 6.90651L672.552 6.90618L672.55 6.906C668.326 6.5066 664.309 6.12675 660.284 5.63815C659.495 5.41307 658.655 5.43594 657.878 5.70406C657.102 5.97217 656.424 6.47269 655.937 7.13866C652.07 12.6005 645.988 13.4265 640.227 14.1885C630.552 15.076 621.32 18.701 613.595 24.6456C612.508 25.6841 611.084 26.2889 609.588 26.3474C608.092 26.4057 606.627 25.9138 605.465 24.9629C601.807 22.6438 601.381 22.9611 598.533 25.8295C596.862 28.065 594.673 29.8534 592.158 31.038C589.643 32.2225 586.878 32.767 584.106 32.6234C580.21 32.846 576.372 33.6815 572.733 35.0998C569.109 39.4113 564.127 39.7334 559.217 40.0508L558.824 40.0763C558.651 40.0877 558.477 40.0991 558.303 40.1109C555.103 40.328 552.235 40.3276 549.391 40.327C547.613 40.3266 545.844 40.3264 544.011 40.3792C540.892 40.6876 537.749 40.1552 534.902 38.8366C532.057 37.518 529.61 35.4606 527.813 32.8747C527.151 32.9426 526.494 33.0012 525.839 33.0594L525.837 33.0596C524.517 33.1773 523.21 33.2936 521.919 33.4823C519.904 33.9143 517.817 33.8512 515.832 33.2983C513.847 32.7454 512.024 31.7188 510.516 30.3054C508.543 29.1746 506.228 28.8073 504.004 29.2725C501.781 29.7376 499.8 31.0033 498.435 32.8326C497.788 34.2696 496.677 35.4442 495.284 36.1654C493.892 36.8866 492.299 37.1123 490.764 36.8054C489.055 36.6647 487.336 36.5812 485.618 36.4976C479.315 36.191 473.013 35.8845 467.204 32.7596C466.323 32.2943 465.341 32.055 464.345 32.0622C463.349 32.0694 462.37 32.3227 461.495 32.8006C460.348 33.4608 459.117 33.9628 457.839 34.2929C455.598 34.8259 453.539 35.95 451.872 37.5497C450.204 39.1494 448.99 41.167 448.351 43.3957C448.011 44.7058 447.405 45.931 446.573 46.9945C445.74 48.0581 444.7 48.9371 443.515 49.5763C442.331 50.2155 441.028 50.6009 439.689 50.7088C438.35 50.8167 437.003 50.6445 435.734 50.2031C434.959 50.0207 434.19 49.7961 433.424 49.5725L433.422 49.5721C430.169 48.6219 426.972 47.6885 423.568 50.0723C423.388 50.1853 423.101 50.137 422.807 50.0874C422.559 50.0456 422.304 50.0028 422.103 50.0546C417.939 50.894 413.846 52.0649 409.866 53.5563C409.392 53.7627 408.946 53.9896 408.508 54.2126C407.177 54.8905 405.918 55.5309 404.183 55.4396C400.733 55.2365 399.79 56.5746 399.324 60.0915C399.303 63.2806 398.532 66.4197 397.077 69.2524C395.621 72.085 393.521 74.5306 390.948 76.3889C389.896 77.0171 388.97 77.8567 388.043 78.6983C387.251 79.4173 386.457 80.1377 385.58 80.7292C382.716 82.6897 380.379 85.336 378.779 88.4304C378.132 89.7556 377.143 90.8812 375.917 91.6891C370.588 94.8588 365.176 97.9926 359.6 100.812C353.22 103.838 348.125 109.068 345.24 115.553C342.355 122.038 341.871 129.349 343.874 136.16C344.647 138.853 345.153 141.617 345.385 144.412C346.051 151.617 346.54 158.898 346.902 166.126C347.022 168.11 346.832 170.101 346.338 172.027C345.61 174.988 344.178 175.727 341.706 174.101C340.733 173.345 339.536 172.944 338.308 172.961C337.081 172.979 335.894 173.414 334.943 174.197C334.041 174.783 333.136 175.344 332.232 175.904L332.23 175.906L332.224 175.91C331.319 176.471 330.414 177.032 329.51 177.62C327.665 178.698 326.113 180.219 324.992 182.048C323.872 183.877 323.217 185.956 323.087 188.101C322.978 189.441 322.753 190.768 322.528 192.091C322.28 193.554 322.034 195.012 321.944 196.481C321.668 198.03 321.738 199.619 322.151 201.135C322.562 202.651 323.305 204.055 324.324 205.245C325.656 206.925 326.439 208.981 326.565 211.129C326.637 212.608 327.153 214.029 328.044 215.206C328.937 216.383 330.161 217.258 331.558 217.717C334.917 219.038 338.05 220.88 340.843 223.177C343.769 225.793 346.845 228.234 350.055 230.486C351.31 231.242 352.268 232.41 352.766 233.795C352.99 235.244 353.284 236.694 353.577 238.145V238.147L353.578 238.148C354.687 243.636 355.8 249.144 353.231 254.724C352.896 255.666 352.752 256.666 352.807 257.665C352.707 259.564 352.199 261.418 351.32 263.102C350.442 264.785 349.21 266.256 347.714 267.415C345.259 269.804 343.706 269.403 341.833 266.444C339.959 263.484 337.893 260.395 335.786 257.288C335.123 256.233 334.192 255.375 333.092 254.802C331.99 254.23 330.758 253.963 329.521 254.029C327.204 253.79 324.863 254.08 322.673 254.88C320.483 255.679 318.501 256.967 316.873 258.646C314.292 261.577 311.324 261.278 308.147 258.863C306.548 257.643 305.082 256.307 303.592 254.95L303.258 254.645C300.828 252.147 297.65 250.524 294.214 250.028C293.152 249.931 292.14 249.53 291.297 248.872C290.455 248.213 289.818 247.325 289.462 246.311C288.979 245.219 287.568 243.641 286.884 243.751C283.977 244.149 281.028 244.07 278.147 243.518C277.457 243.468 276.692 243.999 275.931 244.525C275.587 244.764 275.245 245.001 274.909 245.184C277.294 249.644 277.48 250.86 274.664 254.485C273.232 256.012 272.228 257.897 271.756 259.943C271.286 261.99 271.363 264.125 271.981 266.132C272.479 268.804 273.755 271.266 275.647 273.204C278.158 275.5 280.386 278.092 282.284 280.924C282.809 281.824 283.507 282.61 284.336 283.236C285.164 283.862 286.109 284.317 287.113 284.573C291.643 285.874 296.15 287.31 300.668 288.75C304.117 289.848 307.572 290.948 311.05 291.993C313.683 292.799 316.389 293.332 319.13 293.585C324.16 294.003 325.497 294.808 326.732 299.678C327.79 304.209 330.197 308.304 333.629 311.415C335.351 312.938 336.702 314.839 337.575 316.972C338.678 319.596 338.723 322.55 337.702 325.209C336.681 327.868 334.674 330.022 332.106 331.217C323.363 335.495 315.291 341.046 308.15 347.69C307.863 347.965 307.578 348.242 307.292 348.52L307.29 348.521L307.28 348.532L307.275 348.536L307.269 348.543L307.267 348.544L307.266 348.545C306.268 349.516 305.263 350.492 304.179 351.377C303.746 351.88 303.181 352.248 302.549 352.44C301.917 352.633 301.245 352.64 300.609 352.463C299.974 352.286 299.4 351.93 298.957 351.438C298.514 350.946 298.219 350.337 298.104 349.682C297.285 347.431 296.432 345.194 295.581 342.957C294.445 339.974 293.309 336.991 292.251 333.976C289.956 327.625 285.7 326.045 279.422 326.393C277.531 326.689 275.678 327.193 273.895 327.896C273.525 327.978 273.138 328.102 272.748 328.225C271.834 328.515 270.912 328.809 270.182 328.573C266.057 327.206 261.565 327.514 257.658 329.431C254.814 330.712 251.669 331.151 248.589 330.698C245.508 330.244 242.62 328.917 240.262 326.87C238.57 325.576 236.481 324.922 234.359 325.021C232.237 325.122 230.217 325.97 228.651 327.417C227.527 328.293 226.469 329.227 225.406 330.165C225.246 330.307 225.085 330.448 224.924 330.59C224.78 330.718 224.634 330.845 224.488 330.973C222.403 333.326 219.692 335.029 216.679 335.878C214.907 336.128 216.893 334.285 216.679 335.878C216.119 339.17 215.239 308.234 215 290.503C214.862 280.301 218.175 274.065 215 264.376C211.616 254.048 206.913 245.697 204 246.204C199.398 246.874 189.246 245.35 186.196 248.89C184.519 251.132 182.706 253.267 180.768 255.283C175.062 260.336 170.727 218.442 168.169 225.647C167.294 227.373 166.122 228.928 164.707 230.24C164.326 230.749 163.939 231.243 163.552 231.737C163.164 232.231 162.777 232.725 162.396 233.234C162.355 233.288 162.314 233.344 162.273 233.398C162.23 233.457 162.186 233.517 162.142 233.576C162.062 233.685 161.981 233.795 161.9 233.904C161.307 234.714 160.706 235.53 160.025 236.253C158.525 237.521 163.244 232.47 161.9 233.904C157.883 227.328 158.06 239.18 161.9 233.904C162.692 235.762 160.502 236.089 160.978 238.053C159.64 235.412 161.903 240.87 160.978 238.053C162.437 240.452 162.188 230.762 162.142 233.576C159.945 230.057 161.964 237.731 162.142 233.576C162.414 230.772 163.561 236.002 162.142 233.576C161.871 236.38 164 231.47 162.142 233.576C160.776 235.133 162.18 231.846 161.9 233.904C161.62 235.963 160.076 236.186 160.978 238.053C162.148 240.257 162.709 242.737 162.605 245.234C162.5 247.732 161.733 250.157 160.384 252.256C159.394 253.99 158.226 255.618 157.076 257.221C156.795 257.613 156.515 258.003 156.239 258.393C154.796 260.414 153.333 262.387 151.865 264.368L151.864 264.37L151.86 264.376C150.975 265.569 150.089 266.765 149.204 267.976C146.418 271.761 143.376 275.934 140.57 280.009C139.702 281.172 139.14 282.537 138.937 283.979C138.844 286.793 137.85 289.504 136.102 291.702C134.239 294.183 132.519 296.769 130.951 299.449C128.818 302.751 127.014 306.258 125.563 309.918C123.668 314.521 121.864 316.043 117.804 313.507C115.039 311.875 111.774 311.322 108.629 311.952C106.219 312.169 103.801 312.284 101.334 312.401C100.307 312.45 99.2701 312.499 98.2226 312.557C96.7519 312.46 95.3159 312.065 94.0024 311.393C92.6889 310.721 91.5244 309.788 90.5801 308.648C89.6359 307.509 88.9312 306.188 88.5089 304.766C88.0856 303.342 87.954 301.848 88.1213 300.373C88.167 298.93 87.7767 297.508 87.0034 296.293C86.39 295.195 85.6149 294.201 84.8416 293.205L84.8407 293.205C84.2959 292.505 83.7512 291.805 83.263 291.071C82.0263 288.994 80.2649 287.286 78.1589 286.119C76.052 284.953 73.6764 284.371 71.2733 284.432C69.1316 284.633 66.9827 284.152 65.1262 283.057C63.2707 281.963 61.8018 280.31 60.927 278.331C60.1976 276.835 58.9773 275.64 57.4728 274.948C55.9682 274.257 54.2726 274.113 52.673 274.538C50.6877 274.887 48.7654 275.536 46.9729 276.464C45.2134 277.248 43.4721 278.095 41.728 278.943L41.7271 278.944C39.7765 279.892 37.8223 280.843 35.8333 281.711C33.5307 282.614 31.6441 284.349 30.5418 286.578C29.624 288.687 28.0884 290.463 26.1405 291.668C19.5026 295.352 12.2505 297.775 4.746 298.819C2.63269 299.224 0.445335 298.858 -1.42392 297.787C-3.29409 296.717 -4.7246 295.011 -5.46042 292.974C-6.30318 290.787 -7.02164 288.553 -7.61487 286.285C-7.95856 284.505 -8.4549 282.757 -9.09748 281.063C-10.5454 278.184 -12.0874 275.366 -13.6288 272.552L-13.6298 272.551L-13.6304 272.549L-13.6309 272.548C-14.7026 270.592 -15.7741 268.635 -16.8123 266.659C-20.011 261.095 -22.8895 255.349 -25.4339 249.452C-25.9702 247.806 -26.8585 246.3 -28.0355 245.039C-29.2124 243.779 -30.6493 242.794 -32.2456 242.154C-35.9782 240.596 -38.4474 237.675 -40.912 234.759C-42.0144 233.456 -43.116 232.153 -44.3294 230.973C-44.7596 230.549 -44.857 229.815 -44.9575 229.055C-45.0202 228.582 -45.0841 228.1 -45.2307 227.677C-45.5409 226.255 -46.1179 224.905 -46.9312 223.702C-50.854 219.235 -55.5964 215.574 -60.8977 212.922C-62.7867 211.973 -64.4833 210.677 -65.901 209.101C-66.6926 208.061 -67.7707 207.28 -69.0007 206.854C-70.2308 206.429 -71.5587 206.378 -72.8178 206.709C-75.5109 207.466 -78.3768 207.297 -80.9623 206.227C-84.6949 203.828 -87.9769 200.783 -90.6572 197.232C-91.3286 195.925 -92.3627 194.845 -93.6333 194.121C-94.9038 193.397 -96.3562 193.062 -97.8132 193.155C-98.7186 193.266 -99.6344 193.071 -100.418 192.6C-101.201 192.13 -101.807 191.412 -102.142 190.556C-102.626 189.641 -103.047 188.713 -103.47 187.783L-103.47 187.782C-103.722 187.227 -103.975 186.672 -104.241 186.117C-104.482 185.575 -104.735 185.038 -105 184.507Z" fill="white"/>
</svg>
