<svg width="32" height="32" viewBox="0 0 32 32" fill="none" xmlns="http://www.w3.org/2000/svg">
<path d="M19.3103 13.1038C19.3364 12.7829 19.2935 12.4603 19.1845 12.1573C19.0754 11.8543 18.9028 11.5779 18.6781 11.3468C18.4534 11.1156 18.1819 10.9349 17.8815 10.8167C17.5812 10.6985 17.259 10.6456 16.9365 10.6614" stroke="#0841E2" stroke-width="1.5" stroke-linecap="round" stroke-linejoin="round"/>
<path d="M21.7961 13.2663C21.8351 12.6074 21.7419 11.9472 21.5218 11.3247C21.3017 10.7021 20.9591 10.1296 20.5142 9.64066C19.5389 8.65514 18.2183 8.08507 16.8301 8.05029" stroke="#0841E2" stroke-width="1.5" stroke-linecap="round" stroke-linejoin="round"/>
<path d="M24.4914 13.6802C24.5409 12.5917 24.3668 11.5045 23.9799 10.4855C23.5929 9.46648 23.0012 8.53701 22.241 7.75412C21.5099 7.03908 20.6426 6.4772 19.6902 6.10163C18.7379 5.72606 17.7197 5.54441 16.6958 5.56736" stroke="#0841E2" stroke-width="1.5" stroke-linecap="round" stroke-linejoin="round"/>
<path d="M27.8258 3.05221C27.0472 2.33275 23.8948 0.0513131 16.8778 0.0229135C16.8778 0.0229135 8.59793 -0.478802 4.53398 3.21314C2.28361 5.4567 1.4955 8.73211 1.41005 12.7932C1.32459 16.8544 1.22014 24.4654 8.57894 26.5291V29.6815C8.57894 29.6815 8.57895 30.9595 9.37655 31.2151C10.3925 31.5369 10.9907 30.5619 11.9687 29.5206C12.5005 28.9431 13.2411 28.1006 13.7918 27.4569C16.9226 27.7485 20.0803 27.5181 23.1351 26.7753C24.1511 26.4439 29.9052 25.715 30.8453 18.0945C31.8423 10.2468 30.4085 5.2863 27.8258 3.05221ZM28.6803 17.536C27.8827 23.888 23.2206 24.2856 22.366 24.5601C19.7376 25.2061 17.0241 25.4392 14.3236 25.2512C14.3236 25.2512 11.1332 29.0378 10.1362 30.0791C10.0807 30.1444 10.0104 30.1957 9.9312 30.2286C9.85195 30.2615 9.76598 30.2752 9.68039 30.2684C9.50948 30.2211 9.462 30.0223 9.462 29.7288C9.462 29.4354 9.462 24.4938 9.462 24.4938C3.23313 22.7615 3.59395 16.2864 3.66991 12.8974C3.74587 9.50836 4.38205 6.72521 6.2811 4.85084C9.68989 1.77422 16.7259 2.22861 16.7259 2.22861C22.6604 2.22861 25.5089 4.03672 26.1641 4.63311C28.3765 6.50748 29.4874 10.9757 28.6803 17.536Z" fill="#0841E2"/>
<path d="M17.4758 17.9146C17.6332 17.9263 17.7912 17.9036 17.9389 17.848C18.0865 17.7924 18.2201 17.7053 18.3304 17.5928L18.9191 16.8544C19.1207 16.6332 19.3941 16.4901 19.6911 16.4503C19.9882 16.4105 20.2898 16.4765 20.5428 16.6366C21.0466 16.9264 21.5347 17.2423 22.0051 17.5833C22.4513 17.9146 23.3534 18.6625 23.3534 18.6719C23.5659 18.8433 23.7076 19.0867 23.7514 19.3557C23.7952 19.6246 23.738 19.9002 23.5908 20.1298C23.2677 20.6894 22.8574 21.1942 22.3754 21.6255C22.0276 21.9404 21.5954 22.1476 21.1315 22.2219C21.0718 22.2321 21.0108 22.2321 20.9511 22.2219C20.7741 22.2245 20.5978 22.199 20.4289 22.1462C19.2454 21.7382 18.1065 21.2117 17.0296 20.5747C16.0272 20.0264 15.0742 19.393 14.181 18.6814C13.7323 18.3275 13.3043 17.9482 12.8991 17.5454H12.8517C12.4501 17.1359 12.0698 16.7062 11.7122 16.258C11.0017 15.3652 10.3665 14.4153 9.8132 13.418C9.17403 12.3458 8.64894 11.21 8.24649 10.029C8.19039 9.85785 8.16156 9.67897 8.16103 9.49889C8.15531 9.43907 8.15531 9.37885 8.16103 9.31903C8.23407 8.85889 8.44223 8.43065 8.75923 8.08838C9.12447 7.53694 9.57656 7.04787 10.0981 6.64C10.3298 6.49259 10.6078 6.43525 10.8791 6.47889C11.1505 6.52252 11.3963 6.6641 11.5698 6.87667C11.5698 6.87667 12.3294 7.82331 12.6523 8.22091C12.9751 8.6185 13.3739 9.30956 13.6018 9.67876C13.7584 9.93461 13.8212 10.2366 13.7797 10.5335C13.7381 10.8303 13.5948 11.1036 13.3739 11.307L12.6333 11.8844C12.5202 11.9962 12.4328 12.1311 12.3771 12.2799C12.3213 12.4286 12.2986 12.5876 12.3104 12.7459C12.6723 13.9678 13.3341 15.0804 14.2361 15.983C15.138 16.8855 16.2516 17.5494 17.4758 17.9146Z" fill="#0841E2"/>
</svg>
