<svg width="35" height="27" viewBox="0 0 35 27" fill="none" xmlns="http://www.w3.org/2000/svg">
<path fill-rule="evenodd" clip-rule="evenodd" d="M12.7913 19.0686L14.4056 9.15069H16.9858L15.3715 19.0686H12.7913ZM24.7307 9.39352C24.2204 9.19489 23.4182 8.97754 22.4187 8.97754C19.8673 8.97754 18.0719 10.3237 18.0572 12.2508C18.041 13.6765 19.3382 14.4715 20.3167 14.9452C21.322 15.4314 21.6601 15.7418 21.6559 16.1765C21.6491 16.8405 20.8532 17.1447 20.1114 17.1447C19.0788 17.1447 18.5297 16.995 17.6808 16.6247L17.3496 16.4667L16.9884 18.6869C17.59 18.963 18.7051 19.2028 19.8631 19.2157C22.5741 19.2157 24.3359 17.8857 24.3564 15.8276C24.3658 14.6972 23.6781 13.8403 22.1893 13.1331C21.2874 12.673 20.7341 12.3688 20.7404 11.9029C20.7409 11.4911 21.2076 11.0496 22.2187 11.0496C22.8827 11.0348 23.5419 11.1649 24.1495 11.4308L24.381 11.5441L24.7307 9.39352ZM28.1661 15.552C28.3802 14.9822 29.1939 12.7801 29.1939 12.7801C29.1792 12.8061 29.4066 12.2055 29.5368 11.8337L29.711 12.6891C29.711 12.6891 30.2061 15.0565 30.3085 15.552H28.1661ZM31.3495 9.16057H29.3551C28.7367 9.16057 28.2737 9.33632 28.0028 9.98264L24.171 19.0717H26.8815C26.8815 19.0717 27.3235 17.8493 27.4237 17.581C27.7193 17.581 30.3531 17.5862 30.7284 17.5862C30.8056 17.9319 31.0429 19.0722 31.0429 19.0722H33.4373L31.3495 9.16057ZM10.6268 9.15901L8.10171 15.9207L7.83083 14.5459C7.35993 12.9626 5.89527 11.2462 4.25684 10.3861L6.5667 19.0598L9.2976 19.0582L13.3609 9.15901H10.6268Z" fill="#26337A"/>
<path fill-rule="evenodd" clip-rule="evenodd" d="M5.75701 9.15238H1.59662L1.5625 9.35776C4.79999 10.1793 6.94187 12.1625 7.83064 14.546L6.92717 9.98901C6.77072 9.36036 6.31768 9.17421 5.75753 9.15186" fill="#EC982D"/>
</svg>
