<svg width="32" height="32" viewBox="0 0 32 32" fill="none" xmlns="http://www.w3.org/2000/svg">
<path d="M16.0581 2.08691C8.44712 2.08691 2.25196 8.2721 2.24873 15.8742C2.24792 18.3043 2.88398 20.6763 4.09234 22.7671L2.1333 29.913L9.45368 27.9955C11.4708 29.0941 13.7415 29.6728 16.0524 29.6736H16.0581C23.6682 29.6736 29.8634 23.4876 29.8666 15.8855C29.8682 12.2013 28.4331 8.73716 25.8259 6.13138C23.2186 3.5248 19.7518 2.08853 16.0581 2.08691ZM16.0581 27.3451H16.0532C13.9941 27.3451 11.9737 26.7914 10.2116 25.7476L9.7927 25.4994L5.44923 26.6374L6.60835 22.4084L6.33552 21.9748C5.18689 20.15 4.57989 18.0407 4.58069 15.8758C4.58311 9.55685 9.73216 4.41623 16.0629 4.41623C19.1286 4.41704 22.0103 5.61071 24.1768 7.77722C26.3441 9.94292 27.5363 12.8227 27.5355 15.8847C27.5331 22.2037 22.384 27.3451 16.0581 27.3451ZM22.3533 18.7621C22.0087 18.5896 20.312 17.7562 19.9955 17.641C19.6791 17.5257 19.4491 17.4685 19.219 17.8134C18.989 18.1584 18.3279 18.9346 18.1269 19.1643C17.9259 19.3948 17.7241 19.423 17.3795 19.2505C17.0348 19.078 15.9225 18.7137 14.6051 17.5402C13.5792 16.627 12.8866 15.4986 12.6857 15.1537C12.4847 14.8087 12.6639 14.6225 12.8374 14.4508C12.9924 14.2969 13.1821 14.0487 13.3548 13.8472C13.5276 13.6457 13.5849 13.5022 13.6995 13.2717C13.8141 13.042 13.7568 12.8405 13.6704 12.668C13.5841 12.4955 12.8939 10.7997 12.6066 10.1098C12.3265 9.43837 12.0423 9.52864 11.83 9.51817C11.6291 9.50769 11.399 9.50608 11.169 9.50608C10.9389 9.50608 10.5652 9.59232 10.2488 9.93728C9.93234 10.2822 9.04121 11.1156 9.04121 12.8115C9.04121 14.5073 10.2778 16.1458 10.4497 16.3756C10.6225 16.6053 12.8826 20.0855 16.3438 21.5774C17.1672 21.9321 17.8097 22.144 18.3109 22.3028C19.1375 22.5648 19.8898 22.5277 20.4839 22.439C21.1466 22.3399 22.5253 21.6056 22.8126 20.8004C23.1 19.9961 23.1 19.3061 23.0136 19.1619C22.9272 19.0184 22.6972 18.9322 22.3525 18.7597L22.3533 18.7621Z" fill="#0841E2"/>
</svg>
