<svg width="395" height="58" viewBox="0 0 395 58" fill="none" xmlns="http://www.w3.org/2000/svg">
<g clip-path="url(#clip0_8259_5631)">
<path d="M50.5576 20.6087L36.4171 24.3517V7.1434C42.8973 9.35034 48.0795 14.3184 50.5576 20.6183M7.11357 37.2822L21.254 33.5392V50.7572C14.7738 48.5502 9.59159 43.5822 7.11357 37.2919M52.1013 30.5447C51.4425 39.9461 45.0804 47.8016 36.4171 50.7572V29.5336L56.8116 24.1281C54.6285 11.7323 44.215 2.11703 31.3628 0.989258V25.6933L26.3083 27.0351V0.989258C11.9123 2.25314 0.564534 14.1823 0.446533 28.7169L5.56974 27.3559C6.22857 17.9545 12.5908 10.099 21.254 7.1434V28.367L0.869368 33.7725C3.05239 46.1586 13.4561 55.7836 26.3083 56.9114V32.2073L31.3628 30.8655V56.9114C45.7687 55.6475 57.1066 43.7183 57.2246 29.1836L52.1013 30.5447Z" fill="#0D2237"/>
<path d="M297.814 14.8115H304.9V47.5348H310.089V14.8115H317.174V10.3487H297.814V14.8115ZM281.653 15.5487C282.154 15.0734 282.713 14.7241 283.322 14.5106C283.94 14.2972 284.577 14.1905 285.206 14.1905C287.354 14.1905 289.092 15.0346 290.367 16.6935L290.544 16.9264L293.694 13.2398L293.575 13.0943C292.614 11.8913 291.387 10.9793 289.944 10.3778C288.502 9.78603 286.864 9.47559 285.058 9.47559C283.812 9.47559 282.566 9.68901 281.359 10.1159C280.142 10.5428 279.043 11.2025 278.101 12.0853C277.149 12.9681 276.384 14.0936 275.814 15.4323C275.246 16.7711 274.951 18.3526 274.951 20.1375C274.951 21.6413 275.157 22.9705 275.569 24.0862C275.981 25.1922 276.551 26.172 277.266 26.987C277.973 27.7921 278.788 28.51 279.7 29.1309C280.604 29.7422 281.575 30.2952 282.585 30.7802C283.409 31.1877 284.195 31.6339 284.901 32.0899C285.598 32.5459 286.226 33.0601 286.775 33.6131C287.315 34.1661 287.737 34.7869 288.041 35.466C288.345 36.1452 288.492 36.9407 288.492 37.8332C288.492 39.7347 288.002 41.1997 287.04 42.1796C286.079 43.1691 284.833 43.6639 283.331 43.6639C282.143 43.6639 280.957 43.3729 279.789 42.8101C278.621 42.2377 277.63 41.4422 276.855 40.443L276.679 40.2102L273.588 43.9549L273.705 44.1004C274.735 45.4005 276.128 46.4676 277.856 47.2534C279.573 48.0393 281.417 48.437 283.331 48.437C284.755 48.437 286.108 48.1848 287.354 47.69C288.6 47.1953 289.699 46.4774 290.612 45.5654C291.524 44.6437 292.25 43.4989 292.79 42.1408C293.321 40.7922 293.594 39.2497 293.594 37.5713C293.594 36.0579 293.349 34.719 292.868 33.5645C292.389 32.4198 291.75 31.4108 290.965 30.5668C290.191 29.7228 289.307 28.9854 288.345 28.3742C287.404 27.7728 286.422 27.2101 285.44 26.7249C284.685 26.3563 283.968 25.9489 283.311 25.522C282.663 25.1048 282.085 24.6198 281.595 24.1055C281.103 23.5914 280.711 22.9995 280.437 22.3592C280.151 21.719 280.015 20.9428 280.015 20.0406C280.015 19.0025 280.171 18.11 280.466 17.3824C280.771 16.6547 281.172 16.0435 281.673 15.5682M252.903 34.7967L257.427 15.5487L261.803 34.7967H252.903ZM260.821 10.3681H254.208L244.749 47.5543H250.008L252.157 38.9489H262.538L264.638 47.5543H270.055L260.851 10.5428L260.811 10.3681H260.821ZM354.139 27.0645H350.017V14.7241H354.031C354.737 14.7241 355.463 14.8211 356.17 15.0054C356.866 15.1898 357.484 15.5099 358.015 15.9659C358.544 16.4316 358.986 17.0428 359.32 17.8092C359.653 18.5757 359.82 19.5749 359.82 20.7877C359.82 22.7959 359.3 24.3675 358.26 25.4444C357.23 26.5213 355.836 27.0645 354.129 27.0645M360.761 29.3638C361.517 28.8981 362.224 28.2675 362.862 27.472C363.49 26.6765 364.01 25.7063 364.412 24.5809C364.804 23.4555 365.011 22.1168 365.011 20.613C365.011 18.7891 364.736 17.2078 364.206 15.9077C363.666 14.598 362.92 13.5212 361.988 12.7062C361.056 11.8913 359.957 11.2898 358.721 10.9211C357.494 10.5525 356.17 10.3681 354.786 10.3681H344.925V47.5543H350.008V31.1682H353.912L360.154 47.4088L360.213 47.5543H365.816L358.809 30.2176C359.447 30.0526 360.104 29.7712 360.772 29.3638M327.271 30.431H337.604V26.0749H327.271V14.9763H338.34V10.3584H322.238V47.5445H338.87V42.8781H327.271V30.431ZM389.11 10.3584V38.3087L377.649 10.3584H371.585V47.5445H376.413V19.6331L387.972 47.399L388.031 47.5445H393.937V10.3487H389.11V10.3584ZM228.891 30.431H239.224V26.0749H228.891V14.9763H239.959V10.3584H223.858V47.5445H240.49V42.8781H228.891V30.431ZM114.605 38.3087L103.144 10.3584H97.0796V47.5445H101.907V19.6331L113.466 47.399L113.525 47.5445H119.432V10.3487H114.605V38.2989V38.3087ZM139.479 31.4205H144.356V42.4318C143.394 43.1789 141.972 43.5572 140.136 43.5572C138.724 43.5572 137.478 43.1885 136.447 42.4608C135.398 41.7236 134.514 40.6952 133.818 39.4049C133.111 38.1049 132.571 36.5332 132.218 34.7481C131.856 32.9534 131.669 30.9839 131.669 28.9078C131.669 26.8316 131.836 25.0077 132.159 23.2228C132.483 21.4376 133.003 19.8465 133.681 18.5174C134.357 17.1883 135.211 16.1309 136.212 15.3547C137.193 14.598 138.391 14.2099 139.763 14.2099C140.912 14.2099 141.982 14.4816 142.953 15.0054C143.934 15.539 144.807 16.354 145.553 17.4212L145.72 17.6637L148.988 14.1517L148.88 13.9965C147.85 12.4831 146.525 11.3383 144.954 10.601C143.394 9.86364 141.569 9.48528 139.557 9.48528C137.546 9.48528 135.554 9.98976 133.906 10.9696C132.257 11.9495 130.844 13.3271 129.716 15.0637C128.588 16.7906 127.714 18.857 127.116 21.2047C126.517 23.5429 126.213 26.1332 126.213 28.9078C126.213 31.6825 126.527 34.4378 127.135 36.7951C127.753 39.1623 128.666 41.2095 129.844 42.8877C131.03 44.5661 132.493 45.8952 134.201 46.8266C135.907 47.7579 137.871 48.2334 140.029 48.2334C142.188 48.2334 143.964 47.9617 145.436 47.4184C146.907 46.8752 148.212 46.1378 149.311 45.2259L149.4 45.158V26.919H139.49V31.4303L139.479 31.4205ZM162.136 10.3681H156.945V47.5543H172.627V42.7325H162.136V10.3487V10.3681ZM208.148 32.0803H216.91V28.0347H208.148V32.0803ZM195.49 34.7288C195.165 36.5332 194.675 38.1146 194.037 39.4437C193.409 40.7535 192.614 41.8012 191.692 42.5579C190.78 43.2953 189.709 43.6736 188.513 43.6736C187.316 43.6736 186.178 43.2953 185.244 42.5579C184.293 41.8012 183.499 40.7631 182.871 39.4535C182.233 38.134 181.752 36.5429 181.447 34.7481C181.134 32.934 180.976 30.9743 180.976 28.9272C180.976 26.8802 181.134 24.9205 181.447 23.1062C181.761 21.3018 182.233 19.7205 182.871 18.3914C183.499 17.0816 184.293 16.0339 185.244 15.2868C186.178 14.5494 187.277 14.1712 188.513 14.1712C189.749 14.1712 190.78 14.5494 191.692 15.2868C192.624 16.0435 193.409 17.0913 194.037 18.3914C194.675 19.7205 195.156 21.3018 195.49 23.1062C195.823 24.9205 195.98 26.8802 195.98 28.9272C195.98 30.9743 195.813 32.934 195.49 34.7481M198.021 14.8794C196.903 13.1815 195.538 11.8525 193.958 10.9211C192.369 9.98976 190.535 9.51439 188.513 9.51439C186.491 9.51439 184.587 9.98976 182.968 10.9211C181.349 11.8525 179.975 13.1815 178.876 14.8891C177.777 16.5868 176.944 18.6533 176.384 21.0301C175.824 23.4071 175.54 26.0653 175.54 28.9369C175.54 31.8086 175.835 34.4766 176.414 36.8534C176.993 39.24 177.857 41.3064 178.965 43.0139C180.083 44.7311 181.457 46.0797 183.057 47.0303C184.666 47.9812 186.501 48.4662 188.532 48.4662C190.563 48.4662 192.388 47.9812 193.979 47.0303C195.558 46.0797 196.922 44.7311 198.041 43.0139C199.149 41.3064 200.013 39.2302 200.592 36.8534C201.171 34.4862 201.466 31.8182 201.466 28.9369C201.466 26.0556 201.171 23.3973 200.592 21.0204C200.013 18.6338 199.149 16.5675 198.041 14.8794M74.7069 34.8161L79.2305 15.5682L83.607 34.8161H74.7069ZM82.6257 10.3875H76.012L66.5527 47.5736H71.8122L73.9613 38.9683H84.3429L86.4427 47.5736H91.8592L82.655 10.5622L82.6158 10.3875H82.6257Z" fill="#0D2237"/>
</g>
<defs>
<clipPath id="clip0_8259_5631">
<rect width="395" height="58" fill="white" transform="translate(0 0.00292969)"/>
</clipPath>
</defs>
</svg>
