<svg width="217" height="69" viewBox="0 0 217 69" fill="none" xmlns="http://www.w3.org/2000/svg">
<g clip-path="url(#clip0_8259_4820)">
<path opacity="0.5" d="M32.7996 67.611L0.624023 35.2041H32.7996V67.611Z" fill="#0D2237"/>
<path d="M32.7996 67.611H0.624023V35.2041L32.7996 67.611Z" fill="#0D2237"/>
<path d="M52.0878 53.3338V61.9746H59.9006C61.2954 61.9746 62.3832 61.7844 63.1605 61.4039C64.5698 60.6997 65.2744 59.3517 65.2744 57.3579C65.2744 55.6733 64.5915 54.5135 63.2241 53.8825C62.4613 53.5313 61.3898 53.3484 60.0096 53.3337L52.0878 53.3338ZM52.0878 40.8224V47.9688H59.9097C61.3062 47.9688 62.4413 47.7 63.313 47.1659C64.183 46.6317 64.6206 45.6806 64.6206 44.3179C64.6206 42.807 64.0431 41.812 62.8917 41.3272C61.8965 40.9907 60.6289 40.8224 59.0888 40.8224H52.0878ZM69.5603 38.6439C70.5465 40.0231 71.0387 41.673 71.0387 43.5918C71.0387 45.5709 70.541 47.1622 69.5476 48.364C68.992 49.0389 68.1747 49.6554 67.0941 50.2114C68.7359 50.8132 69.9744 51.7662 70.8117 53.0704C71.6471 54.3746 72.0648 55.9585 72.0648 57.8188C72.0648 59.7412 71.5871 61.4625 70.6319 62.9862C70.0234 63.9977 69.2644 64.8482 68.3527 65.5378C67.3248 66.3298 66.1135 66.8731 64.7169 67.1639C63.3203 67.4584 61.8039 67.6048 60.1694 67.6048H45.6698V35.1923H61.2209C65.1455 35.2509 67.9258 36.4014 69.5603 38.6439ZM90.6509 61.2091C91.6262 59.9068 92.1129 58.0557 92.1129 55.6541C92.1129 53.2542 91.6262 51.4049 90.6509 50.1099C89.6757 48.8149 88.2773 48.1655 86.4594 48.1655C84.6397 48.1655 83.2395 48.8149 82.257 50.1099C81.2745 51.4049 80.7823 53.2542 80.7823 55.6541C80.7823 58.0557 81.2745 59.9068 82.257 61.2091C83.2395 62.5115 84.6397 63.1627 86.4594 63.1627C88.2773 63.1627 89.6757 62.5116 90.6509 61.2091ZM95.6288 64.6717C93.6202 67.1703 90.5711 68.4178 86.4812 68.4178C82.3914 68.4178 79.3421 67.1703 77.3336 64.6717C75.325 62.175 74.3207 59.1697 74.3207 55.6541C74.3207 52.197 75.325 49.2026 77.3336 46.6675C79.3422 44.1341 82.3914 42.8665 86.4812 42.8665C90.5711 42.8665 93.6203 44.1341 95.6288 46.6675C97.6374 49.2026 98.6417 52.197 98.6417 55.6541C98.6417 59.1697 97.6374 62.175 95.6288 64.6717ZM106.802 59.9524C106.935 61.0663 107.22 61.8583 107.657 62.3284C108.433 63.1625 109.866 63.5814 111.958 63.5814C113.186 63.5814 114.161 63.3966 114.886 63.0308C115.61 62.665 115.972 62.1144 115.972 61.3809C115.972 60.6786 115.679 60.1426 115.096 59.7767C114.513 59.4091 112.343 58.7799 108.587 57.8855C105.883 57.2105 103.978 56.3691 102.872 55.3557C101.766 54.3606 101.212 52.9229 101.212 51.0462C101.212 48.8348 102.077 46.9307 103.806 45.3411C105.534 43.7498 107.966 42.9541 111.101 42.9541C114.077 42.9541 116.504 43.5522 118.376 44.7467C120.25 45.9411 121.327 48.0044 121.603 50.9383H115.381C115.294 50.1298 115.067 49.4933 114.704 49.0232C114.017 48.1745 112.85 47.7483 111.201 47.7483C109.842 47.7483 108.876 47.9623 108.3 48.3866C107.723 48.8111 107.436 49.3104 107.436 49.8811C107.436 50.5999 107.741 51.1212 108.355 51.4432C108.967 51.7797 111.133 52.3596 114.851 53.179C117.33 53.7662 119.186 54.6533 120.425 55.8405C121.649 57.0422 122.259 58.5458 122.259 60.3474C122.259 62.7235 121.38 64.6624 119.624 66.1642C117.864 67.6676 115.149 68.4176 111.475 68.4176C107.726 68.4176 104.959 67.6219 103.172 66.0324C101.386 64.4429 100.493 62.4143 100.493 59.9524H106.802ZM125.437 35.3025H131.55V52.7872L139.398 43.7476H147.136L138.606 52.6756L147.465 67.6051H139.892L134.128 57.3637L131.55 60.0617V67.6051H125.437V35.3025ZM162.83 55.9504C162.433 56.1991 162.031 56.4021 161.625 56.5558C161.22 56.7094 160.662 56.8521 159.954 56.9839L158.537 57.2472C157.21 57.4832 156.256 57.7685 155.679 58.1051C154.698 58.6776 154.208 59.5647 154.208 60.7665C154.208 61.8366 154.507 62.6102 155.105 63.0859C155.702 63.5632 156.432 63.801 157.29 63.801C158.65 63.801 159.901 63.4059 161.047 62.6139C162.193 61.8219 162.787 60.3769 162.83 58.2825V55.9504ZM159.026 53.0256C160.184 52.8793 161.013 52.6963 161.512 52.4768C162.406 52.0964 162.852 51.5019 162.852 50.6953C162.852 49.713 162.509 49.0344 161.824 48.6612C161.138 48.288 160.132 48.0996 158.804 48.0996C157.313 48.0996 156.258 48.4673 155.639 49.2008C155.196 49.7422 154.901 50.4758 154.754 51.3994H148.75C148.881 49.3033 149.466 47.5802 150.505 46.2321C152.156 44.1195 154.992 43.064 159.011 43.064C161.626 43.064 163.953 43.5854 165.983 44.6261C168.015 45.6669 169.031 47.6314 169.031 50.5197V61.5146C169.031 62.2755 169.045 63.2011 169.074 64.2858C169.118 65.1052 169.243 65.6631 169.447 65.9558C169.65 66.2484 169.955 66.4917 170.364 66.6819V67.6038H163.595C163.406 67.1209 163.275 66.6673 163.203 66.2411C163.13 65.8167 163.072 65.332 163.027 64.7906C162.164 65.729 161.169 66.5265 160.041 67.1868C158.695 67.9642 157.172 68.3519 155.474 68.3519C153.305 68.3519 151.516 67.7337 150.105 66.4935C148.692 65.2552 147.986 63.5011 147.986 61.2275C147.986 58.2825 149.123 56.1479 151.395 54.8291C152.64 54.112 154.475 53.5981 156.894 53.2909L159.026 53.0256ZM180.195 67.6055H173.973V35.1931H180.195V67.6055ZM185.278 43.6364H191.587V67.6036H185.278V43.6364ZM191.587 40.7775H185.278V34.9956H191.587V40.7775ZM200.919 59.9524C201.05 61.0663 201.337 61.8583 201.775 62.3284C202.55 63.1625 203.983 63.5814 206.075 63.5814C207.303 63.5814 208.28 63.3966 209.003 63.0308C209.727 62.665 210.087 62.1144 210.087 61.3809C210.087 60.6786 209.796 60.1426 209.213 59.7767C208.63 59.4091 206.46 58.7799 202.705 57.8855C200 57.2105 198.095 56.3691 196.989 55.3557C195.883 54.3606 195.329 52.9229 195.329 51.0462C195.329 48.8348 196.194 46.9307 197.923 45.3411C199.65 43.7498 202.083 42.9541 205.22 42.9541C208.196 42.9541 210.619 43.5522 212.493 44.7467C214.367 45.9411 215.444 48.0044 215.72 50.9383H209.498C209.411 50.1298 209.184 49.4933 208.821 49.0232C208.135 48.1745 206.967 47.7483 205.318 47.7483C203.959 47.7483 202.993 47.9623 202.418 48.3866C201.842 48.8111 201.551 49.3104 201.551 49.8811C201.551 50.5999 201.858 51.1212 202.472 51.4432C203.084 51.7797 205.251 52.3596 208.968 53.179C211.447 53.7662 213.305 54.6533 214.542 55.8405C215.764 57.0422 216.376 58.5458 216.376 60.3474C216.376 62.7235 215.497 64.6624 213.739 66.1642C211.981 67.6676 209.266 68.4176 205.592 68.4176C201.844 68.4176 199.076 67.6219 197.289 66.0324C195.502 64.4429 194.61 62.4143 194.61 59.9524H200.919ZM14.3512 6.40549V21.6404H19.0731V6.40549C18.2903 6.35243 17.5058 6.3232 16.7248 6.3232H16.6976C15.9167 6.3232 15.1339 6.35243 14.3512 6.40549ZM14.3512 4.13374H19.0731V-0.62207H14.3512V4.13374ZM32.799 10.4022L32.7918 10.4132L29.7443 21.6404H24.9172L27.1056 12.1509C25.2205 11.4704 23.1211 10.971 20.9763 10.6729L21.4085 6.65063C25.7997 7.24328 29.9423 8.59871 32.799 10.4022ZM4.27556 23.9434L5.57759 28.7211H27.8446L29.1486 23.9434H4.27556ZM12.0138 6.65063L12.4478 10.6728C10.3031 10.971 8.20188 11.4704 6.31859 12.1508L8.50519 21.6404H3.67991L0.632483 10.4132L0.625244 10.4022C3.48195 8.59863 7.62436 7.24328 12.0138 6.65063Z" fill="#0D2237"/>
</g>
<defs>
<clipPath id="clip0_8259_4820">
<rect width="216" height="69" fill="white" transform="translate(0.5 0.00292969)"/>
</clipPath>
</defs>
</svg>
