<svg width="173" height="59" viewBox="0 0 173 59" fill="none" xmlns="http://www.w3.org/2000/svg">
<g clip-path="url(#clip0_8259_5588)">
<path d="M25.4188 45.4981C29.218 45.4981 31.725 43.8597 31.725 40.3711C31.725 36.9521 29.145 35.2426 25.4188 35.2426H15.6163V45.4981H25.4188ZM23.8434 26.6997C27.5696 26.6997 29.7188 24.9887 29.7188 21.7846C29.7188 18.7226 27.5696 17.0147 23.8434 17.0147H15.6148V26.6997H23.8419H23.8434ZM1.8609 6.33264H25.2042C37.8135 6.33264 43.6173 11.6729 43.6173 19.7922C43.6173 24.9887 40.8242 28.2655 36.095 30.4001C41.325 32.0385 45.4104 35.6708 45.4104 41.8673C45.4104 51.1227 37.6004 56.1786 25.8511 56.1786H1.85938L1.8609 6.33264ZM118.329 6.33264H132.156L145.011 24.8465L157.933 6.33264H171.547V56.1801H158.579V25.2732L145.011 44.2137L131.441 25.2732V56.1771H118.329V6.33264ZM87.109 41.1941C86.3479 40.6797 85.4225 40.1911 84.3646 39.7403L72.7751 34.8448C71.1483 34.192 69.5977 33.3652 68.1509 32.3789C66.6573 31.3704 65.3046 30.1699 64.1279 28.8086C62.9113 27.3873 61.9496 25.7687 61.2846 24.0236C60.5814 22.2127 60.2237 20.1386 60.2237 17.8558C60.2237 15.3143 60.7762 12.8862 61.8615 10.6321C62.9639 8.35909 64.5353 6.34216 66.4735 4.71241C67.9159 3.50283 69.5153 2.4913 71.2286 1.70492C71.2451 1.70047 71.2613 1.69542 71.2774 1.6898L70.9653 0.90918C64.5308 3.01152 58.9295 7.08116 54.9613 12.5367C50.9932 17.9923 48.8613 24.5548 48.8702 31.2866C48.8702 39.6404 52.0971 47.5494 57.9542 53.5523L58.0105 53.6083L66.0397 44.0291L66.3639 44.3075C68.5234 46.1454 70.9392 47.6629 73.5362 48.8126C76.1268 49.9654 78.7053 50.5494 81.1986 50.5494C83.9703 50.5494 86.048 50.0441 87.3723 49.0486C88.6813 48.0653 89.3176 46.7718 89.3176 45.0911C89.3176 44.2394 89.1319 43.4951 88.7666 42.8794C88.3921 42.2531 87.8335 41.6842 87.109 41.1941Z" fill="#0D2237"/>
<path d="M102.802 7.70179L102.765 7.66699L95.1548 17.0404L94.8275 16.7863C92.864 15.2614 90.8745 14.0723 88.9171 13.2508C86.9764 12.4384 84.7906 12.0254 82.4176 12.0254C80.1405 12.0254 78.3094 12.4868 76.9806 13.3976C75.6822 14.2871 75.0505 15.5004 75.0505 17.11C75.0505 17.9481 75.2606 18.6682 75.6761 19.2446C76.1115 19.8512 76.7355 20.4095 77.5286 20.9057C78.3475 21.4185 79.3201 21.9102 80.4221 22.3671C81.5485 22.833 82.7708 23.3474 84.0874 23.9071L91.9613 27.075C95.7621 28.5863 98.8033 30.6982 100.998 33.3532C103.21 36.0309 104.33 39.6026 104.33 43.9732C104.33 46.5707 103.797 49.0608 102.747 51.3739C101.739 53.5887 100.261 55.5599 98.3756 57.2542L98.3208 57.2875L98.8413 57.9531C103.274 55.0384 106.91 51.0769 109.424 46.4232C111.938 41.7695 113.252 36.5688 113.248 31.2867C113.248 22.3459 109.44 13.75 102.802 7.70179Z" fill="#0D2237"/>
</g>
<defs>
<clipPath id="clip0_8259_5588">
<rect width="172" height="59" fill="white" transform="translate(0.5 0.00292969)"/>
</clipPath>
</defs>
</svg>
