<svg width="293" height="68" viewBox="0 0 293 68" fill="none" xmlns="http://www.w3.org/2000/svg">
<g clip-path="url(#clip0_8259_5256)">
<path d="M72.4221 22.6454C71.9901 25.6837 71.0542 28.7944 70.1184 31.5433C67.3827 28.4327 65.0071 24.888 62.1995 21.8497C61.0476 21.8497 59.7518 21.7773 58.8159 21.9944C60.8316 30.3859 61.4076 39.7901 62.1275 48.905C63.7832 48.688 65.1511 48.1816 66.8068 47.8922C66.3749 41.9603 65.439 35.739 64.7191 29.8071C66.8068 32.2667 68.6786 35.088 70.6943 37.6199C71.9181 35.1603 72.854 32.339 74.0058 29.8071C75.4457 35.6667 76.3815 41.9603 77.5334 48.1816C79.0452 48.471 79.981 49.1944 81.5648 49.6284C80.9889 39.6454 78.3972 30.3859 75.8776 21.7773C74.7977 22.139 73.6459 22.4284 72.4221 22.6454Z" fill="#0D2237"/>
<path d="M85.8842 34.4373C85.1643 32.1224 84.4444 29.7352 83.7245 27.348C83.0046 24.8884 82.1408 22.5012 81.7088 19.9693C80.7729 14.5437 80.9169 8.39479 83.0766 3.765C81.0609 5.28415 78.3973 6.73096 75.6616 8.17777C72.5661 9.8416 69.5425 12.3735 64.9351 11.7948C62.1995 11.4331 60.3997 8.68415 57.3761 8.53947C54.0646 8.39479 52.1928 10.6373 50.1771 12.3012C48.7373 9.26287 45.8577 7.30968 41.6103 7.59904C38.1548 7.81607 34.3393 9.76926 31.3157 10.8544C30.0919 11.2884 28.868 11.9395 27.9322 12.0118C25.0525 12.3012 24.6206 9.91394 23.1808 8.97351C22.1729 8.32245 20.9491 8.25011 19.1494 8.03309H15.1179C13.1742 8.10543 11.3744 8.25011 9.71864 8.61181C8.06287 8.97351 6.55107 9.69692 4.96729 9.55224C4.60734 9.40756 4.8953 8.75649 4.82331 8.39479V6.51394C7.48694 4.77777 6.19112 0.437342 3.16753 0.509682C1.00783 0.582023 -0.647949 2.82458 0.215934 4.85011C0.575884 5.71819 1.58375 6.15223 1.79972 6.94798C2.08768 8.10543 1.87171 9.69692 1.87171 11.0714C1.87171 12.5182 1.9437 13.8927 2.01569 15.1948V16.3522C2.15967 20.982 2.30365 25.6118 2.37564 30.3139C2.59161 30.4586 2.37564 30.8927 2.44763 31.182C2.44763 34.2203 2.6636 36.8969 2.59161 40.0076C2.80758 40.2246 2.59161 40.8033 2.6636 41.165C2.80758 43.6246 2.73559 46.2288 2.87957 48.6161V49.4841C2.87957 51.5097 3.02355 53.3905 3.02355 55.3437V56.7182C3.09554 60.0459 3.23952 63.3012 3.23952 66.7012C3.45549 66.8458 3.23952 67.3522 3.31151 67.6416C4.53535 67.7139 5.75918 67.7863 7.055 67.7139C6.98301 66.4118 6.83903 64.6033 6.91102 63.4459C8.5668 62.9395 10.8705 62.5778 12.7422 61.8544C14.614 61.131 16.4857 59.8288 18.7174 59.1054C21.525 58.165 28.0041 56.9352 29.3 59.6842C29.7319 60.5522 29.5159 62.0714 29.8759 62.7948C30.8118 64.3863 33.3314 64.1693 35.6351 63.8076C37.8668 63.4459 39.2346 62.7948 40.8904 62.0714C43.0501 61.131 45.2818 59.8288 47.6575 59.3224C50.3211 58.7437 55.0005 58.599 56.1523 60.5522C56.6562 61.348 56.4403 62.7948 57.3041 63.0118C58.024 63.1565 59.0319 62.2161 59.7518 61.8544C63.4233 59.9735 68.8226 58.7437 73.9339 59.1054C79.1892 59.4671 82.7167 62.0714 85.5963 64.8927C87.468 60.4076 89.2678 55.6331 89.1958 49.9182C89.1958 44.0586 87.2521 38.9948 85.8842 34.4373ZM7.34296 60.4076C6.62306 50.8586 6.19112 41.0927 5.75918 31.3267C5.54321 31.182 5.75918 30.748 5.68719 30.4586C5.54321 24.382 5.03928 18.1607 5.11127 12.0842C5.83117 12.6629 6.19112 13.6033 6.55107 14.399C8.42282 18.7395 10.0066 23.2246 11.2304 28.5778C12.5263 34.365 12.5982 43.1905 11.6624 49.6288C11.3744 51.799 10.8705 53.8246 10.1506 55.6331C9.43068 57.5139 8.71077 59.2501 7.34296 60.4076ZM32.4675 57.6586C32.1076 57.8756 31.5317 57.8756 31.0997 58.0927C31.3877 58.382 31.7476 58.599 32.2516 58.6714C31.8916 58.9607 31.2437 58.8884 30.8837 59.1778C31.0997 59.4671 31.6036 59.6118 31.9636 59.7565C31.6756 59.9735 31.1717 60.0458 30.8118 60.1905C30.2358 58.5267 29.8759 56.9352 28.796 55.9225C27.5722 54.765 25.0525 54.2586 22.8928 54.331C17.4216 54.4756 13.5341 57.8033 9.21471 59.0331C12.5982 53.1012 13.1022 43.3352 12.5982 34.0033C12.5263 32.6288 12.3823 31.2544 12.0943 29.9522C10.9425 23.8756 8.92675 18.4501 6.76704 13.8203C10.0786 12.6629 15.6938 11.1437 20.5892 11.5778C23.1088 11.7948 25.5565 12.7352 26.2764 14.8331C27.0683 15.1948 27.2123 15.7735 28.2201 15.9905C28.0041 16.2799 27.5722 16.2076 27.2842 16.4246C27.5722 16.6416 28.0041 16.8586 28.3641 17.0033C28.1481 17.148 27.8602 17.2203 27.6442 17.365C27.9321 17.582 28.2921 17.8714 28.724 17.9437C28.6521 18.3054 28.1481 18.1607 27.8602 18.3778C28.2201 18.6671 28.5081 18.8841 29.012 18.9565C28.868 19.2458 28.4361 19.2459 28.0761 19.3905C28.3641 19.7522 28.868 19.8969 29.4439 20.0416C29.228 20.2586 28.724 20.2586 28.4361 20.4756C28.724 20.8373 29.372 20.8373 29.5879 21.199C29.156 21.1267 29.012 21.4161 28.5801 21.4161C28.94 21.7054 29.3 21.9224 29.8039 22.0671C29.5159 22.2118 29.228 22.3565 28.868 22.4288C29.156 22.7905 29.6599 22.9352 30.0919 23.0799C28.796 23.4416 28.5081 22.1395 27.9322 21.3437C25.7005 18.3054 19.6533 18.9565 16.0538 20.2586C18.5734 27.565 19.0054 37.4033 19.0054 46.3012C20.0852 46.0118 21.0931 45.3607 22.1729 45.2161C25.9884 44.7097 28.796 46.7352 30.4518 48.6161C30.6678 50.2076 30.2358 52.4501 31.9636 52.5224C31.3157 52.9565 32.6115 52.9565 32.6835 53.4629C32.2516 53.4629 32.0356 53.7522 31.6036 53.6799C31.6756 54.1863 32.4675 54.0416 32.6115 54.548C32.1796 54.548 31.9636 54.765 31.6036 54.765C31.7476 55.199 32.3236 55.2714 32.6835 55.4161C32.3236 55.5607 31.8916 55.7054 31.4597 55.8501C31.7476 56.1395 32.1076 56.2841 32.5395 56.4288C32.2516 56.6459 31.7476 56.7182 31.3157 56.8629C31.5317 57.4416 32.1076 57.4416 32.4675 57.6586ZM30.9557 29.4459C30.9557 29.7352 30.5958 29.6629 30.4518 29.8076C30.6678 30.0969 31.1717 30.0969 31.3157 30.4586C31.2437 30.748 30.8838 30.6756 30.6678 30.8203C30.8838 31.182 31.3877 31.3267 31.7476 31.4714C31.5317 31.6884 31.0997 31.6884 30.8118 31.9054C31.0997 32.2671 31.6036 32.3395 31.9636 32.5565C31.6756 32.7012 31.2437 32.7735 30.9557 32.9182C31.3157 33.2076 31.6756 33.4246 32.1796 33.5693C31.8916 33.7863 31.3877 33.7863 31.0997 34.0033C31.4597 34.2927 31.8196 34.4373 32.2516 34.582C32.0356 34.799 31.5317 34.8714 31.1717 35.0161C31.4597 35.3054 31.8196 35.5224 32.3236 35.5948C32.1076 35.8842 31.6756 35.8842 31.3157 36.0288C31.5317 36.3905 32.0356 36.4629 32.3955 36.6799C32.1076 36.8246 31.6756 36.8969 31.3877 37.1139C31.7476 37.4033 32.0356 37.6203 32.5395 37.6927C32.1796 37.9097 31.7476 37.982 31.3877 38.1267C31.6037 38.4884 32.3236 38.4161 32.4675 38.8501C32.1076 38.8501 31.8916 39.0671 31.5317 39.0671C31.7476 39.4288 32.2516 39.5012 32.6115 39.7182C32.3955 39.9352 31.9636 40.0076 31.6036 40.0799C31.7476 40.5863 32.4675 40.5139 32.6835 40.948C32.2516 40.948 31.9636 41.165 31.6036 41.165C31.8916 41.4544 32.3236 41.6714 32.7555 41.8161C32.4675 42.0331 32.0356 42.1054 31.6756 42.2501C31.9636 42.5395 32.4675 42.6842 32.8275 42.9012C32.5395 43.1182 32.0356 43.1182 31.7476 43.3352C32.1076 43.6246 32.3955 43.8416 32.8995 43.9139C32.6835 44.2033 32.1796 44.2033 31.8196 44.348C32.0356 44.7097 32.5395 44.8544 32.9715 44.999C32.6835 45.2161 32.1796 45.2884 31.8196 45.4331C31.9636 45.6501 32.2516 45.7225 32.4675 45.8671C32.3955 46.1565 32.3236 46.5182 31.8916 46.4459C32.2516 46.9522 31.5317 47.4586 31.3877 47.965C31.1717 43.3352 27.6442 42.1778 23.3968 41.6714C23.6127 35.3054 22.3169 29.0118 21.3091 23.1522C25.5565 21.7054 28.6521 24.5267 29.9479 27.4203C29.8759 27.6373 30.1639 27.7097 29.8759 27.6373C30.1639 27.8544 30.3798 28.0714 30.4518 28.5054C30.5238 28.6501 30.3078 28.6501 30.2358 28.6501C30.5958 28.8671 30.8838 29.0842 30.9557 29.4459ZM56.9442 57.731C57.0882 57.8033 57.2322 57.8756 57.4481 57.8756C57.3761 58.2373 56.8722 58.0203 56.9442 57.731ZM57.8081 53.7522C57.5201 53.9693 57.0162 54.1139 56.6562 54.2586C56.9442 54.548 57.4481 54.6203 57.8081 54.8373C57.5201 55.0544 57.0882 55.1267 56.7282 55.2714C56.9442 55.6331 57.4481 55.7054 57.8801 55.8501C57.5201 56.1395 56.9442 56.2118 56.4403 56.3565C56.7282 56.6459 57.1602 56.7905 57.5921 56.9352C57.2322 57.0799 56.8722 57.2246 56.5123 57.3693C55.1444 56.2118 53.3447 55.4161 50.897 55.5607C44.4899 55.8501 40.0265 59.8288 34.0513 60.6969C33.6914 60.4076 33.1874 60.1905 32.6115 60.0459C32.9715 59.7565 33.5474 59.7565 34.0513 59.6118C33.6914 59.2501 33.2594 59.0331 32.6835 58.9607C33.1154 58.7437 33.8353 58.7437 34.2673 58.5267C33.9073 58.165 33.3314 58.165 33.0435 57.8033C33.6194 57.8756 33.9793 57.5863 34.4833 57.5863C34.1953 57.2969 33.6914 57.0799 33.2594 56.9352C33.6914 56.7905 34.1953 56.6459 34.6992 56.5735C34.5552 56.0671 33.8354 56.0671 33.4754 55.8501C33.8354 55.6331 34.3393 55.5607 34.8432 55.4884C34.5552 55.0544 33.8354 55.0544 33.4754 54.6203C34.0513 54.6203 34.4113 54.4756 34.9152 54.4033C34.4833 54.1139 34.0513 53.8969 33.4754 53.7522C33.8354 53.4629 34.4833 53.5352 34.9872 53.3182C34.5552 53.0288 34.1233 52.7395 33.5474 52.6671C33.9073 52.4501 34.4833 52.4501 34.9872 52.3054C35.1312 52.1607 34.6272 52.0161 34.4833 51.8714C34.6992 51.582 35.1312 51.4373 35.3471 51.148C35.3471 49.3395 35.4911 47.531 35.4191 45.6501C35.0592 45.9395 34.4833 45.4331 33.8354 45.2884C34.1953 45.0714 34.6992 44.999 35.2032 44.9267C34.8432 44.565 34.2673 44.4203 33.7634 44.2033C34.1233 44.0586 34.6992 43.9863 35.1312 43.8416C34.8432 43.5522 34.3393 43.3352 33.9073 43.1905C34.1953 42.9735 34.6272 42.9012 35.0592 42.8288C34.7712 42.3948 34.1953 42.2501 33.6194 42.1054C33.9793 41.8884 34.5552 41.8884 35.0592 41.7437C34.6992 41.382 34.1233 41.2373 33.6194 41.0203C33.9793 40.8756 34.5552 40.8033 34.9872 40.6586C34.6272 40.2969 34.1953 40.1522 33.6194 40.0076C33.9793 39.7905 34.4833 39.7905 34.8432 39.6459C34.4833 39.3565 34.0513 39.0671 33.4754 38.9948C33.6914 38.7054 34.2673 38.7778 34.6272 38.6331C34.4113 38.1267 33.8353 38.0544 33.4034 37.9097C33.6914 37.6927 34.2673 37.6927 34.6272 37.548C34.3393 37.1863 33.6194 37.1863 33.4034 36.6799C33.9073 36.7522 34.0513 36.4629 34.4833 36.5352C34.2673 36.1012 33.5474 36.1012 33.2594 35.6671C33.7634 35.7395 33.9073 35.4501 34.4113 35.5224C34.1233 35.0884 33.5474 34.9437 33.0435 34.799C33.4034 34.6544 33.9793 34.582 34.4113 34.4373C34.0513 34.148 33.5474 33.931 32.9715 33.7863C33.1874 33.4969 33.8353 33.5693 34.1233 33.3522C33.7634 33.0629 33.3314 32.8459 32.7555 32.7012C33.0435 32.4841 33.5474 32.4841 33.9793 32.3395C33.4754 32.0501 33.1154 31.7607 32.4675 31.6884C33.2594 31.399 33.7634 31.2544 34.2673 30.748C34.1233 28.0714 33.6194 25.7565 33.2594 23.2969C32.3236 23.3693 31.6037 23.8756 30.7398 23.3693C31.0277 23.0799 31.6756 23.1522 32.1076 22.9352C31.6756 22.6459 31.2437 22.4288 30.6678 22.2842C30.8838 22.0671 31.3877 22.1395 31.6756 21.9225C31.3157 21.5607 30.7398 21.4161 30.2358 21.2714C30.5958 21.1267 31.0997 20.982 31.6036 20.9097C31.1717 20.6203 30.6678 20.331 30.0919 20.1863C30.4518 20.0416 30.7398 19.8969 31.1717 19.9693C30.9557 19.4629 30.3798 19.3905 29.8039 19.2459C30.0199 19.0288 30.5238 19.0288 30.8837 18.8841C30.5238 18.5224 30.0919 18.3778 29.5159 18.2331C29.7319 17.9437 30.3078 18.0884 30.5958 17.8714C30.2358 17.582 29.7319 17.4373 29.372 17.2203C29.6599 17.0756 29.9479 17.0033 30.3078 17.0033C30.0199 16.5693 29.3 16.5693 28.94 16.1352C29.372 16.1352 29.5879 15.9905 30.0199 15.9905C29.8759 15.7735 29.5879 15.7012 29.372 15.5565C33.2594 14.2544 37.1469 11.7224 41.9702 11.1437C46.0737 10.6373 49.0973 12.2288 50.6091 14.9054C50.2491 14.9054 50.1771 15.1948 49.8892 15.1224C50.1051 15.5565 50.681 15.5565 51.041 15.7735C50.825 15.9182 50.5371 16.0629 50.1771 16.1352C50.3931 16.4969 50.897 16.6416 51.329 16.7139C51.113 16.931 50.753 16.931 50.4651 17.148C50.753 17.365 51.185 17.582 51.6169 17.6544C51.4729 17.9437 51.113 17.9437 50.753 18.0884C50.969 18.4501 51.4009 18.5948 51.9049 18.6671C51.7609 18.9565 51.4009 19.0288 51.041 19.1012C51.257 19.5352 51.9049 19.6076 52.4088 19.7522C52.1208 19.9693 51.6889 19.9693 51.4009 20.1863C51.7609 20.4756 52.1928 20.6203 52.6248 20.765C51.9049 21.2714 51.329 20.1863 50.6091 20.0416C49.3132 19.6799 46.6496 19.5352 44.8498 19.6799C42.1862 19.8969 39.6665 20.765 38.3707 21.8501C39.3066 26.5522 40.0985 31.3267 40.8904 36.1735C43.77 34.365 49.2412 33.2799 52.9127 35.0884C53.4167 37.765 53.2007 41.5267 53.2727 44.4203C50.4651 43.4799 47.2255 44.4203 44.4179 44.782C44.2019 43.6969 44.2739 42.3224 43.986 41.2373C42.8341 41.3097 42.1142 41.9608 41.0344 42.1778C41.1064 44.7097 40.8904 47.4586 41.1064 49.7735C45.2098 48.0373 53.4167 46.1565 57.2322 49.7735C57.0882 50.0629 56.6562 49.9905 56.5123 50.2076C56.8722 50.4969 57.3041 50.6416 57.7361 50.7863C57.3041 51.0033 56.8002 51.0756 56.3683 51.2927C56.6562 51.582 57.0882 51.6544 57.4481 51.8714C57.1602 52.0884 56.7282 52.1607 56.3683 52.3054C56.6562 52.5948 57.0162 52.8118 57.5201 52.8841C57.1602 53.1735 56.7282 53.2459 56.2963 53.3905C56.9442 53.4629 57.3761 53.6076 57.8081 53.7522ZM55.4324 29.8799C55.0005 29.8799 54.7845 30.0969 54.4245 30.2416C54.7125 30.531 55.2164 30.6756 55.6484 30.8203C55.2884 30.965 55.0005 31.182 54.5685 31.2544C54.9285 31.5437 55.3604 31.6884 55.9363 31.8331C55.1444 32.4118 54.3525 31.5437 53.4887 31.2544C51.113 30.3139 47.8014 30.1693 44.8498 31.0373C44.4899 28.4331 43.986 26.0459 43.77 23.2969C45.2818 22.9352 47.2255 22.5012 49.0253 22.7182C51.5449 23.0076 53.1287 24.4544 53.1287 27.348C54.0646 27.782 54.2086 28.5778 55.3604 28.7948C55.1444 29.0118 54.7125 29.0842 54.3525 29.2288C54.4245 29.5905 55.2164 29.4459 55.4324 29.8799ZM86.1002 61.348C82.5727 57.731 76.9575 54.765 69.3985 55.4884C65.655 55.8501 62.1275 57.1522 59.2479 58.4544C58.8159 58.382 58.528 58.165 58.096 58.0927C58.456 57.731 59.1759 57.8033 59.6798 57.5863C59.2479 57.3693 58.8879 57.1522 58.312 57.0076C58.672 56.7182 59.2479 56.7182 59.7518 56.5735C59.4638 56.2118 58.8879 56.1395 58.384 55.9225C58.8159 55.7054 59.3919 55.6331 59.8958 55.4884C59.6078 55.1267 59.0319 55.0544 58.528 54.9097C58.8159 54.548 59.5358 54.6927 59.8958 54.4033C59.5358 54.1139 59.0319 53.9693 58.456 53.8246C58.8159 53.5352 59.3919 53.5352 59.8958 53.3905C59.4638 53.1012 59.0319 52.8118 58.384 52.7395C58.8159 52.5224 59.3919 52.3778 59.9678 52.3054C59.5358 52.0161 59.1039 51.799 58.528 51.6544C58.8879 51.4373 59.4639 51.365 59.9678 51.2203C59.5358 51.0033 59.1039 50.7139 58.528 50.6416C58.8159 50.3522 59.4639 50.3522 59.9678 50.2076C59.7518 49.7735 59.1039 49.7012 58.6 49.5565C58.9599 49.2671 59.5358 49.2671 60.0398 49.1224C59.6078 48.8331 59.1039 48.6161 58.528 48.4714C58.8879 48.2544 59.3919 48.182 59.8958 48.1097C59.6078 47.748 59.1039 47.531 58.528 47.4586C58.8159 47.1693 59.3919 47.2416 59.7518 47.0246C59.4638 46.5905 58.672 46.6629 58.312 46.3012C58.8879 46.3012 59.3199 46.1565 59.7518 45.9395C59.3919 45.6501 58.9599 45.5054 58.528 45.3607C58.8159 45.0714 59.3919 45.0714 59.7518 44.9267C59.3919 44.565 58.7439 44.4927 58.24 44.2756C58.6 44.0586 59.0319 43.9863 59.6078 43.9139C59.3199 43.4799 58.672 43.3352 58.096 43.2629C58.384 42.9735 58.9599 42.9735 59.4638 42.8288C59.1759 42.3948 58.6 42.3225 58.024 42.1778C58.456 41.9608 58.9599 41.8884 59.4638 41.7437C59.1039 41.382 58.456 41.3097 57.9521 41.0927C58.312 40.948 58.8159 40.8033 59.3199 40.731C59.0319 40.2969 58.384 40.2246 57.8801 40.0799C58.24 39.8629 58.8159 39.7905 59.2479 39.6459C58.9599 39.2118 58.168 39.2842 57.8081 38.9225C58.312 38.9225 58.6 38.7054 59.0319 38.7054C58.672 38.3437 58.168 38.199 57.5921 38.0544C57.9521 37.9097 58.384 37.765 58.8159 37.6927C58.528 37.2586 57.8801 37.1863 57.3761 37.0416C57.7361 36.8246 58.24 36.7522 58.7439 36.6076C58.456 36.1735 57.6641 36.3182 57.3761 35.8842C57.8801 35.8842 58.096 35.6671 58.528 35.6671C58.24 35.3054 57.5921 35.2331 57.0882 35.0161C57.4481 34.8714 57.8081 34.7267 58.24 34.6544C58.024 34.2203 57.3761 34.2203 56.8722 34.0033C57.1602 33.7863 57.6641 33.7139 58.096 33.6416C57.8801 33.1352 57.0882 33.2799 56.8722 32.7735C57.3041 32.7735 57.5921 32.5565 57.9521 32.5565C57.5921 32.1948 56.9442 32.1224 56.4403 31.9054C56.8002 31.6884 57.3041 31.6884 57.5921 31.4714C57.1602 31.182 56.6562 30.965 56.0803 30.8927C56.4403 30.6756 57.0162 30.6756 57.3041 30.4586C56.9442 30.1693 56.5122 29.9522 55.9363 29.8799C56.2243 29.5905 56.8002 29.6629 57.1602 29.4459C56.8002 29.0842 56.1523 29.0118 55.6484 28.7948C56.0083 28.6501 56.5123 28.5778 56.8722 28.4331C56.5842 27.999 56.0083 27.8544 55.4324 27.782C55.7204 27.565 56.0803 27.4927 56.5123 27.4203C56.2243 27.0586 55.5764 26.9863 55.1444 26.7693C55.4324 26.5522 55.8643 26.4799 56.2963 26.4076C56.0803 25.9012 55.2164 26.0459 54.9285 25.5395C55.3604 25.6118 55.5044 25.3224 55.9363 25.3948C55.7204 24.8884 54.8565 25.0331 54.5685 24.5267C55.0005 24.5267 55.2164 24.3097 55.6484 24.3097C55.3604 23.8756 54.7125 23.8033 54.1366 23.6586C54.4245 23.4416 54.8565 23.4416 55.2884 23.2969C54.9285 22.9352 54.2806 22.7905 53.7766 22.6459C54.0646 22.3565 54.7125 22.4288 55.0005 22.2118C54.6405 21.9948 54.1366 21.7778 53.6326 21.6331C53.7766 21.4161 54.2086 21.4161 54.5685 21.2714C54.2806 20.8373 53.7046 20.765 53.1287 20.6203C53.4887 20.4033 53.9206 20.331 54.3525 20.1863C53.9206 19.8969 53.3447 19.6799 52.7688 19.5352C53.0567 19.3182 53.5606 19.3182 53.9206 19.1735C53.5606 18.8118 52.9847 18.6671 52.4088 18.5224C52.6968 18.3054 53.2007 18.3054 53.5606 18.1607C53.2727 17.799 52.6968 17.7267 52.1928 17.5097C52.4808 17.2927 52.9127 17.2927 53.2727 17.148C52.9127 16.8586 52.4808 16.7139 51.9049 16.5693C52.1208 16.3522 52.5528 16.3522 52.8407 16.2076C52.4808 15.8459 51.9049 15.7012 51.4009 15.5565C51.7609 15.4118 52.1208 15.3395 52.4808 15.1948C52.3368 15.0501 52.1928 14.9778 51.9769 14.8331C52.9127 13.1693 55.0005 11.2884 57.9521 12.0842C60.2557 12.6629 61.6236 14.6884 64.2872 14.9054C64.7911 14.9778 65.367 14.9054 65.871 14.9054C71.4142 14.5437 75.3737 11.6501 79.4051 9.19053C79.5491 9.19053 79.5491 9.26287 79.5491 9.33522C78.6852 16.4969 80.629 23.0799 82.3567 28.7224C83.7245 32.9905 85.4523 37.2586 86.4602 41.599C88.6199 47.531 88.9798 56.3565 86.1002 61.348Z" fill="#0D2237"/>
<path d="M56.7283 52.0882C57.0883 51.9436 57.5202 51.8712 57.8082 51.6542C57.4482 51.4372 57.0163 51.3648 56.7283 51.0755C57.0883 50.8585 57.6642 50.7861 58.0961 50.5691C57.5922 50.4244 57.1602 50.2797 56.8723 49.9904C57.0883 49.7733 57.5202 49.8457 57.5922 49.5563C53.7767 45.9393 45.5698 47.8202 41.4664 49.5563C41.2504 47.1691 41.4664 44.4202 41.3944 41.9606C42.4743 41.7436 43.1222 41.1648 44.346 41.0202C44.634 42.0329 44.562 43.4074 44.7779 44.5648C47.5856 44.2031 50.8251 43.2627 53.6327 44.2031C53.5607 41.3819 53.7767 37.5478 53.2728 34.8712C49.6013 33.0627 44.13 34.1478 41.2504 35.9563C40.5305 31.1095 39.6666 26.2627 38.7308 21.6329C40.0266 20.5478 42.6182 19.6797 45.2099 19.4627C47.0096 19.318 49.6733 19.3904 50.9691 19.8244C51.689 20.0414 52.2649 21.0542 52.9848 20.5478C52.5529 20.3308 52.1209 20.1861 51.761 19.9691C52.0489 19.7521 52.4809 19.7521 52.7688 19.5351C52.2649 19.318 51.689 19.318 51.401 18.884C51.761 18.8116 52.1209 18.7393 52.2649 18.4499C51.761 18.3776 51.329 18.2329 51.1131 17.8712C51.401 17.7265 51.833 17.7265 51.977 17.4372C51.545 17.3648 51.1131 17.1478 50.8251 16.9308C51.0411 16.7861 51.473 16.7138 51.689 16.4968C51.1851 16.4244 50.7531 16.2797 50.5371 15.918C50.8251 15.8457 51.1851 15.7734 51.401 15.5563C51.0411 15.3393 50.4652 15.267 50.2492 14.9053C50.6091 14.9053 50.6811 14.6159 50.9691 14.6882C49.3853 12.0117 46.3617 10.4202 42.3303 10.9265C37.5069 11.5053 33.6195 14.0372 29.732 15.3393C29.948 15.484 30.3079 15.484 30.3799 15.7734C29.948 15.7734 29.732 15.918 29.3 15.918C29.66 16.2797 30.3799 16.3521 30.6679 16.7861C30.3079 16.8585 30.0199 16.9308 29.732 17.0031C30.1639 17.2202 30.5959 17.3648 30.9558 17.6542C30.6679 17.7989 30.0919 17.7265 29.876 18.0159C30.3799 18.1606 30.8838 18.3776 31.2438 18.667C30.8838 18.8117 30.3799 18.7393 30.1639 19.0287C30.6679 19.2457 31.2438 19.318 31.5317 19.7521C31.0998 19.7521 30.8118 19.8968 30.4519 19.9691C31.0278 20.1861 31.5317 20.4031 31.9637 20.6925C31.4598 20.7648 31.0278 20.8372 30.5959 21.0542C31.0998 21.2712 31.6757 21.4159 32.0357 21.7053C31.8197 21.9223 31.2438 21.8499 31.0278 22.067C31.6037 22.2117 32.0357 22.4287 32.4676 22.718C32.1077 22.9351 31.4598 22.8627 31.0998 23.1521C31.9637 23.6585 32.6836 23.1521 33.6195 23.0797C33.9794 25.5393 34.4833 27.8542 34.6273 30.5308C34.0514 31.0372 33.6195 31.1819 32.7556 31.4712C33.3315 31.6159 33.7634 31.9053 34.2674 32.1223C33.8354 32.1946 33.3315 32.267 33.0435 32.484C33.5475 32.6287 33.9794 32.8457 34.4113 33.1351C34.1234 33.3521 33.4755 33.2797 33.2595 33.5691C33.8354 33.7138 34.2674 33.9308 34.6993 34.2202C34.2674 34.3648 33.7634 34.3648 33.3315 34.5819C33.8354 34.7989 34.4114 34.8712 34.6993 35.3053C34.1954 35.2329 34.0514 35.5223 33.5475 35.4499C33.8354 35.884 34.5553 35.8116 34.7713 36.318C34.3394 36.318 34.1954 36.5351 33.6914 36.4627C33.9074 36.8968 34.6273 36.8968 34.9153 37.3308C34.5553 37.4755 33.9794 37.4031 33.6914 37.6925C34.1234 37.9095 34.7713 37.9819 34.9153 38.4159C34.5553 38.5606 33.9074 38.4159 33.7634 38.7776C34.3394 38.8499 34.7713 39.1393 35.1313 39.4287C34.6993 39.5734 34.1954 39.5734 33.9074 39.7904C34.4114 39.9351 34.9153 40.1521 35.2752 40.4414C34.8433 40.5861 34.3394 40.5861 33.9074 40.8031C34.4114 41.0202 34.9873 41.1648 35.3472 41.5265C34.9153 41.6712 34.2674 41.5989 33.9074 41.8882C34.4833 42.0329 35.0593 42.1776 35.3472 42.6117C34.9153 42.684 34.4114 42.684 34.1954 42.9734C34.6273 43.1904 35.1313 43.3351 35.4192 43.6244C34.9873 43.7691 34.4833 43.7691 34.0514 43.9861C34.5553 44.2031 35.1313 44.3478 35.4912 44.7095C34.9873 44.7819 34.4833 44.8542 34.1234 45.0712C34.7713 45.2159 35.3472 45.6499 35.7072 45.4329C35.7792 47.3861 35.6352 49.1223 35.6352 50.9308C35.4912 51.2925 34.9873 51.3648 34.7713 51.6542C34.9153 51.7265 35.4192 51.9436 35.2752 52.0882C34.8433 52.2329 34.2674 52.2329 33.8354 52.4499C34.4114 52.5223 34.8433 52.8116 35.2752 53.101C34.8433 53.2457 34.1234 53.2457 33.7634 53.5351C34.3394 53.6797 34.7713 53.8968 35.2032 54.1861C34.7713 54.2585 34.3394 54.4755 33.7634 54.4031C34.0514 54.8372 34.8433 54.7648 35.1313 55.2712C34.6273 55.3436 34.1234 55.4159 33.7634 55.6329C34.1234 55.9223 34.8433 55.8499 34.9873 56.3563C34.4833 56.4287 33.9794 56.501 33.5475 56.718C33.9794 56.9351 34.4833 57.0797 34.7713 57.3691C34.2674 57.4414 33.9794 57.6585 33.3315 57.5861C33.6195 57.9478 34.2674 58.0202 34.5553 58.3095C34.1234 58.5265 33.4035 58.5265 32.9715 58.7436C33.5475 58.8882 33.9794 59.1053 34.3394 59.3946C33.8354 59.5393 33.2595 59.5393 32.8996 59.8287C33.4755 59.9734 33.9074 60.1904 34.3394 60.4797C40.3145 59.6117 44.7779 55.6329 51.1851 55.3436C53.6327 55.2712 55.4325 55.9946 56.8003 57.2244C57.1602 57.0797 57.5202 57.0074 57.8801 56.7904C57.4482 56.6457 57.0163 56.501 56.7283 56.2116C57.2322 56.067 57.8082 55.9946 58.1681 55.7053C57.7362 55.5606 57.2322 55.4882 57.0163 55.1265C57.4482 55.0542 57.8082 54.9095 58.0961 54.6925C57.7362 54.4755 57.2322 54.4031 56.9443 54.1138C57.3762 53.9691 57.8082 53.8244 58.0961 53.6074C57.5922 53.5351 57.2322 53.318 56.9443 53.0287C57.3762 52.884 57.8801 52.8116 58.1681 52.5223C57.4482 52.5223 57.0163 52.3776 56.7283 52.0882Z" fill="#808B95"/>
<path d="M31.5317 55.9949C31.9637 55.8502 32.3956 55.7779 32.7556 55.5609C32.3956 55.3439 31.8197 55.3439 31.6757 54.9098C32.0357 54.8375 32.2516 54.6204 32.6836 54.6928C32.5396 54.2587 31.7477 54.4034 31.6757 53.8247C32.1077 53.8247 32.3236 53.5353 32.7556 53.6077C32.6836 53.1013 31.3158 53.1013 32.0357 52.6673C30.3079 52.5949 30.7398 50.3524 30.5239 48.7609C28.9401 46.88 26.1325 44.7821 22.245 45.3609C21.1652 45.5056 20.1573 46.1566 19.0774 46.446C19.0774 37.4758 18.6455 27.6375 16.1258 20.4034C19.6534 19.1013 25.7005 18.4502 28.0042 21.4885C28.5801 22.2843 28.8681 23.5864 30.1639 23.2247C29.732 23.08 29.2281 22.9353 28.9401 22.5736C29.3 22.5013 29.588 22.3566 29.876 22.2119C29.372 22.0673 28.9401 21.8502 28.6521 21.5609C29.0841 21.5609 29.1561 21.2715 29.66 21.3439C29.444 20.9098 28.7961 20.9821 28.5082 20.6204C28.7961 20.4034 29.2281 20.4034 29.516 20.1864C29.0121 20.0417 28.5082 19.897 28.1482 19.5353C28.4362 19.3907 28.9401 19.3907 29.0841 19.1013C28.5801 19.029 28.2202 18.7396 27.9322 18.5226C28.1482 18.3056 28.6521 18.4502 28.7961 18.0885C28.3642 18.0162 28.0042 17.7268 27.7163 17.5098C27.9322 17.3651 28.2922 17.3651 28.4362 17.1481C28.0762 17.0034 27.6443 16.7864 27.3563 16.5694C27.5723 16.3524 28.0762 16.4247 28.2922 16.1353C27.2843 15.9183 27.1403 15.3396 26.3484 14.9779C25.6285 12.88 23.1809 11.9396 20.6612 11.7226C15.6939 11.3609 10.1507 12.8077 6.83911 13.9651C8.99882 18.5949 11.0145 24.0204 12.2384 30.0247C12.5263 31.2545 12.6703 32.7013 12.7423 34.0758C13.2462 43.48 12.7423 53.246 9.35877 59.1056C13.6782 57.8758 17.5656 54.5481 23.0369 54.4034C25.2686 54.3311 27.7163 54.8375 28.9401 55.9949C30.0199 57.0077 30.3079 58.5992 30.9558 60.263C31.3158 60.1183 31.8197 60.046 32.1077 59.829C31.7477 59.6119 31.2438 59.5396 31.0278 59.2502C31.3878 58.9609 32.0357 59.0332 32.3956 58.7439C31.8917 58.6715 31.5317 58.4545 31.2438 58.1651C31.6757 57.9481 32.1796 57.9481 32.6116 57.7311C32.2516 57.5141 31.6757 57.5141 31.5317 57.08C31.9637 56.9353 32.4676 56.9353 32.7556 56.646C32.2516 56.429 31.8197 56.2843 31.5317 55.9949Z" fill="#808B95"/>
<path d="M53.0567 27.2759C53.0567 24.3822 51.5449 22.9354 48.9533 22.6461C47.1535 22.429 45.2098 22.8631 43.698 23.2248C43.914 25.9014 44.4899 28.361 44.7779 30.9652C47.7294 30.1695 51.041 30.2418 53.4887 31.1822C54.2806 31.4716 55.1444 32.3397 55.9363 31.761C55.4324 31.6163 54.9285 31.4716 54.5685 31.1822C55.0005 31.1099 55.2884 30.9652 55.6484 30.7482C55.2164 30.6035 54.7125 30.4588 54.4245 30.1695C54.7845 30.0248 55.0005 29.8078 55.4324 29.8078C55.2164 29.3737 54.4965 29.5184 54.3525 29.0844C54.7125 28.9397 55.1444 28.8673 55.3604 28.6503C54.1366 28.4333 54.0646 27.7099 53.0567 27.2759Z" fill="#808B95"/>
<path d="M30.6679 28.5063C30.5959 28.1446 30.3799 27.8552 30.092 27.6382C30.3799 27.6382 30.092 27.5658 30.164 27.4212C28.8681 24.5275 25.7726 21.7063 21.5251 23.1531C22.533 29.0126 23.8288 35.3063 23.6129 41.6722C27.8603 42.1786 31.4598 43.336 31.6038 47.9658C31.7478 47.4594 32.4677 46.9531 32.1077 46.4467C32.5396 46.4467 32.6116 46.1573 32.6836 45.868C32.4677 45.7233 32.1077 45.7233 32.0357 45.4339C32.4677 45.2892 32.8996 45.2169 33.1876 44.9999C32.7556 44.7828 32.2517 44.7105 32.0357 44.3488C32.3957 44.2041 32.8996 44.2041 33.1156 43.9148C32.6116 43.8424 32.2517 43.5531 31.9637 43.336C32.2517 43.119 32.7556 43.119 33.0436 42.902C32.6836 42.685 32.1797 42.5403 31.8917 42.2509C32.2517 42.1063 32.6836 42.0339 32.9716 41.8169C32.5396 41.6722 32.1077 41.4552 31.8197 41.1658C32.2517 41.0935 32.4677 40.9488 32.8996 40.9488C32.6836 40.5148 31.9637 40.5871 31.8197 40.0807C32.1797 40.0084 32.6116 40.0084 32.8276 39.719C32.4677 39.502 31.9637 39.4297 31.7478 39.068C32.1077 39.068 32.3237 38.8509 32.6836 38.8509C32.5396 38.4169 31.8197 38.4892 31.6038 38.1275C32.0357 37.9828 32.4677 37.9105 32.7556 37.6935C32.2517 37.6211 31.8917 37.3318 31.6038 37.1148C31.8917 36.9701 32.3237 36.8254 32.6116 36.6807C32.2517 36.4637 31.7478 36.3914 31.5318 36.0297C31.8917 35.885 32.3237 35.885 32.5396 35.5956C32.0357 35.5233 31.6758 35.3063 31.3878 35.0169C31.7478 34.8722 32.2517 34.8722 32.4677 34.5829C32.0357 34.4382 31.6038 34.2211 31.3158 34.0041C31.6038 33.7871 32.1077 33.7871 32.3957 33.5701C31.8917 33.4254 31.4598 33.2084 31.1718 32.919C31.4598 32.7743 31.8917 32.7743 32.1797 32.5573C31.8197 32.3403 31.3158 32.1956 31.0279 31.9063C31.2438 31.6892 31.7478 31.6892 31.9637 31.4722C31.6038 31.2552 31.0998 31.1829 30.8839 30.8211C31.0998 30.6765 31.5318 30.7488 31.5318 30.4594C31.4598 30.0254 30.8839 30.0977 30.6679 29.8084C30.8119 29.6637 31.1718 29.8084 31.1718 29.4467C31.0998 29.085 30.8119 28.9403 30.5959 28.7233C30.5239 28.6509 30.6679 28.6509 30.6679 28.5063Z" fill="#808B95"/>
<path d="M57.4482 57.9484C57.2322 57.9484 57.0883 57.8761 56.9443 57.8037C56.8723 58.0207 57.3762 58.2378 57.4482 57.9484Z" fill="white"/>
<path d="M83.2207 28.7225C81.4209 23.08 79.5492 16.497 80.413 9.3353C80.413 9.26296 80.4131 9.11827 80.2691 9.19061C76.3096 11.6502 72.3502 14.5438 66.7349 14.9055C66.231 14.9055 65.6551 14.9778 65.1511 14.9055C62.4875 14.6161 61.1197 12.663 58.816 12.0842C55.7924 11.2885 53.7047 13.1693 52.8408 14.8332C53.0568 14.9055 53.2008 15.0502 53.3447 15.1949C52.9848 15.2672 52.6248 15.4119 52.2649 15.5566C52.7688 15.7736 53.3447 15.8459 53.7047 16.2076C53.4167 16.3523 52.9848 16.3523 52.7688 16.5693C53.2728 16.714 53.7767 16.8587 54.1366 17.1481C53.7767 17.2204 53.3447 17.2927 53.0568 17.5098C53.4887 17.7268 54.1366 17.7991 54.4246 18.1608C54.0646 18.3055 53.5607 18.3055 53.2728 18.5225C53.8487 18.6672 54.4246 18.8119 54.7845 19.1736C54.4246 19.3183 53.9207 19.3183 53.6327 19.5353C54.2086 19.68 54.7845 19.897 55.2165 20.1864C54.7845 20.331 54.3526 20.4034 53.9927 20.6204C54.4966 20.7651 55.1445 20.8374 55.4325 21.2715C55.1445 21.3438 54.7126 21.3438 54.4966 21.6332C55.0005 21.7778 55.4325 21.9949 55.8644 22.2119C55.5044 22.4289 54.9285 22.3566 54.6406 22.6459C55.1445 22.863 55.7924 22.9353 56.1524 23.297C55.7204 23.3693 55.2885 23.4417 55.0005 23.6587C55.5764 23.8034 56.1524 23.9481 56.5123 24.3098C56.0804 24.3098 55.8644 24.5268 55.4325 24.5268C55.7204 24.9608 56.5123 24.8885 56.8003 25.3949C56.3683 25.3225 56.2244 25.6119 55.7924 25.5396C56.0804 25.9736 56.8723 25.9013 57.1602 26.4076C56.6563 26.4076 56.2963 26.5523 56.0084 26.7693C56.4403 27.0587 57.0882 27.0587 57.3762 27.4204C56.9443 27.4927 56.5843 27.5651 56.2963 27.7821C56.8723 27.9268 57.4482 28.0715 57.7361 28.4332C57.3042 28.5779 56.8723 28.5779 56.5123 28.7949C57.0162 29.0119 57.6642 29.0842 58.0241 29.4459C57.6642 29.5906 57.0162 29.5906 56.8003 29.88C57.3042 30.0247 57.7361 30.1693 58.1681 30.4587C57.8081 30.6757 57.2322 30.6757 56.9442 30.8927C57.5202 30.9651 58.0241 31.1821 58.456 31.4715C58.1681 31.6885 57.5922 31.6885 57.3042 31.9055C57.8081 32.1225 58.456 32.1949 58.816 32.5566C58.3841 32.6289 58.1681 32.7736 57.7361 32.7736C57.9521 33.28 58.816 33.1353 58.96 33.6417C58.456 33.714 58.0241 33.7864 57.7361 34.0034C58.1681 34.2204 58.816 34.2204 59.104 34.6544C58.672 34.7268 58.3121 34.8715 57.9521 35.0161C58.3841 35.2332 59.032 35.3055 59.3919 35.6672C58.96 35.7396 58.672 35.9566 58.2401 35.8842C58.456 36.3183 59.2479 36.2459 59.6079 36.6076C59.176 36.7523 58.6 36.8247 58.2401 37.0417C58.744 37.2587 59.3919 37.2587 59.6799 37.6927C59.2479 37.7651 58.816 37.9098 58.456 38.0544C58.96 38.1991 59.5359 38.4161 59.8958 38.7055C59.4639 38.7779 59.176 38.9225 58.672 38.9225C59.032 39.2842 59.7519 39.2842 60.1118 39.6459C59.6799 39.7906 59.104 39.863 58.744 40.08C59.2479 40.297 59.8958 40.297 60.1838 40.731C59.6799 40.8034 59.2479 40.8757 58.816 41.0927C59.3199 41.3098 59.9678 41.3821 60.3278 41.7438C59.8239 41.8885 59.3199 41.9608 58.888 42.1779C59.3919 42.3225 60.0398 42.3949 60.3278 42.8289C59.8959 42.9736 59.3199 42.9736 58.96 43.263C59.5359 43.4076 60.1838 43.5523 60.4718 43.914C59.9678 43.9864 59.5359 44.0587 59.104 44.2757C59.6079 44.4927 60.2558 44.5651 60.6158 44.9268C60.1838 45.0715 59.6799 45.0715 59.3919 45.3608C59.8959 45.5055 60.3278 45.6502 60.6158 45.9396C60.1838 46.0842 59.7519 46.3013 59.1759 46.3013C59.4639 46.7353 60.3278 46.5906 60.6158 47.0247C60.2558 47.2417 59.6079 47.1693 59.3919 47.4587C59.9678 47.531 60.3998 47.7481 60.7597 48.1098C60.2558 48.1821 59.8239 48.2544 59.3919 48.4715C59.9678 48.6161 60.4718 48.8332 60.9037 49.1225C60.3998 49.2672 59.8239 49.2672 59.4639 49.5566C59.9678 49.7736 60.5438 49.7736 60.8317 50.2076C60.3278 50.28 59.7519 50.3523 59.3919 50.6417C59.9678 50.714 60.3998 51.0034 60.8317 51.2204C60.3998 51.3651 59.8239 51.4374 59.3919 51.6544C59.8959 51.7991 60.3998 52.0162 60.8317 52.3055C60.2558 52.3779 59.6799 52.5225 59.2479 52.7396C59.8239 52.8842 60.3278 53.1013 60.7597 53.3906C60.2558 53.5353 59.6799 53.5353 59.3199 53.8247C59.8958 53.9693 60.3278 54.114 60.7597 54.4034C60.3998 54.6927 59.6799 54.5481 59.3919 54.9098C59.8959 55.0544 60.3998 55.1268 60.7597 55.4885C60.2558 55.6332 59.6799 55.7055 59.2479 55.9225C59.6799 56.1396 60.2558 56.2119 60.6158 56.5736C60.1118 56.7183 59.5359 56.7183 59.1759 57.0076C59.6799 57.1523 60.1118 57.3693 60.5438 57.5864C60.0398 57.8034 59.3199 57.731 58.96 58.0927C59.4639 58.0927 59.6799 58.3821 60.1118 58.4544C63.0634 57.1523 66.5189 55.8502 70.2624 55.4885C77.8214 54.7651 83.4366 57.8034 86.9642 61.3481C89.8438 56.3566 89.4838 47.531 88.116 41.6715C86.2443 37.2587 84.5165 32.9906 83.2207 28.7225ZM77.5334 48.1098C76.4536 41.8885 75.4457 35.5949 74.0059 29.7353C72.8541 32.2672 71.9182 35.0885 70.6944 37.5481C68.6067 35.0161 66.8069 32.2672 64.7192 29.7353C65.4391 35.6672 66.375 41.8885 66.8069 47.8204C65.2231 48.1098 63.8553 48.6161 62.1276 48.8332C61.4076 39.7183 60.8317 30.314 58.816 21.9225C59.7519 21.7055 61.0477 21.7778 62.1995 21.7778C65.0071 24.8161 67.3828 28.3608 70.1185 31.4715C71.0543 28.7225 72.0622 25.6119 72.4221 22.5736C73.646 22.3566 74.7978 22.0672 75.8057 21.6332C78.3253 30.1693 80.917 39.5013 81.4929 49.4842C79.9811 49.1225 79.0452 48.3991 77.5334 48.1098Z" fill="#808B95"/>
<path d="M122.455 26.2622L122.023 27.3473C121.807 27.9261 121.519 28.3601 121.303 28.7218C121.087 29.0835 120.728 29.4452 120.296 29.8069C119.504 30.458 118.712 30.9644 117.92 31.2537C117.128 31.5431 116.12 31.6878 115.112 31.6878C111.873 31.6878 109.425 30.6027 107.769 28.5048C106.258 26.6239 105.538 24.092 105.538 21.0537C105.538 17.7984 106.186 15.0495 107.481 13.0239C109.065 10.5644 111.441 9.33458 114.608 9.33458C116.408 9.33458 117.92 9.69628 119.072 10.492C120.224 11.2878 121.015 12.3729 121.231 13.7473L121.447 15.1218H122.599V9.69628L122.527 9.62394C121.447 8.90054 120.008 8.39415 118.28 8.10479C117.2 7.88777 115.904 7.81543 114.536 7.81543C110.721 7.81543 107.553 9.11756 104.962 11.6495C102.37 14.1814 101.074 17.3644 101.074 21.0537C101.074 24.5984 102.226 27.5644 104.53 29.7346C106.905 32.0495 110.289 33.2069 114.536 33.2069C115.688 33.2069 116.984 33.0622 118.496 32.8452C119.936 32.5559 121.231 32.1942 122.383 31.6878H122.455L123.751 26.3346H122.455V26.2622Z" fill="#0D2237"/>
<path d="M147.652 11.0708C145.348 8.90061 142.397 7.74316 138.797 7.74316C135.558 7.74316 132.678 8.97295 130.23 11.5049C127.639 14.1091 126.343 17.2921 126.343 20.8368C126.343 24.4538 127.639 27.4921 130.158 29.8793C132.534 32.0495 135.342 33.207 138.581 33.207C141.965 33.207 144.988 31.9049 147.508 29.3006C150.028 26.6964 151.323 23.5857 151.323 20.1857C151.251 16.424 150.028 13.3857 147.652 11.0708ZM138.437 9.26231C141.101 9.26231 143.26 10.4921 144.844 12.8793C146.212 14.9772 146.932 17.3644 146.932 20.1134C146.932 23.7304 146.284 26.5517 144.988 28.5772C143.62 30.6751 141.533 31.7602 138.725 31.7602C136.421 31.7602 134.478 30.6027 132.894 28.2155C131.382 25.973 130.59 23.3687 130.59 20.5474C130.59 17.2198 131.238 14.5432 132.534 12.5176C133.902 10.3474 135.917 9.26231 138.437 9.26231Z" fill="#0D2237"/>
<path d="M170.761 26.1172L170.185 27.7087C170.041 28.1427 169.753 28.5768 169.537 29.0831C169.177 29.7342 168.745 30.2406 168.241 30.5299C167.809 30.8193 167.305 31.0363 166.873 31.1087C166.441 31.181 165.865 31.2534 165.217 31.2534H162.842C161.906 31.2534 161.186 31.0363 160.754 30.6746C160.538 30.4576 160.394 30.2406 160.322 29.9512C160.25 29.7342 160.25 29.3002 160.25 28.7938V10.998C160.25 10.8534 160.25 10.6363 160.322 10.4917C160.322 10.347 160.394 10.2023 160.538 9.98527C160.682 9.84059 160.826 9.69591 161.042 9.62357C161.258 9.55123 161.546 9.47888 161.834 9.47888L163.274 9.40655V8.17676H153.627V9.40655L154.851 9.47888C155.211 9.47888 155.499 9.55123 155.787 9.62357C156.075 9.69591 156.219 9.84059 156.363 10.0576C156.435 10.2023 156.507 10.347 156.579 10.4193C156.579 10.564 156.651 10.7087 156.651 10.8534V28.9385C156.651 29.3725 156.651 29.8065 156.579 30.1682C156.507 30.5299 156.435 30.747 156.291 30.8916C156.147 31.0363 156.003 31.1087 155.787 31.181C155.571 31.2534 155.283 31.3257 154.923 31.3257L153.627 31.4704V32.6278H170.905L171.984 26.0448L170.761 26.1172Z" fill="#0D2237"/>
<path d="M189.334 8.17683V9.40662H189.982C190.414 9.40662 190.774 9.47896 191.062 9.5513C191.35 9.62364 191.638 9.84066 191.854 10.0577C192.142 10.2747 192.286 10.5641 192.358 10.8534C192.43 11.1428 192.502 11.5045 192.502 12.0109V23.5853C192.502 25.6832 191.854 27.4194 190.63 28.8662C189.334 30.3853 187.606 31.1087 185.447 31.1087C183.359 31.1087 181.775 30.4577 180.623 29.0832C179.616 27.9258 179.184 26.3343 179.184 24.3811V10.9981C179.184 10.8534 179.184 10.6364 179.256 10.4917C179.256 10.347 179.328 10.2024 179.4 10.0577C179.544 9.84066 179.688 9.69598 179.904 9.62364C180.12 9.5513 180.335 9.47896 180.695 9.47896L182.135 9.40662V8.17683H172.561V9.40662L173.784 9.47896C174.144 9.47896 174.432 9.5513 174.72 9.62364C175.008 9.69598 175.152 9.84066 175.296 10.0577C175.368 10.2024 175.44 10.347 175.512 10.4194C175.512 10.5641 175.584 10.7087 175.584 10.8534V24.3811C175.584 27.0577 176.448 29.2279 178.248 30.747C179.976 32.2662 182.351 33.0619 185.231 33.0619C187.966 33.0619 190.27 32.1215 191.998 30.313C193.726 28.5045 194.59 26.1896 194.59 23.5853V12.0109C194.59 11.7215 194.662 11.4322 194.734 10.9981C194.806 10.6364 194.949 10.2747 195.165 10.0577C195.453 9.76832 195.741 9.5513 196.029 9.47896C196.317 9.40662 196.749 9.33428 197.253 9.33428H197.829V8.10449H189.334V8.17683Z" fill="#0D2237"/>
<path d="M228.929 11.5768C229.001 11.1427 229.217 10.7087 229.505 10.347C229.721 10.1299 229.937 9.91293 230.297 9.69591C230.656 9.47889 231.016 9.40655 231.376 9.40655H232.168V8.17676H226.121L216.186 27.4193L206.972 8.17676H200.349V9.40655H200.493C200.853 9.40655 201.284 9.47889 201.572 9.62357C201.932 9.76825 202.292 9.98527 202.652 10.2746C203.3 10.7087 203.876 11.3597 204.236 12.0831V28.7214C204.236 29.2278 204.236 29.5895 204.164 29.8789C204.092 30.1683 203.948 30.3853 203.732 30.6746C203.228 31.3257 202.58 31.6874 201.716 31.6874H201.069V32.8448H209.203V31.6874H208.699C207.62 31.6874 206.828 31.2534 206.324 30.3853C206.18 30.0959 206.036 29.8065 206.036 29.5172C206.036 29.2278 206.036 29.0108 206.036 28.7938V14.5427L214.819 32.9172H215.539L225.041 14.6874V30.0236C225.041 30.53 224.897 30.8917 224.681 31.1087C224.249 31.4704 223.673 31.6151 223.026 31.6151H222.234V32.7725H231.736V31.6151L230.441 31.4704C230.153 31.4704 229.937 31.398 229.649 31.3257C229.433 31.2534 229.217 31.181 229.073 30.964C228.857 30.747 228.785 30.6023 228.785 30.4576C228.713 30.3129 228.713 30.0959 228.713 29.8789V13.2406C228.785 12.5895 228.785 12.0108 228.929 11.5768Z" fill="#0D2237"/>
<path d="M252.829 21.2705C251.894 20.4747 250.598 19.8236 248.942 19.5343L248.366 19.3896L248.654 19.2449C249.95 18.7385 251.03 17.9428 251.75 17.0024C252.541 15.9896 252.901 14.9045 252.901 13.6024C252.901 13.53 252.901 13.3853 252.901 13.2407C252.901 13.096 252.901 12.9513 252.829 12.8066C252.613 11.1428 251.822 9.913 250.454 9.11726C249.302 8.46619 247.862 8.10449 246.062 8.10449H235.768V9.40662H236.992C237.352 9.40662 237.64 9.47896 237.927 9.5513C238.143 9.62364 238.359 9.76832 238.575 10.0577C238.719 10.2747 238.791 10.5641 238.791 10.8534V29.4449C238.791 29.8066 238.791 30.096 238.719 30.313C238.647 30.53 238.575 30.747 238.431 30.8917C238.215 31.1087 238.071 31.2534 237.927 31.3258C237.783 31.3981 237.496 31.4704 237.136 31.4704L235.696 31.6151V32.7726H246.062C248.366 32.7726 250.382 32.1939 251.894 30.9641C253.621 29.6619 254.485 27.7811 254.485 25.3939C254.485 23.6577 253.909 22.2832 252.829 21.2705ZM243.183 30.6747C242.823 30.313 242.607 29.9513 242.463 29.5173C242.463 29.4449 242.391 29.0832 242.391 27.9981V20.6917H245.198C245.558 20.6917 246.134 20.8364 246.854 21.0534C247.574 21.2704 248.078 21.5598 248.51 21.9939C249.014 22.5002 249.446 23.1513 249.734 23.8747C250.022 24.5981 250.166 25.3939 250.166 26.1896C250.166 27.5641 249.806 28.7215 249.158 29.7343C248.51 30.747 247.646 31.2534 246.566 31.2534H245.126C244.695 31.2534 244.335 31.1811 243.975 31.1087C243.687 31.0364 243.399 30.8917 243.183 30.6747ZM249.158 14.5428C249.158 15.3385 249.014 16.0619 248.726 16.7853C248.438 17.4364 248.078 18.0151 247.502 18.3768C247.07 18.6662 246.566 18.9556 246.062 19.1002C245.558 19.2449 245.055 19.3173 244.551 19.3173H242.463V9.62364H244.767C245.486 9.62364 246.134 9.69598 246.638 9.913C247.142 10.0577 247.574 10.4194 248.078 10.8534C248.438 11.2151 248.726 11.7939 248.942 12.4449C249.086 13.0236 249.158 13.747 249.158 14.5428Z" fill="#0D2237"/>
<path d="M264.636 10.4917C264.636 10.347 264.708 10.2023 264.78 10.0576C264.924 9.84059 265.14 9.69591 265.284 9.62357C265.5 9.55123 265.716 9.47888 266.076 9.47888L267.516 9.40655V8.17676H257.869V9.40655L259.093 9.47888C259.453 9.47888 259.741 9.55123 260.029 9.62357C260.317 9.69591 260.533 9.84059 260.677 10.0576C260.748 10.2023 260.821 10.347 260.892 10.4193C260.892 10.564 260.964 10.7087 260.964 10.8534V29.8065C260.964 30.2406 260.892 30.6023 260.677 30.8193C260.533 31.0363 260.317 31.181 260.173 31.181C260.029 31.2534 259.669 31.2534 259.237 31.3257L257.869 31.4704V32.6278H267.588V31.4704L266.724 31.3257C266.436 31.3257 266.076 31.2534 265.716 31.181C265.428 31.1087 265.14 31.0363 264.996 30.8916C264.852 30.747 264.708 30.6023 264.636 30.4576C264.564 30.3129 264.564 30.0959 264.564 29.8065V10.998C264.636 10.781 264.636 10.6363 264.636 10.4917Z" fill="#0D2237"/>
<path d="M293.144 31.5432C292.928 31.5432 292.784 31.5432 292.64 31.4708C292.496 31.3985 292.352 31.3261 292.136 31.1815C291.704 30.8921 291.344 30.3857 291.2 29.807L283.785 7.88785L283.713 7.74316H281.482L273.635 28.5772C273.419 29.1559 273.203 29.59 272.987 29.9517C272.771 30.3134 272.483 30.6751 272.123 30.9644C271.763 31.2538 271.403 31.3985 270.899 31.4708L270.467 31.5432V32.6283H277.09V31.4708H276.946C276.514 31.4708 276.082 31.3261 275.722 30.9644C275.434 30.7474 275.362 30.3134 275.362 29.8793C275.362 29.5176 275.434 29.2283 275.506 29.0112L277.018 24.6708H285.585L287.169 29.59C287.169 29.6623 287.241 29.7347 287.241 29.8793V30.241C287.241 30.6751 287.169 30.9644 286.953 31.1091C286.593 31.3985 286.233 31.5432 285.729 31.5432H285.225V32.7006H293.576V31.5432H293.144ZM285.153 23.0793H277.666L281.77 12.3729L285.153 23.0793Z" fill="#0D2237"/>
<path d="M100.714 57.2238L102.514 57.0791C102.586 57.8025 102.802 58.3813 103.09 58.8153C103.378 59.2493 103.882 59.611 104.53 59.9004C105.178 60.1898 105.97 60.3345 106.762 60.3345C107.481 60.3345 108.129 60.2621 108.705 60.0451C109.281 59.8281 109.713 59.5387 110.001 59.177C110.289 58.8153 110.433 58.3813 110.433 57.9472C110.433 57.5132 110.289 57.1515 110.001 56.7898C109.713 56.4281 109.281 56.211 108.705 55.994C108.345 55.8493 107.409 55.6323 106.114 55.343C104.746 55.0536 103.81 54.7642 103.306 54.4749C102.586 54.1132 102.082 53.6791 101.722 53.1727C101.362 52.6664 101.218 52.0876 101.218 51.4366C101.218 50.7132 101.434 50.0621 101.866 49.4834C102.298 48.9047 102.874 48.3983 103.666 48.1089C104.458 47.8196 105.394 47.6025 106.33 47.6025C107.409 47.6025 108.345 47.7472 109.209 48.1089C110.001 48.4706 110.649 48.9047 111.153 49.5557C111.585 50.2068 111.873 50.9302 111.873 51.7259L110.001 51.8706C109.929 51.0025 109.569 50.3515 108.993 49.8451C108.417 49.411 107.553 49.194 106.474 49.194C105.322 49.194 104.458 49.411 103.882 49.8451C103.378 50.2791 103.09 50.7855 103.09 51.3642C103.09 51.8706 103.306 52.3047 103.666 52.594C104.026 52.8834 105.034 53.2451 106.618 53.6068C108.201 53.9685 109.281 54.2579 109.857 54.4749C110.721 54.8366 111.369 55.343 111.729 55.9217C112.161 56.5004 112.305 57.1515 112.305 57.9472C112.305 58.6706 112.089 59.394 111.657 60.0451C111.225 60.6962 110.577 61.2025 109.713 61.5642C108.849 61.9259 107.913 62.143 106.906 62.143C105.61 62.143 104.458 61.9259 103.594 61.5642C102.73 61.2025 102.01 60.6238 101.506 59.9004C101.002 59.0323 100.786 58.1642 100.714 57.2238Z" fill="#0D2237"/>
<path d="M115.041 61.7088V47.7471H116.984V53.462H124.615V47.7471H126.559V61.7088H124.615V55.1258H116.984V61.7088H115.041Z" fill="#0D2237"/>
<path d="M132.03 47.7471H130.086V61.7088H132.03V47.7471Z" fill="#0D2237"/>
<path d="M137.357 54.4024H141.173C142.397 54.4024 143.333 54.1854 143.836 53.7513C144.34 53.3173 144.628 52.6662 144.628 51.8705C144.628 51.2917 144.484 50.7854 144.196 50.3513C143.908 49.9173 143.476 49.6279 142.973 49.5556C142.613 49.4832 142.037 49.4109 141.173 49.4109H137.429V54.4024H137.357ZM135.414 61.7088V47.7471H140.957C141.893 47.7471 142.685 47.8194 143.189 47.8917C143.908 48.0364 144.484 48.2535 144.988 48.5428C145.492 48.8322 145.852 49.3386 146.14 49.9173C146.428 50.496 146.572 51.1471 146.572 51.7981C146.572 52.9556 146.14 53.9683 145.348 54.8364C144.556 55.6322 143.117 56.0662 141.029 56.0662H137.285V61.7811H135.414V61.7088Z" fill="#0D2237"/>
<path d="M148.948 61.7088V47.7471H151.827L155.283 57.6577C155.571 58.5981 155.859 59.2492 156.003 59.7556C156.147 59.2492 156.435 58.5258 156.795 57.513L160.322 47.7471H162.914V61.7088H161.042V49.9896L156.795 61.7088H155.067L150.819 49.7726V61.7088H148.948Z" fill="#0D2237"/>
<path d="M168.601 55.9939H173.568L172.056 52.0875C171.625 50.93 171.265 49.9173 171.049 49.1939C170.833 50.062 170.617 51.0024 170.257 51.8705L168.601 55.9939ZM164.354 61.7088L169.969 47.7471H172.056L178.032 61.7088H175.8L174.072 57.4407H167.953L166.369 61.7088H164.354Z" fill="#0D2237"/>
<path d="M179.615 61.7088V47.7471H181.559L189.262 58.7428V47.7471H191.134V61.7088H189.118L181.415 50.713V61.7088H179.615Z" fill="#0D2237"/>
<path d="M196.965 55.9939H201.933L200.421 52.0875C199.989 50.93 199.629 49.9173 199.413 49.1939C199.197 50.062 198.981 51.0024 198.621 51.8705L196.965 55.9939ZM192.718 61.7088L198.333 47.7471H200.421L206.396 61.7088H204.164L202.436 57.4407H196.317L194.733 61.7088H192.718Z" fill="#0D2237"/>
<path d="M214.747 56.2834V54.6196H220.938V59.8281C220.002 60.5515 218.994 61.1302 217.986 61.4919C216.979 61.8536 215.971 62.0706 214.891 62.0706C213.451 62.0706 212.155 61.7813 211.003 61.2025C209.852 60.6238 208.916 59.7557 208.34 58.6706C207.764 57.5855 207.476 56.2834 207.476 54.9089C207.476 53.5345 207.764 52.3047 208.34 51.0749C208.916 49.9174 209.78 49.0493 210.931 48.4706C212.083 47.8919 213.307 47.6025 214.819 47.6025C215.899 47.6025 216.835 47.7472 217.698 48.1089C218.562 48.4706 219.21 48.9047 219.714 49.4834C220.218 50.0621 220.578 50.8579 220.794 51.7983L218.994 52.0876C218.778 51.3642 218.49 50.7855 218.202 50.4238C217.842 49.9898 217.41 49.7004 216.835 49.411C216.259 49.194 215.539 49.0493 214.819 49.0493C213.955 49.0493 213.163 49.194 212.515 49.411C211.867 49.7004 211.363 49.9898 210.931 50.4238C210.571 50.8579 210.211 51.2919 209.995 51.7983C209.636 52.6664 209.42 53.6068 209.42 54.6196C209.42 55.8493 209.636 56.9345 210.067 57.7302C210.499 58.5983 211.147 59.177 212.011 59.611C212.875 60.0451 213.811 60.1898 214.747 60.1898C215.611 60.1898 216.403 60.0451 217.195 59.7557C217.986 59.4664 218.562 59.1047 218.994 58.743V56.1387H214.747V56.2834Z" fill="#0D2237"/>
<path d="M223.818 61.7088V47.7471H234.4V49.4109H225.761V53.679H233.896V55.3428H225.761V60.1173H234.76V61.7088H223.818Z" fill="#0D2237"/>
<path d="M237.352 61.7088V47.7471H240.231L243.687 57.6577C243.975 58.5981 244.263 59.2492 244.407 59.7556C244.551 59.2492 244.839 58.5258 245.199 57.513L248.726 47.7471H251.318V61.7088H249.446V49.9896L245.199 61.7088H243.471L239.224 49.7726V61.7088H237.352Z" fill="#0D2237"/>
<path d="M254.485 61.7088V47.7471H264.996V49.4109H256.357V53.679H264.492V55.3428H256.357V60.1173H265.356V61.7088H254.485Z" fill="#0D2237"/>
<path d="M268.02 61.7088V47.7471H269.963L277.666 58.7428V47.7471H279.538V61.7088H277.522L269.819 50.713V61.7088H268.02Z" fill="#0D2237"/>
<path d="M286.449 61.7088V49.4109H281.626V47.7471H293.216V49.4109H288.393V61.7088H286.449Z" fill="#0D2237"/>
<path d="M101.074 67.4961H293.576" stroke="#808B95" stroke-width="0.5"/>
<path d="M101.074 42.0332H293.576" stroke="#808B95" stroke-width="0.5"/>
</g>
<defs>
<clipPath id="clip0_8259_5256">
<rect width="293" height="68" fill="white" transform="translate(0 0.00292969)"/>
</clipPath>
</defs>
</svg>
