<svg width="338" height="196" viewBox="0 0 338 196" fill="none" xmlns="http://www.w3.org/2000/svg">
<path d="M41.0129 2.54497L16.8179 123.441C16.694 124.06 17.1673 124.637 17.7984 124.637H72.4451C72.5012 124.637 72.5494 124.597 72.5602 124.542L90.1352 34.6984C90.6824 31.9009 93.1339 29.8825 95.9844 29.8825C99.7264 29.8825 102.543 33.2906 101.838 36.9656L85.0357 124.542C85.0263 124.592 85.0639 124.637 85.114 124.637H137.676C137.732 124.637 137.78 124.597 137.791 124.542L155.319 34.937C155.894 32.0009 158.467 29.8825 161.458 29.8825C165.423 29.8825 168.387 33.5231 167.584 37.4052L149.555 124.542C149.545 124.591 149.582 124.637 149.632 124.637H201.476C201.951 124.637 202.356 124.319 202.452 123.855C209.717 88.6451 221.658 24.2138 221.658 24.2138C225.428 10.1549 212.626 4.44689 202.291 4.44689C187.122 4.44689 166.126 14.3104 160.56 17.0645C159.901 17.3905 159.094 16.9245 158.963 16.2009C158.331 12.7033 155.695 4.47943 144.843 3.2228C132.263 1.76625 107.857 10.4177 96.0947 14.9334C95.3342 15.2254 94.5675 14.5339 94.77 13.7448L97.5295 2.98974C97.6918 2.35711 97.214 1.74121 96.5609 1.74121H41.9935C41.5168 1.74121 41.1065 2.07761 41.0129 2.54497Z" fill="white"/>
<path d="M96.5609 0.241211C98.1936 0.24123 99.3884 1.78084 98.9828 3.3623L96.4604 13.1895C102.361 10.9424 111.007 7.82991 119.76 5.39355C128.902 2.84904 138.404 0.966948 145.015 1.73242C150.845 2.40743 154.576 4.98444 156.912 7.94141C159.045 10.6397 159.96 13.5792 160.354 15.4951C163.391 14.0074 169.806 11.0031 177.319 8.31055C185.2 5.4859 194.44 2.94732 202.29 2.94727C207.678 2.94727 213.829 4.42483 218.195 7.88184C220.398 9.62647 222.163 11.891 223.1 14.7227C224.032 17.5371 224.11 20.8077 223.125 24.5273C223.125 24.5295 223.125 24.5319 223.124 24.5342C223.119 24.5652 223.11 24.6116 223.099 24.6729C223.076 24.7959 223.042 24.9795 222.997 25.2197C222.908 25.7003 222.776 26.4099 222.606 27.3252C222.265 29.1562 221.77 31.8116 221.154 35.1074C219.921 41.6989 218.2 50.8543 216.253 61.1104C212.36 81.6198 207.556 106.541 203.921 124.158C203.676 125.348 202.632 126.137 201.476 126.137H149.632C148.632 126.137 147.884 125.218 148.086 124.238L166.116 37.1016C166.726 34.1504 164.472 31.3828 161.458 31.3828C159.184 31.3828 157.228 32.9927 156.791 35.2246L139.263 124.83C139.115 125.589 138.45 126.137 137.676 126.137H85.1137C84.1219 126.136 83.3761 125.234 83.5629 124.26L100.365 36.6826C100.892 33.9327 98.7847 31.383 95.9848 31.3828C93.8516 31.3828 92.0163 32.8929 91.6068 34.9863L74.0326 124.83C73.8841 125.589 73.2182 126.137 72.4447 126.137H17.7982C16.2206 126.137 15.0375 124.693 15.3471 123.146L39.5424 2.25098L39.5951 2.03516C39.905 0.980189 40.8766 0.241211 41.9936 0.241211H96.5609ZM18.4086 123.137H71.307L88.6635 34.4102C89.3486 30.9088 92.417 28.3828 95.9848 28.3828C100.668 28.383 104.193 32.6483 103.311 37.248L86.8334 123.137H136.537L153.847 34.6494C154.559 31.0093 157.749 28.3828 161.458 28.3828C166.373 28.3828 170.049 32.896 169.053 37.709L151.377 123.137H201.068C204.687 105.569 209.443 80.8988 213.306 60.5508C215.252 50.298 216.972 41.1452 218.204 34.5557C218.821 31.2609 219.316 28.6065 219.657 26.7764C219.827 25.8614 219.958 25.1521 220.047 24.6719C220.092 24.4318 220.126 24.2488 220.149 24.126C220.16 24.0646 220.169 24.0183 220.175 23.9873C220.178 23.9718 220.18 23.9599 220.181 23.9521C220.182 23.9482 220.183 23.9453 220.183 23.9434V23.9414L220.194 23.8828L220.209 23.8252C221.089 20.5462 220.977 17.8561 220.251 15.665C219.526 13.4727 218.15 11.674 216.332 10.2344C212.656 7.32289 207.238 5.94727 202.29 5.94727C194.972 5.94732 186.13 8.33925 178.33 11.1348C170.564 13.9182 163.98 17.046 161.225 18.4092C159.609 19.2085 157.883 18.1161 157.518 16.6143L157.488 16.4678C157.196 14.8538 156.445 12.1882 154.559 9.80176C152.707 7.45828 149.693 5.29456 144.67 4.71289C138.702 4.02187 129.711 5.73732 120.565 8.2832C111.487 10.81 102.495 14.0833 96.6322 16.334C94.7161 17.0694 92.8166 15.3221 93.3168 13.3721L95.9164 3.24121H42.4037L18.4086 123.137Z" fill="#0D2237"/>
<path d="M273.653 59.542H221.442C220.96 59.542 220.547 59.886 220.459 60.3602L207.297 131.544C207.209 132.018 206.796 132.362 206.313 132.362H15.4815C15.0128 132.362 14.6071 132.688 14.5053 133.145L7.02962 166.764C6.89074 167.388 7.36598 167.981 8.00578 167.981H253.446C253.925 167.981 254.337 167.641 254.428 167.17L269.172 90.551C269.718 87.7132 272.201 85.6623 275.091 85.6623C278.877 85.6623 281.726 89.1114 281.01 92.829L266.707 167.158C266.625 167.585 266.952 167.981 267.387 167.981H318.795C319.272 167.981 319.679 167.662 319.772 167.194C323.809 146.876 332.662 101.893 337.04 78.1428C341.396 54.5127 306.643 56.6836 274.263 71.0122C273.519 71.3414 272.704 70.7011 272.858 69.9025L274.635 60.7321C274.754 60.115 274.281 59.542 273.653 59.542Z" fill="#0D2237"/>
<path d="M300.701 195.345L304.371 176.977H306.557L310.76 188.737L311.937 192.573H312.049C312.161 191.658 312.282 190.697 312.413 189.689C312.544 188.662 312.702 187.673 312.889 186.721L314.823 176.977H316.924L313.254 195.345H311.096L306.949 183.613L305.744 179.665H305.632C305.52 180.617 305.389 181.587 305.24 182.577C305.109 183.566 304.951 184.527 304.764 185.461L302.802 195.345H300.701Z" fill="#0D2237"/>
<path d="M285.268 195.681C283.213 195.681 281.634 194.981 280.532 193.581C279.449 192.162 278.907 190.296 278.907 187.981C278.907 186.581 279.122 185.209 279.552 183.865C279.981 182.521 280.598 181.307 281.401 180.225C282.204 179.123 283.147 178.255 284.231 177.621C285.333 176.967 286.538 176.641 287.845 176.641C289.228 176.641 290.386 176.958 291.32 177.593C292.272 178.227 292.992 179.123 293.477 180.281C293.963 181.419 294.206 182.763 294.206 184.313C294.206 185.713 293.991 187.094 293.561 188.457C293.132 189.801 292.515 191.024 291.712 192.125C290.909 193.208 289.965 194.076 288.882 194.729C287.799 195.364 286.594 195.681 285.268 195.681ZM285.38 193.805C286.37 193.805 287.266 193.525 288.07 192.965C288.891 192.405 289.592 191.668 290.171 190.753C290.75 189.838 291.198 188.84 291.516 187.757C291.833 186.656 291.992 185.573 291.992 184.509C291.992 182.698 291.647 181.251 290.955 180.169C290.264 179.067 289.19 178.517 287.733 178.517C286.743 178.517 285.837 178.797 285.015 179.357C284.212 179.898 283.521 180.626 282.942 181.541C282.363 182.455 281.915 183.464 281.597 184.565C281.28 185.648 281.121 186.73 281.121 187.813C281.121 189.605 281.457 191.052 282.129 192.153C282.821 193.255 283.904 193.805 285.38 193.805Z" fill="#0D2237"/>
<path d="M266.384 195.345L270.054 176.977H272.24L268.569 195.345H266.384Z" fill="#0D2237"/>
<path d="M251.008 195.345L254.286 178.853H248.962L249.327 176.977H262.187L261.823 178.853H256.472L253.193 195.345H251.008Z" fill="#0D2237"/>
<path d="M236.051 184.789L234.426 187.925H239.89L239.61 184.789C239.535 183.818 239.451 182.838 239.357 181.849C239.264 180.859 239.18 179.842 239.105 178.797H238.993C238.508 179.861 238.022 180.878 237.536 181.849C237.069 182.801 236.574 183.781 236.051 184.789ZM228.206 195.345L238.181 176.977H240.702L242.832 195.345H240.562L240.058 189.605H233.557L230.615 195.345H228.206Z" fill="#0D2237"/>
<path d="M216.861 195.681C214.657 195.681 212.966 195.009 211.789 193.665C210.631 192.302 210.052 190.501 210.052 188.261C210.052 186.805 210.276 185.386 210.725 184.005C211.173 182.623 211.817 181.382 212.658 180.281C213.517 179.161 214.545 178.274 215.74 177.621C216.954 176.967 218.318 176.641 219.831 176.641C220.933 176.641 221.858 176.902 222.605 177.425C223.371 177.929 223.987 178.573 224.454 179.357L222.913 180.505C222.558 179.907 222.119 179.431 221.596 179.077C221.092 178.703 220.466 178.517 219.719 178.517C218.561 178.517 217.524 178.806 216.609 179.385C215.693 179.945 214.909 180.691 214.255 181.625C213.62 182.558 213.134 183.585 212.798 184.705C212.462 185.825 212.294 186.945 212.294 188.065C212.294 189.148 212.453 190.128 212.77 191.005C213.106 191.882 213.629 192.573 214.339 193.077C215.049 193.581 215.992 193.833 217.169 193.833C217.842 193.833 218.439 193.721 218.962 193.497C219.504 193.273 219.952 193.012 220.307 192.713L221.344 187.645H217.533L217.898 185.853H223.67L222.073 193.805C221.4 194.365 220.625 194.823 219.747 195.177C218.869 195.513 217.907 195.681 216.861 195.681Z" fill="#0D2237"/>
<path d="M197.613 195.345L201.284 176.977H203.469L199.799 195.345H197.613Z" fill="#0D2237"/>
<path d="M181.92 195.345L180.267 176.977H182.48L183.237 187.169C183.33 188.158 183.414 189.166 183.489 190.193C183.564 191.201 183.629 192.209 183.685 193.217H183.797C184.264 192.228 184.74 191.22 185.226 190.193C185.73 189.148 186.225 188.14 186.711 187.169L191.783 176.977H194.136L184.526 195.345H181.92Z" fill="#0D2237"/>
<path d="M166.651 184.789L165.026 187.925H170.49L170.209 184.789C170.135 183.818 170.051 182.838 169.957 181.849C169.864 180.859 169.78 179.842 169.705 178.797H169.593C169.107 179.861 168.622 180.878 168.136 181.849C167.669 182.801 167.174 183.781 166.651 184.789ZM158.806 195.345L168.781 176.977H171.302L173.432 195.345H171.162L170.658 189.605H164.157L161.215 195.345H158.806Z" fill="#0D2237"/>
<path d="M139.16 195.345L142.831 176.977H145.016L149.219 188.737L150.396 192.573H150.508C150.62 191.658 150.741 190.697 150.872 189.689C151.003 188.662 151.162 187.673 151.349 186.721L153.282 176.977H155.383L151.713 195.345H149.555L145.408 183.613L144.204 179.665H144.092C143.979 180.617 143.849 181.587 143.699 182.577C143.569 183.566 143.41 184.527 143.223 185.461L141.262 195.345H139.16Z" fill="#0D2237"/>
<path d="M104.527 195.345L104.779 176.977H107.021L106.74 187.085C106.684 188.056 106.638 189.045 106.6 190.053C106.582 191.061 106.535 192.06 106.46 193.049H106.572C107.002 192.06 107.441 191.061 107.889 190.053C108.337 189.045 108.767 188.056 109.178 187.085L113.773 176.977H115.763L116.015 187.085C116.033 188.056 116.043 189.045 116.043 190.053C116.043 191.042 116.043 192.041 116.043 193.049H116.155C116.528 192.041 116.911 191.042 117.304 190.053C117.715 189.045 118.107 188.056 118.48 187.085L122.459 176.977H124.617L117.051 195.345H114.278L114.081 184.117C114.081 183.445 114.091 182.745 114.109 182.017C114.128 181.27 114.147 180.533 114.165 179.805H114.053C113.792 180.533 113.502 181.251 113.185 181.961C112.886 182.67 112.578 183.389 112.26 184.117L107.245 195.345H104.527Z" fill="#0D2237"/>
<path d="M87.4124 195.681C85.3576 195.681 83.7792 194.981 82.6771 193.581C81.5937 192.162 81.052 190.296 81.052 187.981C81.052 186.581 81.2668 185.209 81.6964 183.865C82.1261 182.521 82.7425 181.307 83.5457 180.225C84.3489 179.123 85.2922 178.255 86.3757 177.621C87.4777 176.967 88.6826 176.641 89.9901 176.641C91.3724 176.641 92.5306 176.958 93.4645 177.593C94.4172 178.227 95.1363 179.123 95.622 180.281C96.1077 181.419 96.3505 182.763 96.3505 184.313C96.3505 185.713 96.1357 187.094 95.7061 188.457C95.2764 189.801 94.66 191.024 93.8568 192.125C93.0536 193.208 92.1103 194.076 91.0268 194.729C89.9434 195.364 88.7386 195.681 87.4124 195.681ZM87.5244 193.805C88.5145 193.805 89.4111 193.525 90.2143 192.965C91.0362 192.405 91.7367 191.668 92.3157 190.753C92.8948 189.838 93.3431 188.84 93.6607 187.757C93.9782 186.656 94.137 185.573 94.137 184.509C94.137 182.698 93.7914 181.251 93.1003 180.169C92.4091 179.067 91.3351 178.517 89.8781 178.517C88.888 178.517 87.9821 178.797 87.1602 179.357C86.357 179.898 85.6658 180.626 85.0868 181.541C84.5077 182.455 84.0594 183.464 83.7418 184.565C83.4243 185.648 83.2655 186.73 83.2655 187.813C83.2655 189.605 83.6018 191.052 84.2742 192.153C84.9654 193.255 86.0488 193.805 87.5244 193.805Z" fill="#0D2237"/>
<path d="M63.9043 195.345L67.5748 176.977H69.7603L66.454 193.497H74.1874L73.8231 195.345H63.9043Z" fill="#0D2237"/>
<path d="M43.5991 195.345L47.2696 176.977H52.3131C54.0316 176.977 55.4139 177.303 56.46 177.957C57.5247 178.61 58.057 179.711 58.057 181.261C58.057 182.959 57.5434 184.322 56.516 185.349C55.4886 186.376 54.1997 187.048 52.6493 187.365L55.8715 195.345H53.546L50.5199 187.561H47.3257L45.7846 195.345H43.5991ZM47.6899 185.797H50.4638C52.2197 185.797 53.5646 185.414 54.4986 184.649C55.4326 183.883 55.8996 182.847 55.8996 181.541C55.8996 180.533 55.5447 179.814 54.8348 179.385C54.1437 178.937 53.1257 178.713 51.7807 178.713H49.0909L47.6899 185.797Z" fill="#0D2237"/>
<path d="M29.9323 184.789L28.3072 187.925H33.7709L33.4907 184.789C33.416 183.818 33.332 182.838 33.2386 181.849C33.1452 180.859 33.0611 179.842 32.9864 178.797H32.8743C32.3887 179.861 31.903 180.878 31.4173 181.849C30.9503 182.801 30.4553 183.781 29.9323 184.789ZM22.0869 195.345L32.0618 176.977H34.5835L36.713 195.345H34.4434L33.939 189.605H27.4386L24.4966 195.345H22.0869Z" fill="#0D2237"/>
<path d="M0.0336914 195.345L3.70421 176.977H6.31L7.9071 186.889L8.52352 190.697H8.6356L10.5969 186.889L16.0607 176.977H18.6665L14.996 195.345H12.8945L15.024 184.985C15.1921 184.163 15.3976 183.258 15.6404 182.269C15.8832 181.279 16.1167 180.383 16.3409 179.581H16.2288L14.0153 183.669L8.60758 193.413H7.37473L5.66556 183.669L5.04913 179.581H4.93706C4.82498 180.402 4.70356 181.307 4.57281 182.297C4.44205 183.267 4.30196 184.163 4.15252 184.985L2.0791 195.345H0.0336914Z" fill="#0D2237"/>
</svg>
