<svg width="211" height="76" viewBox="0 0 211 76" fill="none" xmlns="http://www.w3.org/2000/svg">
<g clip-path="url(#clip0_8259_4815)">
<path d="M29.0246 52.8918C29.3409 53.0659 29.7274 52.9614 29.9032 52.648C30.0789 52.3345 29.9734 51.9514 29.6572 51.7773C29.3409 51.6031 28.9543 51.7076 28.7786 52.0211C28.6029 52.3345 28.7083 52.7176 29.0246 52.8918ZM20.0985 37.5326C20.0985 37.8809 20.3796 38.1595 20.731 38.1595C21.0825 38.1595 21.3636 37.8809 21.3636 37.5326C21.3636 37.1843 21.0825 36.9057 20.731 36.9057C20.3796 36.9057 20.0985 37.1843 20.0985 37.5326ZM29.6572 23.4272C29.9734 23.2531 30.0789 22.87 29.9032 22.5565C29.7274 22.2431 29.3409 22.1386 29.0246 22.3127C28.7083 22.4869 28.6029 22.87 28.7786 23.1834C28.9895 23.4969 29.376 23.6362 29.6572 23.4272ZM46.8066 22.3476C46.4903 22.1734 46.1037 22.2779 45.928 22.5914C45.7523 22.9048 45.8577 23.2879 46.174 23.4621C46.4903 23.6362 46.8768 23.5317 47.0526 23.2183C47.2283 22.9048 47.1228 22.5217 46.8066 22.3476ZM46.174 51.7773C45.8577 51.9514 45.7523 52.3345 45.928 52.648C46.1037 52.9614 46.4903 53.0659 46.8066 52.8918C47.1228 52.7176 47.2283 52.3345 47.0526 52.0211C46.8768 51.7076 46.4903 51.6031 46.174 51.7773ZM56.7167 42.6175L75.6232 37.6022L56.7167 32.587L64.4128 22.3824L51.6562 23.9148L53.2024 11.2026L42.9058 18.8648L37.8453 0.0576172L32.7848 18.8648L22.4881 11.2026L24.0344 23.88L11.3481 22.3824L19.0794 32.6218L0.172852 37.6371L19.0794 42.6523L11.3481 52.8569L24.1047 51.3245L22.5584 64.0367L32.82 56.3746L37.8804 75.1817L42.9058 56.3746L53.2024 64.0716L51.6562 51.3593L64.4128 52.8918L56.7167 42.6175ZM68.5244 37.6022H57.3844C57.3844 36.5922 57.3141 35.5822 57.1384 34.607L68.5244 37.6022ZM7.27158 37.6022H18.4117C18.4117 38.6123 18.4819 39.6223 18.6576 40.5975L7.27158 37.6022ZM51.0588 14.964L47.6148 20.85C46.7011 20.3275 45.8577 19.9096 44.8737 19.5613L51.0588 14.964ZM47.3688 23.3924C47.0877 23.88 46.4551 24.0541 45.9631 23.7755C45.4711 23.4969 45.2954 22.87 45.5766 22.3824C45.8577 21.8948 46.4903 21.7207 46.9823 21.9993C47.4743 22.2779 47.65 22.9048 47.3688 23.3924ZM37.8804 7.16254V18.2379C36.1936 18.2379 34.8582 18.4816 34.8582 18.4816L37.8804 7.16254ZM28.8489 21.9993C29.3409 21.7207 29.9734 21.8948 30.2546 22.3824C30.5357 22.87 30.36 23.4969 29.868 23.7755C29.376 24.0541 28.7435 23.88 28.4623 23.3924C28.1812 22.9048 28.3569 22.2779 28.8489 21.9993ZM28.146 20.85C27.2323 21.3724 26.4592 21.8948 25.6509 22.5565L24.7021 14.964L28.146 20.85ZM21.7853 37.5326C21.7853 38.0898 21.3285 38.5426 20.7662 38.5426C20.2039 38.5426 19.7471 38.0898 19.7471 37.5326C19.7471 36.9753 20.2039 36.5226 20.7662 36.5226C21.3285 36.5226 21.7853 36.9753 21.7853 37.5326ZM15.1083 24.5069L21.0122 27.92C20.485 28.8256 20.0985 29.6615 19.7119 30.6366L15.1083 24.5069ZM15.1083 50.7324L21.0122 47.3193C21.5393 48.2248 22.0664 48.991 22.7341 49.7921L15.1083 50.7324ZM24.7021 60.3101L28.146 54.3894C29.0597 54.9118 29.9032 55.2949 30.8871 55.678L24.7021 60.3101ZM28.4623 51.8121C28.7435 51.3245 29.376 51.1504 29.868 51.429C30.36 51.7076 30.5357 52.3345 30.2546 52.8221C29.9734 53.3097 29.3409 53.4838 28.8489 53.2052C28.3218 52.9266 28.1812 52.2997 28.4623 51.8121ZM37.8804 68.0768V57.0015C38.8996 57.0015 39.9187 56.9318 40.9027 56.7577L37.8804 68.0768ZM47.0174 53.24C46.5254 53.5187 45.8929 53.3445 45.6117 52.8569C45.3306 52.3693 45.5063 51.7424 45.9983 51.4638C46.4903 51.1852 47.1228 51.3593 47.404 51.8469C47.65 52.3345 47.5094 52.9614 47.0174 53.24ZM47.65 54.3894C48.5637 53.8669 49.3368 53.3445 50.1451 52.6828L51.0939 60.3101L47.65 54.3894ZM37.8804 52.3345C29.6923 52.3345 23.0504 45.752 23.0504 37.6022C23.0504 29.4525 29.6923 22.87 37.8804 22.87C46.0686 22.87 52.7104 29.4525 52.7104 37.6022C52.7104 45.752 46.0686 52.3345 37.8804 52.3345ZM60.6877 24.5069L54.7838 27.92C54.2567 26.9797 53.7296 26.2483 53.0619 25.4473L60.6877 24.5069ZM54.0107 37.6022C54.0107 37.045 54.4676 36.5922 55.0298 36.5922C55.5921 36.5922 56.049 37.045 56.049 37.6022C56.049 38.1595 55.5921 38.6123 55.0298 38.6123C54.4676 38.6123 54.0107 38.1595 54.0107 37.6022ZM56.0841 44.6027L60.6877 50.7324L54.7838 47.3193C55.311 46.3789 55.6975 45.5779 56.0841 44.6027ZM55.6624 37.6022C55.6624 37.254 55.3813 36.9753 55.0298 36.9753C54.6784 36.9753 54.3973 37.254 54.3973 37.6022C54.3973 37.9505 54.6784 38.2292 55.0298 38.2292C55.3813 38.2292 55.6624 37.9505 55.6624 37.6022Z" fill="#0D2237"/>
<path fill-rule="evenodd" clip-rule="evenodd" d="M32.2226 45.8235C32.2226 46.1022 32.3983 46.346 32.6794 46.4853C33.1363 46.6594 33.6282 46.6594 34.05 46.4853C34.3311 46.3808 34.5068 46.137 34.5068 45.8235C34.5068 45.5449 34.3311 45.3011 34.0851 45.1966C33.8742 45.0922 33.6634 45.0225 33.4525 44.9877C33.1714 44.918 32.8903 44.8484 32.6091 44.8135C32.4685 44.7787 32.328 44.7439 32.1874 44.7439C31.3791 44.6394 30.606 44.2911 29.9735 43.7339C29.8329 43.5597 29.6923 43.3508 29.622 43.1418C29.0598 41.888 29.622 40.3904 30.8872 39.8331C32.4334 39.1366 34.1905 39.1366 35.7368 39.7983C36.6505 40.1117 37.283 40.9824 37.3182 41.9925H34.6474C34.5771 41.6093 34.2608 41.2959 33.8391 41.2611C33.4877 41.1914 33.1363 41.2262 32.82 41.3656C32.4686 41.5049 32.2577 41.9228 32.3983 42.3059C32.6091 42.6542 32.9254 42.8632 33.3471 42.9328C34.0851 43.0373 34.8231 43.2114 35.5611 43.4552C35.8773 43.5249 36.1585 43.6294 36.4045 43.8384C36.6505 44.0125 36.8613 44.2563 37.0019 44.5001C37.7047 45.6494 37.3533 47.1818 36.1585 47.8784C34.7177 48.575 33.066 48.7143 31.5549 48.2615C30.3952 48.0525 29.5517 47.0425 29.5517 45.8584H32.2226V45.8235ZM46.2443 42.9676C46.2092 41.7835 45.5766 40.7038 44.5926 40.0769C43.1518 39.0321 41.1487 39.1366 39.8133 40.3207C39.005 41.0173 38.513 42.0273 38.4779 43.0721C38.3373 44.1518 38.4427 45.2315 38.8293 46.2415C39.251 47.1818 40.0593 47.9132 41.0432 48.2267C41.9921 48.6098 43.0464 48.5401 43.9601 48.0525C45.2252 47.4605 46.1037 46.2067 46.2091 44.8135H43.7492C43.6086 45.336 43.3275 45.7191 42.9761 45.9629C42.2029 46.4853 41.2541 45.9629 40.9027 44.8135C40.5513 43.6642 40.9027 42.3059 41.6758 41.7835C42.4489 41.2611 43.3978 41.7835 43.7492 42.9328H46.2443V42.9676ZM42.6598 36.9076V31.2654C42.5895 30.4992 41.8867 29.942 41.1135 30.0116C40.4107 30.0813 39.8484 30.6385 39.8484 31.3699V37.7086C40.7621 37.3255 41.7109 37.0817 42.6598 36.9076ZM35.9476 37.6738V31.3699C35.9476 30.6037 35.2799 29.9768 34.5068 29.9768C33.8391 29.9768 33.2417 30.4644 33.1363 31.1261V36.9772C34.0851 37.0817 35.0339 37.2907 35.9476 37.6738ZM49.8288 38.5793C48.7042 39.2062 47.3688 39.2759 46.174 38.7535C44.3818 38.0221 42.3786 38.0221 40.5864 38.7535C39.7078 39.1017 38.7941 39.2759 37.8453 39.241C36.8965 39.241 35.9828 39.0669 35.1042 38.7535C33.312 38.0569 31.3089 38.0569 29.5166 38.7535C28.3569 39.2759 26.9864 39.2062 25.8618 38.5793L26.4944 37.4996C27.2675 37.9176 28.2163 37.9524 29.0246 37.6041V27.0512H32.9957V28.0612C33.1363 27.9219 33.2768 27.7826 33.4174 27.6781C35.1745 26.2502 37.775 26.494 39.2159 28.2354C39.9538 27.3299 41.0432 26.8074 42.2381 26.7378C44.5575 26.6333 46.5254 28.4095 46.6309 30.7082V37.6041C47.4391 37.9524 48.388 37.9176 49.1611 37.4996L49.8288 38.5793Z" fill="#0D2237"/>
<path d="M130.48 52.4438C129.32 52.3393 128.161 52.2696 127.036 52.2C125.912 52.1303 124.752 52.0955 123.627 51.9562C122.468 52.0606 121.343 52.1303 120.218 52.2C119.094 52.2696 117.934 52.3044 116.775 52.4438H116.634C115.439 52.4438 114.209 52.4089 114.209 51.2596C114.209 50.1451 114.877 49.8316 115.966 49.3441C117.231 48.7868 117.372 47.9161 117.372 44.7468V26.2879C117.372 25.661 117.302 25.1734 117.267 24.9644C117.056 25.1386 116.704 25.8351 116.353 26.6014L116.107 27.0889L104.686 50.6675C104.123 51.8169 103.456 52.4089 102.788 52.4089C101.98 52.4089 101.628 51.6775 101.347 51.1203L101.312 51.0506L90.1367 26.6014C89.5745 25.2779 89.2933 25.1386 89.2231 25.1386C89.1528 25.1386 89.0122 25.1386 89.0122 26.2182V41.4381C89.0122 44.6075 89.5745 47.7768 93.651 49.3441C94.5295 49.6923 95.3729 50.1451 95.3729 51.2596C95.3729 52.4438 94.1078 52.4438 93.5807 52.4438C92.5616 52.4438 91.5424 52.3393 90.5585 52.2C89.5745 52.0955 88.5554 51.9562 87.5714 51.9562C86.5874 51.9562 85.5683 52.0606 84.5843 52.2C83.6003 52.3044 82.5812 52.4438 81.5621 52.4438C80.9998 52.4438 80.1212 52.4438 80.1212 51.2596C80.1212 50.2496 80.8241 49.9013 81.5972 49.4834L81.7729 49.3789C84.514 47.8813 85.3574 46.4185 85.3574 43.1447V21.412C85.3574 19.1482 84.6546 16.1878 82.6866 15.2474C82.3352 15.0733 82.054 14.934 81.7729 14.8295C80.4726 14.2374 79.8401 13.9239 79.8401 13.0184C79.8401 12.1825 80.1212 11.8343 80.8241 11.8343C81.7026 11.8343 82.5812 11.9039 83.4246 11.9387C84.268 12.0084 85.1466 12.0432 85.99 12.0432C86.8334 12.0432 87.7119 11.9736 88.5554 11.9387C89.3988 11.8691 90.2773 11.8343 91.1559 11.8343C92.3156 11.8343 92.8427 11.9736 93.3347 12.9488L104.51 36.3532C104.826 36.9801 105.072 37.5374 105.283 37.9901C105.634 38.7215 105.916 39.3136 106.056 39.5226C106.232 39.3484 106.548 38.7563 106.794 38.2687C106.935 38.025 107.075 37.7463 107.216 37.4677L119.762 13.297C120.394 12.1129 120.675 11.8343 121.308 11.8343C122.186 11.8343 123.065 11.9039 123.908 11.9387C124.752 12.0084 125.63 12.0432 126.474 12.0432C127.317 12.0432 128.196 11.9736 129.039 11.9387C129.883 11.8691 130.761 11.8343 131.64 11.8343C131.851 11.8343 132.026 11.9039 132.132 12.0432C132.307 12.2522 132.378 12.5657 132.343 13.0184C132.343 14.0284 131.359 14.3767 129.742 14.9688L129.426 15.0733C127.528 15.7002 126.614 16.1529 126.614 19.4964V39.9753C126.614 44.7119 126.825 47.6723 131.218 49.3789C132.378 49.8317 133.116 50.1451 133.116 51.2944C133.045 52.4438 131.675 52.4438 130.48 52.4438ZM152.971 52.792C161.265 52.792 166.395 46.0354 166.395 39.7663C166.395 30.6414 159.543 28.3428 153.463 26.2879C148.93 24.7555 144.994 23.432 144.994 19.4964C144.994 16.3619 148.086 14.725 151.108 14.725C155.22 14.725 159.999 18.2774 161.265 22.3175L161.335 22.5613C161.757 23.9196 162.108 24.9644 163.408 24.9644C164.392 24.9644 165.025 24.3027 165.025 23.2579C165.025 23.0489 164.955 22.631 164.849 21.7254C164.568 19.7751 164.146 16.5012 164.217 14.2026C164.217 13.506 164.076 12.6701 162.846 12.6701C162.495 12.6701 162.073 12.8443 161.581 13.0881C161.194 13.2622 160.667 13.4712 160.456 13.4712C159.824 13.4712 158.98 13.1577 157.926 12.7746C156.204 12.1477 153.814 11.2422 150.722 11.2422C144.045 11.2422 138.633 16.4316 138.633 22.8399C138.633 31.93 145.872 34.4377 151.671 36.4925C156.134 38.0598 159.999 39.4181 159.999 43.1447C159.999 46.7668 157.188 49.3092 153.147 49.3092C147.7 49.3092 143.729 45.0602 141.866 41.0898C141.796 40.9157 141.726 40.7415 141.62 40.5326C141.269 39.6619 140.812 38.4429 139.582 38.4429C138.036 38.4429 137.93 39.4529 137.93 39.7315C137.93 40.1495 138.071 40.6719 138.211 41.1246C138.282 41.2988 138.317 41.5077 138.352 41.6471L140.39 49.553C140.671 50.5282 141.655 50.7024 142.253 50.8068C142.323 50.8068 142.393 50.8417 142.463 50.8417C143.553 51.0506 144.607 51.2944 145.626 51.5731C147.946 52.2 150.37 52.792 152.971 52.792ZM192.33 52.792C204.525 52.792 210.675 43.2491 210.675 41.2988C210.675 40.1843 209.937 40.045 209.585 40.045C208.636 40.045 207.863 40.9157 207.231 41.6122C207.09 41.7516 206.985 41.8909 206.844 41.9953C203.506 45.3737 199.218 47.324 195.071 47.324C188.078 47.324 182.42 39.9057 182.42 30.7807C182.42 19.984 186.321 14.725 194.333 14.725C199.218 14.725 203.752 18.0685 207.16 24.0937C207.195 24.1286 207.231 24.1982 207.266 24.2679C207.617 24.9296 208.215 26.0789 209.093 26.0789C209.937 26.0789 210.393 25.1734 210.393 24.2679C210.393 23.8499 210.288 23.2579 210.183 22.6658C210.112 22.213 210.042 21.7254 209.972 21.2727L209.128 13.506C209.023 12.8791 208.566 12.5308 207.969 12.5308C206.879 12.5308 206.528 13.1926 206.247 13.6802C206.001 14.1329 205.895 14.3071 205.473 14.3071C205.052 14.3071 204.173 13.9588 203.119 13.5757C200.764 12.6701 197.25 11.3118 193.033 11.3118C187.586 11.3118 182.596 13.0881 179.011 16.2923C174.689 20.1582 172.405 26.0441 172.405 33.3928C172.405 45.513 182.526 52.792 192.33 52.792ZM89.961 64.4246C89.961 64.3549 89.8908 64.2505 89.7502 64.2505C89.3285 64.2505 89.469 64.7032 89.0825 64.7032C88.6608 64.7032 87.3957 63.9022 85.744 63.9022C83.1435 63.9022 80.2969 65.4346 80.2969 69.614C80.2969 72.8182 83.0029 74.6292 85.5331 74.6292C88.7311 74.6292 90.3476 72.1564 90.3476 71.7037C90.3476 71.5644 90.3125 71.4947 90.1719 71.4947C89.9259 71.4947 89.715 71.8081 89.5042 71.9823C88.6959 72.7833 87.5011 73.4102 86.236 73.4102C84.1977 73.4102 82.6866 71.2161 82.6866 68.9174C82.6866 65.6436 84.0923 64.5639 86.0251 64.5639C87.3605 64.5639 88.6256 65.4346 89.5745 67.1064C89.6448 67.2108 89.8205 67.5591 89.9962 67.5591C90.1368 67.5591 90.207 67.3502 90.207 67.2108C90.207 67.0367 90.1367 66.7233 90.1016 66.4446L89.961 64.4246ZM103.421 72.6788C103.421 73.1664 103.245 73.7585 102.647 73.9327C102.507 73.9675 102.226 74.0371 102.226 74.2809C102.226 74.5247 102.437 74.5247 102.683 74.5247C103.28 74.5247 103.912 74.4202 104.51 74.4202C105.107 74.4202 105.74 74.5247 106.337 74.5247C107.04 74.5247 107.216 74.4899 107.216 74.2809C107.216 74.0371 107.11 73.9327 106.9 73.9327C106.267 73.8978 105.74 73.6192 105.74 72.4002V69.8578C105.74 69.6488 105.845 69.5792 106.232 69.5792C106.794 69.5792 107.04 69.9623 107.286 70.415L109.078 73.6192C109.43 74.2113 109.957 74.5247 110.379 74.5247C110.871 74.5247 112.663 74.4202 112.663 73.7933C112.663 73.6192 112.593 73.5147 112.417 73.5147C112.276 73.5147 112.101 73.5495 111.96 73.5495C111.819 73.5495 111.714 73.4451 111.538 73.3058C110.8 72.4699 109.078 69.4747 109.078 69.2309C109.078 69.0916 109.535 68.9871 109.816 68.8129C110.449 68.4646 110.941 67.9422 110.941 66.8974C110.941 64.4246 108.832 64.0415 106.794 64.0415C106.126 64.0415 105.002 64.146 104.194 64.146C103.104 64.146 102.718 64.0415 102.331 64.0415C101.98 64.0415 101.909 64.146 101.909 64.2853C101.909 64.5291 102.015 64.6336 102.226 64.6336C102.858 64.738 103.385 64.9818 103.385 65.8874V72.6788H103.421ZM105.74 65.4346C105.74 64.8774 105.88 64.6684 106.689 64.6684C107.989 64.6684 108.657 65.7132 108.657 66.7929C108.657 68.2905 108.094 68.9174 106.724 68.9174C105.74 68.9174 105.74 68.5691 105.74 68.395V65.4346ZM125.068 70.6588C125.068 73.5147 126.685 74.664 129.461 74.664C132.905 74.664 134.627 72.9575 134.627 69.614V66.4098C134.627 65.0863 134.732 64.8425 135.189 64.6336C135.435 64.5291 135.716 64.5291 135.716 64.2853C135.716 64.1111 135.681 64.0415 135.365 64.0415C134.908 64.0415 134.451 64.1111 133.994 64.1111C133.537 64.1111 133.081 64.0415 132.624 64.0415C132.237 64.0415 132.061 64.1111 132.061 64.2853C132.061 64.5291 132.307 64.6336 132.553 64.6336C133.397 64.6684 133.783 65.156 133.783 65.9222V69.7533C133.783 71.425 133.116 73.5844 130.41 73.5844C128.547 73.5844 127.352 72.3306 127.352 70.5543V65.9222C127.352 65.365 127.598 64.9122 128.09 64.6684C128.336 64.5639 128.547 64.4943 128.547 64.3201C128.547 64.1808 128.477 64.0763 128.09 64.0763C127.493 64.0763 126.86 64.1808 126.263 64.1808C125.666 64.1808 125.033 64.0763 124.436 64.0763C123.698 64.0763 123.557 64.146 123.557 64.3549C123.557 64.5639 123.662 64.6684 123.873 64.6684C124.506 64.6684 125.033 64.9818 125.033 65.9222V70.6588H125.068ZM151.108 65.9222C151.108 65.4346 151.144 64.8425 151.741 64.6684C151.882 64.6336 152.303 64.5639 152.303 64.3201C152.303 64.0763 152.092 64.0763 151.846 64.0763C151.249 64.0763 150.616 64.1808 150.019 64.1808C149.422 64.1808 148.789 64.0763 148.192 64.0763C147.735 64.0763 147.313 64.0763 147.313 64.3201C147.313 64.5639 147.419 64.6684 147.629 64.6684C148.262 64.7032 148.789 64.9818 148.789 65.9222V72.6788C148.789 73.1664 148.684 73.7585 148.086 73.9327C147.946 73.9675 147.665 74.0371 147.665 74.2809C147.665 74.5247 147.875 74.5247 148.192 74.5247C148.789 74.5247 149.422 74.4202 150.019 74.4202C150.616 74.4202 151.249 74.5247 151.706 74.5247C152.163 74.5247 152.584 74.5247 152.584 74.2809C152.584 74.0371 152.479 73.9327 152.268 73.9327C151.917 73.8978 151.108 73.6192 151.108 72.6788V65.9222ZM164.954 73.9327C165.025 74.1416 165.271 74.1765 165.411 74.1765C166.325 74.3506 167.204 74.664 168.152 74.664C170.402 74.664 171.561 72.7833 171.561 71.3554C171.561 67.2108 165.938 68.5691 165.938 65.9919C165.938 65.1212 166.747 64.5987 167.66 64.5987C168.82 64.5987 170.12 65.6088 170.437 66.6884C170.542 67.0715 170.612 67.3153 170.894 67.3153C171.104 67.3153 171.21 67.176 171.21 67.0019C171.21 66.8277 170.964 65.4694 170.999 64.5987C170.999 64.3898 170.964 64.3201 170.753 64.3201C170.612 64.3201 170.296 64.5291 170.12 64.5291C169.628 64.5291 168.855 63.937 167.555 63.937C165.763 63.937 164.498 65.3301 164.498 66.8974C164.498 71.0071 170.12 69.8229 170.12 72.2609C170.12 73.3754 169.242 74.0023 168.188 74.0023C166.747 74.0023 165.657 72.9575 165.095 71.7733C164.99 71.5643 164.919 71.1464 164.603 71.1464C164.357 71.1464 164.287 71.2509 164.287 71.3902C164.287 71.5295 164.357 71.7385 164.392 71.8778L164.954 73.9327ZM184.704 72.3654C184.704 73.2361 184.599 73.5844 184.107 73.8282C183.826 73.9675 183.545 74.072 183.545 74.3158C183.545 74.5596 183.756 74.5596 184.248 74.5596C185.267 74.5596 186.286 74.4551 187.305 74.4551C188.324 74.4551 189.343 74.5596 190.362 74.5596C191.065 74.5596 191.768 73.8282 191.944 73.2361C192.049 72.9226 192.19 72.3654 192.19 72.0519C192.19 71.9126 192.119 71.7733 191.944 71.7733C191.698 71.7733 191.557 72.2957 191.03 72.7833C190.503 73.2709 189.624 73.7585 188.043 73.7585C187.235 73.7585 187.024 73.5844 187.024 72.4699V69.8926C187.024 69.5095 187.164 69.3354 187.902 69.3354C188.781 69.3354 189.238 69.4398 189.589 70.0319C189.765 70.3454 189.765 70.7981 190.011 70.7981C190.292 70.7981 190.292 70.5892 190.292 70.3802C190.292 69.9274 190.222 69.4747 190.222 69.0219C190.222 68.5691 190.292 68.1164 190.292 67.6636C190.292 67.4546 190.292 67.2457 190.081 67.2457C189.941 67.2457 189.87 67.2805 189.695 67.6984C189.449 68.3602 188.781 68.604 187.902 68.604C187.305 68.604 187.024 68.5343 187.024 68.2905V65.6436C187.024 65.0515 187.129 64.9122 187.551 64.9122H188.535C190.327 64.9122 190.749 65.2953 190.854 66.2357C190.854 66.375 190.925 66.6536 191.171 66.6536C191.381 66.6536 191.452 66.5491 191.452 66.375C191.452 66.0267 191.381 65.7132 191.381 65.3998C191.381 65.0515 191.452 64.7381 191.452 64.3898C191.452 64.0763 191.135 64.0763 190.784 64.0763C189.624 64.0763 188.465 64.1808 187.27 64.1808C186.11 64.1808 184.95 64.2156 183.756 64.0763C183.439 64.0763 183.193 64.0763 183.193 64.3201C183.193 64.5639 183.51 64.7032 183.966 64.7729C184.599 64.8425 184.669 65.9919 184.669 66.7232V72.3654H184.704ZM204.384 73.9327C204.454 74.1416 204.7 74.1765 204.841 74.1765C205.755 74.3506 206.633 74.664 207.582 74.664C209.831 74.664 210.991 72.7833 210.991 71.3554C210.991 67.2108 205.368 68.5691 205.368 65.9919C205.368 65.1212 206.176 64.5987 207.09 64.5987C208.25 64.5987 209.55 65.6088 209.866 66.6884C209.972 67.0715 210.042 67.3153 210.323 67.3153C210.534 67.3153 210.639 67.176 210.639 67.0019C210.639 66.8277 210.393 65.4694 210.429 64.5987C210.429 64.3898 210.393 64.3201 210.183 64.3201C210.042 64.3201 209.726 64.5291 209.55 64.5291C209.058 64.5291 208.285 63.937 206.985 63.937C205.192 63.937 203.927 65.3301 203.927 66.8974C203.927 71.0071 209.55 69.8229 209.55 72.2609C209.55 73.3754 208.671 74.0023 207.617 74.0023C206.176 74.0023 205.087 72.9575 204.525 71.7733C204.419 71.5643 204.349 71.1464 204.033 71.1464C203.787 71.1464 203.716 71.2509 203.716 71.3902C203.716 71.5295 203.787 71.7385 203.822 71.8778L204.384 73.9327Z" fill="#0D2237"/>
</g>
<defs>
<clipPath id="clip0_8259_4815">
<rect width="211" height="76" fill="white" transform="translate(0 0.00292969)"/>
</clipPath>
</defs>
</svg>
