<svg width="317" height="170" viewBox="0 0 317 170" fill="none" xmlns="http://www.w3.org/2000/svg">
<path d="M151.241 69.2892L130.086 93.4556C129.734 93.8586 129.08 93.5 129.23 92.986L155.212 4.11107C155.374 3.55628 156.192 3.67336 156.192 4.25138V56.116C156.192 60.9619 154.433 65.643 151.241 69.2892Z" fill="#0D2237"/>
<path d="M163.166 69.2892L184.32 93.4556C184.673 93.8586 185.327 93.5 185.176 92.986L159.195 4.11107C159.032 3.55628 158.215 3.67336 158.215 4.25138V56.116C158.215 60.9619 159.974 65.643 163.166 69.2892Z" fill="#0D2237"/>
<path d="M315.859 155.429H296.984C297.146 157.601 297.849 159.329 299.093 160.613C300.337 161.88 301.933 162.513 303.88 162.513C305.394 162.513 306.647 162.151 307.638 161.428C308.612 160.704 309.721 159.365 310.965 157.411L316.103 160.288C315.309 161.645 314.471 162.812 313.588 163.789C312.704 164.748 311.758 165.544 310.748 166.177C309.739 166.793 308.648 167.245 307.476 167.535C306.304 167.824 305.033 167.969 303.663 167.969C299.733 167.969 296.578 166.702 294.198 164.169C291.819 161.618 290.629 158.234 290.629 154.018C290.629 149.838 291.783 146.455 294.09 143.867C296.416 141.316 299.499 140.04 303.339 140.04C307.215 140.04 310.28 141.28 312.533 143.758C314.769 146.219 315.886 149.63 315.886 153.991L315.859 155.429ZM309.612 150.435C308.765 147.178 306.719 145.55 303.474 145.55C302.735 145.55 302.041 145.667 301.392 145.903C300.743 146.12 300.148 146.445 299.607 146.88C299.084 147.296 298.633 147.803 298.255 148.4C297.876 148.997 297.588 149.675 297.389 150.435H309.612Z" fill="black"/>
<path d="M247.511 140.773H253.595V143.216C254.767 141.985 255.768 141.153 256.597 140.719C257.48 140.266 258.589 140.04 259.923 140.04C262.898 140.04 265.25 141.343 266.981 143.948C268.892 141.343 271.479 140.04 274.742 140.04C280.673 140.04 283.639 143.65 283.639 150.87V167.209H277.528V152.525C277.528 149.992 277.221 148.201 276.608 147.151C275.977 146.084 274.94 145.55 273.498 145.55C271.822 145.55 270.596 146.183 269.821 147.45C269.063 148.716 268.685 150.752 268.685 153.557V167.209H262.573V152.607C262.573 147.902 261.221 145.55 258.517 145.55C256.804 145.55 255.551 146.192 254.758 147.477C253.983 148.762 253.595 150.788 253.595 153.557V167.209H247.511V140.773Z" fill="black"/>
<path d="M212.397 153.801C212.397 149.983 213.758 146.735 216.48 144.057C219.203 141.379 222.52 140.04 226.432 140.04C230.362 140.04 233.697 141.388 236.437 144.084C239.142 146.78 240.494 150.091 240.494 154.018C240.494 157.981 239.133 161.301 236.41 163.979C233.67 166.639 230.308 167.969 226.324 167.969C222.376 167.969 219.067 166.612 216.399 163.898C213.731 161.22 212.397 157.854 212.397 153.801ZM218.617 153.909C218.617 156.551 219.32 158.641 220.726 160.179C222.168 161.735 224.07 162.513 226.432 162.513C228.812 162.513 230.714 161.744 232.138 160.206C233.562 158.668 234.274 156.615 234.274 154.045C234.274 151.476 233.562 149.422 232.138 147.884C230.695 146.328 228.794 145.55 226.432 145.55C224.106 145.55 222.222 146.328 220.78 147.884C219.338 149.44 218.617 151.449 218.617 153.909Z" fill="black"/>
<path d="M182.692 121.366H188.776V142.971C190.94 141.017 193.328 140.04 195.943 140.04C198.917 140.04 201.297 141.008 203.082 142.944C204.596 144.627 205.353 147.314 205.353 151.005V167.208H199.269V151.575C199.269 149.458 198.89 147.929 198.133 146.988C197.394 146.029 196.195 145.549 194.536 145.549C192.409 145.549 190.913 146.21 190.047 147.531C189.2 148.87 188.776 151.168 188.776 154.425V167.208H182.692V121.366Z" fill="black"/>
<path d="M168.103 131.246V167.208H161.802V131.246H152.202V125.302H177.676V131.246H168.103Z" fill="black"/>
<path d="M83.6514 167.208L92.4401 122.153L106.772 154.723L121.619 122.153L129.515 167.208H123.052L119.022 141.912L106.664 169.136L94.6575 141.885L90.1685 167.208H83.6514Z" fill="black"/>
<path d="M75.8775 131.544L70.7666 134.584C69.8111 132.919 68.9007 131.834 68.0353 131.327C67.1339 130.748 65.9711 130.458 64.5469 130.458C62.7982 130.458 61.3469 130.956 60.1931 131.951C59.0393 132.928 58.4624 134.159 58.4624 135.643C58.4624 137.687 59.9768 139.334 63.0055 140.582L67.17 142.292C70.5592 143.667 73.0381 145.35 74.6065 147.341C76.175 149.313 76.9592 151.738 76.9592 154.615C76.9592 158.469 75.6792 161.653 73.1192 164.168C70.5412 166.702 67.3412 167.968 63.5193 167.968C59.8956 167.968 56.903 166.892 54.5413 164.738C52.2157 162.585 50.7644 159.554 50.1875 155.646L56.5694 154.235C56.8579 156.695 57.3627 158.396 58.0838 159.337C59.3818 161.147 61.2748 162.051 63.7627 162.051C65.7277 162.051 67.3593 161.391 68.6573 160.07C69.9553 158.749 70.6043 157.075 70.6043 155.049C70.6043 154.235 70.4871 153.493 70.2528 152.823C70.0364 152.136 69.6849 151.511 69.1981 150.95C68.7294 150.371 68.1164 149.838 67.3593 149.349C66.6021 148.842 65.7007 148.363 64.655 147.911L60.6258 146.228C54.9109 143.803 52.0534 140.257 52.0534 135.588C52.0534 132.44 53.2523 129.807 55.65 127.69C58.0477 125.555 61.0314 124.487 64.601 124.487C69.4145 124.487 73.1733 126.84 75.8775 131.544Z" fill="black"/>
<path d="M0.146484 146.065C0.146484 140.166 2.30084 135.1 6.60956 130.866C10.9002 126.632 16.0563 124.515 22.0777 124.515C28.0269 124.515 33.1289 126.65 37.3835 130.92C41.6562 135.19 43.7925 140.32 43.7925 146.309C43.7925 152.335 41.6471 157.447 37.3565 161.644C33.0478 165.86 27.8466 167.968 21.7532 167.968C16.3628 167.968 11.5222 166.096 7.23152 162.35C2.50816 158.206 0.146484 152.778 0.146484 146.065ZM6.50139 146.147C6.50139 150.779 8.0518 154.588 11.1526 157.573C14.2354 160.559 17.796 162.052 21.8343 162.052C26.2151 162.052 29.9109 160.532 32.9216 157.492C35.9322 154.416 37.4376 150.67 37.4376 146.255C37.4376 141.786 35.9503 138.04 32.9756 135.018C30.019 131.979 26.3593 130.459 21.9965 130.459C17.6518 130.459 13.983 131.979 10.9904 135.018C7.99772 138.022 6.50139 141.732 6.50139 146.147Z" fill="black"/>
</svg>
