<svg width="213" height="225" viewBox="0 0 213 225" fill="none" xmlns="http://www.w3.org/2000/svg">
<g clip-path="url(#clip0_8259_5723)">
<path d="M100.269 0.00292969L114.522 0.309156C114.522 0.309156 114.484 3.67765 114.484 5.3619C111.664 5.32362 108.882 5.32362 106.062 5.28534C106.062 6.47197 106.024 7.6586 106.024 8.84522C108.577 8.84522 111.131 9.07489 113.684 8.96006C113.684 10.6826 113.684 12.3668 113.646 14.0894C111.016 14.1659 108.387 13.9745 105.795 14.0894C105.795 15.3908 105.757 16.654 105.757 17.9555C108.653 18.032 111.55 17.9172 114.484 18.2617C114.56 19.9842 114.484 21.745 114.484 23.4675C109.644 23.4293 104.766 23.3144 99.926 23.3144C100.078 16.5392 99.926 9.80218 100.193 3.0652C100.231 2.03168 100.269 0.00292969 100.269 0.00292969Z" fill="#0D2237"/>
<path d="M78.1647 3.33301C80.68 10.6442 83.3859 17.8788 86.0155 25.1134C85.4819 25.2665 84.9484 25.4579 84.4148 25.6493C80.4895 23.8502 76.526 22.0128 72.6006 20.2137C71.4191 19.6396 70.1996 19.1037 68.9038 18.7592C69.7804 22.5487 71.6097 26.0703 72.6387 29.8216C70.9237 30.6637 69.0563 31.1996 67.2651 31.8886C64.9022 25.611 62.7299 19.2568 60.4052 12.9791C60.0241 11.9839 59.6811 10.9887 59.4143 9.99344C60.2146 9.80205 60.8625 9.34271 61.7009 9.80205C64.826 11.1035 67.8749 12.5581 70.9999 13.8595C72.7911 14.5868 74.3918 15.5055 76.2973 15.9649C75.2683 12.405 73.8582 8.88337 72.5625 5.40004C74.4299 4.67275 76.2592 3.90718 78.1647 3.33301Z" fill="#0D2237"/>
<path d="M135.598 4.06055C138.684 5.09406 141.657 6.31897 144.706 7.46732C146.764 8.23288 148.593 9.34296 149.66 11.3334C151.185 14.166 150.766 18.0321 148.708 20.5202C147.602 21.9748 146.116 22.7786 144.439 23.3528C144.782 26.3003 145.964 32.0803 145.964 32.0803L146.04 32.6545L139.904 30.3195C139.904 30.3195 139.104 24.9222 138.837 22.2428C137.808 21.7834 136.779 21.3624 135.75 20.903C134.683 23.0466 133.959 25.4199 133.12 27.64C131.215 27.1424 129.347 26.3385 127.518 25.573C129.652 20.3671 131.482 15.0464 133.54 9.8023C134.226 7.92666 135.064 6.01274 135.598 4.06055ZM138.303 13.5153C137.96 14.4723 137.503 15.3909 137.351 16.3862C138.684 17.0752 140.323 17.6494 141.771 18.0704C144.515 18.6446 146.307 13.9364 143.791 12.6349C142.381 12.0224 140.857 11.2952 139.332 11.0272C138.875 11.7545 138.646 12.7114 138.303 13.5153Z" fill="#0D2237"/>
<path d="M42.4171 20.0986C42.9126 21.4767 43.065 22.9695 43.3699 24.3858C43.9797 27.8309 44.6657 31.2376 45.2754 34.721C45.5422 36.4818 47.0285 37.4387 48.0956 38.7785C49.2008 40.1565 50.4585 41.3814 51.5256 42.7977C50.0392 44.0226 48.6292 45.324 47.181 46.5872C45.2373 44.5585 43.4842 42.3766 41.6549 40.2713C41.007 39.4292 39.7113 39.2761 38.7585 38.9316C34.452 37.5153 30.1836 36.1755 25.9534 34.6444C27.3635 32.9602 29.1547 31.6204 30.8315 30.1658C33.6898 31.1228 36.4719 32.386 39.3683 33.1515C38.911 30.2041 38.0725 27.3332 37.539 24.3858C37.8439 23.8499 38.4155 23.4671 38.8729 23.0461C40.1305 22.1274 41.0452 20.9025 42.4171 20.0986Z" fill="#0D2237"/>
<path d="M169.783 26.0324C175.27 25.152 180.682 28.5205 182.854 33.535C183.998 36.3293 183.731 39.5064 182.283 42.1093C180.911 40.8079 179.501 39.5447 178.129 38.2432C178.129 37.248 178.319 35.9848 177.862 35.1044C176.757 32.9608 174.546 31.3531 172.069 31.468C169.668 31.6594 167.648 33.2288 166.429 35.2192C165.59 36.559 165.057 38.2049 165.552 39.7744C166.01 41.5734 167.267 42.8749 168.792 43.8319C170.011 44.7123 171.841 44.5209 173.212 44.0615C172.069 42.8366 170.773 41.7648 169.63 40.5399C170.735 39.3533 171.879 38.2432 172.908 36.98C175.537 39.4299 178.205 41.8414 180.835 44.3295C178.51 47.3152 175.309 49.9564 171.307 49.9564C165.857 49.8033 160.827 45.0568 159.912 39.7361C158.692 33.535 163.723 27.1042 169.783 26.0324Z" fill="#0D2237"/>
<path d="M16.1588 51.2195C17.8357 50.8367 19.3982 51.2578 20.8845 51.9851C20.0461 53.5545 19.1314 55.0473 18.293 56.6167C17.6451 56.655 16.8829 56.5402 16.3113 56.7699C14.8631 57.6885 13.7197 59.4876 13.9103 61.2101C14.2152 62.0905 15.206 62.9709 16.1969 62.7413C17.0735 62.5882 17.7976 61.7078 18.293 61.057C19.665 59.1048 21.3418 56.6933 23.5142 55.5449C25.9151 54.2435 28.8496 55.1622 30.7933 56.8847C32.2415 58.2244 32.775 60.0618 32.8894 61.9757C32.775 64.6935 31.8223 67.3347 30.1073 69.44C28.621 71.4304 26.3343 73.153 23.7809 73.2295C22.5995 73.2295 21.1132 73.0764 20.1985 72.3109C20.8845 70.7032 21.9135 69.2103 22.7519 67.6409C25.2672 68.1385 26.8679 65.8418 27.4395 63.6982C27.8588 62.3585 27.2109 60.7891 25.6865 60.6742C23.8953 60.636 22.9806 62.435 22.1041 63.6982C20.6177 65.9949 18.5979 67.9854 15.8158 68.483C12.5764 68.6361 9.22269 66.0332 8.72725 62.7413C8.1937 60.2149 9.2608 57.3823 10.6328 55.2387C11.9666 53.3248 13.8722 51.6406 16.1588 51.2195Z" fill="#0D2237"/>
<path d="M198.061 50.875C198.061 50.875 200.042 54.6646 201.033 56.5785C199.357 59.1431 195.965 64.1959 195.965 64.1959L205.111 64.6169L207.931 70.2821L191.734 69.7079C191.734 69.7079 186.437 72.3874 183.846 73.6506C182.931 71.9281 182.092 70.1673 181.14 68.4448C183.426 67.3347 189.257 63.9662 189.257 63.9662L195.927 53.7459L198.061 50.875Z" fill="#0D2237"/>
<path d="M106.29 58.7598C106.367 65.2288 106.214 71.6978 106.367 78.1286C106.176 78.2817 105.986 78.4731 105.757 78.6262C103.546 80.1956 101.107 81.4205 98.7827 82.8751C96.4579 84.368 94.0951 85.8225 91.6941 87.2006C82.6238 92.7126 73.6678 98.1482 64.5975 103.699C63.9115 101.555 63.5304 99.3731 62.9206 97.2295C62.1965 93.6313 61.2818 90.0332 60.7483 86.3967C61.0151 86.0522 61.4724 85.7843 61.8154 85.5546C64.6737 83.8703 67.532 82.1478 70.3522 80.387C74.8111 77.8607 79.0795 75.0663 83.4622 72.5017C87.9211 69.6691 92.5325 67.0662 96.9915 64.2718C100.155 62.4728 103.051 60.4057 106.29 58.7598Z" fill="#0D2237"/>
<path d="M106.29 58.7598C113.379 62.9321 120.391 67.3341 127.442 71.5447C135.521 76.5209 143.715 81.3823 151.794 86.3967C150.689 92.215 149.432 97.995 147.983 103.737C134.911 95.8132 121.839 87.8896 108.806 79.9277C107.929 79.3918 107.091 78.8559 106.176 78.4348L105.795 78.6645C105.985 78.5114 106.214 78.32 106.405 78.1669C106.214 71.6978 106.367 65.2288 106.29 58.7598Z" fill="#0D2237"/>
<path d="M106.176 86.0146C106.405 88.5027 106.29 91.0674 106.252 93.5938C104.652 94.4742 103.089 95.4694 101.565 96.4646C92.5325 101.747 83.6909 107.336 74.6968 112.695C72.6007 114.111 70.3522 115.068 68.4085 116.676C67.5701 114.57 66.9222 112.388 66.3887 110.207C69.8948 108.216 73.2486 105.996 76.7547 104.005C80.642 101.517 84.6817 99.2207 88.6071 96.8091C94.4381 93.1344 100.383 89.7276 106.176 86.0146Z" fill="#0D2237"/>
<path d="M106.176 86.0146C119.515 94.0914 132.815 102.245 146.192 110.283C145.468 112.35 145.087 114.609 144.058 116.561C138.913 113.231 133.578 110.207 128.394 106.953C121.001 102.513 113.684 97.9575 106.252 93.5555C106.29 91.0674 106.405 88.5027 106.176 86.0146Z" fill="#0D2237"/>
<path d="M106.252 101.173C106.328 103.699 106.328 106.226 106.252 108.752C104.575 109.594 103.013 110.589 101.412 111.585C91.9226 117.211 82.2425 123.336 72.6006 128.963C71.9527 126.896 71.0761 124.905 70.3901 122.877C82.3569 115.68 94.3236 108.331 106.252 101.173Z" fill="#0D2237"/>
<path d="M106.252 101.173C117.114 107.757 128.013 114.379 138.875 120.963C139.904 121.613 141.047 122.149 141.962 122.915C141.466 124.982 140.552 127.049 139.751 129.039C130.148 123.03 120.353 117.25 110.711 111.317C109.225 110.436 107.815 109.518 106.29 108.752C106.328 106.226 106.328 103.699 106.252 101.173Z" fill="#0D2237"/>
<path d="M8.87979 115.91C9.90877 117.748 10.7853 119.623 11.6619 121.537C13.7198 121.69 15.7778 122.073 17.7977 122.417C16.3495 123.795 14.825 125.174 13.4531 126.628C13.4531 128.695 14.1772 130.762 14.3677 132.867C12.5384 131.911 10.7091 130.992 8.87979 129.997C7.05048 130.954 5.22117 131.911 3.39187 132.867C3.62053 130.8 4.07786 128.81 4.38274 126.781C2.89643 125.365 1.41012 123.91 -0.0380859 122.417C1.86744 122.035 3.81108 121.843 5.75472 121.499C6.17394 121.384 6.4026 120.848 6.59315 120.504C7.16481 119.317 7.73647 118.092 8.34624 116.905C8.53679 116.561 8.72735 116.255 8.87979 115.91Z" fill="#0D2237"/>
<path d="M106.214 116.254C106.405 118.78 106.214 121.268 106.328 123.795C103.28 125.364 100.459 127.355 97.4487 129.039C90.9699 133.02 84.453 136.962 77.9361 140.905C76.9452 138.991 75.9924 137.077 75.2302 135.087C85.5582 128.809 95.8862 122.493 106.214 116.254Z" fill="#0D2237"/>
<path d="M106.214 116.254C116.542 122.493 126.908 128.809 137.236 135.087C136.398 137.039 135.483 138.991 134.568 140.905C125.117 135.24 115.742 129.46 106.328 123.795C106.252 121.268 106.405 118.742 106.214 116.254Z" fill="#0D2237"/>
<path d="M204.158 115.91C205.149 117.709 205.911 119.661 206.979 121.422C208.96 121.843 211.056 121.958 213.038 122.417C211.59 123.91 210.142 125.365 208.655 126.781C208.998 128.81 209.418 130.839 209.684 132.906C207.855 131.987 206.026 130.839 204.12 130.073C202.291 130.915 200.5 131.987 198.67 132.867C198.861 130.915 199.433 128.963 199.585 127.011C199.661 126.513 199.09 126.169 198.823 125.824C197.603 124.714 196.46 123.528 195.202 122.417C197.222 122.073 199.28 121.69 201.338 121.537C202.177 120.044 202.824 118.437 203.625 116.944C203.777 116.599 203.968 116.255 204.158 115.91Z" fill="#0D2237"/>
<path d="M106.252 131.336C106.367 138.953 106.29 146.609 106.29 154.226C100.764 153.04 95.3907 150.781 89.9028 149.403C87.3494 148.638 84.6054 148.791 81.9377 148.37C81.5947 147.834 81.2517 147.298 80.9087 146.762C85.7868 143.623 90.8937 140.714 95.8099 137.652C99.3542 135.661 102.708 133.365 106.252 131.336Z" fill="#0D2237"/>
<path d="M106.252 131.336C114.446 136.274 122.64 141.327 130.795 146.226C131.1 146.379 131.291 146.609 131.443 146.839C131.024 147.872 130.414 148.714 129.538 149.365C126.908 151.432 124.24 153.269 121.001 154.226C118.295 154.992 115.399 155.528 112.617 155.26C110.482 155.03 108.386 154.686 106.29 154.226C106.29 146.609 106.367 138.992 106.252 131.336Z" fill="#0D2237"/>
<path d="M80.9089 150.819C83.043 151.049 85.101 151.125 87.159 151.776C92.6469 153.422 97.9443 155.642 103.47 157.212C106.214 157.748 108.653 158.513 111.474 158.475C115.208 158.628 119.134 157.862 122.411 156.025C124.736 154.877 126.642 153.269 128.738 151.853C126.603 155.451 123.936 158.934 120.506 161.384C118.067 163.374 115.208 164.37 112.16 165.059C109.454 165.403 106.481 165.25 103.813 164.599C94.4381 162.724 86.5492 157.556 76.7167 156.561C73.4392 155.948 70.1617 156.063 66.8842 156.14C65.0167 156.178 63.2255 156.599 61.3962 156.791C61.8917 156.216 62.4633 155.795 63.1112 155.413C68.3705 151.967 74.6587 150.436 80.9089 150.819Z" fill="#0D2237"/>
<path d="M84.3005 162.915C86.0155 163.604 87.5399 164.714 89.293 165.365C94.3236 167.738 99.8115 169.001 105.338 168.963C110.292 168.772 114.675 167.317 119.4 166.016C122.144 165.441 125.003 164.906 127.823 164.944C130.148 165.135 132.587 165.48 134.873 165.901C137.312 166.59 139.79 167.394 142.038 168.542C136.969 167.929 131.863 168.274 126.984 169.767C121.878 171.26 117.19 173.442 111.816 173.977C106.443 174.437 100.764 174.169 95.8099 171.796C91.3891 169.843 87.2732 166.743 84.3005 162.915Z" fill="#0D2237"/>
<path d="M169.783 176.16C174.47 176.313 178.624 180.868 178.243 185.615C178.205 187.682 177.1 189.711 175.575 191.05C174.546 192.046 172.336 194.036 172.336 194.036C172.336 194.036 175.08 197.481 175.995 198.63C174.623 199.969 171.612 202.457 171.612 202.457L156.406 185.041C156.406 185.041 162.008 180.026 164.981 177.691C166.353 176.619 168.029 176.16 169.783 176.16ZM168.639 190.247C168.639 190.247 171.193 188.18 172.298 186.955C173.327 185.615 172.488 183.816 171.459 182.744C170.469 181.672 168.754 181.098 167.534 182.17C166.505 183.127 164.333 185.156 164.333 185.156L168.639 190.247Z" fill="#0D2237"/>
<path d="M51.3348 184.772C52.1733 187.375 51.8684 190.017 50.6489 192.428C49.2007 191.127 47.6762 189.94 46.3043 188.562C46.3424 187.528 46.4948 186.418 45.9994 185.5C44.7417 183.126 42.1121 181.366 39.3681 181.978C35.7476 182.782 32.5844 186.993 33.8802 190.782C34.6043 192.619 36.6242 194.419 38.4916 194.916C40.5877 195.375 41.6167 194.495 41.6167 194.495L41.045 193.921L37.8437 191.127L41.0831 187.375C41.0831 187.375 46.6091 192.084 49.2007 194.61C46.9902 197.787 43.789 200.199 39.8255 200.428C33.9564 200.237 28.5828 195.184 27.8968 189.328C27.2109 183.701 31.4792 178.189 36.7004 176.581C42.7219 175.011 49.3531 178.954 51.3348 184.772Z" fill="#0D2237"/>
<path d="M145.659 192.007C147.526 196.715 149.355 201.462 151.185 206.208C151.909 208.045 152.061 209.959 151.299 211.835C150.27 214.514 147.831 216.237 145.277 217.271C142.305 218.419 138.608 218.495 136.017 216.505C134.492 215.357 133.882 213.749 133.196 212.026C131.558 207.586 129.728 203.261 128.128 198.782C129.995 198.17 131.786 197.404 133.577 196.677C135.483 201.423 137.274 206.246 139.18 211.031C139.599 212.18 140.78 212.869 141.962 212.792C142.915 212.754 143.867 212.409 144.591 211.835C144.973 211.529 145.277 211.184 145.544 210.801C145.773 210.419 145.887 209.998 145.925 209.538C145.963 209.041 145.849 208.581 145.659 208.122C145.316 207.395 145.087 206.629 144.782 205.864C144.325 204.639 143.829 203.452 143.372 202.227C142.419 199.816 141.466 197.404 140.552 194.954C140.514 194.878 140.209 194.036 140.209 194.036C142.038 193.385 143.829 192.581 145.659 192.007Z" fill="#0D2237"/>
<path d="M65.817 192.505C68.2561 193.462 70.7714 194.381 73.2105 195.299C75.5733 196.218 77.8219 196.869 79.3844 199.05C81.9378 202.381 81.0994 207.204 78.1649 209.998C77.1359 210.917 75.9163 211.414 74.6587 211.95C75.0779 214.056 75.8782 218.228 75.8782 218.228L76.488 221.214L70.0854 218.802L69.2089 212.448L68.904 210.802C68.904 210.802 66.7698 209.845 65.7408 209.577C64.8643 211.835 64.0258 214.094 63.1874 216.314C61.3581 215.548 59.5288 214.859 57.6614 214.247C60.291 206.974 63.0731 199.739 65.817 192.505ZM67.3796 204.869C68.9421 205.481 70.5427 206.247 72.2196 206.63C74.773 206.859 76.4118 202.649 74.1633 201.271C72.6769 200.582 71.0382 199.854 69.4375 199.51C68.7134 201.232 68.1037 203.07 67.3796 204.869Z" fill="#0D2237"/>
<path d="M103.203 201.04C106.862 200.428 110.978 201.423 113.684 204.026C116.199 206.284 117.419 209.844 117.228 213.136C117.381 216.198 116.123 219.261 114.065 221.481C111.626 223.931 108.348 224.888 104.995 225.002C101.908 224.773 98.8589 223.854 96.6485 221.519C94.6667 219.605 93.6758 217.002 93.4472 214.285C93.0661 210.686 93.9807 206.935 96.6485 204.37C98.4015 202.533 100.726 201.538 103.203 201.04ZM103.28 206.859C99.1256 208.275 98.2491 213.825 100.688 217.079C102.517 219.452 106.214 220.026 108.653 218.304C112.236 216.007 112.236 209.806 108.691 207.509C107.167 206.399 104.995 206.361 103.28 206.859Z" fill="#0D2237"/>
</g>
<defs>
<clipPath id="clip0_8259_5723">
<rect width="213" height="225" fill="white" transform="translate(0 0.00292969)"/>
</clipPath>
</defs>
</svg>
