<svg width="509" height="132" viewBox="0 0 509 132" fill="none" xmlns="http://www.w3.org/2000/svg">
<g clip-path="url(#clip0_8261_5834)">
<path d="M16.2804 44.3108H16.5343L16.8729 43.7199L14.9262 41.103C10.948 35.8692 6.1235 30.7199 0.621826 25.9082V41.6095C5.02316 42.7069 9.33986 43.5511 13.318 43.8887C13.2333 44.0575 14.7569 44.142 16.2804 44.3108Z" fill="#0D2237"/>
<path d="M42.0115 51.0636L37.5255 43.2973C42.35 34.4337 49.7985 25.8233 61.225 16.3687L64.9492 22.9532C57.924 28.609 51.6606 34.9402 46.836 41.3558L44.8893 43.9727L45.2278 44.5636H45.4818C47.0053 44.3947 48.5288 44.3103 48.5288 44.3103C56.1465 43.5506 64.6106 41.5246 73.6672 38.148L77.3914 44.7324C63.2564 49.3752 52.1684 51.4856 42.0115 51.0636ZM73.5826 66.5116C65.1185 63.3882 56.4851 61.2778 48.4442 60.3493L45.2278 60.0116L44.8893 60.6025L45.0586 60.7713C45.9896 61.9532 46.836 63.2194 46.836 63.2194C51.4066 69.3817 57.4162 75.6285 64.9492 81.622L61.225 88.2064C49.8831 78.6674 42.35 70.1415 37.6101 61.1934L42.0961 53.4272C52.253 53.0051 63.341 55.0311 77.3914 60.0116L73.5826 66.5116ZM39.6415 96.3103C38.2026 87.4467 35.748 78.8363 32.5317 71.4921L31.2621 68.5376H30.5849L30.5003 68.7064C29.9078 70.0571 29.2307 71.4921 29.2307 71.4921C26.099 78.4986 23.729 86.8558 22.2055 96.3103H14.5878C17.2116 81.7908 21.0205 70.9856 26.3529 62.4597H35.3248C40.7419 70.9856 44.4661 81.7908 47.0899 96.3103H39.6415ZM14.6724 8.09603H22.2901C23.8136 17.5506 26.1836 25.9077 29.3153 32.9142C29.3153 32.9142 29.9924 34.2649 30.5849 35.6999L30.6696 35.8688H31.3467L32.6163 32.9142C35.748 25.57 38.2026 16.9597 39.7262 8.09603H47.3439C44.72 22.6155 40.9111 33.4207 35.5788 41.9467H26.6068C21.1051 33.3363 17.2963 22.6155 14.6724 8.09603ZM0.537354 -1.52734V16.1999C11.8793 25.7389 19.3277 34.2649 24.1522 43.1285L19.6662 50.8947C13.7414 51.148 7.47792 50.4726 0.537354 48.9532V55.1155C7.47792 53.596 13.7414 53.0051 19.6662 53.2584L24.0676 61.0246C19.3277 69.8882 11.7946 78.4142 0.537354 87.8688V105.765L152.891 97.9986V6.23887L0.537354 -1.52734Z" fill="#0D2237"/>
<path d="M14.8417 63.1346C14.8417 63.1346 15.6881 61.8683 16.6192 60.6865L16.7884 60.5177L16.4499 59.9268L13.2335 60.2644C9.17074 60.6865 4.85405 61.5307 0.537354 62.5436V78.1605C6.29295 73.2644 11.1175 68.1995 14.8417 63.1346Z" fill="#0D2237"/>
<path d="M48.444 44.0568C48.444 44.0568 46.9205 44.1412 45.3969 44.31H45.143L44.8044 43.7191L46.7512 41.1023C51.5757 34.6867 57.8392 28.3555 64.8644 22.6996L61.1402 16.1152C49.7983 25.5698 42.2652 34.1802 37.4407 43.0438L41.9266 50.81C52.0836 51.2321 63.1716 49.2061 77.222 44.31L73.4978 37.7256C64.5258 41.2711 56.1464 43.2971 48.444 44.0568Z" fill="white"/>
<path d="M24.0676 61.193L19.6662 53.4268C13.7414 53.1736 7.47792 53.7645 0.537354 55.2839V62.7125C4.85405 61.6151 9.17074 60.8554 13.2335 60.4333L16.4499 60.0956L16.7884 60.6865L16.6192 60.8554C15.6881 62.0372 14.8417 63.3034 14.8417 63.3034C11.1175 68.3684 6.29295 73.4333 0.537354 78.4138V88.1216C11.7946 78.5826 19.3277 70.0567 24.0676 61.193Z" fill="white"/>
<path d="M42.0114 53.4274L37.5254 61.1936C42.2653 70.0572 49.7983 78.6676 61.1403 88.2066L64.8645 81.6222C57.416 75.5442 51.3219 69.3819 46.7513 63.2195C46.7513 63.2195 45.9049 61.9533 44.9738 60.7715L44.8045 60.6027L45.1431 60.0118L48.3595 60.3494C56.3157 61.278 65.0337 63.3884 73.4978 66.5118L77.2221 59.9273C63.2563 55.0312 52.1683 53.0053 42.0114 53.4274Z" fill="white"/>
<path d="M19.6662 50.979L24.1521 43.2127C19.4122 34.3491 11.8792 25.7387 0.537276 16.2842V26.0764C5.95431 30.8881 10.8635 36.0374 14.8416 41.2712L16.7884 43.8881L16.4498 44.479H16.1959C14.6723 44.3101 13.1488 44.1413 13.1488 44.1413C9.17067 43.7192 4.85397 42.9595 0.452637 41.8621V49.2063C7.47785 50.6413 13.7413 51.2322 19.6662 50.979Z" fill="white"/>
<path d="M26.4375 62.46C21.1051 70.9859 17.2962 81.7911 14.6724 96.3106H22.2901C23.8136 86.8561 26.1835 78.4989 29.3153 71.4924C29.3153 71.4924 29.9924 70.1418 30.5849 68.7067L30.6695 68.5379H31.3467L32.6163 71.4924C35.748 78.8366 38.2026 87.447 39.7261 96.3106H47.3438C44.7199 81.7911 40.9111 70.9859 35.5787 62.46H26.4375Z" fill="white"/>
<path d="M35.4093 41.9464C40.8263 33.4204 44.5505 22.6152 47.1744 8.0957H39.5567C38.1178 16.9593 35.6632 25.5697 32.4468 32.9139L31.1772 35.8684H30.5001L30.4155 35.6996C29.823 34.349 29.1458 32.9139 29.1458 32.9139C26.0141 25.9074 23.6442 17.5502 22.1206 8.0957H14.5029C17.1268 22.6152 20.9357 33.4204 26.268 41.9464H35.4093Z" fill="white"/>
<path d="M190.387 112.518C177.945 93.3557 171.766 69.7194 168.55 48.9531H187.594C189.71 61.6155 193.519 80.3557 198.936 94.3687C198.936 94.3687 199.782 96.3947 200.375 97.9986H200.713C201.391 96.3947 202.068 94.3687 202.068 94.3687C207.569 80.3557 211.378 61.6155 213.41 48.9531H232.623C229.322 69.7194 223.143 93.3557 210.701 112.518H190.387Z" fill="#0D2237"/>
<path d="M234.401 113.447C228.984 113.447 224.836 109.226 224.836 103.908C224.836 98.2517 228.814 94.2842 234.401 94.2842C240.072 94.2842 244.05 98.2517 244.05 103.908C244.05 109.31 239.818 113.447 234.401 113.447Z" fill="#0D2237"/>
<path d="M307.192 77.4856V112.771H299.997L296.95 109.057C290.941 112.18 284.254 113.531 277.483 113.531C258.777 113.531 246.081 101.46 246.081 80.8622C246.081 60.2648 258.777 48.1934 277.483 48.1934C291.787 48.1934 303.214 55.031 306.261 69.2973H286.455C285.439 64.4856 282.054 62.2064 277.483 62.2064C269.696 62.2064 265.125 68.7064 265.125 80.8622C265.125 93.1025 269.696 99.518 277.483 99.518C281.122 99.518 284.677 98.5051 288.232 96.4791V88.544H278.922V77.4856H307.192Z" fill="#0D2237"/>
<path d="M346.381 64.739V79.5962C344.349 79.1741 340.54 78.2455 337.832 78.2455C333.261 78.2455 330.553 80.5247 330.553 85.6741V112.518H312.694V64.3169H319.465L325.305 71.7455C328.268 67.0182 332.923 63.6416 339.017 63.6416C342.064 63.726 344.18 64.2325 346.381 64.739Z" fill="#0D2237"/>
<path d="M382.607 88.6282C382.607 83.5632 381.422 76.3879 374.905 76.3879C368.303 76.3879 367.118 83.4788 367.118 88.6282C367.118 93.6931 368.303 100.868 374.905 100.868C381.338 100.784 382.607 93.6931 382.607 88.6282ZM400.466 88.6282C400.466 104.329 390.394 113.531 374.905 113.531C359.415 113.531 349.259 104.329 349.259 88.6282C349.259 72.9269 359.415 63.7256 374.905 63.7256C390.309 63.7256 400.466 72.9269 400.466 88.6282Z" fill="#0D2237"/>
<path d="M404.783 92.9335V64.6543H422.642V91.3296C422.642 98.2517 424.335 100.784 428.652 100.784C432.884 100.784 435.423 96.8166 435.423 92.427V64.6543H453.282V112.771H447.019L441.179 105.765C436.608 110.914 430.937 113.531 424.081 113.531C410.792 113.446 404.783 104.33 404.783 92.9335Z" fill="#0D2237"/>
<path d="M490.524 88.6282C490.524 84.0698 489.678 76.3879 483.584 76.3879C477.49 76.3879 476.559 84.0698 476.559 88.6282C476.559 93.1866 477.49 100.868 483.584 100.868C489.678 100.868 490.524 93.1866 490.524 88.6282ZM508.384 88.6282C508.384 101.122 502.882 113.531 488.662 113.531C484.346 113.531 480.283 112.349 476.982 109.648H476.643V130.329H458.784V64.4853H465.047L471.057 71.8295C474.866 66.2581 480.791 63.81 487.393 63.81C502.12 63.7256 508.384 75.2905 508.384 88.6282Z" fill="#0D2237"/>
</g>
<defs>
<clipPath id="clip0_8261_5834">
<rect width="509" height="132" fill="white" transform="translate(0 0.00292969)"/>
</clipPath>
</defs>
</svg>
