<svg width="259" height="67" viewBox="0 0 259 67" fill="none" xmlns="http://www.w3.org/2000/svg">
<g clip-path="url(#clip0_8259_5587)">
<path d="M54.9467 31.4795C54.9467 32.6971 54.9467 34.0564 55.0496 35.551C54.6475 34.2329 54.1618 32.9418 53.5956 31.6856L50.4365 24.7344H45.5918L45.1736 31.9755C45.1214 33.2215 45.1493 34.4696 45.2572 35.7121C44.9117 34.4141 44.4819 33.1401 43.9704 31.8982L40.9272 24.7344H35.8315L43.4622 42.2381H48.9246L49.1304 35.493C49.1814 34.0643 49.1168 32.6337 48.9374 31.2153C49.4457 32.8775 49.954 34.4365 50.488 35.6734L53.2289 42.2317H59.0837L59.9073 24.7344H55.069L54.9467 31.4795Z" fill="#0D2237"/>
<path d="M79.4407 36.0794C71.7972 30.4746 68.9534 20.1669 72.4727 17.1261C53.9688 5.87141 46.1452 14.9422 32.4409 13.0481C26.2065 12.1849 24.7202 7.31449 9.58122 8.43545L9.52331 8.37747C10.1281 7.8492 10.5849 6.3868 10.482 5.19497C10.3349 3.78966 9.68031 2.4865 8.64129 1.53035C7.60227 0.574205 6.25031 0.0308819 4.83942 0.00246983C4.1727 -0.00739959 3.51145 0.124216 2.89919 0.388654C2.28693 0.653093 1.73753 1.04436 1.28716 1.53671C0.836782 2.02905 0.495639 2.61132 0.286177 3.24518C0.0767159 3.87904 0.0036849 4.55014 0.0718904 5.2143C0.131121 6.24092 0.481599 7.22931 1.08219 8.06347C1.68277 8.89763 2.50854 9.54293 3.46256 9.92362C3.74566 10.0525 16.4398 62.5508 17.8424 66.719H21.5869L5.34127 7.61084L5.25763 7.53997C4.66166 7.48261 4.10431 7.21899 3.68154 6.7945C3.25877 6.37 2.99704 5.8112 2.94142 5.2143C2.90943 4.91543 2.9413 4.61317 3.0349 4.32758C3.12851 4.04199 3.2817 3.7796 3.48433 3.55782C3.68695 3.33605 3.93436 3.15997 4.21014 3.04126C4.48593 2.92255 4.78377 2.86393 5.08391 2.8693C5.72149 2.87629 6.33379 3.12002 6.80213 3.55327C7.27048 3.98652 7.56152 4.57843 7.61887 5.2143C7.66077 5.63349 7.57733 6.0557 7.37916 6.42734C7.18098 6.79897 6.877 7.10327 6.50581 7.3016V7.41757L24.9068 66.719H29.0245C26.7212 59.8064 17.3984 32.5748 12.5473 17.8992L12.5987 17.8348C16.6006 23.6715 19.3929 28.7867 22.8222 37.4387C24.5401 41.8388 26.882 50.7485 28.8958 56.5788L29.758 55.6769C30.9056 54.6635 32.2596 53.9122 33.7261 53.475C35.1926 53.0379 36.7365 52.9253 38.2507 53.1451C41.2425 53.3126 40.9466 55.4772 46.4733 56.5724C53.3254 57.9253 57.4109 53.7442 64.9451 52.9067C77.2789 51.5409 88.3259 56.5724 88.5768 56.5208C88.6154 56.4371 87.8369 42.206 79.4407 36.0794ZM63.6711 49.7306C55.3521 50.8967 53.3318 53.8151 47.7858 53.4092C43.681 53.1129 42.9668 50.2654 39.5697 49.5438C36.5015 48.9091 33.3099 49.3077 30.4914 50.6777C24.2763 23.7295 12.1162 11.8305 12.1162 11.8305C22.4104 9.89786 24.4371 15.5929 34.3261 16.2113C47.2454 16.9973 53.9945 10.5034 68.0462 18.0409C65.6142 23.1948 71.128 33.3543 75.5417 36.408C83.7128 42.0707 84.8773 51.9919 84.8516 52.0563C84.665 52.095 75.0206 48.1652 63.6711 49.7306ZM115.284 40.196L111.488 24.8633H106.572L102.931 40.196L99.3472 24.7409H94.1228L100.531 46.9927H104.919L108.934 30.5326L113.077 46.9927H117.587L123.629 24.7409H118.649L115.284 40.196ZM125.34 30.7194H129.696V46.9862H125.34V30.7194ZM125.276 24.7345H129.76V28.6643H125.276V24.7345ZM132.778 24.7345H137.134V46.9862H132.778V24.7345ZM149.461 30.2233C148.531 30.229 147.615 30.4495 146.784 30.8676C145.892 31.3193 145.123 31.9828 144.545 32.8003V24.7345H140.19V46.9862H144.545V37.2068C144.54 36.7475 144.642 36.2932 144.841 35.8797C145.026 35.493 145.274 35.1402 145.575 34.836C145.912 34.5452 146.294 34.3123 146.707 34.1467C147.169 33.9697 147.661 33.8843 148.155 33.8955C148.474 33.8828 148.792 33.9332 149.091 34.0437C149.39 34.1543 149.664 34.3228 149.898 34.5397C150.327 34.9692 150.542 35.7487 150.542 36.8782V46.9862H154.898V36.2405C154.898 34.1617 154.452 32.6392 153.559 31.6729C152.667 30.7065 151.301 30.2233 149.461 30.2233ZM165.301 30.2233C164.175 30.2103 163.056 30.4069 162.001 30.8031C161.027 31.1715 160.148 31.7525 159.427 32.5039C158.688 33.2862 158.121 34.2144 157.761 35.229C157.349 36.4041 157.148 37.6431 157.169 38.8882C157.169 41.6327 157.849 43.7522 159.208 45.2468C160.568 46.7414 162.597 47.4887 165.295 47.4887C167.534 47.4887 169.25 47.0163 170.442 46.0714C171.675 45.003 172.454 43.5023 172.617 41.8775H168.383C168.07 43.3334 167.053 44.0614 165.333 44.0614C164.814 44.0996 164.292 44.0197 163.807 43.8279C163.323 43.636 162.888 43.3371 162.535 42.9533C161.885 42.087 161.543 41.0281 161.563 39.9448H172.829V38.1667C172.829 35.7358 172.201 33.8031 170.944 32.3686C169.687 30.9341 167.806 30.219 165.301 30.2233ZM161.595 37.0457C161.612 36.5714 161.707 36.1033 161.878 35.6606C162.038 35.2455 162.277 34.865 162.58 34.5397C162.89 34.2089 163.268 33.9476 163.686 33.773C164.17 33.5762 164.689 33.4798 165.211 33.4896C165.682 33.4489 166.156 33.5113 166.601 33.6726C167.045 33.834 167.449 34.0903 167.785 34.4237C168.373 35.1638 168.666 36.0955 168.608 37.0393L161.595 37.0457ZM175.325 24.7345H179.681V46.9862H175.325V24.7345ZM201.215 30.2233C200.263 30.209 199.321 30.4303 198.475 30.8676C197.536 31.4003 196.727 32.1353 196.107 33.0193C195.839 32.1578 195.28 31.4171 194.524 30.9255C193.692 30.4651 192.758 30.2182 191.807 30.2069C190.857 30.1957 189.918 30.4204 189.075 30.8611C188.211 31.3476 187.483 32.0431 186.958 32.884V30.7194H182.731V46.9862H187.087V37.2068C187.081 36.7509 187.171 36.2989 187.35 35.8797C187.516 35.4906 187.754 35.1365 188.052 34.836C188.356 34.5172 188.721 34.2631 189.126 34.0887C189.507 33.9402 189.914 33.8658 190.323 33.8697C190.587 33.8681 190.85 33.9094 191.101 33.9921C191.353 34.0747 191.576 34.2266 191.745 34.4302C191.943 34.683 192.086 34.975 192.163 35.287C192.278 35.7503 192.33 36.2271 192.317 36.7043V47.012H196.673V37.0135C196.671 36.6036 196.761 36.1985 196.937 35.8281C197.111 35.4571 197.348 35.1192 197.638 34.8296C197.943 34.5108 198.308 34.2566 198.713 34.0823C199.094 33.9337 199.5 33.8594 199.909 33.8632C200.174 33.8618 200.437 33.9032 200.688 33.9856C200.939 34.0686 201.162 34.2204 201.331 34.4237C201.53 34.6765 201.672 34.9686 201.749 35.2805C201.864 35.7439 201.916 36.2206 201.904 36.6979V47.0055H206.26V36.1116C206.26 34.0329 205.831 32.5297 204.973 31.602C204.115 30.6743 202.862 30.2147 201.215 30.2233ZM221.81 38.8689C221.289 38.3976 220.682 38.0322 220.022 37.793C219.105 37.459 218.156 37.2194 217.191 37.0779L215.132 36.7236C214.469 36.6524 213.827 36.4463 213.247 36.118C213.079 35.982 212.948 35.8068 212.864 35.608C212.78 35.4093 212.745 35.1928 212.764 34.9778C212.77 34.7931 212.819 34.6123 212.906 34.4495C213.017 34.2461 213.179 34.0751 213.375 33.9534C213.653 33.7829 213.958 33.6609 214.276 33.5927C214.752 33.4891 215.237 33.4416 215.724 33.4509C216.513 33.386 217.303 33.5707 217.982 33.9792C218.489 34.3992 218.834 34.982 218.96 35.6284L222.82 35.1324C222.702 34.4648 222.499 33.8153 222.216 33.1997C221.928 32.5886 221.501 32.0544 220.967 31.6406C220.33 31.1606 219.607 30.8065 218.838 30.597C217.789 30.3169 216.706 30.1868 215.621 30.2105C214.659 30.2012 213.7 30.3225 212.771 30.5712C211.982 30.7762 211.233 31.1139 210.557 31.5698C209.959 31.981 209.463 32.5257 209.11 33.161C208.76 33.812 208.583 34.5416 208.595 35.2805C208.547 35.9287 208.653 36.5791 208.905 37.1782C209.156 37.7774 209.546 38.3082 210.043 38.7272C211.354 39.6185 212.867 40.1697 214.444 40.3313L216.683 40.705C217.272 40.7399 217.835 40.9661 218.285 41.3492C218.558 41.6453 218.707 42.0349 218.703 42.438C218.728 42.6917 218.682 42.9475 218.568 43.1756C218.454 43.4037 218.277 43.5947 218.059 43.7264C217.36 44.0355 216.596 44.1682 215.833 44.113C215.064 44.133 214.299 43.9835 213.594 43.6749C213.25 43.4951 212.958 43.2291 212.747 42.9028C212.537 42.5765 212.414 42.201 212.391 41.813H208.222C208.243 42.7768 208.504 43.7201 208.981 44.5575C209.408 45.2652 209.994 45.8631 210.693 46.3033C211.419 46.7524 212.221 47.0647 213.06 47.2246C213.978 47.404 214.911 47.4925 215.846 47.4887C218.274 47.4887 220.069 47.027 221.231 46.1036C221.791 45.6691 222.241 45.1083 222.544 44.4668C222.847 43.8254 222.995 43.1214 222.975 42.4122C222.986 41.7286 222.897 41.0471 222.711 40.3893C222.548 39.8127 222.238 39.2887 221.81 38.8689ZM232.716 30.2233C231.589 30.2103 230.47 30.4069 229.415 30.8031C228.442 31.1715 227.563 31.7525 226.842 32.5039C226.103 33.2862 225.535 34.2144 225.175 35.229C224.763 36.4041 224.563 37.6431 224.583 38.8882C224.583 41.6327 225.263 43.7522 226.623 45.2468C227.983 46.7414 230.011 47.4887 232.709 47.4887C234.948 47.4887 236.664 47.0163 237.857 46.0714C239.099 45.0073 239.887 43.5061 240.057 41.8775H235.823C235.51 43.3334 234.494 44.0614 232.774 44.0614C232.254 44.0996 231.732 44.0197 231.248 43.8279C230.763 43.636 230.328 43.3371 229.975 42.9533C229.307 42.0937 228.946 41.0341 228.952 39.9448H240.218V38.1667C240.218 35.7358 239.589 33.8031 238.333 32.3686C237.076 30.9341 235.204 30.219 232.716 30.2233ZM229.01 37.0457C229.026 36.5714 229.122 36.1033 229.293 35.6606C229.453 35.2455 229.691 34.865 229.994 34.5397C230.305 34.2089 230.682 33.9476 231.101 33.773C231.585 33.5762 232.104 33.4798 232.626 33.4896C233.097 33.4489 233.571 33.5113 234.015 33.6726C234.46 33.834 234.864 34.0903 235.199 34.4237C235.787 35.1638 236.081 36.0955 236.023 37.0393L229.01 37.0457ZM256.09 31.6729C255.198 30.7065 253.828 30.2233 251.979 30.2233C251.024 30.2208 250.081 30.4414 249.225 30.8676C248.291 31.3487 247.501 32.0689 246.935 32.9549V30.7194H242.701V46.9862H247.057V37.2068C247.052 36.7475 247.153 36.2933 247.353 35.8797C247.537 35.493 247.785 35.1402 248.086 34.836C248.425 34.5445 248.81 34.3116 249.225 34.1467C249.687 33.9697 250.179 33.8843 250.673 33.8955C250.992 33.8828 251.31 33.9332 251.609 34.0437C251.908 34.1543 252.182 34.3228 252.416 34.5397C252.845 34.9692 253.06 35.7487 253.06 36.8782V46.9862H257.428V36.2405C257.428 34.1617 256.982 32.6392 256.09 31.6729Z" fill="#0D2237"/>
</g>
<defs>
<clipPath id="clip0_8259_5587">
<rect width="258" height="67" fill="white" transform="translate(0.5 0.00292969)"/>
</clipPath>
</defs>
</svg>
